M48
; DRILL file {KiCad 9.0.2} date 2025-07-13T15:24:31+0200
; FORMAT={-:-/ absolute / metric / decimal}
; #@! TF.CreationDate,2025-07-13T15:24:31+02:00
; #@! TF.GenerationSoftware,Kicad,Pcbnew,9.0.2
; #@! TF.FileFunction,Plated,1,2,PTH
FMAT,2
METRIC
; #@! TA.AperFunction,Plated,PTH,ViaDrill
T1C0.300
; #@! TA.AperFunction,Plated,PTH,ComponentDrill
T2C0.600
; #@! TA.AperFunction,Plated,PTH,ComponentDrill
T3C0.700
; #@! TA.AperFunction,Plated,PTH,ComponentDrill
T4C0.800
; #@! TA.AperFunction,Plated,PTH,ComponentDrill
T5C0.920
; #@! TA.AperFunction,Plated,PTH,ComponentDrill
T6C1.000
; #@! TA.AperFunction,Plated,PTH,ComponentDrill
T7C1.100
; #@! TA.AperFunction,Plated,PTH,ComponentDrill
T8C1.200
; #@! TA.AperFunction,Plated,PTH,ComponentDrill
T9C1.500
; #@! TA.AperFunction,Plated,PTH,ComponentDrill
T10C1.800
; #@! TA.AperFunction,Plated,PTH,ComponentDrill
T11C2.300
; #@! TA.AperFunction,Plated,PTH,ComponentDrill
T12C2.400
; #@! TA.AperFunction,Plated,PTH,ComponentDrill
T13C3.200
; #@! TA.AperFunction,Plated,PTH,ComponentDrill
T14C3.500
%
G90
G05
T1
X116.116Y-85.09
X126.615Y-50.8
X207.27Y-43.18
X207.27Y-48.26
X207.27Y-53.34
X207.27Y-67.31
X207.27Y-72.39
X207.27Y-77.47
X207.27Y-85.09
X207.27Y-90.17
X207.27Y-96.52
X207.27Y-105.41
X207.27Y-110.49
X207.27Y-115.57
X207.27Y-128.27
X207.27Y-133.35
X207.27Y-138.43
X209.81Y-45.72
X209.81Y-50.8
X209.81Y-69.85
X209.81Y-74.93
X209.81Y-87.63
X209.81Y-93.98
X209.81Y-107.95
X209.81Y-113.03
X209.81Y-130.81
X209.81Y-135.89
X212.35Y-43.18
X212.35Y-53.34
X212.35Y-67.31
X212.35Y-77.47
X212.35Y-85.09
X212.35Y-96.52
X212.35Y-105.41
X212.35Y-115.57
X212.35Y-128.27
X212.35Y-138.43
X214.89Y-45.72
X214.89Y-50.8
X214.89Y-69.85
X214.89Y-74.93
X214.89Y-87.63
X214.89Y-93.98
X214.89Y-107.95
X214.89Y-113.03
X214.89Y-130.81
X214.89Y-135.89
X217.43Y-43.18
X217.43Y-48.26
X217.43Y-53.34
X217.43Y-67.31
X217.43Y-72.39
X217.43Y-77.47
X217.43Y-85.09
X217.43Y-90.17
X217.43Y-96.52
X217.43Y-105.41
X217.43Y-110.49
X217.43Y-115.57
X217.43Y-128.27
X217.43Y-133.35
X217.43Y-138.43
T2
X167.255Y-118.407
X167.255Y-120.407
X167.255Y-141.267
X167.255Y-143.267
T3
X108.2Y-34.925
X110.74Y-32.385
X110.74Y-37.465
T4
X97.405Y-124.46
X97.405Y-134.62
X101.215Y-124.46
X101.215Y-134.62
X105.025Y-124.46
X105.025Y-134.62
X107.565Y-74.93
X107.565Y-85.09
X107.565Y-87.63
X107.565Y-97.79
X110.105Y-129.62
X110.105Y-134.62
X111.375Y-107.315
X111.375Y-110.49
X111.375Y-113.665
X113.28Y-46.355
X113.28Y-48.895
X113.28Y-51.435
X113.28Y-53.975
X113.28Y-56.515
X113.28Y-59.055
X113.28Y-61.595
X113.28Y-64.135
X113.28Y-69.85
X113.28Y-72.39
X113.28Y-74.93
X113.28Y-77.47
X113.28Y-80.01
X113.28Y-82.55
X113.28Y-85.09
X113.28Y-87.63
X113.28Y-90.17
X113.28Y-92.71
X113.28Y-95.25
X113.28Y-97.79
X113.28Y-100.33
X113.28Y-102.87
X113.28Y-119.38
X113.28Y-121.92
X113.28Y-124.46
X113.28Y-127.0
X113.28Y-129.54
X113.28Y-132.08
X113.28Y-134.62
X114.63Y-43.18
X119.63Y-43.18
X120.9Y-46.355
X120.9Y-48.895
X120.9Y-51.435
X120.9Y-53.975
X120.9Y-56.515
X120.9Y-59.055
X120.9Y-61.595
X120.9Y-64.135
X120.9Y-69.85
X120.9Y-72.39
X120.9Y-74.93
X120.9Y-77.47
X120.9Y-80.01
X120.9Y-82.55
X120.9Y-85.09
X120.9Y-87.63
X120.9Y-90.17
X120.9Y-92.71
X120.9Y-95.25
X120.9Y-97.79
X120.9Y-100.33
X120.9Y-102.87
X120.9Y-119.38
X120.9Y-121.92
X120.9Y-124.46
X120.9Y-127.0
X120.9Y-129.54
X120.9Y-132.08
X120.9Y-134.62
X121.535Y-107.315
X121.535Y-110.49
X121.535Y-113.665
X124.075Y-107.315
X124.075Y-110.49
X124.075Y-113.665
X124.71Y-116.84
X124.71Y-127.0
X124.71Y-129.54
X124.71Y-134.54
X125.98Y-90.17
X125.98Y-95.17
X129.075Y-107.315
X129.075Y-110.49
X129.075Y-113.665
X132.965Y-75.565
X132.965Y-78.74
X132.965Y-93.345
X132.965Y-96.52
X132.965Y-116.205
X132.965Y-120.015
X132.965Y-139.065
X132.965Y-142.875
X136.14Y-67.31
X136.14Y-85.09
X136.14Y-106.68
X136.14Y-129.54
X138.045Y-71.12
X138.045Y-88.9
X138.045Y-111.76
X138.045Y-134.62
X139.315Y-33.1
X139.315Y-38.1
X140.585Y-71.12
X140.585Y-88.9
X140.585Y-111.76
X140.585Y-134.62
X141.855Y-58.42
X142.49Y-33.02
X142.49Y-38.1
X143.125Y-71.12
X143.125Y-75.565
X143.125Y-78.74
X143.125Y-88.9
X143.125Y-93.345
X143.125Y-96.52
X143.125Y-111.76
X143.125Y-116.205
X143.125Y-120.015
X143.125Y-134.62
X143.125Y-139.065
X143.125Y-142.875
X144.395Y-48.57
X144.395Y-53.57
X146.3Y-67.31
X146.3Y-70.485
X146.3Y-73.025
X146.3Y-75.565
X146.3Y-85.09
X146.3Y-88.265
X146.3Y-90.805
X146.3Y-93.345
X146.3Y-106.68
X146.3Y-111.125
X146.3Y-113.665
X146.3Y-116.205
X146.3Y-129.54
X146.3Y-133.985
X146.3Y-136.525
X146.3Y-139.065
X148.205Y-48.57
X148.205Y-53.57
X151.38Y-106.68
X151.38Y-120.015
X151.38Y-129.54
X151.38Y-142.875
X152.015Y-47.625
X152.015Y-50.165
X152.015Y-52.705
X152.015Y-55.245
X152.015Y-58.42
X152.65Y-33.02
X152.65Y-38.1
X153.92Y-70.485
X153.92Y-73.025
X153.92Y-75.565
X153.92Y-88.265
X153.92Y-90.805
X153.92Y-93.345
X153.92Y-111.125
X153.92Y-113.665
X153.92Y-116.205
X153.92Y-133.985
X153.92Y-136.525
X153.92Y-139.065
X157.73Y-67.31
X157.73Y-73.025
X157.73Y-78.74
X157.73Y-85.09
X157.73Y-90.805
X157.73Y-96.52
X157.73Y-111.76
X157.73Y-115.062
X157.73Y-134.62
X157.73Y-137.922
X159.635Y-47.625
X159.635Y-50.165
X159.635Y-52.705
X159.635Y-55.245
X161.54Y-106.68
X161.54Y-120.015
X161.54Y-129.54
X161.54Y-142.875
X164.08Y-41.91
X164.08Y-46.91
X164.08Y-50.245
X164.08Y-55.245
X164.08Y-107.95
X164.08Y-130.81
X166.62Y-107.95
X166.62Y-130.81
X167.89Y-50.165
X167.89Y-55.165
X167.89Y-67.31
X167.89Y-73.025
X167.89Y-78.74
X167.89Y-85.09
X167.89Y-90.805
X167.89Y-96.52
X167.89Y-111.76
X167.89Y-115.062
X167.89Y-134.62
X167.89Y-137.922
X169.16Y-107.95
X169.16Y-130.81
X169.795Y-41.91
X169.795Y-44.45
X169.795Y-46.99
X171.7Y-69.85
X171.7Y-78.105
X171.7Y-87.63
X171.7Y-95.885
X171.7Y-107.95
X171.7Y-113.03
X171.7Y-118.11
X171.7Y-130.81
X171.7Y-135.89
X171.7Y-140.97
X174.24Y-61.595
X174.24Y-69.85
X174.24Y-78.105
X174.24Y-87.63
X174.24Y-95.885
X174.24Y-107.95
X174.24Y-118.11
X174.24Y-130.81
X174.24Y-140.97
X175.55Y-44.45
X175.55Y-50.8
X176.78Y-69.85
X176.78Y-78.105
X176.78Y-87.63
X176.78Y-95.885
X176.78Y-107.95
X176.78Y-118.11
X176.78Y-130.81
X176.78Y-140.97
X178.05Y-44.45
X178.05Y-50.8
X179.32Y-69.85
X179.32Y-87.63
X179.32Y-107.95
X179.32Y-113.03
X179.32Y-130.81
X179.32Y-135.89
X181.86Y-40.64
X181.86Y-44.45
X181.86Y-47.625
X181.86Y-51.435
X184.4Y-61.595
X189.48Y-47.625
X189.48Y-51.435
X189.48Y-69.85
X189.48Y-87.63
X189.48Y-107.95
X189.48Y-130.81
X192.02Y-40.64
X192.02Y-44.45
X203.53Y-34.57
X208.53Y-34.57
T5
X115.225Y-143.485
X115.225Y-146.685
X117.725Y-143.485
X117.725Y-146.685
T6
X78.355Y-125.81
X78.355Y-128.31
X78.355Y-130.81
X92.855Y-125.81
X92.855Y-130.81
X117.09Y-119.38
X117.09Y-121.92
X117.09Y-124.46
X117.09Y-127.0
X117.09Y-129.54
X117.09Y-132.08
X134.87Y-29.21
X137.41Y-29.21
X139.95Y-29.21
X142.49Y-29.21
X145.03Y-29.21
T7
X194.56Y-45.72
X194.56Y-48.26
X194.56Y-50.8
X194.56Y-69.85
X194.56Y-72.39
X194.56Y-74.93
X194.56Y-87.63
X194.56Y-90.17
X194.56Y-92.71
X194.56Y-107.95
X194.56Y-110.49
X194.56Y-113.03
X194.56Y-130.81
X194.56Y-133.35
X194.56Y-135.89
T8
X77.46Y-34.4
X82.54Y-34.4
X88.42Y-34.4
X93.46Y-34.4
X101.6Y-40.64
X101.6Y-43.18
X101.6Y-45.72
X101.6Y-48.26
X101.6Y-50.8
X101.6Y-53.34
X101.6Y-55.88
X101.6Y-58.42
X101.6Y-60.96
X101.6Y-63.5
X101.6Y-66.04
X101.6Y-68.58
X101.6Y-71.12
X101.6Y-73.66
X101.6Y-76.2
X101.6Y-78.74
X123.44Y-24.13
X126.625Y-137.795
X126.625Y-150.495
X128.52Y-24.13
X151.38Y-24.07
X156.46Y-24.07
X161.54Y-24.07
X166.62Y-24.07
X171.7Y-24.07
X174.24Y-57.15
X176.78Y-24.07
X194.56Y-57.15
T9
X185.93Y-24.07
X208.53Y-24.07
T11
X110.455Y-146.195
X122.495Y-146.195
T12
X70.1Y-35.04
X70.1Y-110.04
X101.1Y-35.04
X101.1Y-110.04
T13
X71.99Y-25.92
X71.99Y-145.92
X216.99Y-25.92
X216.99Y-145.92
T14
X211.22Y-48.26
X211.22Y-72.39
X211.22Y-90.17
X211.22Y-110.49
X211.22Y-133.35
T10
G00X85.455Y-122.61
M15
G01X86.255Y-122.61
M16
G05
G00X85.455Y-134.01
M15
G01X86.255Y-134.01
M16
G05
M30
