%TF.GenerationSoftware,KiCad,Pcbnew,9.0.2*%
%TF.CreationDate,2025-07-13T15:59:37+02:00*%
%TF.ProjectId,Motor Control,4d6f746f-7220-4436-9f6e-74726f6c2e6b,1.0*%
%TF.SameCoordinates,Original*%
%TF.FileFunction,Legend,Bot*%
%TF.FilePolarity,Positive*%
%FSLAX46Y46*%
G04 Gerber Fmt 4.6, Leading zero omitted, Abs format (unit mm)*
G04 Created by KiCad (PCBNEW 9.0.2) date 2025-07-13 15:59:37*
%MOMM*%
%LPD*%
G01*
G04 APERTURE LIST*
G04 Aperture macros list*
%AMRoundRect*
0 Rectangle with rounded corners*
0 $1 Rounding radius*
0 $2 $3 $4 $5 $6 $7 $8 $9 X,Y pos of 4 corners*
0 Add a 4 corners polygon primitive as box body*
4,1,4,$2,$3,$4,$5,$6,$7,$8,$9,$2,$3,0*
0 Add four circle primitives for the rounded corners*
1,1,$1+$1,$2,$3*
1,1,$1+$1,$4,$5*
1,1,$1+$1,$6,$7*
1,1,$1+$1,$8,$9*
0 Add four rect primitives between the rounded corners*
20,1,$1+$1,$2,$3,$4,$5,0*
20,1,$1+$1,$4,$5,$6,$7,0*
20,1,$1+$1,$6,$7,$8,$9,0*
20,1,$1+$1,$8,$9,$2,$3,0*%
G04 Aperture macros list end*
%ADD10C,0.150000*%
%ADD11C,0.000000*%
%ADD12C,1.600000*%
%ADD13R,2.000000X1.905000*%
%ADD14C,4.500000*%
%ADD15O,2.000000X1.905000*%
%ADD16R,1.500000X1.500000*%
%ADD17C,1.500000*%
%ADD18R,1.700000X1.700000*%
%ADD19C,1.700000*%
%ADD20R,2.000000X2.000000*%
%ADD21C,2.000000*%
%ADD22R,3.200000X2.400000*%
%ADD23RoundRect,0.250000X-0.950000X-0.550000X0.950000X-0.550000X0.950000X0.550000X-0.950000X0.550000X0*%
%ADD24O,2.400000X1.600000*%
%ADD25RoundRect,0.250000X-0.650000X-1.550000X0.650000X-1.550000X0.650000X1.550000X-0.650000X1.550000X0*%
%ADD26O,1.800000X3.600000*%
%ADD27C,2.400000*%
%ADD28RoundRect,0.250000X-0.550000X-0.550000X0.550000X-0.550000X0.550000X0.550000X-0.550000X0.550000X0*%
%ADD29RoundRect,0.250000X-0.350000X0.350000X-0.350000X-0.350000X0.350000X-0.350000X0.350000X0.350000X0*%
%ADD30C,1.200000*%
%ADD31C,1.750000*%
%ADD32O,2.600000X1.800000*%
%ADD33R,3.000000X1.800000*%
%ADD34R,3.000000X1.000000*%
%ADD35RoundRect,0.250000X0.550000X0.550000X-0.550000X0.550000X-0.550000X-0.550000X0.550000X-0.550000X0*%
%ADD36RoundRect,0.250000X0.950000X0.550000X-0.950000X0.550000X-0.950000X-0.550000X0.950000X-0.550000X0*%
%ADD37C,3.600000*%
%ADD38R,1.400000X1.400000*%
%ADD39C,1.400000*%
%ADD40C,3.000000*%
%ADD41RoundRect,0.625000X-0.625000X-0.875000X0.625000X-0.875000X0.625000X0.875000X-0.625000X0.875000X0*%
G04 APERTURE END LIST*
D10*
X80907561Y-74355125D02*
X82907561Y-74355125D01*
X82907561Y-74355125D02*
X81478990Y-73688458D01*
X81478990Y-73688458D02*
X82907561Y-73021792D01*
X82907561Y-73021792D02*
X80907561Y-73021792D01*
X80907561Y-71783697D02*
X81002800Y-71974173D01*
X81002800Y-71974173D02*
X81098038Y-72069411D01*
X81098038Y-72069411D02*
X81288514Y-72164649D01*
X81288514Y-72164649D02*
X81859942Y-72164649D01*
X81859942Y-72164649D02*
X82050419Y-72069411D01*
X82050419Y-72069411D02*
X82145657Y-71974173D01*
X82145657Y-71974173D02*
X82240895Y-71783697D01*
X82240895Y-71783697D02*
X82240895Y-71497982D01*
X82240895Y-71497982D02*
X82145657Y-71307506D01*
X82145657Y-71307506D02*
X82050419Y-71212268D01*
X82050419Y-71212268D02*
X81859942Y-71117030D01*
X81859942Y-71117030D02*
X81288514Y-71117030D01*
X81288514Y-71117030D02*
X81098038Y-71212268D01*
X81098038Y-71212268D02*
X81002800Y-71307506D01*
X81002800Y-71307506D02*
X80907561Y-71497982D01*
X80907561Y-71497982D02*
X80907561Y-71783697D01*
X82240895Y-70545601D02*
X82240895Y-69783697D01*
X82907561Y-70259887D02*
X81193276Y-70259887D01*
X81193276Y-70259887D02*
X81002800Y-70164649D01*
X81002800Y-70164649D02*
X80907561Y-69974173D01*
X80907561Y-69974173D02*
X80907561Y-69783697D01*
X80907561Y-68831316D02*
X81002800Y-69021792D01*
X81002800Y-69021792D02*
X81098038Y-69117030D01*
X81098038Y-69117030D02*
X81288514Y-69212268D01*
X81288514Y-69212268D02*
X81859942Y-69212268D01*
X81859942Y-69212268D02*
X82050419Y-69117030D01*
X82050419Y-69117030D02*
X82145657Y-69021792D01*
X82145657Y-69021792D02*
X82240895Y-68831316D01*
X82240895Y-68831316D02*
X82240895Y-68545601D01*
X82240895Y-68545601D02*
X82145657Y-68355125D01*
X82145657Y-68355125D02*
X82050419Y-68259887D01*
X82050419Y-68259887D02*
X81859942Y-68164649D01*
X81859942Y-68164649D02*
X81288514Y-68164649D01*
X81288514Y-68164649D02*
X81098038Y-68259887D01*
X81098038Y-68259887D02*
X81002800Y-68355125D01*
X81002800Y-68355125D02*
X80907561Y-68545601D01*
X80907561Y-68545601D02*
X80907561Y-68831316D01*
X80907561Y-67307506D02*
X82240895Y-67307506D01*
X81859942Y-67307506D02*
X82050419Y-67212268D01*
X82050419Y-67212268D02*
X82145657Y-67117030D01*
X82145657Y-67117030D02*
X82240895Y-66926554D01*
X82240895Y-66926554D02*
X82240895Y-66736077D01*
X81098038Y-63402744D02*
X81002800Y-63497982D01*
X81002800Y-63497982D02*
X80907561Y-63783696D01*
X80907561Y-63783696D02*
X80907561Y-63974172D01*
X80907561Y-63974172D02*
X81002800Y-64259887D01*
X81002800Y-64259887D02*
X81193276Y-64450363D01*
X81193276Y-64450363D02*
X81383752Y-64545601D01*
X81383752Y-64545601D02*
X81764704Y-64640839D01*
X81764704Y-64640839D02*
X82050419Y-64640839D01*
X82050419Y-64640839D02*
X82431371Y-64545601D01*
X82431371Y-64545601D02*
X82621847Y-64450363D01*
X82621847Y-64450363D02*
X82812323Y-64259887D01*
X82812323Y-64259887D02*
X82907561Y-63974172D01*
X82907561Y-63974172D02*
X82907561Y-63783696D01*
X82907561Y-63783696D02*
X82812323Y-63497982D01*
X82812323Y-63497982D02*
X82717085Y-63402744D01*
X80907561Y-62259887D02*
X81002800Y-62450363D01*
X81002800Y-62450363D02*
X81098038Y-62545601D01*
X81098038Y-62545601D02*
X81288514Y-62640839D01*
X81288514Y-62640839D02*
X81859942Y-62640839D01*
X81859942Y-62640839D02*
X82050419Y-62545601D01*
X82050419Y-62545601D02*
X82145657Y-62450363D01*
X82145657Y-62450363D02*
X82240895Y-62259887D01*
X82240895Y-62259887D02*
X82240895Y-61974172D01*
X82240895Y-61974172D02*
X82145657Y-61783696D01*
X82145657Y-61783696D02*
X82050419Y-61688458D01*
X82050419Y-61688458D02*
X81859942Y-61593220D01*
X81859942Y-61593220D02*
X81288514Y-61593220D01*
X81288514Y-61593220D02*
X81098038Y-61688458D01*
X81098038Y-61688458D02*
X81002800Y-61783696D01*
X81002800Y-61783696D02*
X80907561Y-61974172D01*
X80907561Y-61974172D02*
X80907561Y-62259887D01*
X82240895Y-60736077D02*
X80907561Y-60736077D01*
X82050419Y-60736077D02*
X82145657Y-60640839D01*
X82145657Y-60640839D02*
X82240895Y-60450363D01*
X82240895Y-60450363D02*
X82240895Y-60164648D01*
X82240895Y-60164648D02*
X82145657Y-59974172D01*
X82145657Y-59974172D02*
X81955180Y-59878934D01*
X81955180Y-59878934D02*
X80907561Y-59878934D01*
X82240895Y-59212267D02*
X82240895Y-58450363D01*
X82907561Y-58926553D02*
X81193276Y-58926553D01*
X81193276Y-58926553D02*
X81002800Y-58831315D01*
X81002800Y-58831315D02*
X80907561Y-58640839D01*
X80907561Y-58640839D02*
X80907561Y-58450363D01*
X80907561Y-57783696D02*
X82240895Y-57783696D01*
X81859942Y-57783696D02*
X82050419Y-57688458D01*
X82050419Y-57688458D02*
X82145657Y-57593220D01*
X82145657Y-57593220D02*
X82240895Y-57402744D01*
X82240895Y-57402744D02*
X82240895Y-57212267D01*
X80907561Y-56259887D02*
X81002800Y-56450363D01*
X81002800Y-56450363D02*
X81098038Y-56545601D01*
X81098038Y-56545601D02*
X81288514Y-56640839D01*
X81288514Y-56640839D02*
X81859942Y-56640839D01*
X81859942Y-56640839D02*
X82050419Y-56545601D01*
X82050419Y-56545601D02*
X82145657Y-56450363D01*
X82145657Y-56450363D02*
X82240895Y-56259887D01*
X82240895Y-56259887D02*
X82240895Y-55974172D01*
X82240895Y-55974172D02*
X82145657Y-55783696D01*
X82145657Y-55783696D02*
X82050419Y-55688458D01*
X82050419Y-55688458D02*
X81859942Y-55593220D01*
X81859942Y-55593220D02*
X81288514Y-55593220D01*
X81288514Y-55593220D02*
X81098038Y-55688458D01*
X81098038Y-55688458D02*
X81002800Y-55783696D01*
X81002800Y-55783696D02*
X80907561Y-55974172D01*
X80907561Y-55974172D02*
X80907561Y-56259887D01*
X80907561Y-54450363D02*
X81002800Y-54640839D01*
X81002800Y-54640839D02*
X81193276Y-54736077D01*
X81193276Y-54736077D02*
X82907561Y-54736077D01*
X82240895Y-52355124D02*
X80907561Y-51878934D01*
X80907561Y-51878934D02*
X82240895Y-51402743D01*
X80907561Y-48069409D02*
X80907561Y-49212266D01*
X80907561Y-48640838D02*
X82907561Y-48640838D01*
X82907561Y-48640838D02*
X82621847Y-48831314D01*
X82621847Y-48831314D02*
X82431371Y-49021790D01*
X82431371Y-49021790D02*
X82336133Y-49212266D01*
X81098038Y-47212266D02*
X81002800Y-47117028D01*
X81002800Y-47117028D02*
X80907561Y-47212266D01*
X80907561Y-47212266D02*
X81002800Y-47307504D01*
X81002800Y-47307504D02*
X81098038Y-47212266D01*
X81098038Y-47212266D02*
X80907561Y-47212266D01*
X82907561Y-45878933D02*
X82907561Y-45688456D01*
X82907561Y-45688456D02*
X82812323Y-45497980D01*
X82812323Y-45497980D02*
X82717085Y-45402742D01*
X82717085Y-45402742D02*
X82526609Y-45307504D01*
X82526609Y-45307504D02*
X82145657Y-45212266D01*
X82145657Y-45212266D02*
X81669466Y-45212266D01*
X81669466Y-45212266D02*
X81288514Y-45307504D01*
X81288514Y-45307504D02*
X81098038Y-45402742D01*
X81098038Y-45402742D02*
X81002800Y-45497980D01*
X81002800Y-45497980D02*
X80907561Y-45688456D01*
X80907561Y-45688456D02*
X80907561Y-45878933D01*
X80907561Y-45878933D02*
X81002800Y-46069409D01*
X81002800Y-46069409D02*
X81098038Y-46164647D01*
X81098038Y-46164647D02*
X81288514Y-46259885D01*
X81288514Y-46259885D02*
X81669466Y-46355123D01*
X81669466Y-46355123D02*
X82145657Y-46355123D01*
X82145657Y-46355123D02*
X82526609Y-46259885D01*
X82526609Y-46259885D02*
X82717085Y-46164647D01*
X82717085Y-46164647D02*
X82812323Y-46069409D01*
X82812323Y-46069409D02*
X82907561Y-45878933D01*
D11*
%TO.C,G\u002A\u002A\u002A*%
G36*
X83819778Y-92019249D02*
G01*
X83853330Y-92021337D01*
X83880000Y-92024613D01*
X83920663Y-92033148D01*
X83989526Y-92054878D01*
X84053152Y-92084695D01*
X84110993Y-92122322D01*
X84162500Y-92167483D01*
X84198016Y-92207477D01*
X84236953Y-92263165D01*
X84270233Y-92325819D01*
X84298052Y-92395881D01*
X84320609Y-92473794D01*
X84338102Y-92560000D01*
X84338768Y-92564143D01*
X84340299Y-92575072D01*
X84341641Y-92587324D01*
X84342810Y-92601623D01*
X84343823Y-92618692D01*
X84344697Y-92639254D01*
X84345449Y-92664031D01*
X84346096Y-92693748D01*
X84346654Y-92729126D01*
X84347141Y-92770889D01*
X84347572Y-92819760D01*
X84347966Y-92876462D01*
X84348338Y-92941718D01*
X84348705Y-93016250D01*
X84350590Y-93420000D01*
X83765295Y-93420000D01*
X83180000Y-93420000D01*
X83180018Y-93063750D01*
X83180018Y-93058006D01*
X83180112Y-92990802D01*
X83180352Y-92927198D01*
X83180728Y-92867996D01*
X83181231Y-92813996D01*
X83181850Y-92765996D01*
X83182575Y-92724796D01*
X83183396Y-92691198D01*
X83184303Y-92665999D01*
X83185285Y-92650000D01*
X83193622Y-92582546D01*
X83207136Y-92511011D01*
X83224807Y-92442681D01*
X83246070Y-92379717D01*
X83270361Y-92324284D01*
X83272360Y-92320339D01*
X83311490Y-92253423D01*
X83356374Y-92194654D01*
X83406952Y-92144078D01*
X83463164Y-92101740D01*
X83524949Y-92067686D01*
X83592248Y-92041962D01*
X83665000Y-92024613D01*
X83677710Y-92022775D01*
X83708311Y-92020111D01*
X83744221Y-92018636D01*
X83782393Y-92018348D01*
X83819778Y-92019249D01*
G37*
G36*
X82829004Y-95134936D02*
G01*
X82835890Y-95137212D01*
X82851270Y-95142898D01*
X82874529Y-95151750D01*
X82905053Y-95163524D01*
X82942230Y-95177975D01*
X82985446Y-95194859D01*
X83034086Y-95213933D01*
X83087538Y-95234952D01*
X83145187Y-95257673D01*
X83206419Y-95281851D01*
X83270623Y-95307242D01*
X83337182Y-95333603D01*
X83405485Y-95360688D01*
X83474916Y-95388255D01*
X83544863Y-95416059D01*
X83614712Y-95443856D01*
X83683850Y-95471401D01*
X83751661Y-95498452D01*
X83817534Y-95524763D01*
X83880854Y-95550092D01*
X83941007Y-95574192D01*
X83997380Y-95596822D01*
X84049360Y-95617737D01*
X84096332Y-95636691D01*
X84137683Y-95653443D01*
X84172799Y-95667747D01*
X84201067Y-95679359D01*
X84221872Y-95688036D01*
X84234602Y-95693533D01*
X84238642Y-95695607D01*
X84233646Y-95697700D01*
X84219846Y-95703295D01*
X84197784Y-95712171D01*
X84167983Y-95724120D01*
X84130966Y-95738933D01*
X84087256Y-95756401D01*
X84037376Y-95776316D01*
X83981849Y-95798469D01*
X83921200Y-95822651D01*
X83855950Y-95848653D01*
X83786623Y-95876266D01*
X83713742Y-95905282D01*
X83637830Y-95935492D01*
X83559411Y-95966686D01*
X83487233Y-95995394D01*
X83410330Y-96025985D01*
X83336134Y-96055501D01*
X83265196Y-96083726D01*
X83198064Y-96110439D01*
X83135286Y-96135424D01*
X83077411Y-96158461D01*
X83024988Y-96179332D01*
X82978565Y-96197819D01*
X82938691Y-96213702D01*
X82905916Y-96226765D01*
X82880786Y-96236788D01*
X82863852Y-96243553D01*
X82855661Y-96246841D01*
X82825000Y-96259300D01*
X82825000Y-95697150D01*
X82825004Y-95673198D01*
X82825057Y-95599967D01*
X82825171Y-95529789D01*
X82825342Y-95463297D01*
X82825566Y-95401122D01*
X82825839Y-95343896D01*
X82826155Y-95292248D01*
X82826512Y-95246813D01*
X82826905Y-95208219D01*
X82827329Y-95177100D01*
X82827781Y-95154087D01*
X82828256Y-95139811D01*
X82828750Y-95134903D01*
X82829004Y-95134936D01*
G37*
G36*
X82843750Y-98192461D02*
G01*
X82844149Y-98192618D01*
X82896505Y-98213232D01*
X82953640Y-98235745D01*
X83014969Y-98259924D01*
X83079904Y-98285538D01*
X83147859Y-98312353D01*
X83218246Y-98340139D01*
X83290480Y-98368663D01*
X83363973Y-98397692D01*
X83438138Y-98426996D01*
X83512390Y-98456341D01*
X83586141Y-98485496D01*
X83658805Y-98514229D01*
X83729794Y-98542307D01*
X83798522Y-98569499D01*
X83864403Y-98595572D01*
X83926849Y-98620294D01*
X83985274Y-98643434D01*
X84039091Y-98664760D01*
X84087714Y-98684038D01*
X84130555Y-98701037D01*
X84167028Y-98715526D01*
X84196547Y-98727272D01*
X84218524Y-98736042D01*
X84232372Y-98741605D01*
X84237506Y-98743729D01*
X84237386Y-98744031D01*
X84231071Y-98747389D01*
X84215827Y-98754244D01*
X84191950Y-98764475D01*
X84159735Y-98777962D01*
X84119478Y-98794585D01*
X84071474Y-98814224D01*
X84016018Y-98836759D01*
X83953407Y-98862069D01*
X83883935Y-98890035D01*
X83807897Y-98920536D01*
X83725591Y-98953452D01*
X83637310Y-98988663D01*
X83543350Y-99026049D01*
X83523111Y-99034093D01*
X83443593Y-99065695D01*
X83366674Y-99096260D01*
X83292868Y-99125586D01*
X83222690Y-99153467D01*
X83156655Y-99179699D01*
X83095279Y-99204077D01*
X83039075Y-99226397D01*
X82988559Y-99246455D01*
X82944247Y-99264045D01*
X82906652Y-99278964D01*
X82876290Y-99291007D01*
X82853676Y-99299969D01*
X82839324Y-99305647D01*
X82833750Y-99307834D01*
X82833173Y-99307993D01*
X82831881Y-99307700D01*
X82830733Y-99306018D01*
X82829719Y-99302408D01*
X82828832Y-99296332D01*
X82828063Y-99287252D01*
X82827404Y-99274629D01*
X82826847Y-99257926D01*
X82826383Y-99236604D01*
X82826003Y-99210125D01*
X82825699Y-99177952D01*
X82825463Y-99139545D01*
X82825287Y-99094367D01*
X82825161Y-99041880D01*
X82825078Y-98981546D01*
X82825029Y-98912825D01*
X82825006Y-98835182D01*
X82825000Y-98748076D01*
X82825000Y-98185081D01*
X82843750Y-98192461D01*
G37*
G36*
X79694293Y-78411500D02*
G01*
X79854881Y-78411560D01*
X80154153Y-78411679D01*
X80443554Y-78411802D01*
X80723170Y-78411930D01*
X80993086Y-78412064D01*
X81253387Y-78412202D01*
X81504159Y-78412346D01*
X81745486Y-78412495D01*
X81977454Y-78412650D01*
X82200148Y-78412810D01*
X82413653Y-78412976D01*
X82618054Y-78413148D01*
X82813437Y-78413326D01*
X82999885Y-78413511D01*
X83177486Y-78413701D01*
X83346324Y-78413898D01*
X83506483Y-78414101D01*
X83658050Y-78414311D01*
X83801109Y-78414527D01*
X83935745Y-78414751D01*
X84062044Y-78414981D01*
X84180091Y-78415219D01*
X84289971Y-78415463D01*
X84391769Y-78415715D01*
X84485570Y-78415975D01*
X84571460Y-78416242D01*
X84649523Y-78416517D01*
X84719846Y-78416799D01*
X84782512Y-78417090D01*
X84837607Y-78417388D01*
X84885216Y-78417695D01*
X84925425Y-78418010D01*
X84958319Y-78418334D01*
X84983982Y-78418666D01*
X85002500Y-78419006D01*
X85006827Y-78419106D01*
X85166217Y-78422829D01*
X85316462Y-78426443D01*
X85458392Y-78429976D01*
X85592840Y-78433458D01*
X85720636Y-78436916D01*
X85842612Y-78440379D01*
X85959599Y-78443875D01*
X86072430Y-78447434D01*
X86181934Y-78451082D01*
X86288944Y-78454850D01*
X86394291Y-78458764D01*
X86498807Y-78462855D01*
X86603323Y-78467150D01*
X86708670Y-78471677D01*
X86815680Y-78476465D01*
X86925184Y-78481543D01*
X87038014Y-78486939D01*
X87155000Y-78492681D01*
X87221548Y-78496022D01*
X87651283Y-78519359D01*
X88080478Y-78545700D01*
X88508556Y-78574981D01*
X88934936Y-78607136D01*
X89359039Y-78642103D01*
X89780288Y-78679817D01*
X90198102Y-78720214D01*
X90611904Y-78763229D01*
X91021113Y-78808799D01*
X91425151Y-78856859D01*
X91823440Y-78907346D01*
X92215399Y-78960195D01*
X92600451Y-79015342D01*
X92978016Y-79072723D01*
X93347515Y-79132273D01*
X93708370Y-79193930D01*
X94060000Y-79257627D01*
X94097208Y-79264608D01*
X94156389Y-79275856D01*
X94217468Y-79287624D01*
X94279606Y-79299739D01*
X94341967Y-79312031D01*
X94403714Y-79324327D01*
X94464010Y-79336456D01*
X94522017Y-79348248D01*
X94576899Y-79359530D01*
X94627819Y-79370131D01*
X94673939Y-79379880D01*
X94714423Y-79388605D01*
X94748434Y-79396135D01*
X94775134Y-79402299D01*
X94793687Y-79406925D01*
X94803255Y-79409841D01*
X94807013Y-79412722D01*
X94812628Y-79420612D01*
X94819803Y-79434194D01*
X94828986Y-79454400D01*
X94840622Y-79482163D01*
X94855158Y-79518417D01*
X94899088Y-79631627D01*
X94948005Y-79762189D01*
X94998285Y-79900801D01*
X95049626Y-80046550D01*
X95101730Y-80198525D01*
X95154293Y-80355811D01*
X95207016Y-80517498D01*
X95259598Y-80682673D01*
X95311737Y-80850423D01*
X95363133Y-81019836D01*
X95413485Y-81189999D01*
X95462491Y-81360000D01*
X95544635Y-81654617D01*
X95669685Y-82126889D01*
X95788705Y-82606527D01*
X95901615Y-83093096D01*
X96008335Y-83586162D01*
X96108786Y-84085292D01*
X96202887Y-84590050D01*
X96290560Y-85100003D01*
X96371724Y-85614718D01*
X96446299Y-86133758D01*
X96514206Y-86656692D01*
X96575365Y-87183084D01*
X96629697Y-87712500D01*
X96635121Y-87769713D01*
X96654771Y-87988630D01*
X96673048Y-88211700D01*
X96689975Y-88439406D01*
X96705574Y-88672230D01*
X96719868Y-88910653D01*
X96732881Y-89155159D01*
X96744635Y-89406229D01*
X96755154Y-89664345D01*
X96764460Y-89929990D01*
X96772577Y-90203646D01*
X96779527Y-90485795D01*
X96785333Y-90776919D01*
X96790019Y-91077500D01*
X96792053Y-91250059D01*
X96794339Y-91577057D01*
X96794714Y-91913281D01*
X96793195Y-92258351D01*
X96789798Y-92611888D01*
X96784539Y-92973510D01*
X96777434Y-93342840D01*
X96768500Y-93719496D01*
X96757753Y-94103100D01*
X96745208Y-94493270D01*
X96730884Y-94889628D01*
X96714794Y-95291793D01*
X96696957Y-95699386D01*
X96677388Y-96112027D01*
X96656103Y-96529336D01*
X96633118Y-96950933D01*
X96608451Y-97376438D01*
X96582116Y-97805471D01*
X96554131Y-98237654D01*
X96524511Y-98672605D01*
X96493273Y-99109945D01*
X96460432Y-99549294D01*
X96426007Y-99990273D01*
X96390011Y-100432500D01*
X96389499Y-100438668D01*
X96382730Y-100519713D01*
X96375705Y-100603090D01*
X96368478Y-100688215D01*
X96361101Y-100774501D01*
X96353626Y-100861363D01*
X96346105Y-100948216D01*
X96338590Y-101034474D01*
X96331136Y-101119552D01*
X96323792Y-101202863D01*
X96316613Y-101283822D01*
X96309651Y-101361844D01*
X96302957Y-101436343D01*
X96296585Y-101506734D01*
X96290586Y-101572431D01*
X96285014Y-101632848D01*
X96279920Y-101687400D01*
X96275357Y-101735501D01*
X96271378Y-101776566D01*
X96268034Y-101810009D01*
X96265379Y-101835244D01*
X96263465Y-101851687D01*
X96262343Y-101858750D01*
X96262306Y-101858781D01*
X96260100Y-101859019D01*
X96254431Y-101859251D01*
X96245191Y-101859477D01*
X96232272Y-101859698D01*
X96215568Y-101859913D01*
X96194972Y-101860122D01*
X96170375Y-101860327D01*
X96141672Y-101860525D01*
X96108755Y-101860719D01*
X96071516Y-101860907D01*
X96029850Y-101861090D01*
X95983647Y-101861268D01*
X95932802Y-101861440D01*
X95877208Y-101861608D01*
X95816756Y-101861771D01*
X95751340Y-101861929D01*
X95680853Y-101862082D01*
X95605188Y-101862230D01*
X95524237Y-101862374D01*
X95437894Y-101862513D01*
X95346050Y-101862648D01*
X95248600Y-101862778D01*
X95145436Y-101862903D01*
X95036450Y-101863024D01*
X94921536Y-101863141D01*
X94800587Y-101863254D01*
X94673494Y-101863362D01*
X94540152Y-101863467D01*
X94400453Y-101863567D01*
X94254290Y-101863663D01*
X94101555Y-101863755D01*
X93942143Y-101863844D01*
X93775944Y-101863928D01*
X93602853Y-101864009D01*
X93422762Y-101864086D01*
X93235564Y-101864160D01*
X93041151Y-101864230D01*
X92839418Y-101864296D01*
X92630256Y-101864359D01*
X92413558Y-101864419D01*
X92189218Y-101864475D01*
X91957127Y-101864528D01*
X91717180Y-101864578D01*
X91469268Y-101864624D01*
X91213285Y-101864668D01*
X90949124Y-101864709D01*
X90676677Y-101864746D01*
X90395837Y-101864781D01*
X90106497Y-101864813D01*
X89808550Y-101864842D01*
X89501889Y-101864869D01*
X89186407Y-101864893D01*
X88861996Y-101864914D01*
X88528549Y-101864933D01*
X88185959Y-101864949D01*
X87834120Y-101864963D01*
X87472923Y-101864975D01*
X87102262Y-101864984D01*
X86722030Y-101864991D01*
X86332119Y-101864997D01*
X85932423Y-101865000D01*
X85522833Y-101865000D01*
X85432052Y-101865000D01*
X85037957Y-101865000D01*
X84653709Y-101865000D01*
X84279183Y-101865000D01*
X83914255Y-101864999D01*
X83558800Y-101864998D01*
X83212693Y-101864996D01*
X82875811Y-101864993D01*
X82548027Y-101864990D01*
X82229218Y-101864985D01*
X81919259Y-101864980D01*
X81804434Y-101864977D01*
X81618026Y-101864973D01*
X81325392Y-101864965D01*
X81041235Y-101864955D01*
X80765429Y-101864944D01*
X80497850Y-101864932D01*
X80238372Y-101864917D01*
X80157500Y-101864912D01*
X79986872Y-101864901D01*
X79743225Y-101864883D01*
X79507305Y-101864862D01*
X79278989Y-101864840D01*
X79058152Y-101864815D01*
X78844669Y-101864787D01*
X78638415Y-101864757D01*
X78439267Y-101864724D01*
X78247098Y-101864689D01*
X78061785Y-101864650D01*
X77883202Y-101864609D01*
X77711226Y-101864564D01*
X77545731Y-101864516D01*
X77386594Y-101864464D01*
X77233688Y-101864409D01*
X77086890Y-101864351D01*
X76946075Y-101864289D01*
X76811118Y-101864223D01*
X76681895Y-101864152D01*
X76558281Y-101864078D01*
X76440152Y-101864000D01*
X76327382Y-101863917D01*
X76219847Y-101863830D01*
X76117422Y-101863738D01*
X76019984Y-101863642D01*
X75927406Y-101863540D01*
X75839565Y-101863434D01*
X75756335Y-101863323D01*
X75677593Y-101863207D01*
X75603213Y-101863085D01*
X75533072Y-101862959D01*
X75467043Y-101862826D01*
X75405003Y-101862688D01*
X75346827Y-101862545D01*
X75292390Y-101862395D01*
X75241567Y-101862240D01*
X75194235Y-101862078D01*
X75150268Y-101861910D01*
X75109542Y-101861736D01*
X75071931Y-101861556D01*
X75037312Y-101861369D01*
X75005560Y-101861175D01*
X74976550Y-101860975D01*
X74950157Y-101860768D01*
X74926257Y-101860554D01*
X74904725Y-101860332D01*
X74885437Y-101860104D01*
X74868267Y-101859868D01*
X74853092Y-101859624D01*
X74839786Y-101859374D01*
X74828225Y-101859115D01*
X74818284Y-101858849D01*
X74809839Y-101858574D01*
X74802765Y-101858292D01*
X74796937Y-101858001D01*
X74792231Y-101857702D01*
X74788521Y-101857395D01*
X74785684Y-101857080D01*
X74783595Y-101856755D01*
X74782129Y-101856422D01*
X74781161Y-101856080D01*
X74780566Y-101855730D01*
X74780221Y-101855370D01*
X74780000Y-101855001D01*
X74777346Y-101848651D01*
X74777900Y-101845000D01*
X74778121Y-101841908D01*
X74773834Y-101833750D01*
X74769018Y-101824640D01*
X74762302Y-101809098D01*
X74756147Y-101792664D01*
X74752410Y-101780000D01*
X74751998Y-101778723D01*
X74748693Y-101770440D01*
X74743301Y-101757792D01*
X74741754Y-101754153D01*
X74735669Y-101738221D01*
X74731666Y-101725292D01*
X74728753Y-101715894D01*
X74724411Y-101707108D01*
X74722001Y-101703002D01*
X74718351Y-101692108D01*
X74715732Y-101681619D01*
X74710789Y-101667570D01*
X74702564Y-101647500D01*
X74699669Y-101640157D01*
X74693693Y-101623332D01*
X74687743Y-101605000D01*
X74684091Y-101593528D01*
X74678685Y-101577793D01*
X74674648Y-101567500D01*
X74671753Y-101560795D01*
X74666190Y-101546116D01*
X74660720Y-101529995D01*
X74656195Y-101515133D01*
X74653465Y-101504234D01*
X74653382Y-101500000D01*
X74654137Y-101499136D01*
X74651283Y-101493750D01*
X74650249Y-101491756D01*
X74646168Y-101481533D01*
X74639897Y-101464461D01*
X74632038Y-101442309D01*
X74623192Y-101416845D01*
X74613964Y-101389840D01*
X74604953Y-101363062D01*
X74596764Y-101338280D01*
X74589999Y-101317264D01*
X74585258Y-101301783D01*
X74583146Y-101293606D01*
X74582863Y-101292116D01*
X74579220Y-101282500D01*
X74578961Y-101281944D01*
X74576177Y-101274165D01*
X74571077Y-101258871D01*
X74564182Y-101237715D01*
X74556017Y-101212347D01*
X74547106Y-101184419D01*
X74537972Y-101155584D01*
X74529138Y-101127491D01*
X74521128Y-101101793D01*
X74514466Y-101080142D01*
X74509676Y-101064188D01*
X74507280Y-101055584D01*
X74506095Y-101051314D01*
X74502220Y-101038347D01*
X74496261Y-101018872D01*
X74488764Y-100994665D01*
X74480273Y-100967500D01*
X74474286Y-100948313D01*
X74466422Y-100922710D01*
X74459946Y-100901155D01*
X74455405Y-100885476D01*
X74453347Y-100877500D01*
X74452026Y-100871374D01*
X74448657Y-100860000D01*
X74446206Y-100853174D01*
X74441039Y-100837338D01*
X74435562Y-100819366D01*
X74430941Y-100803130D01*
X74428341Y-100792500D01*
X74426979Y-100786375D01*
X74423436Y-100775000D01*
X74422631Y-100772666D01*
X74419278Y-100761750D01*
X74414067Y-100744131D01*
X74407555Y-100721759D01*
X74400302Y-100696587D01*
X74392866Y-100670565D01*
X74385806Y-100645645D01*
X74379680Y-100623778D01*
X74375048Y-100606914D01*
X74372468Y-100597006D01*
X74372414Y-100596778D01*
X74369836Y-100587045D01*
X74365399Y-100571180D01*
X74360030Y-100552500D01*
X74359819Y-100551778D01*
X74354468Y-100533047D01*
X74350100Y-100517164D01*
X74347641Y-100507500D01*
X74346865Y-100504279D01*
X74343531Y-100491640D01*
X74338541Y-100473456D01*
X74332651Y-100452500D01*
X74329838Y-100442554D01*
X74324261Y-100422546D01*
X74319929Y-100406604D01*
X74317598Y-100397500D01*
X74316136Y-100391628D01*
X74312332Y-100377207D01*
X74307015Y-100357504D01*
X74300849Y-100335000D01*
X74295987Y-100317342D01*
X74290810Y-100298428D01*
X74287135Y-100284868D01*
X74285544Y-100278803D01*
X74285177Y-100277306D01*
X74282640Y-100268803D01*
X74282186Y-100267312D01*
X74279371Y-100257074D01*
X74274805Y-100239848D01*
X74269014Y-100217676D01*
X74262523Y-100192597D01*
X74255857Y-100166651D01*
X74249539Y-100141879D01*
X74244096Y-100120319D01*
X74240052Y-100104013D01*
X74237931Y-100095000D01*
X74237791Y-100094354D01*
X74235468Y-100084575D01*
X74231147Y-100067047D01*
X74225253Y-100043474D01*
X74218212Y-100015557D01*
X74210449Y-99985000D01*
X74209348Y-99980681D01*
X74201661Y-99950388D01*
X74194757Y-99922971D01*
X74189061Y-99900132D01*
X74184998Y-99883574D01*
X74182992Y-99875000D01*
X74182843Y-99874297D01*
X74180082Y-99862637D01*
X74175666Y-99845173D01*
X74170478Y-99825406D01*
X74169494Y-99821700D01*
X74165060Y-99804254D01*
X74162083Y-99791298D01*
X74161165Y-99785406D01*
X74161152Y-99784203D01*
X74159511Y-99775621D01*
X74156120Y-99762500D01*
X74155253Y-99759395D01*
X74150964Y-99743099D01*
X74147878Y-99730000D01*
X74146465Y-99723665D01*
X74142870Y-99708369D01*
X74137953Y-99687930D01*
X74132346Y-99665000D01*
X74128289Y-99648353D01*
X74123209Y-99626954D01*
X74119330Y-99609953D01*
X74117267Y-99600000D01*
X74115992Y-99593659D01*
X74112565Y-99578363D01*
X74107768Y-99557926D01*
X74102215Y-99535000D01*
X74098177Y-99518349D01*
X74093155Y-99496952D01*
X74089359Y-99479952D01*
X74087394Y-99470000D01*
X74085751Y-99460640D01*
X74082872Y-99447500D01*
X74080770Y-99438936D01*
X74076809Y-99422058D01*
X74071617Y-99399518D01*
X74065626Y-99373243D01*
X74059272Y-99345158D01*
X74052989Y-99317190D01*
X74047210Y-99291265D01*
X74042369Y-99269307D01*
X74038901Y-99253244D01*
X74037238Y-99245000D01*
X74035684Y-99236923D01*
X74032189Y-99220813D01*
X74027925Y-99202500D01*
X74024716Y-99188846D01*
X74020676Y-99170659D01*
X74018023Y-99157500D01*
X74017077Y-99152562D01*
X74014059Y-99137739D01*
X74009605Y-99116424D01*
X74004145Y-99090663D01*
X73998107Y-99062500D01*
X73994422Y-99045364D01*
X73988666Y-99018402D01*
X73983736Y-98995073D01*
X73980062Y-98977424D01*
X73978077Y-98967500D01*
X73975806Y-98956132D01*
X73971998Y-98938167D01*
X73967652Y-98918408D01*
X73963751Y-98900316D01*
X73959796Y-98880541D01*
X73957203Y-98865908D01*
X73957166Y-98865666D01*
X73955407Y-98854482D01*
X73953617Y-98844371D01*
X73951253Y-98832626D01*
X73947771Y-98816540D01*
X73942627Y-98793408D01*
X73938739Y-98775320D01*
X73934792Y-98755543D01*
X73932203Y-98740908D01*
X73932176Y-98740726D01*
X73930465Y-98729832D01*
X73928741Y-98720024D01*
X73926462Y-98708591D01*
X73923089Y-98692820D01*
X73918081Y-98670000D01*
X73914637Y-98653726D01*
X73910985Y-98635000D01*
X77500000Y-98635000D01*
X77500000Y-98957500D01*
X77500000Y-99280000D01*
X78687500Y-99280000D01*
X79875000Y-99280000D01*
X79875000Y-99672500D01*
X79875000Y-100065000D01*
X80157500Y-100065000D01*
X80440000Y-100065000D01*
X80440000Y-98957500D01*
X80440000Y-97850000D01*
X80157500Y-97850000D01*
X79875000Y-97850000D01*
X79875000Y-98242500D01*
X79875000Y-98635000D01*
X78970000Y-98635000D01*
X78687500Y-98635000D01*
X77500000Y-98635000D01*
X73910985Y-98635000D01*
X73910857Y-98634343D01*
X73908419Y-98620000D01*
X73908413Y-98619957D01*
X73906062Y-98606133D01*
X73902314Y-98586755D01*
X73897977Y-98566005D01*
X73897892Y-98565616D01*
X73893611Y-98545166D01*
X73889974Y-98526460D01*
X73887759Y-98513505D01*
X73887643Y-98512716D01*
X73885632Y-98500844D01*
X73882165Y-98481888D01*
X73877698Y-98458292D01*
X73872686Y-98432500D01*
X73871866Y-98428319D01*
X73866986Y-98402890D01*
X73861189Y-98371985D01*
X73854750Y-98337135D01*
X73847942Y-98299871D01*
X73841041Y-98261723D01*
X73834321Y-98224223D01*
X73828057Y-98188900D01*
X73822523Y-98157285D01*
X73817994Y-98130910D01*
X73814744Y-98111305D01*
X73813048Y-98100000D01*
X73812918Y-98098983D01*
X73810602Y-98084964D01*
X73808105Y-98075000D01*
X73807611Y-98073471D01*
X73805161Y-98062260D01*
X73802944Y-98047500D01*
X73802610Y-98044863D01*
X73800234Y-98028655D01*
X73796792Y-98007407D01*
X73792906Y-97985000D01*
X73792079Y-97980366D01*
X73788089Y-97957296D01*
X73784557Y-97935797D01*
X73782165Y-97920000D01*
X73781375Y-97914356D01*
X73779062Y-97898601D01*
X73777282Y-97887500D01*
X73775284Y-97875956D01*
X73772812Y-97861243D01*
X73770351Y-97846579D01*
X73767713Y-97831243D01*
X73765661Y-97819466D01*
X73761297Y-97794022D01*
X73756376Y-97764964D01*
X73751220Y-97734216D01*
X73746147Y-97703705D01*
X73741476Y-97675352D01*
X73737527Y-97651085D01*
X73734620Y-97632826D01*
X73733073Y-97622500D01*
X73731992Y-97614930D01*
X73731120Y-97609098D01*
X81800000Y-97609098D01*
X81800000Y-97783196D01*
X82171250Y-97928809D01*
X82542500Y-98074422D01*
X82542500Y-98748319D01*
X82542500Y-99422215D01*
X82172500Y-99567415D01*
X81802500Y-99712614D01*
X81801183Y-99881746D01*
X81801054Y-99901439D01*
X81800965Y-99943573D01*
X81801158Y-99979792D01*
X81801617Y-100009280D01*
X81802326Y-100031220D01*
X81803271Y-100044795D01*
X81804434Y-100049190D01*
X81805050Y-100048945D01*
X81812958Y-100045772D01*
X81829668Y-100039051D01*
X81854824Y-100028927D01*
X81888070Y-100015544D01*
X81929050Y-99999045D01*
X81977408Y-99979573D01*
X82032786Y-99957272D01*
X82094829Y-99932285D01*
X82163180Y-99904756D01*
X82237484Y-99874829D01*
X82317383Y-99842646D01*
X82402522Y-99808352D01*
X82492544Y-99772090D01*
X82587094Y-99734004D01*
X82685813Y-99694236D01*
X82788347Y-99652931D01*
X82894339Y-99610232D01*
X83003433Y-99566282D01*
X83115272Y-99521225D01*
X83229501Y-99475205D01*
X84650000Y-98902910D01*
X84650000Y-98742028D01*
X84650000Y-98581146D01*
X84563750Y-98546063D01*
X84553483Y-98541893D01*
X84528967Y-98531963D01*
X84496628Y-98518889D01*
X84456904Y-98502846D01*
X84410234Y-98484012D01*
X84357056Y-98462562D01*
X84297809Y-98438674D01*
X84232931Y-98412523D01*
X84162860Y-98384286D01*
X84088036Y-98354140D01*
X84008895Y-98322260D01*
X83925878Y-98288824D01*
X83839422Y-98254007D01*
X83749966Y-98217987D01*
X83657947Y-98180938D01*
X83563806Y-98143039D01*
X83467979Y-98104466D01*
X83370906Y-98065394D01*
X83273024Y-98026000D01*
X83174773Y-97986461D01*
X83076591Y-97946953D01*
X82978916Y-97907652D01*
X82882186Y-97868735D01*
X82786841Y-97830379D01*
X82693318Y-97792759D01*
X82602056Y-97756053D01*
X82513494Y-97720436D01*
X82428069Y-97686085D01*
X82346221Y-97653176D01*
X82268387Y-97621887D01*
X82195006Y-97592392D01*
X82126517Y-97564869D01*
X82063358Y-97539495D01*
X82005968Y-97516445D01*
X81954784Y-97495896D01*
X81910246Y-97478024D01*
X81872791Y-97463006D01*
X81842858Y-97451018D01*
X81820887Y-97442237D01*
X81807314Y-97436839D01*
X81803684Y-97435429D01*
X81802579Y-97435000D01*
X81802061Y-97438547D01*
X81801502Y-97451018D01*
X81801006Y-97471383D01*
X81800591Y-97498508D01*
X81800274Y-97531259D01*
X81800072Y-97568500D01*
X81800000Y-97609098D01*
X73731120Y-97609098D01*
X73729433Y-97597811D01*
X73725758Y-97573670D01*
X73721212Y-97544096D01*
X73716036Y-97510677D01*
X73710475Y-97475000D01*
X73706011Y-97446345D01*
X73700760Y-97412348D01*
X73696102Y-97381876D01*
X73692278Y-97356520D01*
X73689529Y-97337865D01*
X73688096Y-97327500D01*
X73688025Y-97326920D01*
X73686224Y-97313731D01*
X73683275Y-97293499D01*
X73679573Y-97268872D01*
X73675507Y-97242500D01*
X73674010Y-97232761D01*
X73670102Y-97206462D01*
X73665384Y-97173822D01*
X73660040Y-97136196D01*
X73654255Y-97094936D01*
X73648215Y-97051396D01*
X73642103Y-97006930D01*
X73636104Y-96962891D01*
X73630404Y-96920631D01*
X73625187Y-96881506D01*
X73620637Y-96846867D01*
X73616940Y-96818069D01*
X73614279Y-96796465D01*
X73612841Y-96783408D01*
X73611495Y-96770626D01*
X73609638Y-96757387D01*
X73608089Y-96750908D01*
X73607911Y-96750513D01*
X73606368Y-96742902D01*
X73604417Y-96728487D01*
X73602437Y-96710000D01*
X73602305Y-96708619D01*
X73600320Y-96688513D01*
X73598495Y-96671095D01*
X73597209Y-96660000D01*
X73595758Y-96648788D01*
X73593260Y-96629037D01*
X73590357Y-96605772D01*
X73587489Y-96582500D01*
X73585992Y-96570810D01*
X73583574Y-96552596D01*
X73580845Y-96532500D01*
X73580805Y-96532209D01*
X73578375Y-96513666D01*
X73576596Y-96498512D01*
X73575850Y-96490000D01*
X73575801Y-96489161D01*
X73574887Y-96479980D01*
X73572964Y-96462866D01*
X73570221Y-96439427D01*
X73566845Y-96411269D01*
X73563023Y-96380000D01*
X73562471Y-96375521D01*
X73558496Y-96342929D01*
X73554829Y-96312354D01*
X73551705Y-96285774D01*
X73549356Y-96265164D01*
X73548014Y-96252500D01*
X73547131Y-96243775D01*
X73545075Y-96224685D01*
X73542281Y-96199528D01*
X73539000Y-96170551D01*
X73535482Y-96140000D01*
X73532979Y-96118285D01*
X73529569Y-96088188D01*
X73526563Y-96061061D01*
X73524216Y-96039225D01*
X73522783Y-96025000D01*
X73522143Y-96018287D01*
X73520428Y-96000865D01*
X73518845Y-95985000D01*
X77500000Y-95985000D01*
X77500000Y-97000000D01*
X78970000Y-97000000D01*
X80440000Y-97000000D01*
X80440000Y-95995000D01*
X80440000Y-94990000D01*
X80162500Y-94990000D01*
X79885000Y-94990000D01*
X79885000Y-95672500D01*
X79885000Y-96355000D01*
X79572500Y-96355000D01*
X79260000Y-96355000D01*
X79260000Y-95755000D01*
X79260000Y-95155000D01*
X78982500Y-95155000D01*
X78935171Y-95155000D01*
X78705000Y-95155000D01*
X78705000Y-95755000D01*
X78705000Y-96355000D01*
X78380000Y-96355000D01*
X78055000Y-96355000D01*
X78055000Y-95662500D01*
X78055000Y-94970000D01*
X77777500Y-94970000D01*
X77500000Y-94970000D01*
X77500000Y-95985000D01*
X73518845Y-95985000D01*
X73517930Y-95975828D01*
X73514789Y-95944575D01*
X73511147Y-95908504D01*
X73507143Y-95869013D01*
X73502920Y-95827500D01*
X73500160Y-95800330D01*
X73496051Y-95759514D01*
X73492257Y-95721404D01*
X73488921Y-95687450D01*
X73486183Y-95659100D01*
X73484187Y-95637800D01*
X73483073Y-95625000D01*
X73482641Y-95619581D01*
X73480700Y-95597046D01*
X73478272Y-95570637D01*
X73475780Y-95545000D01*
X73474639Y-95533441D01*
X73472766Y-95513401D01*
X73471468Y-95498043D01*
X73470976Y-95490000D01*
X73470801Y-95486588D01*
X73469851Y-95474094D01*
X73468215Y-95454663D01*
X73466054Y-95430173D01*
X73463527Y-95402500D01*
X73461951Y-95385369D01*
X73459617Y-95359411D01*
X73457738Y-95337780D01*
X73456475Y-95322350D01*
X73455991Y-95315000D01*
X73455668Y-95308867D01*
X73454598Y-95294885D01*
X73453061Y-95277500D01*
X73451247Y-95257620D01*
X73448825Y-95229958D01*
X73446172Y-95198734D01*
X73443406Y-95165451D01*
X73440649Y-95131611D01*
X73438020Y-95098718D01*
X73435639Y-95068275D01*
X73433626Y-95041783D01*
X73432101Y-95020748D01*
X73431184Y-95006670D01*
X73430995Y-95001053D01*
X73431012Y-94996307D01*
X73430094Y-94984005D01*
X73428373Y-94967500D01*
X73428092Y-94964850D01*
X73426837Y-94950518D01*
X73425069Y-94927974D01*
X73422881Y-94898552D01*
X73420362Y-94863589D01*
X73417605Y-94824421D01*
X73414700Y-94782384D01*
X73411739Y-94738813D01*
X73408812Y-94695045D01*
X73406010Y-94652416D01*
X73403425Y-94612260D01*
X73401147Y-94575916D01*
X73399268Y-94544717D01*
X73397878Y-94520000D01*
X73397246Y-94508345D01*
X73395902Y-94484245D01*
X73395167Y-94471289D01*
X81800830Y-94471289D01*
X81800892Y-94510097D01*
X81801186Y-94558081D01*
X81802500Y-94731162D01*
X82173750Y-94876597D01*
X82545000Y-95022031D01*
X82545000Y-95695169D01*
X82545000Y-96368307D01*
X82173750Y-96513841D01*
X81802500Y-96659376D01*
X81801184Y-96827188D01*
X81801012Y-96856621D01*
X81800977Y-96894084D01*
X81801158Y-96927319D01*
X81801535Y-96955174D01*
X81802094Y-96976492D01*
X81802816Y-96990120D01*
X81803684Y-96994904D01*
X81804273Y-96994704D01*
X81812101Y-96991666D01*
X81828733Y-96985080D01*
X81853811Y-96975089D01*
X81886981Y-96961835D01*
X81927885Y-96945462D01*
X81976169Y-96926114D01*
X82031475Y-96903932D01*
X82093447Y-96879060D01*
X82161731Y-96851642D01*
X82235968Y-96821820D01*
X82315804Y-96789737D01*
X82400883Y-96755536D01*
X82490847Y-96719361D01*
X82585342Y-96681355D01*
X82684011Y-96641660D01*
X82786497Y-96600419D01*
X82892446Y-96557777D01*
X83001500Y-96513875D01*
X83113303Y-96468857D01*
X83227500Y-96422866D01*
X84647500Y-95850924D01*
X84648778Y-95689212D01*
X84650055Y-95527500D01*
X83231278Y-94956228D01*
X83217785Y-94950796D01*
X83195340Y-94941759D01*
X83081868Y-94896083D01*
X82970888Y-94851426D01*
X82862755Y-94807930D01*
X82757826Y-94765740D01*
X82656460Y-94724998D01*
X82559012Y-94685847D01*
X82465840Y-94648431D01*
X82377302Y-94612892D01*
X82293753Y-94579374D01*
X82215551Y-94548020D01*
X82143054Y-94518973D01*
X82076618Y-94492376D01*
X82016600Y-94468372D01*
X81963358Y-94447104D01*
X81917249Y-94428716D01*
X81878628Y-94413351D01*
X81847855Y-94401151D01*
X81825285Y-94392261D01*
X81811277Y-94386822D01*
X81806186Y-94384978D01*
X81804826Y-94386099D01*
X81803373Y-94391364D01*
X81802271Y-94401693D01*
X81801496Y-94417909D01*
X81801024Y-94440833D01*
X81800830Y-94471289D01*
X73395167Y-94471289D01*
X73394163Y-94453580D01*
X73392145Y-94418382D01*
X73389964Y-94380678D01*
X73387736Y-94342500D01*
X73386428Y-94319283D01*
X73384760Y-94287988D01*
X73382861Y-94251046D01*
X73380784Y-94209573D01*
X73378579Y-94164686D01*
X73376300Y-94117501D01*
X73373997Y-94069136D01*
X73371724Y-94020707D01*
X73369533Y-93973331D01*
X73367474Y-93928125D01*
X73365601Y-93886206D01*
X73363965Y-93848691D01*
X73362618Y-93816696D01*
X73361613Y-93791338D01*
X73361001Y-93773734D01*
X73360835Y-93765000D01*
X73360837Y-93764864D01*
X73360660Y-93757512D01*
X73360134Y-93741618D01*
X73359309Y-93718550D01*
X73358235Y-93689678D01*
X73356961Y-93656372D01*
X73355539Y-93620000D01*
X73355070Y-93607979D01*
X73352565Y-93538377D01*
X73350059Y-93460112D01*
X73347576Y-93374309D01*
X73345138Y-93282096D01*
X73342767Y-93184597D01*
X73340486Y-93082938D01*
X73338318Y-92978245D01*
X73338018Y-92962514D01*
X77461897Y-92962514D01*
X77462183Y-92987575D01*
X77462874Y-93008980D01*
X77464051Y-93028389D01*
X77465793Y-93047460D01*
X77468180Y-93067850D01*
X77471293Y-93091217D01*
X77475211Y-93119221D01*
X77475422Y-93120711D01*
X77496275Y-93233927D01*
X77526031Y-93343159D01*
X77564471Y-93448034D01*
X77611380Y-93548179D01*
X77666542Y-93643220D01*
X77729740Y-93732785D01*
X77800758Y-93816499D01*
X77879379Y-93893990D01*
X77965387Y-93964884D01*
X77981036Y-93976487D01*
X78075232Y-94039341D01*
X78174936Y-94094296D01*
X78280333Y-94141418D01*
X78391606Y-94180775D01*
X78508942Y-94212433D01*
X78632523Y-94236458D01*
X78762536Y-94252918D01*
X78790150Y-94255085D01*
X78833463Y-94257261D01*
X78882456Y-94258645D01*
X78935171Y-94259259D01*
X78989650Y-94259123D01*
X79043937Y-94258260D01*
X79096072Y-94256689D01*
X79144100Y-94254434D01*
X79186062Y-94251514D01*
X79220000Y-94247952D01*
X79266944Y-94241178D01*
X79392538Y-94217188D01*
X79511875Y-94185452D01*
X79625071Y-94145913D01*
X79732241Y-94098519D01*
X79833500Y-94043213D01*
X79928962Y-93979942D01*
X80018743Y-93908651D01*
X80102958Y-93829286D01*
X80125606Y-93805717D01*
X80162780Y-93764717D01*
X80196012Y-93724366D01*
X80227935Y-93681386D01*
X80261184Y-93632500D01*
X80302234Y-93565297D01*
X80352007Y-93467893D01*
X80371608Y-93420000D01*
X81800000Y-93420000D01*
X81800000Y-93582500D01*
X81800000Y-93745000D01*
X83217785Y-93745000D01*
X84635569Y-93745000D01*
X84633588Y-93163750D01*
X84633474Y-93130232D01*
X84633164Y-93041835D01*
X84632856Y-92962590D01*
X84632527Y-92891870D01*
X84632151Y-92829049D01*
X84631706Y-92773499D01*
X84631167Y-92724593D01*
X84630511Y-92681706D01*
X84629713Y-92644210D01*
X84628749Y-92611478D01*
X84627596Y-92582884D01*
X84626230Y-92557801D01*
X84624626Y-92535601D01*
X84622762Y-92515660D01*
X84620612Y-92497348D01*
X84618153Y-92480041D01*
X84615361Y-92463110D01*
X84612213Y-92445930D01*
X84608683Y-92427873D01*
X84604749Y-92408313D01*
X84593797Y-92358951D01*
X84566160Y-92262452D01*
X84531770Y-92172803D01*
X84490786Y-92090176D01*
X84443372Y-92014746D01*
X84389689Y-91946684D01*
X84329899Y-91886164D01*
X84264163Y-91833359D01*
X84192643Y-91788442D01*
X84115502Y-91751586D01*
X84032900Y-91722964D01*
X83945000Y-91702748D01*
X83937269Y-91701467D01*
X83899675Y-91696840D01*
X83855994Y-91693482D01*
X83809331Y-91691489D01*
X83762791Y-91690955D01*
X83719479Y-91691977D01*
X83682500Y-91694651D01*
X83648496Y-91698868D01*
X83563978Y-91714777D01*
X83485644Y-91738012D01*
X83412649Y-91768968D01*
X83344148Y-91808039D01*
X83279297Y-91855620D01*
X83217500Y-91911880D01*
X83217251Y-91912107D01*
X83201139Y-91928719D01*
X83142282Y-91998337D01*
X83090163Y-92075132D01*
X83044965Y-92158773D01*
X83006876Y-92248927D01*
X82976078Y-92345262D01*
X82971490Y-92361396D01*
X82965213Y-92380181D01*
X82960140Y-92390320D01*
X82955954Y-92392564D01*
X82953442Y-92390989D01*
X82943193Y-92384102D01*
X82925539Y-92372056D01*
X82900953Y-92355178D01*
X82869906Y-92333794D01*
X82832872Y-92308232D01*
X82790324Y-92278818D01*
X82742733Y-92245880D01*
X82690573Y-92209744D01*
X82634315Y-92170737D01*
X82574433Y-92129187D01*
X82511399Y-92085420D01*
X82445686Y-92039763D01*
X82377766Y-91992544D01*
X82329678Y-91959109D01*
X82263366Y-91913029D01*
X82199635Y-91868772D01*
X82138954Y-91826663D01*
X82081791Y-91787025D01*
X82028615Y-91750182D01*
X81979895Y-91716460D01*
X81936100Y-91686181D01*
X81897698Y-91659672D01*
X81865159Y-91637255D01*
X81838951Y-91619255D01*
X81819544Y-91605996D01*
X81807405Y-91597804D01*
X81803005Y-91595000D01*
X81802814Y-91595375D01*
X81802189Y-91602761D01*
X81801678Y-91618783D01*
X81801292Y-91642373D01*
X81801041Y-91672460D01*
X81800934Y-91707977D01*
X81800981Y-91747854D01*
X81801192Y-91791022D01*
X81802500Y-91987043D01*
X82351250Y-92363928D01*
X82900000Y-92740814D01*
X82900000Y-93080407D01*
X82900000Y-93420000D01*
X82350000Y-93420000D01*
X81800000Y-93420000D01*
X80371608Y-93420000D01*
X80394177Y-93364856D01*
X80428462Y-93256991D01*
X80454580Y-93145104D01*
X80472249Y-93030000D01*
X80475292Y-92996372D01*
X80477770Y-92951678D01*
X80479291Y-92901672D01*
X80479853Y-92848797D01*
X80479456Y-92795498D01*
X80478098Y-92744220D01*
X80475776Y-92697406D01*
X80472490Y-92657500D01*
X80471788Y-92650982D01*
X80454480Y-92534015D01*
X80428743Y-92422290D01*
X80394427Y-92315451D01*
X80351383Y-92213141D01*
X80299463Y-92115003D01*
X80238517Y-92020679D01*
X80168396Y-91929814D01*
X80149134Y-91906889D01*
X80129673Y-91884096D01*
X80114932Y-91867577D01*
X80104004Y-91856516D01*
X80095981Y-91850097D01*
X80089957Y-91847504D01*
X80085025Y-91847921D01*
X80080279Y-91850532D01*
X80078738Y-91851637D01*
X80068595Y-91859443D01*
X80052293Y-91872438D01*
X80030649Y-91889945D01*
X80004479Y-91911285D01*
X79974601Y-91935779D01*
X79941831Y-91962749D01*
X79906987Y-91991517D01*
X79870885Y-92021403D01*
X79834342Y-92051728D01*
X79798176Y-92081816D01*
X79763203Y-92110986D01*
X79730240Y-92138561D01*
X79700104Y-92163861D01*
X79673612Y-92186209D01*
X79651581Y-92204925D01*
X79634827Y-92219332D01*
X79624169Y-92228750D01*
X79620423Y-92232500D01*
X79622919Y-92237144D01*
X79630932Y-92247825D01*
X79643159Y-92262673D01*
X79658256Y-92280000D01*
X79718032Y-92351268D01*
X79770319Y-92423613D01*
X79813912Y-92496106D01*
X79849379Y-92569801D01*
X79877287Y-92645749D01*
X79898202Y-92725000D01*
X79900032Y-92734896D01*
X79903283Y-92761714D01*
X79905681Y-92794665D01*
X79907203Y-92831450D01*
X79907826Y-92869774D01*
X79907527Y-92907338D01*
X79906283Y-92941845D01*
X79904071Y-92970998D01*
X79900869Y-92992500D01*
X79892135Y-93028859D01*
X79870188Y-93098783D01*
X79842552Y-93162443D01*
X79808521Y-93221590D01*
X79797852Y-93237522D01*
X79752034Y-93297140D01*
X79700585Y-93350603D01*
X79642509Y-93398757D01*
X79576813Y-93442451D01*
X79502500Y-93482535D01*
X79483672Y-93491513D01*
X79407943Y-93523205D01*
X79330198Y-93548524D01*
X79249108Y-93567740D01*
X79163348Y-93581129D01*
X79071588Y-93588961D01*
X78972500Y-93591512D01*
X78970000Y-93591489D01*
X78934343Y-93591155D01*
X78838524Y-93586658D01*
X78749445Y-93576768D01*
X78665705Y-93561191D01*
X78585901Y-93539628D01*
X78508634Y-93511785D01*
X78432500Y-93477365D01*
X78360383Y-93437141D01*
X78290651Y-93388353D01*
X78228642Y-93333911D01*
X78174602Y-93274214D01*
X78128776Y-93209658D01*
X78091411Y-93140644D01*
X78062753Y-93067569D01*
X78043048Y-92990833D01*
X78032541Y-92910832D01*
X78031480Y-92827967D01*
X78032442Y-92810323D01*
X78039980Y-92740893D01*
X78053684Y-92673983D01*
X78073983Y-92608670D01*
X78101308Y-92544025D01*
X78136092Y-92479124D01*
X78178765Y-92413040D01*
X78229758Y-92344847D01*
X78289502Y-92273620D01*
X78292310Y-92270416D01*
X78308020Y-92252085D01*
X78320788Y-92236501D01*
X78329364Y-92225226D01*
X78332500Y-92219823D01*
X78331493Y-92218520D01*
X78324295Y-92211344D01*
X78310850Y-92198620D01*
X78291960Y-92181070D01*
X78268425Y-92159417D01*
X78241048Y-92134384D01*
X78210630Y-92106692D01*
X78177971Y-92077064D01*
X78143875Y-92046223D01*
X78109141Y-92014891D01*
X78074572Y-91983791D01*
X78040968Y-91953645D01*
X78009132Y-91925176D01*
X77979865Y-91899106D01*
X77953968Y-91876158D01*
X77932243Y-91857053D01*
X77915490Y-91842516D01*
X77904513Y-91833267D01*
X77900111Y-91830030D01*
X77898455Y-91831275D01*
X77891035Y-91838585D01*
X77878852Y-91851343D01*
X77863107Y-91868284D01*
X77845000Y-91888144D01*
X77772662Y-91972595D01*
X77705085Y-92061984D01*
X77646580Y-92151972D01*
X77596703Y-92243461D01*
X77555010Y-92337355D01*
X77521059Y-92434557D01*
X77494405Y-92535971D01*
X77474605Y-92642500D01*
X77472149Y-92659681D01*
X77469247Y-92683973D01*
X77467001Y-92709362D01*
X77465312Y-92737630D01*
X77464079Y-92770555D01*
X77463203Y-92809918D01*
X77462585Y-92857500D01*
X77462221Y-92894795D01*
X77461936Y-92932140D01*
X77461897Y-92962514D01*
X73338018Y-92962514D01*
X73336285Y-92871644D01*
X73334409Y-92764260D01*
X73332714Y-92657219D01*
X73331221Y-92551647D01*
X73329954Y-92448669D01*
X73328934Y-92349412D01*
X73328185Y-92255000D01*
X73327442Y-92105240D01*
X73327191Y-91873801D01*
X73327952Y-91634996D01*
X73329702Y-91390374D01*
X73332418Y-91141479D01*
X73336076Y-90889859D01*
X73340652Y-90637060D01*
X73346124Y-90384628D01*
X73352468Y-90134109D01*
X73359660Y-89887052D01*
X73367678Y-89645000D01*
X73381590Y-89279709D01*
X73390666Y-89080000D01*
X77500000Y-89080000D01*
X77500000Y-89405000D01*
X78097500Y-89405000D01*
X78695000Y-89405000D01*
X78695000Y-89912500D01*
X78695000Y-90420000D01*
X78097500Y-90420000D01*
X77500000Y-90420000D01*
X77500000Y-90745000D01*
X77500000Y-91070000D01*
X78970000Y-91070000D01*
X80440000Y-91070000D01*
X80440000Y-90745000D01*
X80440000Y-90420000D01*
X79850000Y-90420000D01*
X79260000Y-90420000D01*
X79260000Y-89912500D01*
X79260000Y-89405000D01*
X79850000Y-89405000D01*
X80440000Y-89405000D01*
X80440000Y-89080000D01*
X80440000Y-88755000D01*
X81800000Y-88755000D01*
X81800000Y-88917500D01*
X81800000Y-89080000D01*
X82440000Y-89080000D01*
X83080000Y-89080000D01*
X83080000Y-89802500D01*
X83080000Y-90525000D01*
X82440000Y-90525000D01*
X81800000Y-90525000D01*
X81800000Y-90687500D01*
X81800000Y-90850000D01*
X83217500Y-90850000D01*
X84635000Y-90850000D01*
X84635000Y-90687500D01*
X84635000Y-90525000D01*
X84002500Y-90525000D01*
X83370000Y-90525000D01*
X83370000Y-89802500D01*
X83370000Y-89080000D01*
X84002500Y-89080000D01*
X84635000Y-89080000D01*
X84635000Y-88917500D01*
X84635000Y-88755000D01*
X83217500Y-88755000D01*
X81800000Y-88755000D01*
X80440000Y-88755000D01*
X78970000Y-88755000D01*
X77500000Y-88755000D01*
X77500000Y-89080000D01*
X73390666Y-89080000D01*
X73408975Y-88677116D01*
X73442062Y-88067922D01*
X73480756Y-87453060D01*
X73522874Y-86862726D01*
X81756062Y-86862726D01*
X81756089Y-86870000D01*
X81756144Y-86870504D01*
X81756785Y-86879875D01*
X81757578Y-86895752D01*
X81758363Y-86915000D01*
X81764260Y-86999675D01*
X81778171Y-87097989D01*
X81799279Y-87193456D01*
X81827240Y-87284972D01*
X81861708Y-87371434D01*
X81902337Y-87451734D01*
X81948785Y-87524770D01*
X81985102Y-87572128D01*
X82047670Y-87640400D01*
X82117404Y-87702095D01*
X82193849Y-87756933D01*
X82276549Y-87804630D01*
X82365050Y-87844905D01*
X82458896Y-87877476D01*
X82557631Y-87902061D01*
X82566089Y-87903788D01*
X82579683Y-87906589D01*
X82592331Y-87909155D01*
X82604491Y-87911499D01*
X82616616Y-87913630D01*
X82629165Y-87915560D01*
X82642593Y-87917299D01*
X82657355Y-87918859D01*
X82673909Y-87920251D01*
X82692709Y-87921484D01*
X82714212Y-87922571D01*
X82738875Y-87923522D01*
X82767153Y-87924348D01*
X82799502Y-87925059D01*
X82836378Y-87925668D01*
X82878238Y-87926184D01*
X82925537Y-87926618D01*
X82978731Y-87926982D01*
X83038277Y-87927286D01*
X83104631Y-87927542D01*
X83178248Y-87927759D01*
X83259585Y-87927950D01*
X83349098Y-87928124D01*
X83447242Y-87928293D01*
X83554474Y-87928468D01*
X83671250Y-87928659D01*
X84635000Y-87930269D01*
X84635000Y-87767635D01*
X84635000Y-87605000D01*
X83731250Y-87604921D01*
X83692139Y-87604915D01*
X83581804Y-87604858D01*
X83476866Y-87604748D01*
X83377680Y-87604586D01*
X83284599Y-87604375D01*
X83197979Y-87604115D01*
X83118172Y-87603809D01*
X83045534Y-87603459D01*
X82980417Y-87603067D01*
X82923176Y-87602633D01*
X82874165Y-87602161D01*
X82833738Y-87601652D01*
X82802249Y-87601108D01*
X82780052Y-87600530D01*
X82767500Y-87599921D01*
X82745555Y-87597980D01*
X82671145Y-87588877D01*
X82603394Y-87576116D01*
X82540023Y-87559114D01*
X82478751Y-87537283D01*
X82417298Y-87510040D01*
X82380912Y-87491120D01*
X82313265Y-87447879D01*
X82252745Y-87397656D01*
X82199496Y-87340618D01*
X82153662Y-87276927D01*
X82115388Y-87206751D01*
X82084818Y-87130253D01*
X82068900Y-87075762D01*
X82052540Y-86994024D01*
X82043507Y-86908941D01*
X82041814Y-86822526D01*
X82047475Y-86736796D01*
X82060505Y-86653765D01*
X82080917Y-86575449D01*
X82091005Y-86546056D01*
X82123407Y-86471415D01*
X82163437Y-86403219D01*
X82211004Y-86341566D01*
X82266014Y-86286553D01*
X82328375Y-86238278D01*
X82397994Y-86196837D01*
X82474778Y-86162328D01*
X82495427Y-86154727D01*
X82542776Y-86139809D01*
X82596137Y-86126264D01*
X82657500Y-86113561D01*
X82662085Y-86112706D01*
X82668773Y-86111532D01*
X82675767Y-86110457D01*
X82683509Y-86109476D01*
X82692437Y-86108583D01*
X82702994Y-86107773D01*
X82715620Y-86107042D01*
X82730755Y-86106383D01*
X82748841Y-86105792D01*
X82770317Y-86105263D01*
X82795624Y-86104791D01*
X82825203Y-86104371D01*
X82859495Y-86103997D01*
X82898940Y-86103665D01*
X82943979Y-86103369D01*
X82995052Y-86103103D01*
X83052600Y-86102863D01*
X83117064Y-86102643D01*
X83188884Y-86102439D01*
X83268501Y-86102244D01*
X83356356Y-86102053D01*
X83452888Y-86101862D01*
X83558540Y-86101665D01*
X83673750Y-86101457D01*
X84635000Y-86099731D01*
X84635000Y-85937244D01*
X84635000Y-85774757D01*
X83666250Y-85776293D01*
X82697500Y-85777829D01*
X82632790Y-85788955D01*
X82554832Y-85804138D01*
X82463125Y-85827387D01*
X82378805Y-85855361D01*
X82300913Y-85888386D01*
X82228490Y-85926790D01*
X82207467Y-85939516D01*
X82164153Y-85969594D01*
X82128783Y-85994156D01*
X82057521Y-86055459D01*
X81993725Y-86123342D01*
X81937440Y-86197723D01*
X81888712Y-86278522D01*
X81847585Y-86365656D01*
X81814106Y-86459044D01*
X81788318Y-86558604D01*
X81770267Y-86664254D01*
X81759998Y-86775913D01*
X81758765Y-86798957D01*
X81757474Y-86825409D01*
X81756549Y-86847264D01*
X81756062Y-86862726D01*
X73522874Y-86862726D01*
X73524962Y-86833464D01*
X73574587Y-86210067D01*
X73629534Y-85583803D01*
X73689710Y-84955607D01*
X73755020Y-84326411D01*
X73779933Y-84103568D01*
X81762230Y-84103568D01*
X81762813Y-84155366D01*
X81765050Y-84201214D01*
X81776580Y-84309059D01*
X81798467Y-84429945D01*
X81829607Y-84547188D01*
X81870058Y-84660930D01*
X81919879Y-84771314D01*
X81979129Y-84878483D01*
X82047866Y-84982581D01*
X82126148Y-85083750D01*
X82137596Y-85097254D01*
X82150311Y-85111607D01*
X82159653Y-85121387D01*
X82164153Y-85125000D01*
X82164650Y-85124783D01*
X82170922Y-85120076D01*
X82183245Y-85109968D01*
X82200484Y-85095446D01*
X82221508Y-85077498D01*
X82245182Y-85057111D01*
X82270375Y-85035272D01*
X82295952Y-85012968D01*
X82320781Y-84991187D01*
X82343729Y-84970917D01*
X82363663Y-84953143D01*
X82379449Y-84938855D01*
X82389954Y-84929039D01*
X82394046Y-84924682D01*
X82392562Y-84921305D01*
X82385761Y-84911160D01*
X82374385Y-84895705D01*
X82359430Y-84876286D01*
X82341893Y-84854249D01*
X82278065Y-84770186D01*
X82216187Y-84675957D01*
X82164055Y-84581006D01*
X82121535Y-84485028D01*
X82088494Y-84387718D01*
X82064799Y-84288771D01*
X82050315Y-84187882D01*
X82046148Y-84127802D01*
X82046353Y-84041186D01*
X82054086Y-83958581D01*
X82069171Y-83880522D01*
X82091436Y-83807546D01*
X82120707Y-83740186D01*
X82156809Y-83678979D01*
X82199568Y-83624460D01*
X82248811Y-83577163D01*
X82250019Y-83576169D01*
X82277172Y-83556683D01*
X82310574Y-83536783D01*
X82346896Y-83518179D01*
X82382814Y-83502582D01*
X82415000Y-83491703D01*
X82416703Y-83491255D01*
X82441210Y-83486860D01*
X82472584Y-83483928D01*
X82508041Y-83482466D01*
X82544796Y-83482476D01*
X82580064Y-83483963D01*
X82611061Y-83486931D01*
X82635000Y-83491384D01*
X82666613Y-83501850D01*
X82707014Y-83519921D01*
X82745899Y-83541897D01*
X82779065Y-83565609D01*
X82814338Y-83598743D01*
X82851815Y-83642984D01*
X82888957Y-83696341D01*
X82925843Y-83758959D01*
X82962555Y-83830986D01*
X82999172Y-83912571D01*
X83035774Y-84003860D01*
X83072441Y-84105000D01*
X83086637Y-84145549D01*
X83127380Y-84256554D01*
X83167706Y-84358117D01*
X83207864Y-84450631D01*
X83248104Y-84534490D01*
X83288674Y-84610087D01*
X83329826Y-84677816D01*
X83371809Y-84738071D01*
X83414873Y-84791244D01*
X83459267Y-84837731D01*
X83505241Y-84877923D01*
X83553044Y-84912216D01*
X83602927Y-84941002D01*
X83618047Y-84948551D01*
X83666903Y-84969816D01*
X83715932Y-84985892D01*
X83767478Y-84997337D01*
X83823886Y-85004708D01*
X83887500Y-85008560D01*
X83919728Y-85009206D01*
X83979425Y-85007495D01*
X84034419Y-85001409D01*
X84087761Y-84990541D01*
X84142500Y-84974483D01*
X84160514Y-84968280D01*
X84216184Y-84945874D01*
X84266790Y-84919745D01*
X84314529Y-84888505D01*
X84361597Y-84850764D01*
X84410192Y-84805131D01*
X84436237Y-84778046D01*
X84492152Y-84710957D01*
X84539960Y-84639425D01*
X84580124Y-84562609D01*
X84613108Y-84479670D01*
X84639375Y-84389767D01*
X84646264Y-84360021D01*
X84663849Y-84257153D01*
X84672898Y-84151022D01*
X84673535Y-84042913D01*
X84665884Y-83934114D01*
X84650070Y-83825911D01*
X84626218Y-83719592D01*
X84594453Y-83616442D01*
X84554899Y-83517748D01*
X84538142Y-83482626D01*
X84512910Y-83434621D01*
X84484729Y-83385332D01*
X84454914Y-83336881D01*
X84424780Y-83291387D01*
X84395642Y-83250972D01*
X84368816Y-83217755D01*
X84351584Y-83198009D01*
X84234542Y-83294767D01*
X84222809Y-83304466D01*
X84194453Y-83327906D01*
X84169029Y-83348918D01*
X84147494Y-83366715D01*
X84130801Y-83380506D01*
X84119906Y-83389503D01*
X84115763Y-83392917D01*
X84116596Y-83395090D01*
X84122179Y-83403763D01*
X84131867Y-83417407D01*
X84144453Y-83434282D01*
X84174490Y-83475194D01*
X84234270Y-83567338D01*
X84284397Y-83661048D01*
X84324815Y-83756165D01*
X84355470Y-83852528D01*
X84376308Y-83949979D01*
X84387273Y-84048356D01*
X84388312Y-84147500D01*
X84388212Y-84149956D01*
X84380633Y-84233903D01*
X84365269Y-84311881D01*
X84342167Y-84383774D01*
X84311371Y-84449467D01*
X84272925Y-84508844D01*
X84226876Y-84561790D01*
X84211690Y-84576227D01*
X84160960Y-84615577D01*
X84105246Y-84646269D01*
X84044711Y-84668207D01*
X84033831Y-84670766D01*
X84003843Y-84674962D01*
X83968289Y-84677105D01*
X83930071Y-84677230D01*
X83892097Y-84675368D01*
X83857271Y-84671551D01*
X83828498Y-84665812D01*
X83802590Y-84657804D01*
X83752996Y-84636062D01*
X83706524Y-84606437D01*
X83662521Y-84568402D01*
X83620335Y-84521432D01*
X83579313Y-84465000D01*
X83559462Y-84432849D01*
X83534892Y-84388106D01*
X83508822Y-84335982D01*
X83481799Y-84277702D01*
X83454368Y-84214490D01*
X83427078Y-84147569D01*
X83400473Y-84078165D01*
X83375100Y-84007500D01*
X83336874Y-83901849D01*
X83293878Y-83793833D01*
X83250174Y-83695351D01*
X83205632Y-83606165D01*
X83160126Y-83526034D01*
X83113526Y-83454720D01*
X83065705Y-83391984D01*
X83016535Y-83337586D01*
X82997181Y-83318798D01*
X82935683Y-83267889D01*
X82869883Y-83226001D01*
X82799828Y-83193159D01*
X82725564Y-83169383D01*
X82647138Y-83154699D01*
X82639349Y-83153812D01*
X82605611Y-83151453D01*
X82566485Y-83150532D01*
X82524527Y-83150957D01*
X82482297Y-83152636D01*
X82442353Y-83155478D01*
X82407252Y-83159391D01*
X82379554Y-83164283D01*
X82361983Y-83168537D01*
X82283365Y-83192829D01*
X82210623Y-83224619D01*
X82142730Y-83264494D01*
X82078658Y-83313038D01*
X82017378Y-83370840D01*
X82003876Y-83385229D01*
X81946973Y-83454739D01*
X81897370Y-83530876D01*
X81855218Y-83613315D01*
X81820667Y-83701728D01*
X81793870Y-83795790D01*
X81774975Y-83895173D01*
X81774405Y-83899165D01*
X81769387Y-83943619D01*
X81765618Y-83994581D01*
X81763199Y-84048935D01*
X81762230Y-84103568D01*
X73779933Y-84103568D01*
X73825369Y-83697150D01*
X73900662Y-83068757D01*
X73980806Y-82442167D01*
X74065705Y-81818312D01*
X74155265Y-81198127D01*
X74249390Y-80582545D01*
X74347988Y-79972500D01*
X74355280Y-79928721D01*
X74370628Y-79837347D01*
X74386552Y-79743498D01*
X74402929Y-79647859D01*
X74419635Y-79551116D01*
X74436546Y-79453954D01*
X74453539Y-79357059D01*
X74470490Y-79261116D01*
X74487275Y-79166811D01*
X74503771Y-79074828D01*
X74519854Y-78985854D01*
X74535400Y-78900574D01*
X74550286Y-78819674D01*
X74564389Y-78743838D01*
X74577583Y-78673752D01*
X74589746Y-78610102D01*
X74600755Y-78553574D01*
X74610485Y-78504852D01*
X74618812Y-78464622D01*
X74625614Y-78433570D01*
X74631085Y-78409639D01*
X79694293Y-78411500D01*
G37*
%TD*%
%LPC*%
D12*
%TO.C,R314*%
X112395000Y-110490000D03*
X122555000Y-110490000D03*
%TD*%
D13*
%TO.C,Q130*%
X195580000Y-87630000D03*
D14*
X212240000Y-90170000D03*
D15*
X195580000Y-90170000D03*
X195580000Y-92710000D03*
%TD*%
D12*
%TO.C,R900*%
X193040000Y-40640000D03*
X182880000Y-40640000D03*
%TD*%
D16*
%TO.C,Q121*%
X165100000Y-107950000D03*
D17*
X167640000Y-107950000D03*
X170180000Y-107950000D03*
%TD*%
D12*
%TO.C,R221*%
X133985000Y-116205000D03*
X144145000Y-116205000D03*
%TD*%
D16*
%TO.C,Q210*%
X144145000Y-134620000D03*
D17*
X141605000Y-134620000D03*
X139065000Y-134620000D03*
%TD*%
D18*
%TO.C,J410*%
X118110000Y-132080000D03*
D19*
X118110000Y-129540000D03*
X118110000Y-127000000D03*
X118110000Y-124460000D03*
X118110000Y-121920000D03*
X118110000Y-119380000D03*
%TD*%
D12*
%TO.C,R130*%
X180340000Y-87630000D03*
X190500000Y-87630000D03*
%TD*%
%TO.C,C906*%
X149225000Y-53570000D03*
X149225000Y-48570000D03*
%TD*%
D20*
%TO.C,SW310*%
X79375000Y-125810000D03*
D21*
X79375000Y-130810000D03*
X79375000Y-128310000D03*
D22*
X86875000Y-122610000D03*
X86875000Y-134010000D03*
D21*
X93875000Y-130810000D03*
X93875000Y-125810000D03*
%TD*%
D23*
%TO.C,U210*%
X147320000Y-133985000D03*
D24*
X147320000Y-136525000D03*
X147320000Y-139065000D03*
X154940000Y-139065000D03*
X154940000Y-136525000D03*
X154940000Y-133985000D03*
%TD*%
D12*
%TO.C,R901*%
X193040000Y-44450000D03*
X182880000Y-44450000D03*
%TD*%
%TO.C,R902*%
X175260000Y-61595000D03*
X185420000Y-61595000D03*
%TD*%
%TO.C,R212*%
X133985000Y-142875000D03*
X144145000Y-142875000D03*
%TD*%
%TO.C,R141*%
X158750000Y-67310000D03*
X168910000Y-67310000D03*
%TD*%
%TO.C,R143*%
X168910000Y-78740000D03*
X158750000Y-78740000D03*
%TD*%
D25*
%TO.C,J1*%
X124460000Y-24130000D03*
D26*
X129540000Y-24130000D03*
%TD*%
D12*
%TO.C,R210*%
X147320000Y-129540000D03*
X137160000Y-129540000D03*
%TD*%
%TO.C,C411*%
X125730000Y-129540000D03*
X125730000Y-134540000D03*
%TD*%
D23*
%TO.C,U220*%
X147320000Y-111125000D03*
D24*
X147320000Y-113665000D03*
X147320000Y-116205000D03*
X154940000Y-116205000D03*
X154940000Y-113665000D03*
X154940000Y-111125000D03*
%TD*%
D12*
%TO.C,R311*%
X102235000Y-124460000D03*
X102235000Y-134620000D03*
%TD*%
D27*
%TO.C,L410*%
X127645000Y-150495000D03*
X127645000Y-137795000D03*
%TD*%
D28*
%TO.C,D120*%
X172720000Y-113030000D03*
D12*
X180340000Y-113030000D03*
%TD*%
%TO.C,R122*%
X168910000Y-111760000D03*
X158750000Y-111760000D03*
%TD*%
%TO.C,R123*%
X168910000Y-115062000D03*
X158750000Y-115062000D03*
%TD*%
D29*
%TO.C,C120*%
X168275000Y-118407401D03*
D30*
X168275000Y-120407401D03*
%TD*%
D12*
%TO.C,R124*%
X152400000Y-120015000D03*
X162560000Y-120015000D03*
%TD*%
%TO.C,R315*%
X112395000Y-113665000D03*
X122555000Y-113665000D03*
%TD*%
%TO.C,R114*%
X152400000Y-142875000D03*
X162560000Y-142875000D03*
%TD*%
%TO.C,R220*%
X147320000Y-106680000D03*
X137160000Y-106680000D03*
%TD*%
%TO.C,R251*%
X143510000Y-33020000D03*
X153670000Y-33020000D03*
%TD*%
D31*
%TO.C,R300*%
X111760000Y-37465000D03*
X109220000Y-34925000D03*
X111760000Y-32385000D03*
%TD*%
D14*
%TO.C,DS300*%
X102120000Y-35040000D03*
X71120000Y-35040000D03*
X102120000Y-110040000D03*
X71120000Y-110040000D03*
D32*
X102620000Y-40640000D03*
X102620000Y-43180000D03*
X102620000Y-45720000D03*
X102620000Y-48260000D03*
X102620000Y-50800000D03*
X102620000Y-53340000D03*
X102620000Y-55880000D03*
X102620000Y-58420000D03*
X102620000Y-60960000D03*
X102620000Y-63500000D03*
X102620000Y-66040000D03*
X102620000Y-68580000D03*
X102620000Y-71120000D03*
X102620000Y-73660000D03*
X102620000Y-76200000D03*
X102620000Y-78740000D03*
D33*
X94480000Y-34400000D03*
D34*
X91940000Y-34400000D03*
D33*
X89440000Y-34400000D03*
X83560000Y-34400000D03*
D34*
X81020000Y-34400000D03*
D33*
X78480000Y-34400000D03*
%TD*%
D12*
%TO.C,R113*%
X168910000Y-137922000D03*
X158750000Y-137922000D03*
%TD*%
%TO.C,R110*%
X180340000Y-130810000D03*
X190500000Y-130810000D03*
%TD*%
%TO.C,R401*%
X108585000Y-97790000D03*
X108585000Y-87630000D03*
%TD*%
D23*
%TO.C,U400*%
X114300000Y-69850000D03*
D24*
X114300000Y-72390000D03*
X114300000Y-74930000D03*
X114300000Y-77470000D03*
X114300000Y-80010000D03*
X114300000Y-82550000D03*
X114300000Y-85090000D03*
X114300000Y-87630000D03*
X114300000Y-90170000D03*
X114300000Y-92710000D03*
X114300000Y-95250000D03*
X114300000Y-97790000D03*
X114300000Y-100330000D03*
X114300000Y-102870000D03*
X121920000Y-102870000D03*
X121920000Y-100330000D03*
X121920000Y-97790000D03*
X121920000Y-95250000D03*
X121920000Y-92710000D03*
X121920000Y-90170000D03*
X121920000Y-87630000D03*
X121920000Y-85090000D03*
X121920000Y-82550000D03*
X121920000Y-80010000D03*
X121920000Y-77470000D03*
X121920000Y-74930000D03*
X121920000Y-72390000D03*
X121920000Y-69850000D03*
%TD*%
D12*
%TO.C,R240*%
X147320000Y-67310000D03*
X137160000Y-67310000D03*
%TD*%
%TO.C,C410*%
X111125000Y-129620000D03*
X111125000Y-134620000D03*
%TD*%
D35*
%TO.C,C900*%
X209550000Y-34570000D03*
D12*
X204550000Y-34570000D03*
%TD*%
D13*
%TO.C,Q120*%
X195580000Y-107950000D03*
D14*
X212240000Y-110490000D03*
D15*
X195580000Y-110490000D03*
X195580000Y-113030000D03*
%TD*%
D12*
%TO.C,R241*%
X133985000Y-75565000D03*
X144145000Y-75565000D03*
%TD*%
D25*
%TO.C,J5*%
X172720000Y-24070000D03*
D26*
X177800000Y-24070000D03*
%TD*%
D12*
%TO.C,R132*%
X158750000Y-90805000D03*
X168910000Y-90805000D03*
%TD*%
D35*
%TO.C,D901*%
X190500000Y-47625000D03*
D12*
X182880000Y-47625000D03*
%TD*%
%TO.C,R133*%
X168910000Y-96520000D03*
X158750000Y-96520000D03*
%TD*%
%TO.C,R230*%
X147320000Y-85090000D03*
X137160000Y-85090000D03*
%TD*%
%TO.C,R313*%
X122555000Y-107315000D03*
X112395000Y-107315000D03*
%TD*%
D23*
%TO.C,U300*%
X114300000Y-46355000D03*
D24*
X114300000Y-48895000D03*
X114300000Y-51435000D03*
X114300000Y-53975000D03*
X114300000Y-56515000D03*
X114300000Y-59055000D03*
X114300000Y-61595000D03*
X114300000Y-64135000D03*
X121920000Y-64135000D03*
X121920000Y-61595000D03*
X121920000Y-59055000D03*
X121920000Y-56515000D03*
X121920000Y-53975000D03*
X121920000Y-51435000D03*
X121920000Y-48895000D03*
X121920000Y-46355000D03*
%TD*%
D12*
%TO.C,C400*%
X127000000Y-90170000D03*
X127000000Y-95170000D03*
%TD*%
%TO.C,C312*%
X125095000Y-113665000D03*
X130095000Y-113665000D03*
%TD*%
D35*
%TO.C,C901*%
X179070000Y-44450000D03*
D12*
X176570000Y-44450000D03*
%TD*%
D16*
%TO.C,Q220*%
X144145000Y-111760000D03*
D17*
X141605000Y-111760000D03*
X139065000Y-111760000D03*
%TD*%
D36*
%TO.C,U410*%
X121920000Y-134620000D03*
D24*
X121920000Y-132080000D03*
X121920000Y-129540000D03*
X121920000Y-127000000D03*
X121920000Y-124460000D03*
X121920000Y-121920000D03*
X121920000Y-119380000D03*
X114300000Y-119380000D03*
X114300000Y-121920000D03*
X114300000Y-124460000D03*
X114300000Y-127000000D03*
X114300000Y-129540000D03*
X114300000Y-132080000D03*
X114300000Y-134620000D03*
%TD*%
D12*
%TO.C,R121*%
X152400000Y-106680000D03*
X162560000Y-106680000D03*
%TD*%
%TO.C,C907*%
X145415000Y-53570000D03*
X145415000Y-48570000D03*
%TD*%
%TO.C,C903*%
X165100000Y-41910000D03*
X165100000Y-46910000D03*
%TD*%
%TO.C,C905*%
X165100000Y-55245000D03*
X165100000Y-50245000D03*
%TD*%
%TO.C,C311*%
X125095000Y-110490000D03*
X130095000Y-110490000D03*
%TD*%
D29*
%TO.C,C110*%
X168275000Y-141267401D03*
D30*
X168275000Y-143267401D03*
%TD*%
D37*
%TO.C,REF\u002A\u002A*%
X73010000Y-145920000D03*
%TD*%
D12*
%TO.C,R112*%
X168910000Y-134620000D03*
X158750000Y-134620000D03*
%TD*%
D37*
%TO.C,REF\u002A\u002A*%
X218010000Y-145920000D03*
%TD*%
D13*
%TO.C,Q110*%
X195580000Y-130810000D03*
D14*
X212240000Y-133350000D03*
D15*
X195580000Y-133350000D03*
X195580000Y-135890000D03*
%TD*%
D12*
%TO.C,C310*%
X125095000Y-107315000D03*
X130095000Y-107315000D03*
%TD*%
%TO.C,R232*%
X133985000Y-96520000D03*
X144145000Y-96520000D03*
%TD*%
D37*
%TO.C,REF\u002A\u002A*%
X73010000Y-25920000D03*
%TD*%
D25*
%TO.C,J4*%
X162560000Y-24070000D03*
D26*
X167640000Y-24070000D03*
%TD*%
D16*
%TO.C,Q142*%
X172720000Y-78105000D03*
D17*
X175260000Y-78105000D03*
X177800000Y-78105000D03*
%TD*%
D13*
%TO.C,Q140*%
X195580000Y-69850000D03*
D14*
X212240000Y-72390000D03*
D15*
X195580000Y-72390000D03*
X195580000Y-74930000D03*
%TD*%
D12*
%TO.C,R250*%
X153670000Y-38100000D03*
X143510000Y-38100000D03*
%TD*%
%TO.C,R140*%
X180340000Y-69850000D03*
X190500000Y-69850000D03*
%TD*%
D27*
%TO.C,R000*%
X175260000Y-57150000D03*
X195580000Y-57150000D03*
%TD*%
D12*
%TO.C,R142*%
X158750000Y-73025000D03*
X168910000Y-73025000D03*
%TD*%
D37*
%TO.C,REF\u002A\u002A*%
X218010000Y-25920000D03*
%TD*%
D12*
%TO.C,C904*%
X168910000Y-55165000D03*
X168910000Y-50165000D03*
%TD*%
D16*
%TO.C,Q131*%
X172720000Y-87630000D03*
D17*
X175260000Y-87630000D03*
X177800000Y-87630000D03*
%TD*%
D12*
%TO.C,R410*%
X125730000Y-116840000D03*
X125730000Y-127000000D03*
%TD*%
%TO.C,R903*%
X142875000Y-58420000D03*
X153035000Y-58420000D03*
%TD*%
%TO.C,R111*%
X152400000Y-129540000D03*
X162560000Y-129540000D03*
%TD*%
%TO.C,R312*%
X106045000Y-124460000D03*
X106045000Y-134620000D03*
%TD*%
%TO.C,R242*%
X133985000Y-78740000D03*
X144145000Y-78740000D03*
%TD*%
D28*
%TO.C,D110*%
X172720000Y-135890000D03*
D12*
X180340000Y-135890000D03*
%TD*%
D16*
%TO.C,Q123*%
X172720000Y-118110000D03*
D17*
X175260000Y-118110000D03*
X177800000Y-118110000D03*
%TD*%
D18*
%TO.C,J400*%
X146050000Y-29210000D03*
D19*
X143510000Y-29210000D03*
X140970000Y-29210000D03*
X138430000Y-29210000D03*
X135890000Y-29210000D03*
%TD*%
D13*
%TO.C,U900*%
X195580000Y-45720000D03*
D14*
X212240000Y-48260000D03*
D15*
X195580000Y-48260000D03*
X195580000Y-50800000D03*
%TD*%
D12*
%TO.C,R211*%
X133985000Y-139065000D03*
X144145000Y-139065000D03*
%TD*%
D16*
%TO.C,Q112*%
X172720000Y-130810000D03*
D17*
X175260000Y-130810000D03*
X177800000Y-130810000D03*
%TD*%
D16*
%TO.C,Q141*%
X172720000Y-69850000D03*
D17*
X175260000Y-69850000D03*
X177800000Y-69850000D03*
%TD*%
D12*
%TO.C,C300*%
X115650000Y-43180000D03*
X120650000Y-43180000D03*
%TD*%
%TO.C,R231*%
X133985000Y-93345000D03*
X144145000Y-93345000D03*
%TD*%
D16*
%TO.C,Q111*%
X165100000Y-130810000D03*
D17*
X167640000Y-130810000D03*
X170180000Y-130810000D03*
%TD*%
D16*
%TO.C,Q122*%
X172720000Y-107950000D03*
D17*
X175260000Y-107950000D03*
X177800000Y-107950000D03*
%TD*%
D38*
%TO.C,J411*%
X118745000Y-143485000D03*
D39*
X116245000Y-143485000D03*
X116245000Y-146685000D03*
X118745000Y-146685000D03*
D40*
X111475000Y-146195000D03*
X123515000Y-146195000D03*
%TD*%
D12*
%TO.C,R400*%
X108585000Y-85090000D03*
X108585000Y-74930000D03*
%TD*%
D23*
%TO.C,U240*%
X147320000Y-70485000D03*
D24*
X147320000Y-73025000D03*
X147320000Y-75565000D03*
X154940000Y-75565000D03*
X154940000Y-73025000D03*
X154940000Y-70485000D03*
%TD*%
D35*
%TO.C,C902*%
X179070000Y-50800000D03*
D12*
X176570000Y-50800000D03*
%TD*%
D25*
%TO.C,J6*%
X152400000Y-24070000D03*
D26*
X157480000Y-24070000D03*
%TD*%
D16*
%TO.C,U901*%
X170815000Y-46990000D03*
D17*
X170815000Y-44450000D03*
X170815000Y-41910000D03*
%TD*%
D12*
%TO.C,R310*%
X98425000Y-124460000D03*
X98425000Y-134620000D03*
%TD*%
D16*
%TO.C,Q240*%
X144145000Y-71120000D03*
D17*
X141605000Y-71120000D03*
X139065000Y-71120000D03*
%TD*%
D12*
%TO.C,R131*%
X158750000Y-85090000D03*
X168910000Y-85090000D03*
%TD*%
%TO.C,R222*%
X133985000Y-120015000D03*
X144145000Y-120015000D03*
%TD*%
D36*
%TO.C,U902*%
X160655000Y-55245000D03*
D24*
X160655000Y-52705000D03*
X160655000Y-50165000D03*
X160655000Y-47625000D03*
X153035000Y-47625000D03*
X153035000Y-50165000D03*
X153035000Y-52705000D03*
X153035000Y-55245000D03*
%TD*%
D12*
%TO.C,C250*%
X140335000Y-38100000D03*
X140335000Y-33100000D03*
%TD*%
%TO.C,R120*%
X180340000Y-107950000D03*
X190500000Y-107950000D03*
%TD*%
D23*
%TO.C,U230*%
X147320000Y-88265000D03*
D24*
X147320000Y-90805000D03*
X147320000Y-93345000D03*
X154940000Y-93345000D03*
X154940000Y-90805000D03*
X154940000Y-88265000D03*
%TD*%
D16*
%TO.C,Q230*%
X144145000Y-88900000D03*
D17*
X141605000Y-88900000D03*
X139065000Y-88900000D03*
%TD*%
D16*
%TO.C,Q132*%
X172720000Y-95885000D03*
D17*
X175260000Y-95885000D03*
X177800000Y-95885000D03*
%TD*%
D41*
%TO.C,F1*%
X186950000Y-24070000D03*
X209550000Y-24070000D03*
%TD*%
D35*
%TO.C,D900*%
X190500000Y-51435000D03*
D12*
X182880000Y-51435000D03*
%TD*%
D16*
%TO.C,Q113*%
X172720000Y-140970000D03*
D17*
X175260000Y-140970000D03*
X177800000Y-140970000D03*
%TD*%
%LPD*%
M02*
