%TF.GenerationSoftware,KiCad,Pcbnew,9.0.2*%
%TF.CreationDate,2025-07-13T15:24:28+02:00*%
%TF.ProjectId,Motor Control,4d6f746f-7220-4436-9f6e-74726f6c2e6b,1.0*%
%TF.SameCoordinates,Original*%
%TF.FileFunction,Legend,Bot*%
%TF.FilePolarity,Positive*%
%FSLAX46Y46*%
G04 Gerber Fmt 4.6, Leading zero omitted, Abs format (unit mm)*
G04 Created by KiCad (PCBNEW 9.0.2) date 2025-07-13 15:24:28*
%MOMM*%
%LPD*%
G01*
G04 APERTURE LIST*
G04 Aperture macros list*
%AMRoundRect*
0 Rectangle with rounded corners*
0 $1 Rounding radius*
0 $2 $3 $4 $5 $6 $7 $8 $9 X,Y pos of 4 corners*
0 Add a 4 corners polygon primitive as box body*
4,1,4,$2,$3,$4,$5,$6,$7,$8,$9,$2,$3,0*
0 Add four circle primitives for the rounded corners*
1,1,$1+$1,$2,$3*
1,1,$1+$1,$4,$5*
1,1,$1+$1,$6,$7*
1,1,$1+$1,$8,$9*
0 Add four rect primitives between the rounded corners*
20,1,$1+$1,$2,$3,$4,$5,0*
20,1,$1+$1,$4,$5,$6,$7,0*
20,1,$1+$1,$6,$7,$8,$9,0*
20,1,$1+$1,$8,$9,$2,$3,0*%
G04 Aperture macros list end*
%ADD10C,0.150000*%
%ADD11C,0.000000*%
%ADD12C,1.600000*%
%ADD13RoundRect,0.625000X-0.625000X-0.875000X0.625000X-0.875000X0.625000X0.875000X-0.625000X0.875000X0*%
%ADD14R,2.000000X1.905000*%
%ADD15C,4.500000*%
%ADD16O,2.000000X1.905000*%
%ADD17RoundRect,0.250000X0.550000X0.550000X-0.550000X0.550000X-0.550000X-0.550000X0.550000X-0.550000X0*%
%ADD18RoundRect,0.250000X-0.650000X-1.550000X0.650000X-1.550000X0.650000X1.550000X-0.650000X1.550000X0*%
%ADD19O,1.800000X3.600000*%
%ADD20R,1.500000X1.500000*%
%ADD21C,1.500000*%
%ADD22R,1.400000X1.400000*%
%ADD23C,1.400000*%
%ADD24C,3.000000*%
%ADD25RoundRect,0.250000X0.950000X0.550000X-0.950000X0.550000X-0.950000X-0.550000X0.950000X-0.550000X0*%
%ADD26O,2.400000X1.600000*%
%ADD27RoundRect,0.250000X-0.950000X-0.550000X0.950000X-0.550000X0.950000X0.550000X-0.950000X0.550000X0*%
%ADD28O,2.600000X1.800000*%
%ADD29R,3.000000X1.800000*%
%ADD30R,3.000000X1.000000*%
%ADD31C,3.600000*%
%ADD32C,1.750000*%
%ADD33C,2.400000*%
%ADD34R,1.700000X1.700000*%
%ADD35C,1.700000*%
%ADD36R,2.000000X2.000000*%
%ADD37C,2.000000*%
%ADD38R,3.200000X2.400000*%
%ADD39RoundRect,0.250000X-0.550000X-0.550000X0.550000X-0.550000X0.550000X0.550000X-0.550000X0.550000X0*%
%ADD40RoundRect,0.250000X-0.350000X0.350000X-0.350000X-0.350000X0.350000X-0.350000X0.350000X0.350000X0*%
%ADD41C,1.200000*%
G04 APERTURE END LIST*
D10*
X79887561Y-74355125D02*
X81887561Y-74355125D01*
X81887561Y-74355125D02*
X80458990Y-73688458D01*
X80458990Y-73688458D02*
X81887561Y-73021792D01*
X81887561Y-73021792D02*
X79887561Y-73021792D01*
X79887561Y-71783697D02*
X79982800Y-71974173D01*
X79982800Y-71974173D02*
X80078038Y-72069411D01*
X80078038Y-72069411D02*
X80268514Y-72164649D01*
X80268514Y-72164649D02*
X80839942Y-72164649D01*
X80839942Y-72164649D02*
X81030419Y-72069411D01*
X81030419Y-72069411D02*
X81125657Y-71974173D01*
X81125657Y-71974173D02*
X81220895Y-71783697D01*
X81220895Y-71783697D02*
X81220895Y-71497982D01*
X81220895Y-71497982D02*
X81125657Y-71307506D01*
X81125657Y-71307506D02*
X81030419Y-71212268D01*
X81030419Y-71212268D02*
X80839942Y-71117030D01*
X80839942Y-71117030D02*
X80268514Y-71117030D01*
X80268514Y-71117030D02*
X80078038Y-71212268D01*
X80078038Y-71212268D02*
X79982800Y-71307506D01*
X79982800Y-71307506D02*
X79887561Y-71497982D01*
X79887561Y-71497982D02*
X79887561Y-71783697D01*
X81220895Y-70545601D02*
X81220895Y-69783697D01*
X81887561Y-70259887D02*
X80173276Y-70259887D01*
X80173276Y-70259887D02*
X79982800Y-70164649D01*
X79982800Y-70164649D02*
X79887561Y-69974173D01*
X79887561Y-69974173D02*
X79887561Y-69783697D01*
X79887561Y-68831316D02*
X79982800Y-69021792D01*
X79982800Y-69021792D02*
X80078038Y-69117030D01*
X80078038Y-69117030D02*
X80268514Y-69212268D01*
X80268514Y-69212268D02*
X80839942Y-69212268D01*
X80839942Y-69212268D02*
X81030419Y-69117030D01*
X81030419Y-69117030D02*
X81125657Y-69021792D01*
X81125657Y-69021792D02*
X81220895Y-68831316D01*
X81220895Y-68831316D02*
X81220895Y-68545601D01*
X81220895Y-68545601D02*
X81125657Y-68355125D01*
X81125657Y-68355125D02*
X81030419Y-68259887D01*
X81030419Y-68259887D02*
X80839942Y-68164649D01*
X80839942Y-68164649D02*
X80268514Y-68164649D01*
X80268514Y-68164649D02*
X80078038Y-68259887D01*
X80078038Y-68259887D02*
X79982800Y-68355125D01*
X79982800Y-68355125D02*
X79887561Y-68545601D01*
X79887561Y-68545601D02*
X79887561Y-68831316D01*
X79887561Y-67307506D02*
X81220895Y-67307506D01*
X80839942Y-67307506D02*
X81030419Y-67212268D01*
X81030419Y-67212268D02*
X81125657Y-67117030D01*
X81125657Y-67117030D02*
X81220895Y-66926554D01*
X81220895Y-66926554D02*
X81220895Y-66736077D01*
X80078038Y-63402744D02*
X79982800Y-63497982D01*
X79982800Y-63497982D02*
X79887561Y-63783696D01*
X79887561Y-63783696D02*
X79887561Y-63974172D01*
X79887561Y-63974172D02*
X79982800Y-64259887D01*
X79982800Y-64259887D02*
X80173276Y-64450363D01*
X80173276Y-64450363D02*
X80363752Y-64545601D01*
X80363752Y-64545601D02*
X80744704Y-64640839D01*
X80744704Y-64640839D02*
X81030419Y-64640839D01*
X81030419Y-64640839D02*
X81411371Y-64545601D01*
X81411371Y-64545601D02*
X81601847Y-64450363D01*
X81601847Y-64450363D02*
X81792323Y-64259887D01*
X81792323Y-64259887D02*
X81887561Y-63974172D01*
X81887561Y-63974172D02*
X81887561Y-63783696D01*
X81887561Y-63783696D02*
X81792323Y-63497982D01*
X81792323Y-63497982D02*
X81697085Y-63402744D01*
X79887561Y-62259887D02*
X79982800Y-62450363D01*
X79982800Y-62450363D02*
X80078038Y-62545601D01*
X80078038Y-62545601D02*
X80268514Y-62640839D01*
X80268514Y-62640839D02*
X80839942Y-62640839D01*
X80839942Y-62640839D02*
X81030419Y-62545601D01*
X81030419Y-62545601D02*
X81125657Y-62450363D01*
X81125657Y-62450363D02*
X81220895Y-62259887D01*
X81220895Y-62259887D02*
X81220895Y-61974172D01*
X81220895Y-61974172D02*
X81125657Y-61783696D01*
X81125657Y-61783696D02*
X81030419Y-61688458D01*
X81030419Y-61688458D02*
X80839942Y-61593220D01*
X80839942Y-61593220D02*
X80268514Y-61593220D01*
X80268514Y-61593220D02*
X80078038Y-61688458D01*
X80078038Y-61688458D02*
X79982800Y-61783696D01*
X79982800Y-61783696D02*
X79887561Y-61974172D01*
X79887561Y-61974172D02*
X79887561Y-62259887D01*
X81220895Y-60736077D02*
X79887561Y-60736077D01*
X81030419Y-60736077D02*
X81125657Y-60640839D01*
X81125657Y-60640839D02*
X81220895Y-60450363D01*
X81220895Y-60450363D02*
X81220895Y-60164648D01*
X81220895Y-60164648D02*
X81125657Y-59974172D01*
X81125657Y-59974172D02*
X80935180Y-59878934D01*
X80935180Y-59878934D02*
X79887561Y-59878934D01*
X81220895Y-59212267D02*
X81220895Y-58450363D01*
X81887561Y-58926553D02*
X80173276Y-58926553D01*
X80173276Y-58926553D02*
X79982800Y-58831315D01*
X79982800Y-58831315D02*
X79887561Y-58640839D01*
X79887561Y-58640839D02*
X79887561Y-58450363D01*
X79887561Y-57783696D02*
X81220895Y-57783696D01*
X80839942Y-57783696D02*
X81030419Y-57688458D01*
X81030419Y-57688458D02*
X81125657Y-57593220D01*
X81125657Y-57593220D02*
X81220895Y-57402744D01*
X81220895Y-57402744D02*
X81220895Y-57212267D01*
X79887561Y-56259887D02*
X79982800Y-56450363D01*
X79982800Y-56450363D02*
X80078038Y-56545601D01*
X80078038Y-56545601D02*
X80268514Y-56640839D01*
X80268514Y-56640839D02*
X80839942Y-56640839D01*
X80839942Y-56640839D02*
X81030419Y-56545601D01*
X81030419Y-56545601D02*
X81125657Y-56450363D01*
X81125657Y-56450363D02*
X81220895Y-56259887D01*
X81220895Y-56259887D02*
X81220895Y-55974172D01*
X81220895Y-55974172D02*
X81125657Y-55783696D01*
X81125657Y-55783696D02*
X81030419Y-55688458D01*
X81030419Y-55688458D02*
X80839942Y-55593220D01*
X80839942Y-55593220D02*
X80268514Y-55593220D01*
X80268514Y-55593220D02*
X80078038Y-55688458D01*
X80078038Y-55688458D02*
X79982800Y-55783696D01*
X79982800Y-55783696D02*
X79887561Y-55974172D01*
X79887561Y-55974172D02*
X79887561Y-56259887D01*
X79887561Y-54450363D02*
X79982800Y-54640839D01*
X79982800Y-54640839D02*
X80173276Y-54736077D01*
X80173276Y-54736077D02*
X81887561Y-54736077D01*
X81220895Y-52355124D02*
X79887561Y-51878934D01*
X79887561Y-51878934D02*
X81220895Y-51402743D01*
X79887561Y-48069409D02*
X79887561Y-49212266D01*
X79887561Y-48640838D02*
X81887561Y-48640838D01*
X81887561Y-48640838D02*
X81601847Y-48831314D01*
X81601847Y-48831314D02*
X81411371Y-49021790D01*
X81411371Y-49021790D02*
X81316133Y-49212266D01*
X80078038Y-47212266D02*
X79982800Y-47117028D01*
X79982800Y-47117028D02*
X79887561Y-47212266D01*
X79887561Y-47212266D02*
X79982800Y-47307504D01*
X79982800Y-47307504D02*
X80078038Y-47212266D01*
X80078038Y-47212266D02*
X79887561Y-47212266D01*
X81887561Y-45878933D02*
X81887561Y-45688456D01*
X81887561Y-45688456D02*
X81792323Y-45497980D01*
X81792323Y-45497980D02*
X81697085Y-45402742D01*
X81697085Y-45402742D02*
X81506609Y-45307504D01*
X81506609Y-45307504D02*
X81125657Y-45212266D01*
X81125657Y-45212266D02*
X80649466Y-45212266D01*
X80649466Y-45212266D02*
X80268514Y-45307504D01*
X80268514Y-45307504D02*
X80078038Y-45402742D01*
X80078038Y-45402742D02*
X79982800Y-45497980D01*
X79982800Y-45497980D02*
X79887561Y-45688456D01*
X79887561Y-45688456D02*
X79887561Y-45878933D01*
X79887561Y-45878933D02*
X79982800Y-46069409D01*
X79982800Y-46069409D02*
X80078038Y-46164647D01*
X80078038Y-46164647D02*
X80268514Y-46259885D01*
X80268514Y-46259885D02*
X80649466Y-46355123D01*
X80649466Y-46355123D02*
X81125657Y-46355123D01*
X81125657Y-46355123D02*
X81506609Y-46259885D01*
X81506609Y-46259885D02*
X81697085Y-46164647D01*
X81697085Y-46164647D02*
X81792323Y-46069409D01*
X81792323Y-46069409D02*
X81887561Y-45878933D01*
D11*
%TO.C,G\u002A\u002A\u002A*%
G36*
X78674293Y-78411500D02*
G01*
X78834881Y-78411560D01*
X79134153Y-78411679D01*
X79423554Y-78411802D01*
X79703170Y-78411930D01*
X79973086Y-78412064D01*
X80233387Y-78412202D01*
X80484159Y-78412346D01*
X80725486Y-78412495D01*
X80957454Y-78412650D01*
X81180148Y-78412810D01*
X81393653Y-78412976D01*
X81598054Y-78413148D01*
X81793437Y-78413326D01*
X81979885Y-78413511D01*
X82157486Y-78413701D01*
X82326324Y-78413898D01*
X82486483Y-78414101D01*
X82638050Y-78414311D01*
X82781109Y-78414527D01*
X82915745Y-78414751D01*
X83042044Y-78414981D01*
X83160091Y-78415219D01*
X83269971Y-78415463D01*
X83371769Y-78415715D01*
X83465570Y-78415975D01*
X83551460Y-78416242D01*
X83629523Y-78416517D01*
X83699846Y-78416799D01*
X83762512Y-78417090D01*
X83817607Y-78417388D01*
X83865216Y-78417695D01*
X83905425Y-78418010D01*
X83938319Y-78418334D01*
X83963982Y-78418666D01*
X83982500Y-78419006D01*
X83986827Y-78419106D01*
X84146217Y-78422829D01*
X84296462Y-78426443D01*
X84438392Y-78429976D01*
X84572840Y-78433458D01*
X84700636Y-78436916D01*
X84822612Y-78440379D01*
X84939599Y-78443875D01*
X85052430Y-78447434D01*
X85161934Y-78451082D01*
X85268944Y-78454850D01*
X85374291Y-78458764D01*
X85478807Y-78462855D01*
X85583323Y-78467150D01*
X85688670Y-78471677D01*
X85795680Y-78476465D01*
X85905184Y-78481543D01*
X86018014Y-78486939D01*
X86135000Y-78492681D01*
X86201548Y-78496022D01*
X86631283Y-78519359D01*
X87060478Y-78545700D01*
X87488556Y-78574981D01*
X87914936Y-78607136D01*
X88339039Y-78642103D01*
X88760288Y-78679817D01*
X89178102Y-78720214D01*
X89591904Y-78763229D01*
X90001113Y-78808799D01*
X90405151Y-78856859D01*
X90803440Y-78907346D01*
X91195399Y-78960195D01*
X91580451Y-79015342D01*
X91958016Y-79072723D01*
X92327515Y-79132273D01*
X92688370Y-79193930D01*
X93040000Y-79257627D01*
X93077208Y-79264608D01*
X93136389Y-79275856D01*
X93197468Y-79287624D01*
X93259606Y-79299739D01*
X93321967Y-79312031D01*
X93383714Y-79324327D01*
X93444010Y-79336456D01*
X93502017Y-79348248D01*
X93556899Y-79359530D01*
X93607819Y-79370131D01*
X93653939Y-79379880D01*
X93694423Y-79388605D01*
X93728434Y-79396135D01*
X93755134Y-79402299D01*
X93773687Y-79406925D01*
X93783255Y-79409841D01*
X93787013Y-79412722D01*
X93792628Y-79420612D01*
X93799803Y-79434194D01*
X93808986Y-79454400D01*
X93820622Y-79482163D01*
X93835158Y-79518417D01*
X93879088Y-79631627D01*
X93928005Y-79762189D01*
X93978285Y-79900801D01*
X94029626Y-80046550D01*
X94081730Y-80198525D01*
X94134293Y-80355811D01*
X94187016Y-80517498D01*
X94239598Y-80682673D01*
X94291737Y-80850423D01*
X94343133Y-81019836D01*
X94393485Y-81189999D01*
X94442491Y-81360000D01*
X94524635Y-81654617D01*
X94649685Y-82126889D01*
X94768705Y-82606527D01*
X94881615Y-83093096D01*
X94988335Y-83586162D01*
X95088786Y-84085292D01*
X95182887Y-84590050D01*
X95270560Y-85100003D01*
X95351724Y-85614718D01*
X95426299Y-86133758D01*
X95494206Y-86656692D01*
X95555365Y-87183084D01*
X95609697Y-87712500D01*
X95615121Y-87769713D01*
X95634771Y-87988630D01*
X95653048Y-88211700D01*
X95669975Y-88439406D01*
X95685574Y-88672230D01*
X95699868Y-88910653D01*
X95712881Y-89155159D01*
X95724635Y-89406229D01*
X95735154Y-89664345D01*
X95744460Y-89929990D01*
X95752577Y-90203646D01*
X95759527Y-90485795D01*
X95765333Y-90776919D01*
X95770019Y-91077500D01*
X95772053Y-91250059D01*
X95774339Y-91577057D01*
X95774714Y-91913281D01*
X95773195Y-92258351D01*
X95769798Y-92611888D01*
X95764539Y-92973510D01*
X95757434Y-93342840D01*
X95748500Y-93719496D01*
X95737753Y-94103100D01*
X95725208Y-94493270D01*
X95710884Y-94889628D01*
X95694794Y-95291793D01*
X95676957Y-95699386D01*
X95657388Y-96112027D01*
X95636103Y-96529336D01*
X95613118Y-96950933D01*
X95588451Y-97376438D01*
X95562116Y-97805471D01*
X95534131Y-98237654D01*
X95504511Y-98672605D01*
X95473273Y-99109945D01*
X95440432Y-99549294D01*
X95406007Y-99990273D01*
X95370011Y-100432500D01*
X95369499Y-100438668D01*
X95362730Y-100519713D01*
X95355705Y-100603090D01*
X95348478Y-100688215D01*
X95341101Y-100774501D01*
X95333626Y-100861363D01*
X95326105Y-100948216D01*
X95318590Y-101034474D01*
X95311136Y-101119552D01*
X95303792Y-101202863D01*
X95296613Y-101283822D01*
X95289651Y-101361844D01*
X95282957Y-101436343D01*
X95276585Y-101506734D01*
X95270586Y-101572431D01*
X95265014Y-101632848D01*
X95259920Y-101687400D01*
X95255357Y-101735501D01*
X95251378Y-101776566D01*
X95248034Y-101810009D01*
X95245379Y-101835244D01*
X95243465Y-101851687D01*
X95242343Y-101858750D01*
X95242306Y-101858781D01*
X95240100Y-101859019D01*
X95234431Y-101859251D01*
X95225191Y-101859477D01*
X95212272Y-101859698D01*
X95195568Y-101859913D01*
X95174972Y-101860122D01*
X95150375Y-101860327D01*
X95121672Y-101860525D01*
X95088755Y-101860719D01*
X95051516Y-101860907D01*
X95009850Y-101861090D01*
X94963647Y-101861268D01*
X94912802Y-101861440D01*
X94857208Y-101861608D01*
X94796756Y-101861771D01*
X94731340Y-101861929D01*
X94660853Y-101862082D01*
X94585188Y-101862230D01*
X94504237Y-101862374D01*
X94417894Y-101862513D01*
X94326050Y-101862648D01*
X94228600Y-101862778D01*
X94125436Y-101862903D01*
X94016450Y-101863024D01*
X93901536Y-101863141D01*
X93780587Y-101863254D01*
X93653494Y-101863362D01*
X93520152Y-101863467D01*
X93380453Y-101863567D01*
X93234290Y-101863663D01*
X93081555Y-101863755D01*
X92922143Y-101863844D01*
X92755944Y-101863928D01*
X92582853Y-101864009D01*
X92402762Y-101864086D01*
X92215564Y-101864160D01*
X92021151Y-101864230D01*
X91819418Y-101864296D01*
X91610256Y-101864359D01*
X91393558Y-101864419D01*
X91169218Y-101864475D01*
X90937127Y-101864528D01*
X90697180Y-101864578D01*
X90449268Y-101864624D01*
X90193285Y-101864668D01*
X89929124Y-101864709D01*
X89656677Y-101864746D01*
X89375837Y-101864781D01*
X89086497Y-101864813D01*
X88788550Y-101864842D01*
X88481889Y-101864869D01*
X88166407Y-101864893D01*
X87841996Y-101864914D01*
X87508549Y-101864933D01*
X87165959Y-101864949D01*
X86814120Y-101864963D01*
X86452923Y-101864975D01*
X86082262Y-101864984D01*
X85702030Y-101864991D01*
X85312119Y-101864997D01*
X84912423Y-101865000D01*
X84502833Y-101865000D01*
X84412052Y-101865000D01*
X84017957Y-101865000D01*
X83633709Y-101865000D01*
X83259183Y-101865000D01*
X82894255Y-101864999D01*
X82538800Y-101864998D01*
X82192693Y-101864996D01*
X81855811Y-101864993D01*
X81528027Y-101864990D01*
X81209218Y-101864985D01*
X80899259Y-101864980D01*
X80784434Y-101864977D01*
X80598026Y-101864973D01*
X80305392Y-101864965D01*
X80021235Y-101864955D01*
X79745429Y-101864944D01*
X79477850Y-101864932D01*
X79218372Y-101864917D01*
X79137500Y-101864912D01*
X78966872Y-101864901D01*
X78723225Y-101864883D01*
X78487305Y-101864862D01*
X78258989Y-101864840D01*
X78038152Y-101864815D01*
X77824669Y-101864787D01*
X77618415Y-101864757D01*
X77419267Y-101864724D01*
X77227098Y-101864689D01*
X77041785Y-101864650D01*
X76863202Y-101864609D01*
X76691226Y-101864564D01*
X76525731Y-101864516D01*
X76366594Y-101864464D01*
X76213688Y-101864409D01*
X76066890Y-101864351D01*
X75926075Y-101864289D01*
X75791118Y-101864223D01*
X75661895Y-101864152D01*
X75538281Y-101864078D01*
X75420152Y-101864000D01*
X75307382Y-101863917D01*
X75199847Y-101863830D01*
X75097422Y-101863738D01*
X74999984Y-101863642D01*
X74907406Y-101863540D01*
X74819565Y-101863434D01*
X74736335Y-101863323D01*
X74657593Y-101863207D01*
X74583213Y-101863085D01*
X74513072Y-101862959D01*
X74447043Y-101862826D01*
X74385003Y-101862688D01*
X74326827Y-101862545D01*
X74272390Y-101862395D01*
X74221567Y-101862240D01*
X74174235Y-101862078D01*
X74130268Y-101861910D01*
X74089542Y-101861736D01*
X74051931Y-101861556D01*
X74017312Y-101861369D01*
X73985560Y-101861175D01*
X73956550Y-101860975D01*
X73930157Y-101860768D01*
X73906257Y-101860554D01*
X73884725Y-101860332D01*
X73865437Y-101860104D01*
X73848267Y-101859868D01*
X73833092Y-101859624D01*
X73819786Y-101859374D01*
X73808225Y-101859115D01*
X73798284Y-101858849D01*
X73789839Y-101858574D01*
X73782765Y-101858292D01*
X73776937Y-101858001D01*
X73772231Y-101857702D01*
X73768521Y-101857395D01*
X73765684Y-101857080D01*
X73763595Y-101856755D01*
X73762129Y-101856422D01*
X73761161Y-101856080D01*
X73760566Y-101855730D01*
X73760221Y-101855370D01*
X73760000Y-101855001D01*
X73757346Y-101848651D01*
X73757900Y-101845000D01*
X73758121Y-101841908D01*
X73753834Y-101833750D01*
X73749018Y-101824640D01*
X73742302Y-101809098D01*
X73736147Y-101792664D01*
X73732410Y-101780000D01*
X73731998Y-101778723D01*
X73728693Y-101770440D01*
X73723301Y-101757792D01*
X73721754Y-101754153D01*
X73715669Y-101738221D01*
X73711666Y-101725292D01*
X73708753Y-101715894D01*
X73704411Y-101707108D01*
X73702001Y-101703002D01*
X73698351Y-101692108D01*
X73695732Y-101681619D01*
X73690789Y-101667570D01*
X73682564Y-101647500D01*
X73679669Y-101640157D01*
X73673693Y-101623332D01*
X73667743Y-101605000D01*
X73664091Y-101593528D01*
X73658685Y-101577793D01*
X73654648Y-101567500D01*
X73651753Y-101560795D01*
X73646190Y-101546116D01*
X73640720Y-101529995D01*
X73636195Y-101515133D01*
X73633465Y-101504234D01*
X73633382Y-101500000D01*
X73634137Y-101499136D01*
X73631283Y-101493750D01*
X73630249Y-101491756D01*
X73626168Y-101481533D01*
X73619897Y-101464461D01*
X73612038Y-101442309D01*
X73603192Y-101416845D01*
X73593964Y-101389840D01*
X73584953Y-101363062D01*
X73576764Y-101338280D01*
X73569999Y-101317264D01*
X73565258Y-101301783D01*
X73563146Y-101293606D01*
X73562863Y-101292116D01*
X73559220Y-101282500D01*
X73558961Y-101281944D01*
X73556177Y-101274165D01*
X73551077Y-101258871D01*
X73544182Y-101237715D01*
X73536017Y-101212347D01*
X73527106Y-101184419D01*
X73517972Y-101155584D01*
X73509138Y-101127491D01*
X73501128Y-101101793D01*
X73494466Y-101080142D01*
X73489676Y-101064188D01*
X73487280Y-101055584D01*
X73486095Y-101051314D01*
X73482220Y-101038347D01*
X73476261Y-101018872D01*
X73468764Y-100994665D01*
X73460273Y-100967500D01*
X73454286Y-100948313D01*
X73446422Y-100922710D01*
X73439946Y-100901155D01*
X73435405Y-100885476D01*
X73433347Y-100877500D01*
X73432026Y-100871374D01*
X73428657Y-100860000D01*
X73426206Y-100853174D01*
X73421039Y-100837338D01*
X73415562Y-100819366D01*
X73410941Y-100803130D01*
X73408341Y-100792500D01*
X73406979Y-100786375D01*
X73403436Y-100775000D01*
X73402631Y-100772666D01*
X73399278Y-100761750D01*
X73394067Y-100744131D01*
X73387555Y-100721759D01*
X73380302Y-100696587D01*
X73372866Y-100670565D01*
X73365806Y-100645645D01*
X73359680Y-100623778D01*
X73355048Y-100606914D01*
X73352468Y-100597006D01*
X73352414Y-100596778D01*
X73349836Y-100587045D01*
X73345399Y-100571180D01*
X73340030Y-100552500D01*
X73339819Y-100551778D01*
X73334468Y-100533047D01*
X73330100Y-100517164D01*
X73327641Y-100507500D01*
X73326865Y-100504279D01*
X73323531Y-100491640D01*
X73318541Y-100473456D01*
X73312651Y-100452500D01*
X73309838Y-100442554D01*
X73304261Y-100422546D01*
X73299929Y-100406604D01*
X73297598Y-100397500D01*
X73296136Y-100391628D01*
X73292332Y-100377207D01*
X73287015Y-100357504D01*
X73280849Y-100335000D01*
X73275987Y-100317342D01*
X73270810Y-100298428D01*
X73267135Y-100284868D01*
X73265544Y-100278803D01*
X73265177Y-100277306D01*
X73262640Y-100268803D01*
X73262186Y-100267312D01*
X73259371Y-100257074D01*
X73254805Y-100239848D01*
X73249014Y-100217676D01*
X73242523Y-100192597D01*
X73235857Y-100166651D01*
X73229539Y-100141879D01*
X73224096Y-100120319D01*
X73220052Y-100104013D01*
X73217931Y-100095000D01*
X73217791Y-100094354D01*
X73215468Y-100084575D01*
X73211147Y-100067047D01*
X73205253Y-100043474D01*
X73198212Y-100015557D01*
X73190449Y-99985000D01*
X73189348Y-99980681D01*
X73181661Y-99950388D01*
X73174757Y-99922971D01*
X73169061Y-99900132D01*
X73164998Y-99883574D01*
X73162992Y-99875000D01*
X73162843Y-99874297D01*
X73160082Y-99862637D01*
X73155666Y-99845173D01*
X73150478Y-99825406D01*
X73149494Y-99821700D01*
X73145060Y-99804254D01*
X73142083Y-99791298D01*
X73141165Y-99785406D01*
X73141152Y-99784203D01*
X73139511Y-99775621D01*
X73136120Y-99762500D01*
X73135253Y-99759395D01*
X73130964Y-99743099D01*
X73127878Y-99730000D01*
X73126465Y-99723665D01*
X73122870Y-99708369D01*
X73117953Y-99687930D01*
X73112346Y-99665000D01*
X73108289Y-99648353D01*
X73103209Y-99626954D01*
X73099330Y-99609953D01*
X73097267Y-99600000D01*
X73095992Y-99593659D01*
X73092565Y-99578363D01*
X73087768Y-99557926D01*
X73082215Y-99535000D01*
X73078177Y-99518349D01*
X73073155Y-99496952D01*
X73069359Y-99479952D01*
X73067394Y-99470000D01*
X73065751Y-99460640D01*
X73062872Y-99447500D01*
X73060770Y-99438936D01*
X73056809Y-99422058D01*
X73051617Y-99399518D01*
X73045626Y-99373243D01*
X73039272Y-99345158D01*
X73032989Y-99317190D01*
X73027210Y-99291265D01*
X73022369Y-99269307D01*
X73018901Y-99253244D01*
X73017238Y-99245000D01*
X73015684Y-99236923D01*
X73012189Y-99220813D01*
X73007925Y-99202500D01*
X73004716Y-99188846D01*
X73000676Y-99170659D01*
X72998023Y-99157500D01*
X72997077Y-99152562D01*
X72994059Y-99137739D01*
X72989605Y-99116424D01*
X72984145Y-99090663D01*
X72978107Y-99062500D01*
X72974422Y-99045364D01*
X72968666Y-99018402D01*
X72963736Y-98995073D01*
X72960062Y-98977424D01*
X72958077Y-98967500D01*
X72955806Y-98956132D01*
X72951998Y-98938167D01*
X72947652Y-98918408D01*
X72943751Y-98900316D01*
X72939796Y-98880541D01*
X72937203Y-98865908D01*
X72937166Y-98865666D01*
X72935407Y-98854482D01*
X72933617Y-98844371D01*
X72931253Y-98832626D01*
X72927771Y-98816540D01*
X72922627Y-98793408D01*
X72918739Y-98775320D01*
X72914792Y-98755543D01*
X72912203Y-98740908D01*
X72912176Y-98740726D01*
X72910465Y-98729832D01*
X72908741Y-98720024D01*
X72906462Y-98708591D01*
X72903089Y-98692820D01*
X72898081Y-98670000D01*
X72894637Y-98653726D01*
X72890985Y-98635000D01*
X76480000Y-98635000D01*
X76480000Y-98957500D01*
X76480000Y-99280000D01*
X77667500Y-99280000D01*
X78855000Y-99280000D01*
X78855000Y-99672500D01*
X78855000Y-100065000D01*
X79137500Y-100065000D01*
X79420000Y-100065000D01*
X79420000Y-98957500D01*
X79420000Y-97850000D01*
X79137500Y-97850000D01*
X78855000Y-97850000D01*
X78855000Y-98242500D01*
X78855000Y-98635000D01*
X77950000Y-98635000D01*
X77667500Y-98635000D01*
X76480000Y-98635000D01*
X72890985Y-98635000D01*
X72890857Y-98634343D01*
X72888419Y-98620000D01*
X72888413Y-98619957D01*
X72886062Y-98606133D01*
X72882314Y-98586755D01*
X72877977Y-98566005D01*
X72877892Y-98565616D01*
X72873611Y-98545166D01*
X72869974Y-98526460D01*
X72867759Y-98513505D01*
X72867643Y-98512716D01*
X72865632Y-98500844D01*
X72862165Y-98481888D01*
X72857698Y-98458292D01*
X72852686Y-98432500D01*
X72851866Y-98428319D01*
X72846986Y-98402890D01*
X72841189Y-98371985D01*
X72834750Y-98337135D01*
X72827942Y-98299871D01*
X72821041Y-98261723D01*
X72814321Y-98224223D01*
X72808057Y-98188900D01*
X72802523Y-98157285D01*
X72797994Y-98130910D01*
X72794744Y-98111305D01*
X72793048Y-98100000D01*
X72792918Y-98098983D01*
X72790602Y-98084964D01*
X72788105Y-98075000D01*
X72787611Y-98073471D01*
X72785161Y-98062260D01*
X72782944Y-98047500D01*
X72782610Y-98044863D01*
X72780234Y-98028655D01*
X72776792Y-98007407D01*
X72772906Y-97985000D01*
X72772079Y-97980366D01*
X72768089Y-97957296D01*
X72764557Y-97935797D01*
X72762165Y-97920000D01*
X72761375Y-97914356D01*
X72759062Y-97898601D01*
X72757282Y-97887500D01*
X72755284Y-97875956D01*
X72752812Y-97861243D01*
X72750351Y-97846579D01*
X72747713Y-97831243D01*
X72745661Y-97819466D01*
X72741297Y-97794022D01*
X72736376Y-97764964D01*
X72731220Y-97734216D01*
X72726147Y-97703705D01*
X72721476Y-97675352D01*
X72717527Y-97651085D01*
X72714620Y-97632826D01*
X72713073Y-97622500D01*
X72711992Y-97614930D01*
X72711120Y-97609098D01*
X80780000Y-97609098D01*
X80780000Y-97783196D01*
X81151250Y-97928809D01*
X81522500Y-98074422D01*
X81522500Y-98748319D01*
X81522500Y-99422215D01*
X81152500Y-99567415D01*
X80782500Y-99712614D01*
X80781183Y-99881746D01*
X80781054Y-99901439D01*
X80780965Y-99943573D01*
X80781158Y-99979792D01*
X80781617Y-100009280D01*
X80782326Y-100031220D01*
X80783271Y-100044795D01*
X80784434Y-100049190D01*
X80785050Y-100048945D01*
X80792958Y-100045772D01*
X80809668Y-100039051D01*
X80834824Y-100028927D01*
X80868070Y-100015544D01*
X80909050Y-99999045D01*
X80957408Y-99979573D01*
X81012786Y-99957272D01*
X81074829Y-99932285D01*
X81143180Y-99904756D01*
X81217484Y-99874829D01*
X81297383Y-99842646D01*
X81382522Y-99808352D01*
X81472544Y-99772090D01*
X81567094Y-99734004D01*
X81665813Y-99694236D01*
X81768347Y-99652931D01*
X81874339Y-99610232D01*
X81983433Y-99566282D01*
X82095272Y-99521225D01*
X82209501Y-99475205D01*
X83630000Y-98902910D01*
X83630000Y-98742028D01*
X83630000Y-98581146D01*
X83543750Y-98546063D01*
X83533483Y-98541893D01*
X83508967Y-98531963D01*
X83476628Y-98518889D01*
X83436904Y-98502846D01*
X83390234Y-98484012D01*
X83337056Y-98462562D01*
X83277809Y-98438674D01*
X83212931Y-98412523D01*
X83142860Y-98384286D01*
X83068036Y-98354140D01*
X82988895Y-98322260D01*
X82905878Y-98288824D01*
X82819422Y-98254007D01*
X82729966Y-98217987D01*
X82637947Y-98180938D01*
X82543806Y-98143039D01*
X82447979Y-98104466D01*
X82350906Y-98065394D01*
X82253024Y-98026000D01*
X82154773Y-97986461D01*
X82056591Y-97946953D01*
X81958916Y-97907652D01*
X81862186Y-97868735D01*
X81766841Y-97830379D01*
X81673318Y-97792759D01*
X81582056Y-97756053D01*
X81493494Y-97720436D01*
X81408069Y-97686085D01*
X81326221Y-97653176D01*
X81248387Y-97621887D01*
X81175006Y-97592392D01*
X81106517Y-97564869D01*
X81043358Y-97539495D01*
X80985968Y-97516445D01*
X80934784Y-97495896D01*
X80890246Y-97478024D01*
X80852791Y-97463006D01*
X80822858Y-97451018D01*
X80800887Y-97442237D01*
X80787314Y-97436839D01*
X80783684Y-97435429D01*
X80782579Y-97435000D01*
X80782061Y-97438547D01*
X80781502Y-97451018D01*
X80781006Y-97471383D01*
X80780591Y-97498508D01*
X80780274Y-97531259D01*
X80780072Y-97568500D01*
X80780000Y-97609098D01*
X72711120Y-97609098D01*
X72709433Y-97597811D01*
X72705758Y-97573670D01*
X72701212Y-97544096D01*
X72696036Y-97510677D01*
X72690475Y-97475000D01*
X72686011Y-97446345D01*
X72680760Y-97412348D01*
X72676102Y-97381876D01*
X72672278Y-97356520D01*
X72669529Y-97337865D01*
X72668096Y-97327500D01*
X72668025Y-97326920D01*
X72666224Y-97313731D01*
X72663275Y-97293499D01*
X72659573Y-97268872D01*
X72655507Y-97242500D01*
X72654010Y-97232761D01*
X72650102Y-97206462D01*
X72645384Y-97173822D01*
X72640040Y-97136196D01*
X72634255Y-97094936D01*
X72628215Y-97051396D01*
X72622103Y-97006930D01*
X72616104Y-96962891D01*
X72610404Y-96920631D01*
X72605187Y-96881506D01*
X72600637Y-96846867D01*
X72596940Y-96818069D01*
X72594279Y-96796465D01*
X72592841Y-96783408D01*
X72591495Y-96770626D01*
X72589638Y-96757387D01*
X72588089Y-96750908D01*
X72587911Y-96750513D01*
X72586368Y-96742902D01*
X72584417Y-96728487D01*
X72582437Y-96710000D01*
X72582305Y-96708619D01*
X72580320Y-96688513D01*
X72578495Y-96671095D01*
X72577209Y-96660000D01*
X72575758Y-96648788D01*
X72573260Y-96629037D01*
X72570357Y-96605772D01*
X72567489Y-96582500D01*
X72565992Y-96570810D01*
X72563574Y-96552596D01*
X72560845Y-96532500D01*
X72560805Y-96532209D01*
X72558375Y-96513666D01*
X72556596Y-96498512D01*
X72555850Y-96490000D01*
X72555801Y-96489161D01*
X72554887Y-96479980D01*
X72552964Y-96462866D01*
X72550221Y-96439427D01*
X72546845Y-96411269D01*
X72543023Y-96380000D01*
X72542471Y-96375521D01*
X72538496Y-96342929D01*
X72534829Y-96312354D01*
X72531705Y-96285774D01*
X72529356Y-96265164D01*
X72528014Y-96252500D01*
X72527131Y-96243775D01*
X72525075Y-96224685D01*
X72522281Y-96199528D01*
X72519000Y-96170551D01*
X72515482Y-96140000D01*
X72512979Y-96118285D01*
X72509569Y-96088188D01*
X72506563Y-96061061D01*
X72504216Y-96039225D01*
X72502783Y-96025000D01*
X72502143Y-96018287D01*
X72500428Y-96000865D01*
X72498845Y-95985000D01*
X76480000Y-95985000D01*
X76480000Y-97000000D01*
X77950000Y-97000000D01*
X79420000Y-97000000D01*
X79420000Y-95995000D01*
X79420000Y-94990000D01*
X79142500Y-94990000D01*
X78865000Y-94990000D01*
X78865000Y-95672500D01*
X78865000Y-96355000D01*
X78552500Y-96355000D01*
X78240000Y-96355000D01*
X78240000Y-95755000D01*
X78240000Y-95155000D01*
X77962500Y-95155000D01*
X77915171Y-95155000D01*
X77685000Y-95155000D01*
X77685000Y-95755000D01*
X77685000Y-96355000D01*
X77360000Y-96355000D01*
X77035000Y-96355000D01*
X77035000Y-95662500D01*
X77035000Y-94970000D01*
X76757500Y-94970000D01*
X76480000Y-94970000D01*
X76480000Y-95985000D01*
X72498845Y-95985000D01*
X72497930Y-95975828D01*
X72494789Y-95944575D01*
X72491147Y-95908504D01*
X72487143Y-95869013D01*
X72482920Y-95827500D01*
X72480160Y-95800330D01*
X72476051Y-95759514D01*
X72472257Y-95721404D01*
X72468921Y-95687450D01*
X72466183Y-95659100D01*
X72464187Y-95637800D01*
X72463073Y-95625000D01*
X72462641Y-95619581D01*
X72460700Y-95597046D01*
X72458272Y-95570637D01*
X72455780Y-95545000D01*
X72454639Y-95533441D01*
X72452766Y-95513401D01*
X72451468Y-95498043D01*
X72450976Y-95490000D01*
X72450801Y-95486588D01*
X72449851Y-95474094D01*
X72448215Y-95454663D01*
X72446054Y-95430173D01*
X72443527Y-95402500D01*
X72441951Y-95385369D01*
X72439617Y-95359411D01*
X72437738Y-95337780D01*
X72436475Y-95322350D01*
X72435991Y-95315000D01*
X72435668Y-95308867D01*
X72434598Y-95294885D01*
X72433061Y-95277500D01*
X72431247Y-95257620D01*
X72428825Y-95229958D01*
X72426172Y-95198734D01*
X72423406Y-95165451D01*
X72420649Y-95131611D01*
X72418020Y-95098718D01*
X72415639Y-95068275D01*
X72413626Y-95041783D01*
X72412101Y-95020748D01*
X72411184Y-95006670D01*
X72410995Y-95001053D01*
X72411012Y-94996307D01*
X72410094Y-94984005D01*
X72408373Y-94967500D01*
X72408092Y-94964850D01*
X72406837Y-94950518D01*
X72405069Y-94927974D01*
X72402881Y-94898552D01*
X72400362Y-94863589D01*
X72397605Y-94824421D01*
X72394700Y-94782384D01*
X72391739Y-94738813D01*
X72388812Y-94695045D01*
X72386010Y-94652416D01*
X72383425Y-94612260D01*
X72381147Y-94575916D01*
X72379268Y-94544717D01*
X72377878Y-94520000D01*
X72377246Y-94508345D01*
X72375902Y-94484245D01*
X72375167Y-94471289D01*
X80780830Y-94471289D01*
X80780892Y-94510097D01*
X80781186Y-94558081D01*
X80782500Y-94731162D01*
X81153750Y-94876597D01*
X81525000Y-95022031D01*
X81525000Y-95695169D01*
X81525000Y-96368307D01*
X81153750Y-96513841D01*
X80782500Y-96659376D01*
X80781184Y-96827188D01*
X80781012Y-96856621D01*
X80780977Y-96894084D01*
X80781158Y-96927319D01*
X80781535Y-96955174D01*
X80782094Y-96976492D01*
X80782816Y-96990120D01*
X80783684Y-96994904D01*
X80784273Y-96994704D01*
X80792101Y-96991666D01*
X80808733Y-96985080D01*
X80833811Y-96975089D01*
X80866981Y-96961835D01*
X80907885Y-96945462D01*
X80956169Y-96926114D01*
X81011475Y-96903932D01*
X81073447Y-96879060D01*
X81141731Y-96851642D01*
X81215968Y-96821820D01*
X81295804Y-96789737D01*
X81380883Y-96755536D01*
X81470847Y-96719361D01*
X81565342Y-96681355D01*
X81664011Y-96641660D01*
X81766497Y-96600419D01*
X81872446Y-96557777D01*
X81981500Y-96513875D01*
X82093303Y-96468857D01*
X82207500Y-96422866D01*
X83627500Y-95850924D01*
X83628778Y-95689212D01*
X83630055Y-95527500D01*
X82211278Y-94956228D01*
X82197785Y-94950796D01*
X82175340Y-94941759D01*
X82061868Y-94896083D01*
X81950888Y-94851426D01*
X81842755Y-94807930D01*
X81737826Y-94765740D01*
X81636460Y-94724998D01*
X81539012Y-94685847D01*
X81445840Y-94648431D01*
X81357302Y-94612892D01*
X81273753Y-94579374D01*
X81195551Y-94548020D01*
X81123054Y-94518973D01*
X81056618Y-94492376D01*
X80996600Y-94468372D01*
X80943358Y-94447104D01*
X80897249Y-94428716D01*
X80858628Y-94413351D01*
X80827855Y-94401151D01*
X80805285Y-94392261D01*
X80791277Y-94386822D01*
X80786186Y-94384978D01*
X80784826Y-94386099D01*
X80783373Y-94391364D01*
X80782271Y-94401693D01*
X80781496Y-94417909D01*
X80781024Y-94440833D01*
X80780830Y-94471289D01*
X72375167Y-94471289D01*
X72374163Y-94453580D01*
X72372145Y-94418382D01*
X72369964Y-94380678D01*
X72367736Y-94342500D01*
X72366428Y-94319283D01*
X72364760Y-94287988D01*
X72362861Y-94251046D01*
X72360784Y-94209573D01*
X72358579Y-94164686D01*
X72356300Y-94117501D01*
X72353997Y-94069136D01*
X72351724Y-94020707D01*
X72349533Y-93973331D01*
X72347474Y-93928125D01*
X72345601Y-93886206D01*
X72343965Y-93848691D01*
X72342618Y-93816696D01*
X72341613Y-93791338D01*
X72341001Y-93773734D01*
X72340835Y-93765000D01*
X72340837Y-93764864D01*
X72340660Y-93757512D01*
X72340134Y-93741618D01*
X72339309Y-93718550D01*
X72338235Y-93689678D01*
X72336961Y-93656372D01*
X72335539Y-93620000D01*
X72335070Y-93607979D01*
X72332565Y-93538377D01*
X72330059Y-93460112D01*
X72327576Y-93374309D01*
X72325138Y-93282096D01*
X72322767Y-93184597D01*
X72320486Y-93082938D01*
X72318318Y-92978245D01*
X72318018Y-92962514D01*
X76441897Y-92962514D01*
X76442183Y-92987575D01*
X76442874Y-93008980D01*
X76444051Y-93028389D01*
X76445793Y-93047460D01*
X76448180Y-93067850D01*
X76451293Y-93091217D01*
X76455211Y-93119221D01*
X76455422Y-93120711D01*
X76476275Y-93233927D01*
X76506031Y-93343159D01*
X76544471Y-93448034D01*
X76591380Y-93548179D01*
X76646542Y-93643220D01*
X76709740Y-93732785D01*
X76780758Y-93816499D01*
X76859379Y-93893990D01*
X76945387Y-93964884D01*
X76961036Y-93976487D01*
X77055232Y-94039341D01*
X77154936Y-94094296D01*
X77260333Y-94141418D01*
X77371606Y-94180775D01*
X77488942Y-94212433D01*
X77612523Y-94236458D01*
X77742536Y-94252918D01*
X77770150Y-94255085D01*
X77813463Y-94257261D01*
X77862456Y-94258645D01*
X77915171Y-94259259D01*
X77969650Y-94259123D01*
X78023937Y-94258260D01*
X78076072Y-94256689D01*
X78124100Y-94254434D01*
X78166062Y-94251514D01*
X78200000Y-94247952D01*
X78246944Y-94241178D01*
X78372538Y-94217188D01*
X78491875Y-94185452D01*
X78605071Y-94145913D01*
X78712241Y-94098519D01*
X78813500Y-94043213D01*
X78908962Y-93979942D01*
X78998743Y-93908651D01*
X79082958Y-93829286D01*
X79105606Y-93805717D01*
X79142780Y-93764717D01*
X79176012Y-93724366D01*
X79207935Y-93681386D01*
X79241184Y-93632500D01*
X79282234Y-93565297D01*
X79332007Y-93467893D01*
X79351608Y-93420000D01*
X80780000Y-93420000D01*
X80780000Y-93582500D01*
X80780000Y-93745000D01*
X82197785Y-93745000D01*
X83615569Y-93745000D01*
X83613588Y-93163750D01*
X83613474Y-93130232D01*
X83613164Y-93041835D01*
X83612856Y-92962590D01*
X83612527Y-92891870D01*
X83612151Y-92829049D01*
X83611706Y-92773499D01*
X83611167Y-92724593D01*
X83610511Y-92681706D01*
X83609713Y-92644210D01*
X83608749Y-92611478D01*
X83607596Y-92582884D01*
X83606230Y-92557801D01*
X83604626Y-92535601D01*
X83602762Y-92515660D01*
X83600612Y-92497348D01*
X83598153Y-92480041D01*
X83595361Y-92463110D01*
X83592213Y-92445930D01*
X83588683Y-92427873D01*
X83584749Y-92408313D01*
X83573797Y-92358951D01*
X83546160Y-92262452D01*
X83511770Y-92172803D01*
X83470786Y-92090176D01*
X83423372Y-92014746D01*
X83369689Y-91946684D01*
X83309899Y-91886164D01*
X83244163Y-91833359D01*
X83172643Y-91788442D01*
X83095502Y-91751586D01*
X83012900Y-91722964D01*
X82925000Y-91702748D01*
X82917269Y-91701467D01*
X82879675Y-91696840D01*
X82835994Y-91693482D01*
X82789331Y-91691489D01*
X82742791Y-91690955D01*
X82699479Y-91691977D01*
X82662500Y-91694651D01*
X82628496Y-91698868D01*
X82543978Y-91714777D01*
X82465644Y-91738012D01*
X82392649Y-91768968D01*
X82324148Y-91808039D01*
X82259297Y-91855620D01*
X82197500Y-91911880D01*
X82197251Y-91912107D01*
X82181139Y-91928719D01*
X82122282Y-91998337D01*
X82070163Y-92075132D01*
X82024965Y-92158773D01*
X81986876Y-92248927D01*
X81956078Y-92345262D01*
X81951490Y-92361396D01*
X81945213Y-92380181D01*
X81940140Y-92390320D01*
X81935954Y-92392564D01*
X81933442Y-92390989D01*
X81923193Y-92384102D01*
X81905539Y-92372056D01*
X81880953Y-92355178D01*
X81849906Y-92333794D01*
X81812872Y-92308232D01*
X81770324Y-92278818D01*
X81722733Y-92245880D01*
X81670573Y-92209744D01*
X81614315Y-92170737D01*
X81554433Y-92129187D01*
X81491399Y-92085420D01*
X81425686Y-92039763D01*
X81357766Y-91992544D01*
X81309678Y-91959109D01*
X81243366Y-91913029D01*
X81179635Y-91868772D01*
X81118954Y-91826663D01*
X81061791Y-91787025D01*
X81008615Y-91750182D01*
X80959895Y-91716460D01*
X80916100Y-91686181D01*
X80877698Y-91659672D01*
X80845159Y-91637255D01*
X80818951Y-91619255D01*
X80799544Y-91605996D01*
X80787405Y-91597804D01*
X80783005Y-91595000D01*
X80782814Y-91595375D01*
X80782189Y-91602761D01*
X80781678Y-91618783D01*
X80781292Y-91642373D01*
X80781041Y-91672460D01*
X80780934Y-91707977D01*
X80780981Y-91747854D01*
X80781192Y-91791022D01*
X80782500Y-91987043D01*
X81331250Y-92363928D01*
X81880000Y-92740814D01*
X81880000Y-93080407D01*
X81880000Y-93420000D01*
X81330000Y-93420000D01*
X80780000Y-93420000D01*
X79351608Y-93420000D01*
X79374177Y-93364856D01*
X79408462Y-93256991D01*
X79434580Y-93145104D01*
X79452249Y-93030000D01*
X79455292Y-92996372D01*
X79457770Y-92951678D01*
X79459291Y-92901672D01*
X79459853Y-92848797D01*
X79459456Y-92795498D01*
X79458098Y-92744220D01*
X79455776Y-92697406D01*
X79452490Y-92657500D01*
X79451788Y-92650982D01*
X79434480Y-92534015D01*
X79408743Y-92422290D01*
X79374427Y-92315451D01*
X79331383Y-92213141D01*
X79279463Y-92115003D01*
X79218517Y-92020679D01*
X79148396Y-91929814D01*
X79129134Y-91906889D01*
X79109673Y-91884096D01*
X79094932Y-91867577D01*
X79084004Y-91856516D01*
X79075981Y-91850097D01*
X79069957Y-91847504D01*
X79065025Y-91847921D01*
X79060279Y-91850532D01*
X79058738Y-91851637D01*
X79048595Y-91859443D01*
X79032293Y-91872438D01*
X79010649Y-91889945D01*
X78984479Y-91911285D01*
X78954601Y-91935779D01*
X78921831Y-91962749D01*
X78886987Y-91991517D01*
X78850885Y-92021403D01*
X78814342Y-92051728D01*
X78778176Y-92081816D01*
X78743203Y-92110986D01*
X78710240Y-92138561D01*
X78680104Y-92163861D01*
X78653612Y-92186209D01*
X78631581Y-92204925D01*
X78614827Y-92219332D01*
X78604169Y-92228750D01*
X78600423Y-92232500D01*
X78602919Y-92237144D01*
X78610932Y-92247825D01*
X78623159Y-92262673D01*
X78638256Y-92280000D01*
X78698032Y-92351268D01*
X78750319Y-92423613D01*
X78793912Y-92496106D01*
X78829379Y-92569801D01*
X78857287Y-92645749D01*
X78878202Y-92725000D01*
X78880032Y-92734896D01*
X78883283Y-92761714D01*
X78885681Y-92794665D01*
X78887203Y-92831450D01*
X78887826Y-92869774D01*
X78887527Y-92907338D01*
X78886283Y-92941845D01*
X78884071Y-92970998D01*
X78880869Y-92992500D01*
X78872135Y-93028859D01*
X78850188Y-93098783D01*
X78822552Y-93162443D01*
X78788521Y-93221590D01*
X78777852Y-93237522D01*
X78732034Y-93297140D01*
X78680585Y-93350603D01*
X78622509Y-93398757D01*
X78556813Y-93442451D01*
X78482500Y-93482535D01*
X78463672Y-93491513D01*
X78387943Y-93523205D01*
X78310198Y-93548524D01*
X78229108Y-93567740D01*
X78143348Y-93581129D01*
X78051588Y-93588961D01*
X77952500Y-93591512D01*
X77950000Y-93591489D01*
X77914343Y-93591155D01*
X77818524Y-93586658D01*
X77729445Y-93576768D01*
X77645705Y-93561191D01*
X77565901Y-93539628D01*
X77488634Y-93511785D01*
X77412500Y-93477365D01*
X77340383Y-93437141D01*
X77270651Y-93388353D01*
X77208642Y-93333911D01*
X77154602Y-93274214D01*
X77108776Y-93209658D01*
X77071411Y-93140644D01*
X77042753Y-93067569D01*
X77023048Y-92990833D01*
X77012541Y-92910832D01*
X77011480Y-92827967D01*
X77012442Y-92810323D01*
X77019980Y-92740893D01*
X77033684Y-92673983D01*
X77053983Y-92608670D01*
X77081308Y-92544025D01*
X77116092Y-92479124D01*
X77158765Y-92413040D01*
X77209758Y-92344847D01*
X77269502Y-92273620D01*
X77272310Y-92270416D01*
X77288020Y-92252085D01*
X77300788Y-92236501D01*
X77309364Y-92225226D01*
X77312500Y-92219823D01*
X77311493Y-92218520D01*
X77304295Y-92211344D01*
X77290850Y-92198620D01*
X77271960Y-92181070D01*
X77248425Y-92159417D01*
X77221048Y-92134384D01*
X77190630Y-92106692D01*
X77157971Y-92077064D01*
X77123875Y-92046223D01*
X77089141Y-92014891D01*
X77054572Y-91983791D01*
X77020968Y-91953645D01*
X76989132Y-91925176D01*
X76959865Y-91899106D01*
X76933968Y-91876158D01*
X76912243Y-91857053D01*
X76895490Y-91842516D01*
X76884513Y-91833267D01*
X76880111Y-91830030D01*
X76878455Y-91831275D01*
X76871035Y-91838585D01*
X76858852Y-91851343D01*
X76843107Y-91868284D01*
X76825000Y-91888144D01*
X76752662Y-91972595D01*
X76685085Y-92061984D01*
X76626580Y-92151972D01*
X76576703Y-92243461D01*
X76535010Y-92337355D01*
X76501059Y-92434557D01*
X76474405Y-92535971D01*
X76454605Y-92642500D01*
X76452149Y-92659681D01*
X76449247Y-92683973D01*
X76447001Y-92709362D01*
X76445312Y-92737630D01*
X76444079Y-92770555D01*
X76443203Y-92809918D01*
X76442585Y-92857500D01*
X76442221Y-92894795D01*
X76441936Y-92932140D01*
X76441897Y-92962514D01*
X72318018Y-92962514D01*
X72316285Y-92871644D01*
X72314409Y-92764260D01*
X72312714Y-92657219D01*
X72311221Y-92551647D01*
X72309954Y-92448669D01*
X72308934Y-92349412D01*
X72308185Y-92255000D01*
X72307442Y-92105240D01*
X72307191Y-91873801D01*
X72307952Y-91634996D01*
X72309702Y-91390374D01*
X72312418Y-91141479D01*
X72316076Y-90889859D01*
X72320652Y-90637060D01*
X72326124Y-90384628D01*
X72332468Y-90134109D01*
X72339660Y-89887052D01*
X72347678Y-89645000D01*
X72361590Y-89279709D01*
X72370666Y-89080000D01*
X76480000Y-89080000D01*
X76480000Y-89405000D01*
X77077500Y-89405000D01*
X77675000Y-89405000D01*
X77675000Y-89912500D01*
X77675000Y-90420000D01*
X77077500Y-90420000D01*
X76480000Y-90420000D01*
X76480000Y-90745000D01*
X76480000Y-91070000D01*
X77950000Y-91070000D01*
X79420000Y-91070000D01*
X79420000Y-90745000D01*
X79420000Y-90420000D01*
X78830000Y-90420000D01*
X78240000Y-90420000D01*
X78240000Y-89912500D01*
X78240000Y-89405000D01*
X78830000Y-89405000D01*
X79420000Y-89405000D01*
X79420000Y-89080000D01*
X79420000Y-88755000D01*
X80780000Y-88755000D01*
X80780000Y-88917500D01*
X80780000Y-89080000D01*
X81420000Y-89080000D01*
X82060000Y-89080000D01*
X82060000Y-89802500D01*
X82060000Y-90525000D01*
X81420000Y-90525000D01*
X80780000Y-90525000D01*
X80780000Y-90687500D01*
X80780000Y-90850000D01*
X82197500Y-90850000D01*
X83615000Y-90850000D01*
X83615000Y-90687500D01*
X83615000Y-90525000D01*
X82982500Y-90525000D01*
X82350000Y-90525000D01*
X82350000Y-89802500D01*
X82350000Y-89080000D01*
X82982500Y-89080000D01*
X83615000Y-89080000D01*
X83615000Y-88917500D01*
X83615000Y-88755000D01*
X82197500Y-88755000D01*
X80780000Y-88755000D01*
X79420000Y-88755000D01*
X77950000Y-88755000D01*
X76480000Y-88755000D01*
X76480000Y-89080000D01*
X72370666Y-89080000D01*
X72388975Y-88677116D01*
X72422062Y-88067922D01*
X72460756Y-87453060D01*
X72502874Y-86862726D01*
X80736062Y-86862726D01*
X80736089Y-86870000D01*
X80736144Y-86870504D01*
X80736785Y-86879875D01*
X80737578Y-86895752D01*
X80738363Y-86915000D01*
X80744260Y-86999675D01*
X80758171Y-87097989D01*
X80779279Y-87193456D01*
X80807240Y-87284972D01*
X80841708Y-87371434D01*
X80882337Y-87451734D01*
X80928785Y-87524770D01*
X80965102Y-87572128D01*
X81027670Y-87640400D01*
X81097404Y-87702095D01*
X81173849Y-87756933D01*
X81256549Y-87804630D01*
X81345050Y-87844905D01*
X81438896Y-87877476D01*
X81537631Y-87902061D01*
X81546089Y-87903788D01*
X81559683Y-87906589D01*
X81572331Y-87909155D01*
X81584491Y-87911499D01*
X81596616Y-87913630D01*
X81609165Y-87915560D01*
X81622593Y-87917299D01*
X81637355Y-87918859D01*
X81653909Y-87920251D01*
X81672709Y-87921484D01*
X81694212Y-87922571D01*
X81718875Y-87923522D01*
X81747153Y-87924348D01*
X81779502Y-87925059D01*
X81816378Y-87925668D01*
X81858238Y-87926184D01*
X81905537Y-87926618D01*
X81958731Y-87926982D01*
X82018277Y-87927286D01*
X82084631Y-87927542D01*
X82158248Y-87927759D01*
X82239585Y-87927950D01*
X82329098Y-87928124D01*
X82427242Y-87928293D01*
X82534474Y-87928468D01*
X82651250Y-87928659D01*
X83615000Y-87930269D01*
X83615000Y-87767635D01*
X83615000Y-87605000D01*
X82711250Y-87604921D01*
X82672139Y-87604915D01*
X82561804Y-87604858D01*
X82456866Y-87604748D01*
X82357680Y-87604586D01*
X82264599Y-87604375D01*
X82177979Y-87604115D01*
X82098172Y-87603809D01*
X82025534Y-87603459D01*
X81960417Y-87603067D01*
X81903176Y-87602633D01*
X81854165Y-87602161D01*
X81813738Y-87601652D01*
X81782249Y-87601108D01*
X81760052Y-87600530D01*
X81747500Y-87599921D01*
X81725555Y-87597980D01*
X81651145Y-87588877D01*
X81583394Y-87576116D01*
X81520023Y-87559114D01*
X81458751Y-87537283D01*
X81397298Y-87510040D01*
X81360912Y-87491120D01*
X81293265Y-87447879D01*
X81232745Y-87397656D01*
X81179496Y-87340618D01*
X81133662Y-87276927D01*
X81095388Y-87206751D01*
X81064818Y-87130253D01*
X81048900Y-87075762D01*
X81032540Y-86994024D01*
X81023507Y-86908941D01*
X81021814Y-86822526D01*
X81027475Y-86736796D01*
X81040505Y-86653765D01*
X81060917Y-86575449D01*
X81071005Y-86546056D01*
X81103407Y-86471415D01*
X81143437Y-86403219D01*
X81191004Y-86341566D01*
X81246014Y-86286553D01*
X81308375Y-86238278D01*
X81377994Y-86196837D01*
X81454778Y-86162328D01*
X81475427Y-86154727D01*
X81522776Y-86139809D01*
X81576137Y-86126264D01*
X81637500Y-86113561D01*
X81642085Y-86112706D01*
X81648773Y-86111532D01*
X81655767Y-86110457D01*
X81663509Y-86109476D01*
X81672437Y-86108583D01*
X81682994Y-86107773D01*
X81695620Y-86107042D01*
X81710755Y-86106383D01*
X81728841Y-86105792D01*
X81750317Y-86105263D01*
X81775624Y-86104791D01*
X81805203Y-86104371D01*
X81839495Y-86103997D01*
X81878940Y-86103665D01*
X81923979Y-86103369D01*
X81975052Y-86103103D01*
X82032600Y-86102863D01*
X82097064Y-86102643D01*
X82168884Y-86102439D01*
X82248501Y-86102244D01*
X82336356Y-86102053D01*
X82432888Y-86101862D01*
X82538540Y-86101665D01*
X82653750Y-86101457D01*
X83615000Y-86099731D01*
X83615000Y-85937244D01*
X83615000Y-85774757D01*
X82646250Y-85776293D01*
X81677500Y-85777829D01*
X81612790Y-85788955D01*
X81534832Y-85804138D01*
X81443125Y-85827387D01*
X81358805Y-85855361D01*
X81280913Y-85888386D01*
X81208490Y-85926790D01*
X81187467Y-85939516D01*
X81144153Y-85969594D01*
X81108783Y-85994156D01*
X81037521Y-86055459D01*
X80973725Y-86123342D01*
X80917440Y-86197723D01*
X80868712Y-86278522D01*
X80827585Y-86365656D01*
X80794106Y-86459044D01*
X80768318Y-86558604D01*
X80750267Y-86664254D01*
X80739998Y-86775913D01*
X80738765Y-86798957D01*
X80737474Y-86825409D01*
X80736549Y-86847264D01*
X80736062Y-86862726D01*
X72502874Y-86862726D01*
X72504962Y-86833464D01*
X72554587Y-86210067D01*
X72609534Y-85583803D01*
X72669710Y-84955607D01*
X72735020Y-84326411D01*
X72759933Y-84103568D01*
X80742230Y-84103568D01*
X80742813Y-84155366D01*
X80745050Y-84201214D01*
X80756580Y-84309059D01*
X80778467Y-84429945D01*
X80809607Y-84547188D01*
X80850058Y-84660930D01*
X80899879Y-84771314D01*
X80959129Y-84878483D01*
X81027866Y-84982581D01*
X81106148Y-85083750D01*
X81117596Y-85097254D01*
X81130311Y-85111607D01*
X81139653Y-85121387D01*
X81144153Y-85125000D01*
X81144650Y-85124783D01*
X81150922Y-85120076D01*
X81163245Y-85109968D01*
X81180484Y-85095446D01*
X81201508Y-85077498D01*
X81225182Y-85057111D01*
X81250375Y-85035272D01*
X81275952Y-85012968D01*
X81300781Y-84991187D01*
X81323729Y-84970917D01*
X81343663Y-84953143D01*
X81359449Y-84938855D01*
X81369954Y-84929039D01*
X81374046Y-84924682D01*
X81372562Y-84921305D01*
X81365761Y-84911160D01*
X81354385Y-84895705D01*
X81339430Y-84876286D01*
X81321893Y-84854249D01*
X81258065Y-84770186D01*
X81196187Y-84675957D01*
X81144055Y-84581006D01*
X81101535Y-84485028D01*
X81068494Y-84387718D01*
X81044799Y-84288771D01*
X81030315Y-84187882D01*
X81026148Y-84127802D01*
X81026353Y-84041186D01*
X81034086Y-83958581D01*
X81049171Y-83880522D01*
X81071436Y-83807546D01*
X81100707Y-83740186D01*
X81136809Y-83678979D01*
X81179568Y-83624460D01*
X81228811Y-83577163D01*
X81230019Y-83576169D01*
X81257172Y-83556683D01*
X81290574Y-83536783D01*
X81326896Y-83518179D01*
X81362814Y-83502582D01*
X81395000Y-83491703D01*
X81396703Y-83491255D01*
X81421210Y-83486860D01*
X81452584Y-83483928D01*
X81488041Y-83482466D01*
X81524796Y-83482476D01*
X81560064Y-83483963D01*
X81591061Y-83486931D01*
X81615000Y-83491384D01*
X81646613Y-83501850D01*
X81687014Y-83519921D01*
X81725899Y-83541897D01*
X81759065Y-83565609D01*
X81794338Y-83598743D01*
X81831815Y-83642984D01*
X81868957Y-83696341D01*
X81905843Y-83758959D01*
X81942555Y-83830986D01*
X81979172Y-83912571D01*
X82015774Y-84003860D01*
X82052441Y-84105000D01*
X82066637Y-84145549D01*
X82107380Y-84256554D01*
X82147706Y-84358117D01*
X82187864Y-84450631D01*
X82228104Y-84534490D01*
X82268674Y-84610087D01*
X82309826Y-84677816D01*
X82351809Y-84738071D01*
X82394873Y-84791244D01*
X82439267Y-84837731D01*
X82485241Y-84877923D01*
X82533044Y-84912216D01*
X82582927Y-84941002D01*
X82598047Y-84948551D01*
X82646903Y-84969816D01*
X82695932Y-84985892D01*
X82747478Y-84997337D01*
X82803886Y-85004708D01*
X82867500Y-85008560D01*
X82899728Y-85009206D01*
X82959425Y-85007495D01*
X83014419Y-85001409D01*
X83067761Y-84990541D01*
X83122500Y-84974483D01*
X83140514Y-84968280D01*
X83196184Y-84945874D01*
X83246790Y-84919745D01*
X83294529Y-84888505D01*
X83341597Y-84850764D01*
X83390192Y-84805131D01*
X83416237Y-84778046D01*
X83472152Y-84710957D01*
X83519960Y-84639425D01*
X83560124Y-84562609D01*
X83593108Y-84479670D01*
X83619375Y-84389767D01*
X83626264Y-84360021D01*
X83643849Y-84257153D01*
X83652898Y-84151022D01*
X83653535Y-84042913D01*
X83645884Y-83934114D01*
X83630070Y-83825911D01*
X83606218Y-83719592D01*
X83574453Y-83616442D01*
X83534899Y-83517748D01*
X83518142Y-83482626D01*
X83492910Y-83434621D01*
X83464729Y-83385332D01*
X83434914Y-83336881D01*
X83404780Y-83291387D01*
X83375642Y-83250972D01*
X83348816Y-83217755D01*
X83331584Y-83198009D01*
X83214542Y-83294767D01*
X83202809Y-83304466D01*
X83174453Y-83327906D01*
X83149029Y-83348918D01*
X83127494Y-83366715D01*
X83110801Y-83380506D01*
X83099906Y-83389503D01*
X83095763Y-83392917D01*
X83096596Y-83395090D01*
X83102179Y-83403763D01*
X83111867Y-83417407D01*
X83124453Y-83434282D01*
X83154490Y-83475194D01*
X83214270Y-83567338D01*
X83264397Y-83661048D01*
X83304815Y-83756165D01*
X83335470Y-83852528D01*
X83356308Y-83949979D01*
X83367273Y-84048356D01*
X83368312Y-84147500D01*
X83368212Y-84149956D01*
X83360633Y-84233903D01*
X83345269Y-84311881D01*
X83322167Y-84383774D01*
X83291371Y-84449467D01*
X83252925Y-84508844D01*
X83206876Y-84561790D01*
X83191690Y-84576227D01*
X83140960Y-84615577D01*
X83085246Y-84646269D01*
X83024711Y-84668207D01*
X83013831Y-84670766D01*
X82983843Y-84674962D01*
X82948289Y-84677105D01*
X82910071Y-84677230D01*
X82872097Y-84675368D01*
X82837271Y-84671551D01*
X82808498Y-84665812D01*
X82782590Y-84657804D01*
X82732996Y-84636062D01*
X82686524Y-84606437D01*
X82642521Y-84568402D01*
X82600335Y-84521432D01*
X82559313Y-84465000D01*
X82539462Y-84432849D01*
X82514892Y-84388106D01*
X82488822Y-84335982D01*
X82461799Y-84277702D01*
X82434368Y-84214490D01*
X82407078Y-84147569D01*
X82380473Y-84078165D01*
X82355100Y-84007500D01*
X82316874Y-83901849D01*
X82273878Y-83793833D01*
X82230174Y-83695351D01*
X82185632Y-83606165D01*
X82140126Y-83526034D01*
X82093526Y-83454720D01*
X82045705Y-83391984D01*
X81996535Y-83337586D01*
X81977181Y-83318798D01*
X81915683Y-83267889D01*
X81849883Y-83226001D01*
X81779828Y-83193159D01*
X81705564Y-83169383D01*
X81627138Y-83154699D01*
X81619349Y-83153812D01*
X81585611Y-83151453D01*
X81546485Y-83150532D01*
X81504527Y-83150957D01*
X81462297Y-83152636D01*
X81422353Y-83155478D01*
X81387252Y-83159391D01*
X81359554Y-83164283D01*
X81341983Y-83168537D01*
X81263365Y-83192829D01*
X81190623Y-83224619D01*
X81122730Y-83264494D01*
X81058658Y-83313038D01*
X80997378Y-83370840D01*
X80983876Y-83385229D01*
X80926973Y-83454739D01*
X80877370Y-83530876D01*
X80835218Y-83613315D01*
X80800667Y-83701728D01*
X80773870Y-83795790D01*
X80754975Y-83895173D01*
X80754405Y-83899165D01*
X80749387Y-83943619D01*
X80745618Y-83994581D01*
X80743199Y-84048935D01*
X80742230Y-84103568D01*
X72759933Y-84103568D01*
X72805369Y-83697150D01*
X72880662Y-83068757D01*
X72960806Y-82442167D01*
X73045705Y-81818312D01*
X73135265Y-81198127D01*
X73229390Y-80582545D01*
X73327988Y-79972500D01*
X73335280Y-79928721D01*
X73350628Y-79837347D01*
X73366552Y-79743498D01*
X73382929Y-79647859D01*
X73399635Y-79551116D01*
X73416546Y-79453954D01*
X73433539Y-79357059D01*
X73450490Y-79261116D01*
X73467275Y-79166811D01*
X73483771Y-79074828D01*
X73499854Y-78985854D01*
X73515400Y-78900574D01*
X73530286Y-78819674D01*
X73544389Y-78743838D01*
X73557583Y-78673752D01*
X73569746Y-78610102D01*
X73580755Y-78553574D01*
X73590485Y-78504852D01*
X73598812Y-78464622D01*
X73605614Y-78433570D01*
X73611085Y-78409639D01*
X78674293Y-78411500D01*
G37*
G36*
X81823750Y-98192461D02*
G01*
X81824149Y-98192618D01*
X81876505Y-98213232D01*
X81933640Y-98235745D01*
X81994969Y-98259924D01*
X82059904Y-98285538D01*
X82127859Y-98312353D01*
X82198246Y-98340139D01*
X82270480Y-98368663D01*
X82343973Y-98397692D01*
X82418138Y-98426996D01*
X82492390Y-98456341D01*
X82566141Y-98485496D01*
X82638805Y-98514229D01*
X82709794Y-98542307D01*
X82778522Y-98569499D01*
X82844403Y-98595572D01*
X82906849Y-98620294D01*
X82965274Y-98643434D01*
X83019091Y-98664760D01*
X83067714Y-98684038D01*
X83110555Y-98701037D01*
X83147028Y-98715526D01*
X83176547Y-98727272D01*
X83198524Y-98736042D01*
X83212372Y-98741605D01*
X83217506Y-98743729D01*
X83217386Y-98744031D01*
X83211071Y-98747389D01*
X83195827Y-98754244D01*
X83171950Y-98764475D01*
X83139735Y-98777962D01*
X83099478Y-98794585D01*
X83051474Y-98814224D01*
X82996018Y-98836759D01*
X82933407Y-98862069D01*
X82863935Y-98890035D01*
X82787897Y-98920536D01*
X82705591Y-98953452D01*
X82617310Y-98988663D01*
X82523350Y-99026049D01*
X82503111Y-99034093D01*
X82423593Y-99065695D01*
X82346674Y-99096260D01*
X82272868Y-99125586D01*
X82202690Y-99153467D01*
X82136655Y-99179699D01*
X82075279Y-99204077D01*
X82019075Y-99226397D01*
X81968559Y-99246455D01*
X81924247Y-99264045D01*
X81886652Y-99278964D01*
X81856290Y-99291007D01*
X81833676Y-99299969D01*
X81819324Y-99305647D01*
X81813750Y-99307834D01*
X81813173Y-99307993D01*
X81811881Y-99307700D01*
X81810733Y-99306018D01*
X81809719Y-99302408D01*
X81808832Y-99296332D01*
X81808063Y-99287252D01*
X81807404Y-99274629D01*
X81806847Y-99257926D01*
X81806383Y-99236604D01*
X81806003Y-99210125D01*
X81805699Y-99177952D01*
X81805463Y-99139545D01*
X81805287Y-99094367D01*
X81805161Y-99041880D01*
X81805078Y-98981546D01*
X81805029Y-98912825D01*
X81805006Y-98835182D01*
X81805000Y-98748076D01*
X81805000Y-98185081D01*
X81823750Y-98192461D01*
G37*
G36*
X81809004Y-95134936D02*
G01*
X81815890Y-95137212D01*
X81831270Y-95142898D01*
X81854529Y-95151750D01*
X81885053Y-95163524D01*
X81922230Y-95177975D01*
X81965446Y-95194859D01*
X82014086Y-95213933D01*
X82067538Y-95234952D01*
X82125187Y-95257673D01*
X82186419Y-95281851D01*
X82250623Y-95307242D01*
X82317182Y-95333603D01*
X82385485Y-95360688D01*
X82454916Y-95388255D01*
X82524863Y-95416059D01*
X82594712Y-95443856D01*
X82663850Y-95471401D01*
X82731661Y-95498452D01*
X82797534Y-95524763D01*
X82860854Y-95550092D01*
X82921007Y-95574192D01*
X82977380Y-95596822D01*
X83029360Y-95617737D01*
X83076332Y-95636691D01*
X83117683Y-95653443D01*
X83152799Y-95667747D01*
X83181067Y-95679359D01*
X83201872Y-95688036D01*
X83214602Y-95693533D01*
X83218642Y-95695607D01*
X83213646Y-95697700D01*
X83199846Y-95703295D01*
X83177784Y-95712171D01*
X83147983Y-95724120D01*
X83110966Y-95738933D01*
X83067256Y-95756401D01*
X83017376Y-95776316D01*
X82961849Y-95798469D01*
X82901200Y-95822651D01*
X82835950Y-95848653D01*
X82766623Y-95876266D01*
X82693742Y-95905282D01*
X82617830Y-95935492D01*
X82539411Y-95966686D01*
X82467233Y-95995394D01*
X82390330Y-96025985D01*
X82316134Y-96055501D01*
X82245196Y-96083726D01*
X82178064Y-96110439D01*
X82115286Y-96135424D01*
X82057411Y-96158461D01*
X82004988Y-96179332D01*
X81958565Y-96197819D01*
X81918691Y-96213702D01*
X81885916Y-96226765D01*
X81860786Y-96236788D01*
X81843852Y-96243553D01*
X81835661Y-96246841D01*
X81805000Y-96259300D01*
X81805000Y-95697150D01*
X81805004Y-95673198D01*
X81805057Y-95599967D01*
X81805171Y-95529789D01*
X81805342Y-95463297D01*
X81805566Y-95401122D01*
X81805839Y-95343896D01*
X81806155Y-95292248D01*
X81806512Y-95246813D01*
X81806905Y-95208219D01*
X81807329Y-95177100D01*
X81807781Y-95154087D01*
X81808256Y-95139811D01*
X81808750Y-95134903D01*
X81809004Y-95134936D01*
G37*
G36*
X82799778Y-92019249D02*
G01*
X82833330Y-92021337D01*
X82860000Y-92024613D01*
X82900663Y-92033148D01*
X82969526Y-92054878D01*
X83033152Y-92084695D01*
X83090993Y-92122322D01*
X83142500Y-92167483D01*
X83178016Y-92207477D01*
X83216953Y-92263165D01*
X83250233Y-92325819D01*
X83278052Y-92395881D01*
X83300609Y-92473794D01*
X83318102Y-92560000D01*
X83318768Y-92564143D01*
X83320299Y-92575072D01*
X83321641Y-92587324D01*
X83322810Y-92601623D01*
X83323823Y-92618692D01*
X83324697Y-92639254D01*
X83325449Y-92664031D01*
X83326096Y-92693748D01*
X83326654Y-92729126D01*
X83327141Y-92770889D01*
X83327572Y-92819760D01*
X83327966Y-92876462D01*
X83328338Y-92941718D01*
X83328705Y-93016250D01*
X83330590Y-93420000D01*
X82745295Y-93420000D01*
X82160000Y-93420000D01*
X82160018Y-93063750D01*
X82160018Y-93058006D01*
X82160112Y-92990802D01*
X82160352Y-92927198D01*
X82160728Y-92867996D01*
X82161231Y-92813996D01*
X82161850Y-92765996D01*
X82162575Y-92724796D01*
X82163396Y-92691198D01*
X82164303Y-92665999D01*
X82165285Y-92650000D01*
X82173622Y-92582546D01*
X82187136Y-92511011D01*
X82204807Y-92442681D01*
X82226070Y-92379717D01*
X82250361Y-92324284D01*
X82252360Y-92320339D01*
X82291490Y-92253423D01*
X82336374Y-92194654D01*
X82386952Y-92144078D01*
X82443164Y-92101740D01*
X82504949Y-92067686D01*
X82572248Y-92041962D01*
X82645000Y-92024613D01*
X82657710Y-92022775D01*
X82688311Y-92020111D01*
X82724221Y-92018636D01*
X82762393Y-92018348D01*
X82799778Y-92019249D01*
G37*
%TD*%
%LPC*%
D12*
%TO.C,C903*%
X164080000Y-41910000D03*
X164080000Y-46910000D03*
%TD*%
D13*
%TO.C,F1*%
X185930000Y-24070000D03*
X208530000Y-24070000D03*
%TD*%
D14*
%TO.C,U900*%
X194560000Y-45720000D03*
D15*
X211220000Y-48260000D03*
D16*
X194560000Y-48260000D03*
X194560000Y-50800000D03*
%TD*%
D17*
%TO.C,D901*%
X189480000Y-47625000D03*
D12*
X181860000Y-47625000D03*
%TD*%
D18*
%TO.C,J1*%
X123440000Y-24130000D03*
D19*
X128520000Y-24130000D03*
%TD*%
D12*
%TO.C,C400*%
X125980000Y-90170000D03*
X125980000Y-95170000D03*
%TD*%
D20*
%TO.C,Q240*%
X143125000Y-71120000D03*
D21*
X140585000Y-71120000D03*
X138045000Y-71120000D03*
%TD*%
D12*
%TO.C,R410*%
X124710000Y-116840000D03*
X124710000Y-127000000D03*
%TD*%
%TO.C,R242*%
X132965000Y-78740000D03*
X143125000Y-78740000D03*
%TD*%
D22*
%TO.C,J411*%
X117725000Y-143485000D03*
D23*
X115225000Y-143485000D03*
X115225000Y-146685000D03*
X117725000Y-146685000D03*
D24*
X110455000Y-146195000D03*
X122495000Y-146195000D03*
%TD*%
D25*
%TO.C,U410*%
X120900000Y-134620000D03*
D26*
X120900000Y-132080000D03*
X120900000Y-129540000D03*
X120900000Y-127000000D03*
X120900000Y-124460000D03*
X120900000Y-121920000D03*
X120900000Y-119380000D03*
X113280000Y-119380000D03*
X113280000Y-121920000D03*
X113280000Y-124460000D03*
X113280000Y-127000000D03*
X113280000Y-129540000D03*
X113280000Y-132080000D03*
X113280000Y-134620000D03*
%TD*%
D18*
%TO.C,J4*%
X161540000Y-24070000D03*
D19*
X166620000Y-24070000D03*
%TD*%
D20*
%TO.C,Q141*%
X171700000Y-69850000D03*
D21*
X174240000Y-69850000D03*
X176780000Y-69850000D03*
%TD*%
D27*
%TO.C,U240*%
X146300000Y-70485000D03*
D26*
X146300000Y-73025000D03*
X146300000Y-75565000D03*
X153920000Y-75565000D03*
X153920000Y-73025000D03*
X153920000Y-70485000D03*
%TD*%
D12*
%TO.C,R142*%
X157730000Y-73025000D03*
X167890000Y-73025000D03*
%TD*%
D27*
%TO.C,U300*%
X113280000Y-46355000D03*
D26*
X113280000Y-48895000D03*
X113280000Y-51435000D03*
X113280000Y-53975000D03*
X113280000Y-56515000D03*
X113280000Y-59055000D03*
X113280000Y-61595000D03*
X113280000Y-64135000D03*
X120900000Y-64135000D03*
X120900000Y-61595000D03*
X120900000Y-59055000D03*
X120900000Y-56515000D03*
X120900000Y-53975000D03*
X120900000Y-51435000D03*
X120900000Y-48895000D03*
X120900000Y-46355000D03*
%TD*%
D12*
%TO.C,R140*%
X179320000Y-69850000D03*
X189480000Y-69850000D03*
%TD*%
%TO.C,R141*%
X157730000Y-67310000D03*
X167890000Y-67310000D03*
%TD*%
D14*
%TO.C,Q140*%
X194560000Y-69850000D03*
D15*
X211220000Y-72390000D03*
D16*
X194560000Y-72390000D03*
X194560000Y-74930000D03*
%TD*%
D20*
%TO.C,Q142*%
X171700000Y-78105000D03*
D21*
X174240000Y-78105000D03*
X176780000Y-78105000D03*
%TD*%
D12*
%TO.C,R310*%
X97405000Y-124460000D03*
X97405000Y-134620000D03*
%TD*%
D15*
%TO.C,DS300*%
X101100000Y-35040000D03*
X70100000Y-35040000D03*
X101100000Y-110040000D03*
X70100000Y-110040000D03*
D28*
X101600000Y-40640000D03*
X101600000Y-43180000D03*
X101600000Y-45720000D03*
X101600000Y-48260000D03*
X101600000Y-50800000D03*
X101600000Y-53340000D03*
X101600000Y-55880000D03*
X101600000Y-58420000D03*
X101600000Y-60960000D03*
X101600000Y-63500000D03*
X101600000Y-66040000D03*
X101600000Y-68580000D03*
X101600000Y-71120000D03*
X101600000Y-73660000D03*
X101600000Y-76200000D03*
X101600000Y-78740000D03*
D29*
X93460000Y-34400000D03*
D30*
X90920000Y-34400000D03*
D29*
X88420000Y-34400000D03*
X82540000Y-34400000D03*
D30*
X80000000Y-34400000D03*
D29*
X77460000Y-34400000D03*
%TD*%
D12*
%TO.C,R241*%
X132965000Y-75565000D03*
X143125000Y-75565000D03*
%TD*%
D25*
%TO.C,U902*%
X159635000Y-55245000D03*
D26*
X159635000Y-52705000D03*
X159635000Y-50165000D03*
X159635000Y-47625000D03*
X152015000Y-47625000D03*
X152015000Y-50165000D03*
X152015000Y-52705000D03*
X152015000Y-55245000D03*
%TD*%
D12*
%TO.C,R240*%
X146300000Y-67310000D03*
X136140000Y-67310000D03*
%TD*%
%TO.C,R143*%
X167890000Y-78740000D03*
X157730000Y-78740000D03*
%TD*%
D31*
%TO.C,REF\u002A\u002A*%
X71990000Y-25920000D03*
%TD*%
D17*
%TO.C,D900*%
X189480000Y-51435000D03*
D12*
X181860000Y-51435000D03*
%TD*%
D32*
%TO.C,R300*%
X110740000Y-37465000D03*
X108200000Y-34925000D03*
X110740000Y-32385000D03*
%TD*%
D12*
%TO.C,C250*%
X139315000Y-38100000D03*
X139315000Y-33100000D03*
%TD*%
%TO.C,C904*%
X167890000Y-55165000D03*
X167890000Y-50165000D03*
%TD*%
D20*
%TO.C,U901*%
X169795000Y-46990000D03*
D21*
X169795000Y-44450000D03*
X169795000Y-41910000D03*
%TD*%
D18*
%TO.C,J6*%
X151380000Y-24070000D03*
D19*
X156460000Y-24070000D03*
%TD*%
D17*
%TO.C,C902*%
X178050000Y-50800000D03*
D12*
X175550000Y-50800000D03*
%TD*%
D33*
%TO.C,R000*%
X174240000Y-57150000D03*
X194560000Y-57150000D03*
%TD*%
D12*
%TO.C,R400*%
X107565000Y-85090000D03*
X107565000Y-74930000D03*
%TD*%
%TO.C,C300*%
X114630000Y-43180000D03*
X119630000Y-43180000D03*
%TD*%
D34*
%TO.C,J400*%
X145030000Y-29210000D03*
D35*
X142490000Y-29210000D03*
X139950000Y-29210000D03*
X137410000Y-29210000D03*
X134870000Y-29210000D03*
%TD*%
D12*
%TO.C,R312*%
X105025000Y-124460000D03*
X105025000Y-134620000D03*
%TD*%
%TO.C,R903*%
X141855000Y-58420000D03*
X152015000Y-58420000D03*
%TD*%
%TO.C,R250*%
X152650000Y-38100000D03*
X142490000Y-38100000D03*
%TD*%
%TO.C,C310*%
X124075000Y-107315000D03*
X129075000Y-107315000D03*
%TD*%
%TO.C,C311*%
X124075000Y-110490000D03*
X129075000Y-110490000D03*
%TD*%
%TO.C,C905*%
X164080000Y-55245000D03*
X164080000Y-50245000D03*
%TD*%
%TO.C,C907*%
X144395000Y-53570000D03*
X144395000Y-48570000D03*
%TD*%
D17*
%TO.C,C901*%
X178050000Y-44450000D03*
D12*
X175550000Y-44450000D03*
%TD*%
%TO.C,C312*%
X124075000Y-113665000D03*
X129075000Y-113665000D03*
%TD*%
%TO.C,R313*%
X121535000Y-107315000D03*
X111375000Y-107315000D03*
%TD*%
D18*
%TO.C,J5*%
X171700000Y-24070000D03*
D19*
X176780000Y-24070000D03*
%TD*%
D17*
%TO.C,C900*%
X208530000Y-34570000D03*
D12*
X203530000Y-34570000D03*
%TD*%
%TO.C,C410*%
X110105000Y-129620000D03*
X110105000Y-134620000D03*
%TD*%
D27*
%TO.C,U400*%
X113280000Y-69850000D03*
D26*
X113280000Y-72390000D03*
X113280000Y-74930000D03*
X113280000Y-77470000D03*
X113280000Y-80010000D03*
X113280000Y-82550000D03*
X113280000Y-85090000D03*
X113280000Y-87630000D03*
X113280000Y-90170000D03*
X113280000Y-92710000D03*
X113280000Y-95250000D03*
X113280000Y-97790000D03*
X113280000Y-100330000D03*
X113280000Y-102870000D03*
X120900000Y-102870000D03*
X120900000Y-100330000D03*
X120900000Y-97790000D03*
X120900000Y-95250000D03*
X120900000Y-92710000D03*
X120900000Y-90170000D03*
X120900000Y-87630000D03*
X120900000Y-85090000D03*
X120900000Y-82550000D03*
X120900000Y-80010000D03*
X120900000Y-77470000D03*
X120900000Y-74930000D03*
X120900000Y-72390000D03*
X120900000Y-69850000D03*
%TD*%
D12*
%TO.C,R401*%
X107565000Y-97790000D03*
X107565000Y-87630000D03*
%TD*%
%TO.C,R251*%
X142490000Y-33020000D03*
X152650000Y-33020000D03*
%TD*%
%TO.C,R315*%
X111375000Y-113665000D03*
X121535000Y-113665000D03*
%TD*%
%TO.C,R311*%
X101215000Y-124460000D03*
X101215000Y-134620000D03*
%TD*%
%TO.C,C411*%
X124710000Y-129540000D03*
X124710000Y-134540000D03*
%TD*%
%TO.C,R902*%
X174240000Y-61595000D03*
X184400000Y-61595000D03*
%TD*%
%TO.C,R901*%
X192020000Y-44450000D03*
X181860000Y-44450000D03*
%TD*%
D36*
%TO.C,SW310*%
X78355000Y-125810000D03*
D37*
X78355000Y-130810000D03*
X78355000Y-128310000D03*
D38*
X85855000Y-122610000D03*
X85855000Y-134010000D03*
D37*
X92855000Y-130810000D03*
X92855000Y-125810000D03*
%TD*%
D12*
%TO.C,C906*%
X148205000Y-53570000D03*
X148205000Y-48570000D03*
%TD*%
D34*
%TO.C,J410*%
X117090000Y-132080000D03*
D35*
X117090000Y-129540000D03*
X117090000Y-127000000D03*
X117090000Y-124460000D03*
X117090000Y-121920000D03*
X117090000Y-119380000D03*
%TD*%
D12*
%TO.C,R900*%
X192020000Y-40640000D03*
X181860000Y-40640000D03*
%TD*%
%TO.C,R314*%
X111375000Y-110490000D03*
X121535000Y-110490000D03*
%TD*%
D33*
%TO.C,L410*%
X126625000Y-150495000D03*
X126625000Y-137795000D03*
%TD*%
D31*
%TO.C,REF\u002A\u002A*%
X216990000Y-25920000D03*
%TD*%
%TO.C,REF\u002A\u002A*%
X216990000Y-145920000D03*
%TD*%
%TO.C,REF\u002A\u002A*%
X71990000Y-145920000D03*
%TD*%
D14*
%TO.C,Q130*%
X194560000Y-87630000D03*
D15*
X211220000Y-90170000D03*
D16*
X194560000Y-90170000D03*
X194560000Y-92710000D03*
%TD*%
D20*
%TO.C,Q121*%
X164080000Y-107950000D03*
D21*
X166620000Y-107950000D03*
X169160000Y-107950000D03*
%TD*%
D12*
%TO.C,R221*%
X132965000Y-116205000D03*
X143125000Y-116205000D03*
%TD*%
D20*
%TO.C,Q210*%
X143125000Y-134620000D03*
D21*
X140585000Y-134620000D03*
X138045000Y-134620000D03*
%TD*%
D12*
%TO.C,R130*%
X179320000Y-87630000D03*
X189480000Y-87630000D03*
%TD*%
D27*
%TO.C,U210*%
X146300000Y-133985000D03*
D26*
X146300000Y-136525000D03*
X146300000Y-139065000D03*
X153920000Y-139065000D03*
X153920000Y-136525000D03*
X153920000Y-133985000D03*
%TD*%
D12*
%TO.C,R212*%
X132965000Y-142875000D03*
X143125000Y-142875000D03*
%TD*%
%TO.C,R210*%
X146300000Y-129540000D03*
X136140000Y-129540000D03*
%TD*%
D27*
%TO.C,U220*%
X146300000Y-111125000D03*
D26*
X146300000Y-113665000D03*
X146300000Y-116205000D03*
X153920000Y-116205000D03*
X153920000Y-113665000D03*
X153920000Y-111125000D03*
%TD*%
D39*
%TO.C,D120*%
X171700000Y-113030000D03*
D12*
X179320000Y-113030000D03*
%TD*%
%TO.C,R122*%
X167890000Y-111760000D03*
X157730000Y-111760000D03*
%TD*%
%TO.C,R123*%
X167890000Y-115062000D03*
X157730000Y-115062000D03*
%TD*%
D40*
%TO.C,C120*%
X167255000Y-118407401D03*
D41*
X167255000Y-120407401D03*
%TD*%
D12*
%TO.C,R124*%
X151380000Y-120015000D03*
X161540000Y-120015000D03*
%TD*%
%TO.C,R114*%
X151380000Y-142875000D03*
X161540000Y-142875000D03*
%TD*%
%TO.C,R220*%
X146300000Y-106680000D03*
X136140000Y-106680000D03*
%TD*%
%TO.C,R113*%
X167890000Y-137922000D03*
X157730000Y-137922000D03*
%TD*%
%TO.C,R110*%
X179320000Y-130810000D03*
X189480000Y-130810000D03*
%TD*%
D14*
%TO.C,Q120*%
X194560000Y-107950000D03*
D15*
X211220000Y-110490000D03*
D16*
X194560000Y-110490000D03*
X194560000Y-113030000D03*
%TD*%
D12*
%TO.C,R132*%
X157730000Y-90805000D03*
X167890000Y-90805000D03*
%TD*%
%TO.C,R133*%
X167890000Y-96520000D03*
X157730000Y-96520000D03*
%TD*%
%TO.C,R230*%
X146300000Y-85090000D03*
X136140000Y-85090000D03*
%TD*%
D20*
%TO.C,Q220*%
X143125000Y-111760000D03*
D21*
X140585000Y-111760000D03*
X138045000Y-111760000D03*
%TD*%
D12*
%TO.C,R121*%
X151380000Y-106680000D03*
X161540000Y-106680000D03*
%TD*%
D40*
%TO.C,C110*%
X167255000Y-141267401D03*
D41*
X167255000Y-143267401D03*
%TD*%
D12*
%TO.C,R112*%
X167890000Y-134620000D03*
X157730000Y-134620000D03*
%TD*%
D14*
%TO.C,Q110*%
X194560000Y-130810000D03*
D15*
X211220000Y-133350000D03*
D16*
X194560000Y-133350000D03*
X194560000Y-135890000D03*
%TD*%
D12*
%TO.C,R232*%
X132965000Y-96520000D03*
X143125000Y-96520000D03*
%TD*%
D20*
%TO.C,Q131*%
X171700000Y-87630000D03*
D21*
X174240000Y-87630000D03*
X176780000Y-87630000D03*
%TD*%
D12*
%TO.C,R111*%
X151380000Y-129540000D03*
X161540000Y-129540000D03*
%TD*%
D39*
%TO.C,D110*%
X171700000Y-135890000D03*
D12*
X179320000Y-135890000D03*
%TD*%
D20*
%TO.C,Q123*%
X171700000Y-118110000D03*
D21*
X174240000Y-118110000D03*
X176780000Y-118110000D03*
%TD*%
D12*
%TO.C,R211*%
X132965000Y-139065000D03*
X143125000Y-139065000D03*
%TD*%
D20*
%TO.C,Q112*%
X171700000Y-130810000D03*
D21*
X174240000Y-130810000D03*
X176780000Y-130810000D03*
%TD*%
D12*
%TO.C,R231*%
X132965000Y-93345000D03*
X143125000Y-93345000D03*
%TD*%
D20*
%TO.C,Q111*%
X164080000Y-130810000D03*
D21*
X166620000Y-130810000D03*
X169160000Y-130810000D03*
%TD*%
D20*
%TO.C,Q122*%
X171700000Y-107950000D03*
D21*
X174240000Y-107950000D03*
X176780000Y-107950000D03*
%TD*%
D12*
%TO.C,R131*%
X157730000Y-85090000D03*
X167890000Y-85090000D03*
%TD*%
%TO.C,R222*%
X132965000Y-120015000D03*
X143125000Y-120015000D03*
%TD*%
%TO.C,R120*%
X179320000Y-107950000D03*
X189480000Y-107950000D03*
%TD*%
D27*
%TO.C,U230*%
X146300000Y-88265000D03*
D26*
X146300000Y-90805000D03*
X146300000Y-93345000D03*
X153920000Y-93345000D03*
X153920000Y-90805000D03*
X153920000Y-88265000D03*
%TD*%
D20*
%TO.C,Q230*%
X143125000Y-88900000D03*
D21*
X140585000Y-88900000D03*
X138045000Y-88900000D03*
%TD*%
D20*
%TO.C,Q132*%
X171700000Y-95885000D03*
D21*
X174240000Y-95885000D03*
X176780000Y-95885000D03*
%TD*%
D20*
%TO.C,Q113*%
X171700000Y-140970000D03*
D21*
X174240000Y-140970000D03*
X176780000Y-140970000D03*
%TD*%
%LPD*%
M02*
