%TF.GenerationSoftware,KiCad,Pcbnew,9.0.2*%
%TF.CreationDate,2025-07-13T15:24:28+02:00*%
%TF.ProjectId,Motor Control,4d6f746f-7220-4436-9f6e-74726f6c2e6b,1.0*%
%TF.SameCoordinates,Original*%
%TF.FileFunction,Copper,L2,Bot*%
%TF.FilePolarity,Positive*%
%FSLAX46Y46*%
G04 Gerber Fmt 4.6, Leading zero omitted, Abs format (unit mm)*
G04 Created by KiCad (PCBNEW 9.0.2) date 2025-07-13 15:24:28*
%MOMM*%
%LPD*%
G01*
G04 APERTURE LIST*
G04 Aperture macros list*
%AMRoundRect*
0 Rectangle with rounded corners*
0 $1 Rounding radius*
0 $2 $3 $4 $5 $6 $7 $8 $9 X,Y pos of 4 corners*
0 Add a 4 corners polygon primitive as box body*
4,1,4,$2,$3,$4,$5,$6,$7,$8,$9,$2,$3,0*
0 Add four circle primitives for the rounded corners*
1,1,$1+$1,$2,$3*
1,1,$1+$1,$4,$5*
1,1,$1+$1,$6,$7*
1,1,$1+$1,$8,$9*
0 Add four rect primitives between the rounded corners*
20,1,$1+$1,$2,$3,$4,$5,0*
20,1,$1+$1,$4,$5,$6,$7,0*
20,1,$1+$1,$6,$7,$8,$9,0*
20,1,$1+$1,$8,$9,$2,$3,0*%
G04 Aperture macros list end*
%TA.AperFunction,ComponentPad*%
%ADD10C,1.600000*%
%TD*%
%TA.AperFunction,ComponentPad*%
%ADD11RoundRect,0.625000X-0.625000X-0.875000X0.625000X-0.875000X0.625000X0.875000X-0.625000X0.875000X0*%
%TD*%
%TA.AperFunction,ComponentPad*%
%ADD12R,2.000000X1.905000*%
%TD*%
%TA.AperFunction,ComponentPad*%
%ADD13C,4.500000*%
%TD*%
%TA.AperFunction,ComponentPad*%
%ADD14O,2.000000X1.905000*%
%TD*%
%TA.AperFunction,ComponentPad*%
%ADD15RoundRect,0.250000X0.550000X0.550000X-0.550000X0.550000X-0.550000X-0.550000X0.550000X-0.550000X0*%
%TD*%
%TA.AperFunction,ComponentPad*%
%ADD16RoundRect,0.250000X-0.650000X-1.550000X0.650000X-1.550000X0.650000X1.550000X-0.650000X1.550000X0*%
%TD*%
%TA.AperFunction,ComponentPad*%
%ADD17O,1.800000X3.600000*%
%TD*%
%TA.AperFunction,ComponentPad*%
%ADD18R,1.500000X1.500000*%
%TD*%
%TA.AperFunction,ComponentPad*%
%ADD19C,1.500000*%
%TD*%
%TA.AperFunction,ComponentPad*%
%ADD20R,1.400000X1.400000*%
%TD*%
%TA.AperFunction,ComponentPad*%
%ADD21C,1.400000*%
%TD*%
%TA.AperFunction,ComponentPad*%
%ADD22C,3.000000*%
%TD*%
%TA.AperFunction,ComponentPad*%
%ADD23RoundRect,0.250000X0.950000X0.550000X-0.950000X0.550000X-0.950000X-0.550000X0.950000X-0.550000X0*%
%TD*%
%TA.AperFunction,ComponentPad*%
%ADD24O,2.400000X1.600000*%
%TD*%
%TA.AperFunction,ComponentPad*%
%ADD25RoundRect,0.250000X-0.950000X-0.550000X0.950000X-0.550000X0.950000X0.550000X-0.950000X0.550000X0*%
%TD*%
%TA.AperFunction,ComponentPad*%
%ADD26O,2.600000X1.800000*%
%TD*%
%TA.AperFunction,ComponentPad*%
%ADD27R,3.000000X1.800000*%
%TD*%
%TA.AperFunction,SMDPad,CuDef*%
%ADD28R,3.000000X1.000000*%
%TD*%
%TA.AperFunction,ComponentPad*%
%ADD29C,3.600000*%
%TD*%
%TA.AperFunction,ComponentPad*%
%ADD30C,1.750000*%
%TD*%
%TA.AperFunction,ComponentPad*%
%ADD31C,2.400000*%
%TD*%
%TA.AperFunction,ComponentPad*%
%ADD32R,1.700000X1.700000*%
%TD*%
%TA.AperFunction,ComponentPad*%
%ADD33C,1.700000*%
%TD*%
%TA.AperFunction,ComponentPad*%
%ADD34R,2.000000X2.000000*%
%TD*%
%TA.AperFunction,ComponentPad*%
%ADD35C,2.000000*%
%TD*%
%TA.AperFunction,ComponentPad*%
%ADD36R,3.200000X2.400000*%
%TD*%
%TA.AperFunction,ComponentPad*%
%ADD37RoundRect,0.250000X-0.550000X-0.550000X0.550000X-0.550000X0.550000X0.550000X-0.550000X0.550000X0*%
%TD*%
%TA.AperFunction,ComponentPad*%
%ADD38RoundRect,0.250000X-0.350000X0.350000X-0.350000X-0.350000X0.350000X-0.350000X0.350000X0.350000X0*%
%TD*%
%TA.AperFunction,ComponentPad*%
%ADD39C,1.200000*%
%TD*%
%TA.AperFunction,ViaPad*%
%ADD40C,0.600000*%
%TD*%
%TA.AperFunction,Conductor*%
%ADD41C,0.350000*%
%TD*%
%TA.AperFunction,Conductor*%
%ADD42C,1.000000*%
%TD*%
%TA.AperFunction,Conductor*%
%ADD43C,2.000000*%
%TD*%
G04 APERTURE END LIST*
D10*
%TO.P,C903,1*%
%TO.N,+12V*%
X164080000Y-41910000D03*
%TO.P,C903,2*%
%TO.N,GNDPWR*%
X164080000Y-46910000D03*
%TD*%
D11*
%TO.P,F1,1*%
%TO.N,Net-(J5-Pin_2)*%
X185930000Y-24070000D03*
%TO.P,F1,2*%
%TO.N,+24V*%
X208530000Y-24070000D03*
%TD*%
D12*
%TO.P,U900,1,ADJ*%
%TO.N,Net-(D901-A)*%
X194560000Y-45720000D03*
D13*
%TO.P,U900,2,VO*%
%TO.N,+12V*%
X211220000Y-48260000D03*
D14*
X194560000Y-48260000D03*
%TO.P,U900,3,VI*%
%TO.N,+24V*%
X194560000Y-50800000D03*
%TD*%
D15*
%TO.P,D901,1,K*%
%TO.N,+12V*%
X189480000Y-47625000D03*
D10*
%TO.P,D901,2,A*%
%TO.N,Net-(D901-A)*%
X181860000Y-47625000D03*
%TD*%
D16*
%TO.P,J1,1,Pin_1*%
%TO.N,+5V*%
X123440000Y-24130000D03*
D17*
%TO.P,J1,2,Pin_2*%
%TO.N,GNDD*%
X128520000Y-24130000D03*
%TD*%
D10*
%TO.P,C400,1*%
%TO.N,+5V*%
X125980000Y-90170000D03*
%TO.P,C400,2*%
%TO.N,GNDD*%
X125980000Y-95170000D03*
%TD*%
D18*
%TO.P,Q240,1,C*%
%TO.N,Net-(Q240-C)*%
X143125000Y-71120000D03*
D19*
%TO.P,Q240,2,B*%
%TO.N,Net-(Q240-B)*%
X140585000Y-71120000D03*
%TO.P,Q240,3,E*%
%TO.N,GNDD*%
X138045000Y-71120000D03*
%TD*%
D10*
%TO.P,R410,1*%
%TO.N,RA4*%
X124710000Y-116840000D03*
%TO.P,R410,2*%
%TO.N,+5V*%
X124710000Y-127000000D03*
%TD*%
%TO.P,R242,1*%
%TO.N,/H Bridge/P1C*%
X132965000Y-78740000D03*
%TO.P,R242,2*%
%TO.N,Net-(Q240-B)*%
X143125000Y-78740000D03*
%TD*%
D20*
%TO.P,J411,1,VBUS*%
%TO.N,unconnected-(J411-VBUS-Pad1)*%
X117725000Y-143485000D03*
D21*
%TO.P,J411,2,D-*%
%TO.N,Net-(J411-D-)*%
X115225000Y-143485000D03*
%TO.P,J411,3,D+*%
%TO.N,Net-(J411-D+)*%
X115225000Y-146685000D03*
%TO.P,J411,4,GND*%
%TO.N,GNDD*%
X117725000Y-146685000D03*
D22*
%TO.P,J411,5,Shield*%
%TO.N,Net-(J411-Shield)*%
X110455000Y-146195000D03*
X122495000Y-146195000D03*
%TD*%
D23*
%TO.P,U410,1,VDD*%
%TO.N,+5V*%
X120900000Y-134620000D03*
D24*
%TO.P,U410,2,GP0*%
%TO.N,unconnected-(U410-GP0-Pad2)*%
X120900000Y-132080000D03*
%TO.P,U410,3,GP1*%
%TO.N,unconnected-(U410-GP1-Pad3)*%
X120900000Y-129540000D03*
%TO.P,U410,4,~{RST}*%
%TO.N,+5V*%
X120900000Y-127000000D03*
%TO.P,U410,5,URx*%
%TO.N,uRX*%
X120900000Y-124460000D03*
%TO.P,U410,6,UTx*%
%TO.N,uTX*%
X120900000Y-121920000D03*
%TO.P,U410,7,GP2*%
%TO.N,unconnected-(U410-GP2-Pad7)*%
X120900000Y-119380000D03*
%TO.P,U410,8,GP3*%
%TO.N,RA4*%
X113280000Y-119380000D03*
%TO.P,U410,9,SDA*%
%TO.N,unconnected-(U410-SDA-Pad9)*%
X113280000Y-121920000D03*
%TO.P,U410,10,SCL*%
%TO.N,unconnected-(U410-SCL-Pad10)*%
X113280000Y-124460000D03*
%TO.P,U410,11,VUSB*%
%TO.N,Net-(U410-VUSB)*%
X113280000Y-127000000D03*
%TO.P,U410,12,D-*%
%TO.N,Net-(J411-D-)*%
X113280000Y-129540000D03*
%TO.P,U410,13,D+*%
%TO.N,Net-(J411-D+)*%
X113280000Y-132080000D03*
%TO.P,U410,14,VSS*%
%TO.N,GNDD*%
X113280000Y-134620000D03*
%TD*%
D16*
%TO.P,J4,1,Pin_1*%
%TO.N,/H Bridge/Out_{2}*%
X161540000Y-24070000D03*
D17*
%TO.P,J4,2,Pin_2*%
%TO.N,/H Bridge/Out_{1}*%
X166620000Y-24070000D03*
%TD*%
D18*
%TO.P,Q141,1,C*%
%TO.N,+12V*%
X171700000Y-69850000D03*
D19*
%TO.P,Q141,2,B*%
%TO.N,Net-(Q141-B)*%
X174240000Y-69850000D03*
%TO.P,Q141,3,E*%
%TO.N,Net-(Q141-E)*%
X176780000Y-69850000D03*
%TD*%
D25*
%TO.P,U240,1*%
%TO.N,Net-(R240-Pad1)*%
X146300000Y-70485000D03*
D24*
%TO.P,U240,2*%
%TO.N,Net-(Q240-C)*%
X146300000Y-73025000D03*
%TO.P,U240,3,NC*%
%TO.N,unconnected-(U240-NC-Pad3)*%
X146300000Y-75565000D03*
%TO.P,U240,4*%
%TO.N,Net-(R142-Pad1)*%
X153920000Y-75565000D03*
%TO.P,U240,5*%
%TO.N,+12V*%
X153920000Y-73025000D03*
%TO.P,U240,6*%
%TO.N,Net-(R141-Pad1)*%
X153920000Y-70485000D03*
%TD*%
D10*
%TO.P,R142,1*%
%TO.N,Net-(R142-Pad1)*%
X157730000Y-73025000D03*
%TO.P,R142,2*%
%TO.N,Net-(Q141-B)*%
X167890000Y-73025000D03*
%TD*%
D25*
%TO.P,U300,1,QB*%
%TO.N,Net-(DS300-D5)*%
X113280000Y-46355000D03*
D24*
%TO.P,U300,2,QC*%
%TO.N,Net-(DS300-D6)*%
X113280000Y-48895000D03*
%TO.P,U300,3,QD*%
%TO.N,Net-(DS300-D7)*%
X113280000Y-51435000D03*
%TO.P,U300,4,QE*%
%TO.N,unconnected-(U300-QE-Pad4)*%
X113280000Y-53975000D03*
%TO.P,U300,5,QF*%
%TO.N,Net-(DS300-RS)*%
X113280000Y-56515000D03*
%TO.P,U300,6,QG*%
%TO.N,unconnected-(U300-QG-Pad6)*%
X113280000Y-59055000D03*
%TO.P,U300,7,QH*%
%TO.N,Net-(DS300-E)*%
X113280000Y-61595000D03*
%TO.P,U300,8,GND*%
%TO.N,GNDD*%
X113280000Y-64135000D03*
%TO.P,U300,9,QH'*%
%TO.N,/Disp & encoder/SDA{slash}SDI*%
X120900000Y-64135000D03*
%TO.P,U300,10,~{SRCLR}*%
%TO.N,GNDD*%
X120900000Y-61595000D03*
%TO.P,U300,11,SRCLK*%
%TO.N,/Disp & encoder/SCL*%
X120900000Y-59055000D03*
%TO.P,U300,12,RCLK*%
%TO.N,/Disp & encoder/DISP*%
X120900000Y-56515000D03*
%TO.P,U300,13,~{OE}*%
%TO.N,GNDD*%
X120900000Y-53975000D03*
%TO.P,U300,14,SER*%
%TO.N,/Disp & encoder/SDO*%
X120900000Y-51435000D03*
%TO.P,U300,15,QA*%
%TO.N,Net-(DS300-D4)*%
X120900000Y-48895000D03*
%TO.P,U300,16,VCC*%
%TO.N,+5V*%
X120900000Y-46355000D03*
%TD*%
D10*
%TO.P,R140,1*%
%TO.N,Net-(Q141-E)*%
X179320000Y-69850000D03*
%TO.P,R140,2*%
%TO.N,Net-(Q140-G)*%
X189480000Y-69850000D03*
%TD*%
%TO.P,R141,1*%
%TO.N,Net-(R141-Pad1)*%
X157730000Y-67310000D03*
%TO.P,R141,2*%
%TO.N,GNDPWR*%
X167890000Y-67310000D03*
%TD*%
D12*
%TO.P,Q140,1,G*%
%TO.N,Net-(Q140-G)*%
X194560000Y-69850000D03*
D13*
%TO.P,Q140,2,D*%
%TO.N,/H Bridge/Out_{2}*%
X211220000Y-72390000D03*
D14*
X194560000Y-72390000D03*
%TO.P,Q140,3,S*%
%TO.N,/H Bridge/GNDPWR_{out}*%
X194560000Y-74930000D03*
%TD*%
D18*
%TO.P,Q142,1,C*%
%TO.N,GNDPWR*%
X171700000Y-78105000D03*
D19*
%TO.P,Q142,2,B*%
%TO.N,Net-(Q141-B)*%
X174240000Y-78105000D03*
%TO.P,Q142,3,E*%
%TO.N,Net-(Q141-E)*%
X176780000Y-78105000D03*
%TD*%
D10*
%TO.P,R310,1*%
%TO.N,Net-(R310-Pad1)*%
X97405000Y-124460000D03*
%TO.P,R310,2*%
%TO.N,+5V*%
X97405000Y-134620000D03*
%TD*%
D13*
%TO.P,DS300,*%
%TO.N,*%
X101100000Y-35040000D03*
X70100000Y-35040000D03*
X101100000Y-110040000D03*
X70100000Y-110040000D03*
D26*
%TO.P,DS300,1,VSS*%
%TO.N,GNDD*%
X101600000Y-40640000D03*
%TO.P,DS300,2,VDD*%
%TO.N,+5V*%
X101600000Y-43180000D03*
%TO.P,DS300,3,VO*%
%TO.N,Net-(DS300-VO)*%
X101600000Y-45720000D03*
%TO.P,DS300,4,RS*%
%TO.N,Net-(DS300-RS)*%
X101600000Y-48260000D03*
%TO.P,DS300,5,R/W*%
%TO.N,GNDD*%
X101600000Y-50800000D03*
%TO.P,DS300,6,E*%
%TO.N,Net-(DS300-E)*%
X101600000Y-53340000D03*
%TO.P,DS300,7,D0*%
%TO.N,GNDD*%
X101600000Y-55880000D03*
%TO.P,DS300,8,D1*%
X101600000Y-58420000D03*
%TO.P,DS300,9,D2*%
X101600000Y-60960000D03*
%TO.P,DS300,10,D3*%
X101600000Y-63500000D03*
%TO.P,DS300,11,D4*%
%TO.N,Net-(DS300-D4)*%
X101600000Y-66040000D03*
%TO.P,DS300,12,D5*%
%TO.N,Net-(DS300-D5)*%
X101600000Y-68580000D03*
%TO.P,DS300,13,D6*%
%TO.N,Net-(DS300-D6)*%
X101600000Y-71120000D03*
%TO.P,DS300,14,D7*%
%TO.N,Net-(DS300-D7)*%
X101600000Y-73660000D03*
%TO.P,DS300,15,LED(+)*%
%TO.N,unconnected-(DS300-LED(+)-Pad15)*%
X101600000Y-76200000D03*
%TO.P,DS300,16,LED(-)*%
%TO.N,unconnected-(DS300-LED(-)-Pad16)*%
X101600000Y-78740000D03*
D27*
%TO.P,DS300,17*%
%TO.N,N/C*%
X93460000Y-34400000D03*
D28*
X90920000Y-34400000D03*
D27*
X88420000Y-34400000D03*
%TO.P,DS300,18*%
X82540000Y-34400000D03*
D28*
X80000000Y-34400000D03*
D27*
X77460000Y-34400000D03*
%TD*%
D10*
%TO.P,R241,1*%
%TO.N,GNDD*%
X132965000Y-75565000D03*
%TO.P,R241,2*%
%TO.N,Net-(Q240-B)*%
X143125000Y-75565000D03*
%TD*%
D23*
%TO.P,U902,1,V_{DD1}*%
%TO.N,Net-(U901-VO)*%
X159635000Y-55245000D03*
D24*
%TO.P,U902,2,V_{IN+}*%
%TO.N,Net-(U902-V_{IN+})*%
X159635000Y-52705000D03*
%TO.P,U902,3,V_{IN-}*%
%TO.N,GNDPWR*%
X159635000Y-50165000D03*
%TO.P,U902,4,GND_{1}*%
X159635000Y-47625000D03*
%TO.P,U902,5,GND_{2}*%
%TO.N,GNDD*%
X152015000Y-47625000D03*
%TO.P,U902,6,V_{REF}*%
%TO.N,+5V*%
X152015000Y-50165000D03*
%TO.P,U902,7,V_{OUT}*%
%TO.N,Net-(U902-V_{OUT})*%
X152015000Y-52705000D03*
%TO.P,U902,8,V_{DD2}*%
%TO.N,+5V*%
X152015000Y-55245000D03*
%TD*%
D10*
%TO.P,R240,1*%
%TO.N,Net-(R240-Pad1)*%
X146300000Y-67310000D03*
%TO.P,R240,2*%
%TO.N,+5V*%
X136140000Y-67310000D03*
%TD*%
%TO.P,R143,1*%
%TO.N,GNDPWR*%
X167890000Y-78740000D03*
%TO.P,R143,2*%
%TO.N,Net-(R142-Pad1)*%
X157730000Y-78740000D03*
%TD*%
D29*
%TO.P,REF\u002A\u002A,1*%
%TO.N,N/C*%
X71990000Y-25920000D03*
%TD*%
D15*
%TO.P,D900,1,K*%
%TO.N,+24V*%
X189480000Y-51435000D03*
D10*
%TO.P,D900,2,A*%
%TO.N,+12V*%
X181860000Y-51435000D03*
%TD*%
D30*
%TO.P,R300,1,1*%
%TO.N,GNDD*%
X110740000Y-37465000D03*
%TO.P,R300,2,2*%
%TO.N,Net-(DS300-VO)*%
X108200000Y-34925000D03*
%TO.P,R300,3,3*%
%TO.N,+5V*%
X110740000Y-32385000D03*
%TD*%
D10*
%TO.P,C250,1*%
%TO.N,T1CLK*%
X139315000Y-38100000D03*
%TO.P,C250,2*%
%TO.N,GNDD*%
X139315000Y-33100000D03*
%TD*%
%TO.P,C904,1*%
%TO.N,Net-(U901-VO)*%
X167890000Y-55165000D03*
%TO.P,C904,2*%
%TO.N,GNDPWR*%
X167890000Y-50165000D03*
%TD*%
D18*
%TO.P,U901,1,VO*%
%TO.N,Net-(U901-VO)*%
X169795000Y-46990000D03*
D19*
%TO.P,U901,2,GND*%
%TO.N,GNDPWR*%
X169795000Y-44450000D03*
%TO.P,U901,3,VI*%
%TO.N,+12V*%
X169795000Y-41910000D03*
%TD*%
D16*
%TO.P,J6,1,Pin_1*%
%TO.N,+5V*%
X151380000Y-24070000D03*
D17*
%TO.P,J6,2,Pin_2*%
%TO.N,Net-(J6-Pin_2)*%
X156460000Y-24070000D03*
%TD*%
D15*
%TO.P,C902,1*%
%TO.N,+12V*%
X178050000Y-50800000D03*
D10*
%TO.P,C902,2*%
%TO.N,GNDPWR*%
X175550000Y-50800000D03*
%TD*%
D31*
%TO.P,R000,1*%
%TO.N,GNDPWR*%
X174240000Y-57150000D03*
%TO.P,R000,2*%
%TO.N,/H Bridge/GNDPWR_{out}*%
X194560000Y-57150000D03*
%TD*%
D10*
%TO.P,R400,1*%
%TO.N,Net-(U400-RA2)*%
X107565000Y-85090000D03*
%TO.P,R400,2*%
%TO.N,+5V*%
X107565000Y-74930000D03*
%TD*%
%TO.P,C300,1*%
%TO.N,+5V*%
X114630000Y-43180000D03*
%TO.P,C300,2*%
%TO.N,GNDD*%
X119630000Y-43180000D03*
%TD*%
D32*
%TO.P,J400,1,Pin_1*%
%TO.N,V_{PP}*%
X145030000Y-29210000D03*
D33*
%TO.P,J400,2,Pin_2*%
%TO.N,+5V*%
X142490000Y-29210000D03*
%TO.P,J400,3,Pin_3*%
%TO.N,GNDD*%
X139950000Y-29210000D03*
%TO.P,J400,4,Pin_4*%
%TO.N,PGD*%
X137410000Y-29210000D03*
%TO.P,J400,5,Pin_5*%
%TO.N,PGC*%
X134870000Y-29210000D03*
%TD*%
D10*
%TO.P,R312,1*%
%TO.N,Net-(R312-Pad1)*%
X105025000Y-124460000D03*
%TO.P,R312,2*%
%TO.N,+5V*%
X105025000Y-134620000D03*
%TD*%
%TO.P,R903,1*%
%TO.N,/MCU & USB/AN0*%
X141855000Y-58420000D03*
%TO.P,R903,2*%
%TO.N,Net-(U902-V_{OUT})*%
X152015000Y-58420000D03*
%TD*%
%TO.P,R250,1*%
%TO.N,Net-(J6-Pin_2)*%
X152650000Y-38100000D03*
%TO.P,R250,2*%
%TO.N,T1CLK*%
X142490000Y-38100000D03*
%TD*%
%TO.P,C310,1*%
%TO.N,/Disp & encoder/SWS*%
X124075000Y-107315000D03*
%TO.P,C310,2*%
%TO.N,GNDD*%
X129075000Y-107315000D03*
%TD*%
%TO.P,C311,1*%
%TO.N,/Disp & encoder/SWA*%
X124075000Y-110490000D03*
%TO.P,C311,2*%
%TO.N,GNDD*%
X129075000Y-110490000D03*
%TD*%
%TO.P,C905,1*%
%TO.N,Net-(U902-V_{IN+})*%
X164080000Y-55245000D03*
%TO.P,C905,2*%
%TO.N,GNDPWR*%
X164080000Y-50245000D03*
%TD*%
%TO.P,C907,1*%
%TO.N,/MCU & USB/AN0*%
X144395000Y-53570000D03*
%TO.P,C907,2*%
%TO.N,GNDD*%
X144395000Y-48570000D03*
%TD*%
D15*
%TO.P,C901,1*%
%TO.N,Net-(D901-A)*%
X178050000Y-44450000D03*
D10*
%TO.P,C901,2*%
%TO.N,GNDPWR*%
X175550000Y-44450000D03*
%TD*%
%TO.P,C312,1*%
%TO.N,/Disp & encoder/SWB*%
X124075000Y-113665000D03*
%TO.P,C312,2*%
%TO.N,GNDD*%
X129075000Y-113665000D03*
%TD*%
%TO.P,R313,1*%
%TO.N,/Disp & encoder/SWS*%
X121535000Y-107315000D03*
%TO.P,R313,2*%
%TO.N,Net-(R310-Pad1)*%
X111375000Y-107315000D03*
%TD*%
D16*
%TO.P,J5,1,Pin_1*%
%TO.N,GNDPWR*%
X171700000Y-24070000D03*
D17*
%TO.P,J5,2,Pin_2*%
%TO.N,Net-(J5-Pin_2)*%
X176780000Y-24070000D03*
%TD*%
D15*
%TO.P,C900,1*%
%TO.N,+24V*%
X208530000Y-34570000D03*
D10*
%TO.P,C900,2*%
%TO.N,GNDPWR*%
X203530000Y-34570000D03*
%TD*%
%TO.P,C410,1*%
%TO.N,Net-(U410-VUSB)*%
X110105000Y-129620000D03*
%TO.P,C410,2*%
%TO.N,GNDD*%
X110105000Y-134620000D03*
%TD*%
D25*
%TO.P,U400,1,~{MCLR}/VPP/RE3*%
%TO.N,V_{PP}*%
X113280000Y-69850000D03*
D24*
%TO.P,U400,2,RA0*%
%TO.N,/MCU & USB/AN0*%
X113280000Y-72390000D03*
%TO.P,U400,3,RA1*%
%TO.N,unconnected-(U400-RA1-Pad3)*%
X113280000Y-74930000D03*
%TO.P,U400,4,RA2*%
%TO.N,Net-(U400-RA2)*%
X113280000Y-77470000D03*
%TO.P,U400,5,RA3*%
%TO.N,unconnected-(U400-RA3-Pad5)*%
X113280000Y-80010000D03*
%TO.P,U400,6,RA4*%
%TO.N,RA4*%
X113280000Y-82550000D03*
%TO.P,U400,7,RA5*%
%TO.N,~{SS}*%
X113280000Y-85090000D03*
%TO.P,U400,8,VSS*%
%TO.N,GNDD*%
X113280000Y-87630000D03*
%TO.P,U400,9,RA7/OSC1_CLKIN*%
%TO.N,unconnected-(U400-RA7{slash}OSC1_CLKIN-Pad9)*%
X113280000Y-90170000D03*
%TO.P,U400,10,RA6/OSC2_CLKOUT*%
%TO.N,unconnected-(U400-RA6{slash}OSC2_CLKOUT-Pad10)*%
X113280000Y-92710000D03*
%TO.P,U400,11,RC0/SOSCO*%
%TO.N,T1CLK*%
X113280000Y-95250000D03*
%TO.P,U400,12,RC1/SOSCI*%
%TO.N,/Disp & encoder/DISP*%
X113280000Y-97790000D03*
%TO.P,U400,13,RC2*%
%TO.N,/H Bridge/P1A*%
X113280000Y-100330000D03*
%TO.P,U400,14,RC3*%
%TO.N,/Disp & encoder/SCL*%
X113280000Y-102870000D03*
%TO.P,U400,15,RC4*%
%TO.N,/Disp & encoder/SDA{slash}SDI*%
X120900000Y-102870000D03*
%TO.P,U400,16,RC5*%
%TO.N,/Disp & encoder/SDO*%
X120900000Y-100330000D03*
%TO.P,U400,17,RC6*%
%TO.N,uTX*%
X120900000Y-97790000D03*
%TO.P,U400,18,RC7*%
%TO.N,uRX*%
X120900000Y-95250000D03*
%TO.P,U400,19,VSS*%
%TO.N,GNDD*%
X120900000Y-92710000D03*
%TO.P,U400,20,VDD*%
%TO.N,+5V*%
X120900000Y-90170000D03*
%TO.P,U400,21,RB0*%
%TO.N,/Disp & encoder/SWS*%
X120900000Y-87630000D03*
%TO.P,U400,22,RB1*%
%TO.N,/H Bridge/P1D*%
X120900000Y-85090000D03*
%TO.P,U400,23,RB2*%
%TO.N,/H Bridge/P1B*%
X120900000Y-82550000D03*
%TO.P,U400,24,RB3*%
%TO.N,/Disp & encoder/SWA*%
X120900000Y-80010000D03*
%TO.P,U400,25,RB4*%
%TO.N,/H Bridge/P1C*%
X120900000Y-77470000D03*
%TO.P,U400,26,RB5*%
%TO.N,/Disp & encoder/SWB*%
X120900000Y-74930000D03*
%TO.P,U400,27,RB6/PGC*%
%TO.N,PGC*%
X120900000Y-72390000D03*
%TO.P,U400,28,RB7/PGD*%
%TO.N,PGD*%
X120900000Y-69850000D03*
%TD*%
D10*
%TO.P,R401,1*%
%TO.N,GNDD*%
X107565000Y-97790000D03*
%TO.P,R401,2*%
%TO.N,Net-(U400-RA2)*%
X107565000Y-87630000D03*
%TD*%
%TO.P,R251,1*%
%TO.N,GNDD*%
X142490000Y-33020000D03*
%TO.P,R251,2*%
%TO.N,Net-(J6-Pin_2)*%
X152650000Y-33020000D03*
%TD*%
%TO.P,R315,1*%
%TO.N,Net-(R312-Pad1)*%
X111375000Y-113665000D03*
%TO.P,R315,2*%
%TO.N,/Disp & encoder/SWB*%
X121535000Y-113665000D03*
%TD*%
%TO.P,R311,1*%
%TO.N,Net-(R311-Pad1)*%
X101215000Y-124460000D03*
%TO.P,R311,2*%
%TO.N,+5V*%
X101215000Y-134620000D03*
%TD*%
%TO.P,C411,1*%
%TO.N,+5V*%
X124710000Y-129540000D03*
%TO.P,C411,2*%
%TO.N,GNDD*%
X124710000Y-134540000D03*
%TD*%
%TO.P,R902,1*%
%TO.N,Net-(U902-V_{IN+})*%
X174240000Y-61595000D03*
%TO.P,R902,2*%
%TO.N,/H Bridge/GNDPWR_{out}*%
X184400000Y-61595000D03*
%TD*%
%TO.P,R901,1*%
%TO.N,+12V*%
X192020000Y-44450000D03*
%TO.P,R901,2*%
%TO.N,Net-(D901-A)*%
X181860000Y-44450000D03*
%TD*%
D34*
%TO.P,SW310,A,A*%
%TO.N,Net-(R311-Pad1)*%
X78355000Y-125810000D03*
D35*
%TO.P,SW310,B,B*%
%TO.N,Net-(R312-Pad1)*%
X78355000Y-130810000D03*
%TO.P,SW310,C,C*%
%TO.N,GNDD*%
X78355000Y-128310000D03*
D36*
%TO.P,SW310,MP,MP*%
X85855000Y-122610000D03*
X85855000Y-134010000D03*
D35*
%TO.P,SW310,S1,S1*%
%TO.N,Net-(R310-Pad1)*%
X92855000Y-130810000D03*
%TO.P,SW310,S2,S2*%
%TO.N,GNDD*%
X92855000Y-125810000D03*
%TD*%
D10*
%TO.P,C906,1*%
%TO.N,+5V*%
X148205000Y-53570000D03*
%TO.P,C906,2*%
%TO.N,GNDD*%
X148205000Y-48570000D03*
%TD*%
D32*
%TO.P,J410,1,Pin_1*%
%TO.N,GNDD*%
X117090000Y-132080000D03*
D33*
%TO.P,J410,2,Pin_2*%
%TO.N,unconnected-(J410-Pin_2-Pad2)*%
X117090000Y-129540000D03*
%TO.P,J410,3,Pin_3*%
%TO.N,+5V*%
X117090000Y-127000000D03*
%TO.P,J410,4,Pin_4*%
%TO.N,uRX*%
X117090000Y-124460000D03*
%TO.P,J410,5,Pin_5*%
%TO.N,uTX*%
X117090000Y-121920000D03*
%TO.P,J410,6,Pin_6*%
%TO.N,unconnected-(J410-Pin_6-Pad6)*%
X117090000Y-119380000D03*
%TD*%
D10*
%TO.P,R900,1*%
%TO.N,Net-(D901-A)*%
X192020000Y-40640000D03*
%TO.P,R900,2*%
%TO.N,GNDPWR*%
X181860000Y-40640000D03*
%TD*%
%TO.P,R314,1*%
%TO.N,Net-(R311-Pad1)*%
X111375000Y-110490000D03*
%TO.P,R314,2*%
%TO.N,/Disp & encoder/SWA*%
X121535000Y-110490000D03*
%TD*%
D31*
%TO.P,L410,1*%
%TO.N,Net-(J411-Shield)*%
X126625000Y-150495000D03*
%TO.P,L410,2*%
%TO.N,GNDD*%
X126625000Y-137795000D03*
%TD*%
D29*
%TO.P,REF\u002A\u002A,1*%
%TO.N,N/C*%
X216990000Y-25920000D03*
%TD*%
%TO.P,REF\u002A\u002A,1*%
%TO.N,N/C*%
X216990000Y-145920000D03*
%TD*%
%TO.P,REF\u002A\u002A,1*%
%TO.N,N/C*%
X71990000Y-145920000D03*
%TD*%
D12*
%TO.P,Q130,1,G*%
%TO.N,Net-(Q130-G)*%
X194560000Y-87630000D03*
D13*
%TO.P,Q130,2,D*%
%TO.N,/H Bridge/Out_{1}*%
X211220000Y-90170000D03*
D14*
X194560000Y-90170000D03*
%TO.P,Q130,3,S*%
%TO.N,/H Bridge/GNDPWR_{out}*%
X194560000Y-92710000D03*
%TD*%
D18*
%TO.P,Q121,1,C*%
%TO.N,Net-(Q121-C)*%
X164080000Y-107950000D03*
D19*
%TO.P,Q121,2,B*%
%TO.N,Net-(Q121-B)*%
X166620000Y-107950000D03*
%TO.P,Q121,3,E*%
%TO.N,Net-(D120-K)*%
X169160000Y-107950000D03*
%TD*%
D10*
%TO.P,R221,1*%
%TO.N,GNDD*%
X132965000Y-116205000D03*
%TO.P,R221,2*%
%TO.N,Net-(Q220-B)*%
X143125000Y-116205000D03*
%TD*%
D18*
%TO.P,Q210,1,C*%
%TO.N,Net-(Q210-C)*%
X143125000Y-134620000D03*
D19*
%TO.P,Q210,2,B*%
%TO.N,Net-(Q210-B)*%
X140585000Y-134620000D03*
%TO.P,Q210,3,E*%
%TO.N,GNDD*%
X138045000Y-134620000D03*
%TD*%
D10*
%TO.P,R130,1*%
%TO.N,Net-(Q131-E)*%
X179320000Y-87630000D03*
%TO.P,R130,2*%
%TO.N,Net-(Q130-G)*%
X189480000Y-87630000D03*
%TD*%
D25*
%TO.P,U210,1*%
%TO.N,Net-(R210-Pad1)*%
X146300000Y-133985000D03*
D24*
%TO.P,U210,2*%
%TO.N,Net-(Q210-C)*%
X146300000Y-136525000D03*
%TO.P,U210,3,NC*%
%TO.N,unconnected-(U210-NC-Pad3)*%
X146300000Y-139065000D03*
%TO.P,U210,4*%
%TO.N,Net-(Q111-C)*%
X153920000Y-139065000D03*
%TO.P,U210,5*%
%TO.N,Net-(Q111-B)*%
X153920000Y-136525000D03*
%TO.P,U210,6*%
%TO.N,Net-(R111-Pad1)*%
X153920000Y-133985000D03*
%TD*%
D10*
%TO.P,R212,1*%
%TO.N,/H Bridge/P1B*%
X132965000Y-142875000D03*
%TO.P,R212,2*%
%TO.N,Net-(Q210-B)*%
X143125000Y-142875000D03*
%TD*%
%TO.P,R210,1*%
%TO.N,Net-(R210-Pad1)*%
X146300000Y-129540000D03*
%TO.P,R210,2*%
%TO.N,+5V*%
X136140000Y-129540000D03*
%TD*%
D25*
%TO.P,U220,1*%
%TO.N,Net-(R220-Pad1)*%
X146300000Y-111125000D03*
D24*
%TO.P,U220,2*%
%TO.N,Net-(Q220-C)*%
X146300000Y-113665000D03*
%TO.P,U220,3,NC*%
%TO.N,unconnected-(U220-NC-Pad3)*%
X146300000Y-116205000D03*
%TO.P,U220,4*%
%TO.N,Net-(Q121-C)*%
X153920000Y-116205000D03*
%TO.P,U220,5*%
%TO.N,Net-(Q121-B)*%
X153920000Y-113665000D03*
%TO.P,U220,6*%
%TO.N,Net-(R121-Pad1)*%
X153920000Y-111125000D03*
%TD*%
D37*
%TO.P,D120,1,K*%
%TO.N,Net-(D120-K)*%
X171700000Y-113030000D03*
D10*
%TO.P,D120,2,A*%
%TO.N,+12V*%
X179320000Y-113030000D03*
%TD*%
%TO.P,R122,1*%
%TO.N,Net-(Q122-B)*%
X167890000Y-111760000D03*
%TO.P,R122,2*%
%TO.N,Net-(Q121-C)*%
X157730000Y-111760000D03*
%TD*%
%TO.P,R123,1*%
%TO.N,Net-(D120-K)*%
X167890000Y-115062000D03*
%TO.P,R123,2*%
%TO.N,Net-(Q121-B)*%
X157730000Y-115062000D03*
%TD*%
D38*
%TO.P,C120,1*%
%TO.N,Net-(D120-K)*%
X167255000Y-118407401D03*
D39*
%TO.P,C120,2*%
%TO.N,/H Bridge/Out_{2}*%
X167255000Y-120407401D03*
%TD*%
D10*
%TO.P,R124,1*%
%TO.N,Net-(Q121-C)*%
X151380000Y-120015000D03*
%TO.P,R124,2*%
%TO.N,/H Bridge/Out_{2}*%
X161540000Y-120015000D03*
%TD*%
%TO.P,R114,1*%
%TO.N,Net-(Q111-C)*%
X151380000Y-142875000D03*
%TO.P,R114,2*%
%TO.N,/H Bridge/Out_{1}*%
X161540000Y-142875000D03*
%TD*%
%TO.P,R220,1*%
%TO.N,Net-(R220-Pad1)*%
X146300000Y-106680000D03*
%TO.P,R220,2*%
%TO.N,+5V*%
X136140000Y-106680000D03*
%TD*%
%TO.P,R113,1*%
%TO.N,Net-(D110-K)*%
X167890000Y-137922000D03*
%TO.P,R113,2*%
%TO.N,Net-(Q111-B)*%
X157730000Y-137922000D03*
%TD*%
%TO.P,R110,1*%
%TO.N,Net-(Q112-E)*%
X179320000Y-130810000D03*
%TO.P,R110,2*%
%TO.N,Net-(Q110-G)*%
X189480000Y-130810000D03*
%TD*%
D12*
%TO.P,Q120,1,G*%
%TO.N,Net-(Q120-G)*%
X194560000Y-107950000D03*
D13*
%TO.P,Q120,2,D*%
%TO.N,+24V*%
X211220000Y-110490000D03*
D14*
X194560000Y-110490000D03*
%TO.P,Q120,3,S*%
%TO.N,/H Bridge/Out_{2}*%
X194560000Y-113030000D03*
%TD*%
D10*
%TO.P,R132,1*%
%TO.N,Net-(R132-Pad1)*%
X157730000Y-90805000D03*
%TO.P,R132,2*%
%TO.N,Net-(Q131-B)*%
X167890000Y-90805000D03*
%TD*%
%TO.P,R133,1*%
%TO.N,GNDPWR*%
X167890000Y-96520000D03*
%TO.P,R133,2*%
%TO.N,Net-(R132-Pad1)*%
X157730000Y-96520000D03*
%TD*%
%TO.P,R230,1*%
%TO.N,Net-(R230-Pad1)*%
X146300000Y-85090000D03*
%TO.P,R230,2*%
%TO.N,+5V*%
X136140000Y-85090000D03*
%TD*%
D18*
%TO.P,Q220,1,C*%
%TO.N,Net-(Q220-C)*%
X143125000Y-111760000D03*
D19*
%TO.P,Q220,2,B*%
%TO.N,Net-(Q220-B)*%
X140585000Y-111760000D03*
%TO.P,Q220,3,E*%
%TO.N,GNDD*%
X138045000Y-111760000D03*
%TD*%
D10*
%TO.P,R121,1*%
%TO.N,Net-(R121-Pad1)*%
X151380000Y-106680000D03*
%TO.P,R121,2*%
%TO.N,Net-(Q121-C)*%
X161540000Y-106680000D03*
%TD*%
D38*
%TO.P,C110,1*%
%TO.N,Net-(D110-K)*%
X167255000Y-141267401D03*
D39*
%TO.P,C110,2*%
%TO.N,/H Bridge/Out_{1}*%
X167255000Y-143267401D03*
%TD*%
D10*
%TO.P,R112,1*%
%TO.N,Net-(Q112-B)*%
X167890000Y-134620000D03*
%TO.P,R112,2*%
%TO.N,Net-(Q111-C)*%
X157730000Y-134620000D03*
%TD*%
D12*
%TO.P,Q110,1,G*%
%TO.N,Net-(Q110-G)*%
X194560000Y-130810000D03*
D13*
%TO.P,Q110,2,D*%
%TO.N,+24V*%
X211220000Y-133350000D03*
D14*
X194560000Y-133350000D03*
%TO.P,Q110,3,S*%
%TO.N,/H Bridge/Out_{1}*%
X194560000Y-135890000D03*
%TD*%
D10*
%TO.P,R232,1*%
%TO.N,/H Bridge/P1A*%
X132965000Y-96520000D03*
%TO.P,R232,2*%
%TO.N,Net-(Q230-B)*%
X143125000Y-96520000D03*
%TD*%
D18*
%TO.P,Q131,1,C*%
%TO.N,+12V*%
X171700000Y-87630000D03*
D19*
%TO.P,Q131,2,B*%
%TO.N,Net-(Q131-B)*%
X174240000Y-87630000D03*
%TO.P,Q131,3,E*%
%TO.N,Net-(Q131-E)*%
X176780000Y-87630000D03*
%TD*%
D10*
%TO.P,R111,1*%
%TO.N,Net-(R111-Pad1)*%
X151380000Y-129540000D03*
%TO.P,R111,2*%
%TO.N,Net-(Q111-C)*%
X161540000Y-129540000D03*
%TD*%
D37*
%TO.P,D110,1,K*%
%TO.N,Net-(D110-K)*%
X171700000Y-135890000D03*
D10*
%TO.P,D110,2,A*%
%TO.N,+12V*%
X179320000Y-135890000D03*
%TD*%
D18*
%TO.P,Q123,1,C*%
%TO.N,/H Bridge/Out_{2}*%
X171700000Y-118110000D03*
D19*
%TO.P,Q123,2,B*%
%TO.N,Net-(Q122-B)*%
X174240000Y-118110000D03*
%TO.P,Q123,3,E*%
%TO.N,Net-(Q122-E)*%
X176780000Y-118110000D03*
%TD*%
D10*
%TO.P,R211,1*%
%TO.N,GNDD*%
X132965000Y-139065000D03*
%TO.P,R211,2*%
%TO.N,Net-(Q210-B)*%
X143125000Y-139065000D03*
%TD*%
D18*
%TO.P,Q112,1,C*%
%TO.N,Net-(D110-K)*%
X171700000Y-130810000D03*
D19*
%TO.P,Q112,2,B*%
%TO.N,Net-(Q112-B)*%
X174240000Y-130810000D03*
%TO.P,Q112,3,E*%
%TO.N,Net-(Q112-E)*%
X176780000Y-130810000D03*
%TD*%
D10*
%TO.P,R231,1*%
%TO.N,GNDD*%
X132965000Y-93345000D03*
%TO.P,R231,2*%
%TO.N,Net-(Q230-B)*%
X143125000Y-93345000D03*
%TD*%
D18*
%TO.P,Q111,1,C*%
%TO.N,Net-(Q111-C)*%
X164080000Y-130810000D03*
D19*
%TO.P,Q111,2,B*%
%TO.N,Net-(Q111-B)*%
X166620000Y-130810000D03*
%TO.P,Q111,3,E*%
%TO.N,Net-(D110-K)*%
X169160000Y-130810000D03*
%TD*%
D18*
%TO.P,Q122,1,C*%
%TO.N,Net-(D120-K)*%
X171700000Y-107950000D03*
D19*
%TO.P,Q122,2,B*%
%TO.N,Net-(Q122-B)*%
X174240000Y-107950000D03*
%TO.P,Q122,3,E*%
%TO.N,Net-(Q122-E)*%
X176780000Y-107950000D03*
%TD*%
D10*
%TO.P,R131,1*%
%TO.N,Net-(R131-Pad1)*%
X157730000Y-85090000D03*
%TO.P,R131,2*%
%TO.N,GNDPWR*%
X167890000Y-85090000D03*
%TD*%
%TO.P,R222,1*%
%TO.N,/H Bridge/P1D*%
X132965000Y-120015000D03*
%TO.P,R222,2*%
%TO.N,Net-(Q220-B)*%
X143125000Y-120015000D03*
%TD*%
%TO.P,R120,1*%
%TO.N,Net-(Q122-E)*%
X179320000Y-107950000D03*
%TO.P,R120,2*%
%TO.N,Net-(Q120-G)*%
X189480000Y-107950000D03*
%TD*%
D25*
%TO.P,U230,1*%
%TO.N,Net-(R230-Pad1)*%
X146300000Y-88265000D03*
D24*
%TO.P,U230,2*%
%TO.N,Net-(Q230-C)*%
X146300000Y-90805000D03*
%TO.P,U230,3,NC*%
%TO.N,unconnected-(U230-NC-Pad3)*%
X146300000Y-93345000D03*
%TO.P,U230,4*%
%TO.N,Net-(R132-Pad1)*%
X153920000Y-93345000D03*
%TO.P,U230,5*%
%TO.N,+12V*%
X153920000Y-90805000D03*
%TO.P,U230,6*%
%TO.N,Net-(R131-Pad1)*%
X153920000Y-88265000D03*
%TD*%
D18*
%TO.P,Q230,1,C*%
%TO.N,Net-(Q230-C)*%
X143125000Y-88900000D03*
D19*
%TO.P,Q230,2,B*%
%TO.N,Net-(Q230-B)*%
X140585000Y-88900000D03*
%TO.P,Q230,3,E*%
%TO.N,GNDD*%
X138045000Y-88900000D03*
%TD*%
D18*
%TO.P,Q132,1,C*%
%TO.N,GNDPWR*%
X171700000Y-95885000D03*
D19*
%TO.P,Q132,2,B*%
%TO.N,Net-(Q131-B)*%
X174240000Y-95885000D03*
%TO.P,Q132,3,E*%
%TO.N,Net-(Q131-E)*%
X176780000Y-95885000D03*
%TD*%
D18*
%TO.P,Q113,1,C*%
%TO.N,/H Bridge/Out_{1}*%
X171700000Y-140970000D03*
D19*
%TO.P,Q113,2,B*%
%TO.N,Net-(Q112-B)*%
X174240000Y-140970000D03*
%TO.P,Q113,3,E*%
%TO.N,Net-(Q112-E)*%
X176780000Y-140970000D03*
%TD*%
D40*
%TO.N,+24V*%
X217430000Y-138430000D03*
X212350000Y-138430000D03*
X207270000Y-138430000D03*
X209810000Y-135890000D03*
X214890000Y-135890000D03*
X217430000Y-133350000D03*
X207270000Y-133350000D03*
X209810000Y-130810000D03*
X214890000Y-130810000D03*
X217430000Y-128270000D03*
X207270000Y-128270000D03*
X212350000Y-128270000D03*
X217430000Y-115570000D03*
X212350000Y-115570000D03*
X207270000Y-115570000D03*
X209810000Y-113030000D03*
X214890000Y-113030000D03*
X217430000Y-110490000D03*
X207270000Y-110490000D03*
X214890000Y-107950000D03*
X209810000Y-107950000D03*
X217430000Y-105410000D03*
X212350000Y-105410000D03*
X207270000Y-105410000D03*
%TO.N,/H Bridge/Out_{1}*%
X217430000Y-96520000D03*
X212350000Y-96520000D03*
X207270000Y-96520000D03*
X214890000Y-93980000D03*
X209810000Y-93980000D03*
X217430000Y-90170000D03*
X207270000Y-90170000D03*
X209810000Y-87630000D03*
X214890000Y-87630000D03*
X217430000Y-85090000D03*
X212350000Y-85090000D03*
X207270000Y-85090000D03*
%TO.N,/H Bridge/Out_{2}*%
X217430000Y-77470000D03*
X212350000Y-77470000D03*
X207270000Y-77470000D03*
X209810000Y-74930000D03*
X214890000Y-74930000D03*
X217430000Y-72390000D03*
X207270000Y-72390000D03*
X209810000Y-69850000D03*
X214890000Y-69850000D03*
X217430000Y-67310000D03*
X207270000Y-67310000D03*
X212350000Y-67310000D03*
%TO.N,+12V*%
X217430000Y-53340000D03*
X212350000Y-53340000D03*
X207270000Y-53340000D03*
X214890000Y-50800000D03*
X209810000Y-50800000D03*
X207270000Y-48260000D03*
X217430000Y-48260000D03*
X209810000Y-45720000D03*
X214890000Y-45720000D03*
X217430000Y-43180000D03*
X207270000Y-43180000D03*
X212350000Y-43180000D03*
%TO.N,T1CLK*%
X116116000Y-85090000D03*
X126615000Y-50800000D03*
%TD*%
D41*
%TO.N,Net-(Q240-B)*%
X140585000Y-73025000D02*
X140585000Y-71120000D01*
%TO.N,Net-(Q240-C)*%
X143125000Y-71120000D02*
X143125000Y-71755000D01*
%TO.N,Net-(Q141-E)*%
X179320000Y-69850000D02*
X176780000Y-69850000D01*
%TO.N,Net-(Q240-B)*%
X143125000Y-75565000D02*
X140585000Y-73025000D01*
%TO.N,Net-(Q141-B)*%
X174240000Y-73025000D02*
X174240000Y-78105000D01*
%TO.N,Net-(R141-Pad1)*%
X155825000Y-67310000D02*
X157730000Y-67310000D01*
%TO.N,+12V*%
X154555000Y-73025000D02*
X153920000Y-73025000D01*
%TO.N,Net-(Q141-E)*%
X176780000Y-69850000D02*
X176780000Y-78105000D01*
%TO.N,Net-(R141-Pad1)*%
X153920000Y-69215000D02*
X155825000Y-67310000D01*
%TO.N,Net-(Q240-B)*%
X143125000Y-78740000D02*
X143125000Y-75565000D01*
%TO.N,Net-(R142-Pad1)*%
X157730000Y-73025000D02*
X157730000Y-75565000D01*
%TO.N,Net-(Q141-B)*%
X167890000Y-73025000D02*
X174240000Y-73025000D01*
%TO.N,+12V*%
X157730000Y-69850000D02*
X171700000Y-69850000D01*
X157730000Y-69850000D02*
X154555000Y-73025000D01*
%TO.N,Net-(R142-Pad1)*%
X157730000Y-75565000D02*
X157730000Y-78740000D01*
X153920000Y-75565000D02*
X157730000Y-75565000D01*
%TO.N,Net-(Q240-C)*%
X143125000Y-71755000D02*
X144395000Y-73025000D01*
%TO.N,Net-(R141-Pad1)*%
X153920000Y-70485000D02*
X153920000Y-69215000D01*
%TO.N,Net-(Q140-G)*%
X189480000Y-69850000D02*
X194560000Y-69850000D01*
%TO.N,Net-(Q141-B)*%
X174240000Y-69850000D02*
X174240000Y-73025000D01*
%TO.N,Net-(R240-Pad1)*%
X146300000Y-70485000D02*
X146300000Y-67310000D01*
%TO.N,Net-(Q240-C)*%
X146300000Y-73025000D02*
X144395000Y-73025000D01*
D42*
%TO.N,+5V*%
X142490000Y-24130000D02*
X142490000Y-23495000D01*
X152015000Y-50165000D02*
X150745000Y-50165000D01*
X139950000Y-20955000D02*
X124075000Y-20955000D01*
X151380000Y-24070000D02*
X142550000Y-24070000D01*
D41*
X125980000Y-90170000D02*
X120900000Y-90170000D01*
D42*
X132330000Y-67310000D02*
X129155000Y-64135000D01*
X136140000Y-106680000D02*
X136140000Y-129540000D01*
X136140000Y-85090000D02*
X136140000Y-106680000D01*
X142490000Y-29210000D02*
X142490000Y-24130000D01*
X121662000Y-134620000D02*
X124710000Y-131572000D01*
X123440000Y-31750000D02*
X129155000Y-37465000D01*
X120900000Y-134620000D02*
X121662000Y-134620000D01*
X123440000Y-21590000D02*
X123440000Y-24130000D01*
X136140000Y-67310000D02*
X136140000Y-85090000D01*
X124710000Y-129540000D02*
X124710000Y-127000000D01*
X129155000Y-37465000D02*
X129155000Y-50800000D01*
X148205000Y-53570000D02*
X148205000Y-50800000D01*
X124710000Y-127000000D02*
X117090000Y-127000000D01*
X148840000Y-55245000D02*
X152015000Y-55245000D01*
X148205000Y-50800000D02*
X150110000Y-50800000D01*
X124075000Y-20955000D02*
X123440000Y-21590000D01*
X124710000Y-131572000D02*
X124710000Y-129540000D01*
X136140000Y-67310000D02*
X132330000Y-67310000D01*
X148205000Y-53570000D02*
X148205000Y-54610000D01*
X129155000Y-50800000D02*
X148205000Y-50800000D01*
X150745000Y-50165000D02*
X150110000Y-50800000D01*
X123440000Y-24130000D02*
X123440000Y-31750000D01*
X142490000Y-23495000D02*
X139950000Y-20955000D01*
X142550000Y-24070000D02*
X142490000Y-24130000D01*
X148205000Y-54610000D02*
X148840000Y-55245000D01*
X129155000Y-64135000D02*
X129155000Y-50800000D01*
D41*
%TO.N,GNDD*%
X148205000Y-48570000D02*
X144395000Y-48570000D01*
X152015000Y-47625000D02*
X149150000Y-47625000D01*
X149150000Y-47625000D02*
X148205000Y-48570000D01*
D43*
%TO.N,/H Bridge/Out_{1}*%
X203450000Y-90170000D02*
X203450000Y-129540000D01*
X203450000Y-129540000D02*
X197100000Y-135890000D01*
D41*
X171700000Y-143267401D02*
X187182599Y-143267401D01*
X187182599Y-143267401D02*
X194560000Y-135890000D01*
D43*
X194560000Y-33020000D02*
X169160000Y-33020000D01*
X203450000Y-90170000D02*
X203450000Y-41910000D01*
D41*
X164472401Y-143267401D02*
X164080000Y-142875000D01*
D43*
X197100000Y-135890000D02*
X194560000Y-135890000D01*
X203450000Y-41910000D02*
X194560000Y-33020000D01*
X169160000Y-33020000D02*
X166620000Y-30480000D01*
X194560000Y-90170000D02*
X203450000Y-90170000D01*
D41*
X167255000Y-143267401D02*
X164472401Y-143267401D01*
X161540000Y-142875000D02*
X164080000Y-142875000D01*
X167255000Y-143267401D02*
X171700000Y-143267401D01*
D43*
X166620000Y-30480000D02*
X166620000Y-24070000D01*
D41*
X171700000Y-140970000D02*
X171700000Y-143267401D01*
%TO.N,+12V*%
X174875000Y-53340000D02*
X178050000Y-53340000D01*
X163100000Y-87630000D02*
X157730000Y-87630000D01*
X181860000Y-53340000D02*
X181860000Y-50800000D01*
X192020000Y-48260000D02*
X191385000Y-47625000D01*
X194560000Y-48260000D02*
X192020000Y-48260000D01*
X191385000Y-47625000D02*
X189480000Y-47625000D01*
X189480000Y-45720000D02*
X190750000Y-44450000D01*
X171700000Y-50165000D02*
X174875000Y-53340000D01*
X169795000Y-41910000D02*
X170720000Y-41910000D01*
X181860000Y-53340000D02*
X178050000Y-53340000D01*
X189480000Y-47625000D02*
X189480000Y-45720000D01*
X171700000Y-69850000D02*
X178050000Y-63500000D01*
X181860000Y-110490000D02*
X179320000Y-113030000D01*
X169795000Y-41910000D02*
X164080000Y-41910000D01*
X171700000Y-42890000D02*
X171700000Y-50165000D01*
X178050000Y-50800000D02*
X178050000Y-53340000D01*
X181860000Y-53340000D02*
X181860000Y-110490000D01*
X171700000Y-87630000D02*
X163100000Y-87630000D01*
X190750000Y-44450000D02*
X192020000Y-44450000D01*
X189480000Y-47625000D02*
X185035000Y-47625000D01*
X154555000Y-90805000D02*
X153920000Y-90805000D01*
X178050000Y-63500000D02*
X178050000Y-53340000D01*
X157730000Y-87630000D02*
X154555000Y-90805000D01*
X170720000Y-41910000D02*
X171700000Y-42890000D01*
X163100000Y-69850000D02*
X163100000Y-87630000D01*
X181860000Y-50800000D02*
X185035000Y-47625000D01*
X171700000Y-69850000D02*
X163100000Y-69850000D01*
%TO.N,/H Bridge/Out_{2}*%
X167255000Y-120407401D02*
X164472401Y-120407401D01*
D43*
X186940000Y-74930000D02*
X189480000Y-72390000D01*
X193290000Y-36830000D02*
X165350000Y-36830000D01*
X196886900Y-72390000D02*
X199640000Y-69636900D01*
D41*
X169402599Y-120407401D02*
X171700000Y-120407401D01*
X161540000Y-120015000D02*
X164080000Y-120015000D01*
D43*
X186940000Y-110490000D02*
X186940000Y-74930000D01*
D41*
X182102599Y-120407401D02*
X169402599Y-120407401D01*
X171700000Y-120407401D02*
X171700000Y-118110000D01*
D43*
X194560000Y-113030000D02*
X189480000Y-113030000D01*
X161540000Y-33020000D02*
X161540000Y-24070000D01*
X189480000Y-113030000D02*
X186940000Y-110490000D01*
D41*
X167255000Y-120407401D02*
X169402599Y-120407401D01*
D43*
X194560000Y-72390000D02*
X196886900Y-72390000D01*
X199640000Y-43180000D02*
X193290000Y-36830000D01*
X189480000Y-72390000D02*
X194560000Y-72390000D01*
D41*
X189480000Y-113030000D02*
X182102599Y-120407401D01*
D43*
X199640000Y-69636900D02*
X199640000Y-43180000D01*
X165350000Y-36830000D02*
X161540000Y-33020000D01*
D41*
X164472401Y-120407401D02*
X164080000Y-120015000D01*
%TO.N,T1CLK*%
X116116000Y-85090000D02*
X116116000Y-79714000D01*
X124075000Y-67945000D02*
X126615000Y-65405000D01*
X126615000Y-65405000D02*
X126615000Y-50800000D01*
X120265000Y-67945000D02*
X124075000Y-67945000D01*
X116116000Y-79714000D02*
X117725000Y-78105000D01*
X117725000Y-70485000D02*
X120265000Y-67945000D01*
X117725000Y-78105000D02*
X117725000Y-70485000D01*
%TO.N,+24V*%
X190115000Y-51435000D02*
X190750000Y-50800000D01*
X190750000Y-50800000D02*
X194560000Y-50800000D01*
X189480000Y-51435000D02*
X190115000Y-51435000D01*
%TO.N,uRX*%
X122805000Y-124460000D02*
X121535000Y-124460000D01*
X127250000Y-99695000D02*
X127250000Y-120015000D01*
X127250000Y-120015000D02*
X122805000Y-124460000D01*
X121485000Y-95250000D02*
X122805000Y-95250000D01*
X122805000Y-95250000D02*
X127250000Y-99695000D01*
%TO.N,uTX*%
X126615000Y-100330000D02*
X126615000Y-118110000D01*
X122805000Y-121920000D02*
X121535000Y-121920000D01*
X121485000Y-97790000D02*
X124075000Y-97790000D01*
X126615000Y-118110000D02*
X122805000Y-121920000D01*
X124075000Y-97790000D02*
X126615000Y-100330000D01*
%TO.N,Net-(J6-Pin_2)*%
X156460000Y-29210000D02*
X152650000Y-33020000D01*
X156460000Y-24070000D02*
X156460000Y-29210000D01*
X152650000Y-38100000D02*
X152650000Y-33020000D01*
%TO.N,Net-(Q120-G)*%
X189480000Y-107950000D02*
X194560000Y-107950000D01*
%TO.N,Net-(Q121-B)*%
X156587000Y-115062000D02*
X155190000Y-113665000D01*
X155190000Y-113665000D02*
X153920000Y-113665000D01*
X160778000Y-115062000D02*
X157730000Y-115062000D01*
X166620000Y-107950000D02*
X166620000Y-109220000D01*
X157730000Y-115062000D02*
X156587000Y-115062000D01*
X166620000Y-109220000D02*
X160778000Y-115062000D01*
%TO.N,Net-(Q121-C)*%
X152015000Y-116205000D02*
X152015000Y-113030000D01*
X161540000Y-107950000D02*
X161540000Y-106680000D01*
X151380000Y-116840000D02*
X152015000Y-116205000D01*
X151380000Y-120015000D02*
X151380000Y-116840000D01*
X157095000Y-112395000D02*
X157730000Y-111760000D01*
X157730000Y-111760000D02*
X161540000Y-107950000D01*
X152015000Y-116205000D02*
X153920000Y-116205000D01*
X161540000Y-107950000D02*
X164080000Y-107950000D01*
X152650000Y-112395000D02*
X157095000Y-112395000D01*
X152015000Y-113030000D02*
X152650000Y-112395000D01*
%TO.N,Net-(Q122-B)*%
X174240000Y-107020000D02*
X173900000Y-106680000D01*
X168525000Y-106680000D02*
X167890000Y-107315000D01*
X173900000Y-106680000D02*
X168525000Y-106680000D01*
X167890000Y-107315000D02*
X167890000Y-111760000D01*
X174240000Y-118110000D02*
X174240000Y-107950000D01*
X174240000Y-107950000D02*
X174240000Y-107020000D01*
%TO.N,Net-(Q122-E)*%
X176780000Y-107950000D02*
X176780000Y-118110000D01*
X179320000Y-107950000D02*
X176780000Y-107950000D01*
%TO.N,Net-(D110-K)*%
X167255000Y-140335000D02*
X167890000Y-139700000D01*
X171700000Y-130810000D02*
X169160000Y-130810000D01*
X167890000Y-139700000D02*
X167890000Y-137922000D01*
X169922000Y-135890000D02*
X171700000Y-135890000D01*
X167890000Y-137922000D02*
X169922000Y-135890000D01*
X171700000Y-135890000D02*
X171700000Y-130810000D01*
X167255000Y-141267401D02*
X167255000Y-140335000D01*
%TO.N,Net-(Q110-G)*%
X189480000Y-130810000D02*
X194560000Y-130810000D01*
%TO.N,Net-(Q111-C)*%
X152650000Y-135255000D02*
X157095000Y-135255000D01*
X157095000Y-135255000D02*
X157730000Y-134620000D01*
X153920000Y-139065000D02*
X152015000Y-139065000D01*
X152015000Y-135890000D02*
X152650000Y-135255000D01*
X152015000Y-139065000D02*
X152015000Y-135890000D01*
X151380000Y-142875000D02*
X151380000Y-139700000D01*
X161540000Y-130810000D02*
X157730000Y-134620000D01*
X161540000Y-130810000D02*
X161540000Y-129540000D01*
X164080000Y-130810000D02*
X161540000Y-130810000D01*
X151380000Y-139700000D02*
X152015000Y-139065000D01*
%TO.N,Net-(Q111-B)*%
X155190000Y-136525000D02*
X156587000Y-137922000D01*
X156587000Y-137922000D02*
X157730000Y-137922000D01*
X160778000Y-137922000D02*
X157730000Y-137922000D01*
X153920000Y-136525000D02*
X155190000Y-136525000D01*
X166620000Y-132080000D02*
X160778000Y-137922000D01*
X166620000Y-130810000D02*
X166620000Y-132080000D01*
%TO.N,Net-(Q112-B)*%
X174240000Y-130810000D02*
X174240000Y-130175000D01*
X168525000Y-129540000D02*
X173605000Y-129540000D01*
X167890000Y-134620000D02*
X167890000Y-130175000D01*
X174240000Y-130810000D02*
X174240000Y-140970000D01*
X174240000Y-130175000D02*
X173605000Y-129540000D01*
X167890000Y-130175000D02*
X168525000Y-129540000D01*
%TO.N,Net-(Q112-E)*%
X176780000Y-130810000D02*
X176780000Y-140970000D01*
X179320000Y-130810000D02*
X176780000Y-130810000D01*
%TO.N,Net-(Q210-B)*%
X140585000Y-136525000D02*
X143125000Y-139065000D01*
X143125000Y-142875000D02*
X143125000Y-139065000D01*
X140585000Y-134620000D02*
X140585000Y-136525000D01*
%TO.N,Net-(Q210-C)*%
X143125000Y-135255000D02*
X144395000Y-136525000D01*
X144395000Y-136525000D02*
X146300000Y-136525000D01*
X143125000Y-134620000D02*
X143125000Y-135255000D01*
%TO.N,Net-(R111-Pad1)*%
X152650000Y-133985000D02*
X151380000Y-132715000D01*
X151380000Y-132715000D02*
X151380000Y-129540000D01*
X153920000Y-133985000D02*
X152650000Y-133985000D01*
%TO.N,Net-(R210-Pad1)*%
X146300000Y-133985000D02*
X146300000Y-129540000D01*
%TO.N,/H Bridge/P1B*%
X132965000Y-142875000D02*
X129790000Y-139700000D01*
X129155000Y-82550000D02*
X120900000Y-82550000D01*
X129790000Y-128270000D02*
X134870000Y-123190000D01*
X134870000Y-123190000D02*
X134870000Y-88265000D01*
X129790000Y-139700000D02*
X129790000Y-128270000D01*
X134870000Y-88265000D02*
X129155000Y-82550000D01*
%TO.N,Net-(D120-K)*%
X169160000Y-107950000D02*
X171700000Y-107950000D01*
X171700000Y-113030000D02*
X171700000Y-107950000D01*
X167255000Y-117475000D02*
X167255000Y-118407401D01*
X167890000Y-116840000D02*
X167255000Y-117475000D01*
X171700000Y-113030000D02*
X169922000Y-113030000D01*
X169922000Y-113030000D02*
X167890000Y-115062000D01*
X167890000Y-115062000D02*
X167890000Y-116840000D01*
%TO.N,/H Bridge/GNDPWR_{out}*%
X190115000Y-61595000D02*
X194560000Y-57150000D01*
X184400000Y-61595000D02*
X190115000Y-61595000D01*
%TO.N,Net-(Q220-C)*%
X144395000Y-113665000D02*
X146300000Y-113665000D01*
X143125000Y-111760000D02*
X143125000Y-112395000D01*
X143125000Y-112395000D02*
X144395000Y-113665000D01*
%TO.N,Net-(Q220-B)*%
X140585000Y-111760000D02*
X140585000Y-113665000D01*
X143125000Y-116205000D02*
X143125000Y-120015000D01*
X140585000Y-113665000D02*
X143125000Y-116205000D01*
%TO.N,/H Bridge/P1A*%
X115820000Y-100330000D02*
X113280000Y-100330000D01*
X125812000Y-83820000D02*
X118995000Y-83820000D01*
X130976000Y-94531000D02*
X130976000Y-88984000D01*
X132965000Y-96520000D02*
X130976000Y-94531000D01*
X118995000Y-83820000D02*
X117725000Y-85090000D01*
X130976000Y-88984000D02*
X125812000Y-83820000D01*
X117725000Y-98425000D02*
X115820000Y-100330000D01*
X117725000Y-85090000D02*
X117725000Y-98425000D01*
%TO.N,/H Bridge/P1C*%
X132965000Y-78740000D02*
X128520000Y-78740000D01*
X127250000Y-77470000D02*
X120900000Y-77470000D01*
X128520000Y-78740000D02*
X127250000Y-77470000D01*
%TO.N,Net-(R121-Pad1)*%
X151380000Y-109855000D02*
X151380000Y-106680000D01*
X153920000Y-111125000D02*
X152650000Y-111125000D01*
X152650000Y-111125000D02*
X151380000Y-109855000D01*
%TO.N,Net-(R220-Pad1)*%
X146300000Y-111125000D02*
X146300000Y-106680000D01*
%TO.N,/H Bridge/P1D*%
X127885000Y-114935000D02*
X127885000Y-87630000D01*
X125345000Y-85090000D02*
X120900000Y-85090000D01*
X132965000Y-120015000D02*
X127885000Y-114935000D01*
X127885000Y-87630000D02*
X125345000Y-85090000D01*
%TO.N,Net-(Q130-G)*%
X189480000Y-87630000D02*
X194560000Y-87630000D01*
%TO.N,Net-(Q131-B)*%
X167890000Y-90805000D02*
X174240000Y-90805000D01*
X174240000Y-90805000D02*
X174240000Y-95885000D01*
X174240000Y-87630000D02*
X174240000Y-90805000D01*
%TO.N,Net-(Q131-E)*%
X176780000Y-87630000D02*
X179320000Y-87630000D01*
X176780000Y-87630000D02*
X176780000Y-95885000D01*
%TO.N,Net-(Q230-B)*%
X143125000Y-93345000D02*
X140585000Y-90805000D01*
X143125000Y-93345000D02*
X143125000Y-96520000D01*
X140585000Y-90805000D02*
X140585000Y-88900000D01*
%TO.N,Net-(Q230-C)*%
X144395000Y-90805000D02*
X146300000Y-90805000D01*
X143125000Y-89535000D02*
X144395000Y-90805000D01*
X143125000Y-88900000D02*
X143125000Y-89535000D01*
%TO.N,Net-(R131-Pad1)*%
X153920000Y-88265000D02*
X153920000Y-86995000D01*
X153920000Y-86995000D02*
X155825000Y-85090000D01*
X155825000Y-85090000D02*
X157730000Y-85090000D01*
%TO.N,Net-(R132-Pad1)*%
X153920000Y-93345000D02*
X157730000Y-93345000D01*
X157730000Y-93345000D02*
X157730000Y-96520000D01*
X157730000Y-93345000D02*
X157730000Y-90805000D01*
%TO.N,Net-(R230-Pad1)*%
X146300000Y-88265000D02*
X146300000Y-85090000D01*
%TO.N,Net-(D901-A)*%
X192020000Y-40640000D02*
X194560000Y-43180000D01*
X179320000Y-46990000D02*
X181860000Y-46990000D01*
X188210000Y-40640000D02*
X192020000Y-40640000D01*
X184400000Y-44450000D02*
X188210000Y-40640000D01*
X181860000Y-44450000D02*
X181860000Y-47625000D01*
X178050000Y-45720000D02*
X179320000Y-46990000D01*
X181860000Y-44450000D02*
X184400000Y-44450000D01*
X178050000Y-44450000D02*
X178050000Y-45720000D01*
X194560000Y-45720000D02*
X194560000Y-43180000D01*
%TO.N,Net-(U901-VO)*%
X169795000Y-46990000D02*
X169795000Y-51435000D01*
X160905000Y-55245000D02*
X162810000Y-53340000D01*
X169795000Y-51435000D02*
X167890000Y-53340000D01*
X159635000Y-55245000D02*
X160905000Y-55245000D01*
X162810000Y-53340000D02*
X167890000Y-53340000D01*
X167890000Y-53340000D02*
X167890000Y-55165000D01*
%TO.N,Net-(U902-V_{IN+})*%
X159635000Y-52705000D02*
X158365000Y-52705000D01*
X157095000Y-56515000D02*
X158365000Y-57785000D01*
X171065000Y-61595000D02*
X174240000Y-61595000D01*
X167255000Y-57785000D02*
X171065000Y-61595000D01*
X158365000Y-52705000D02*
X157095000Y-53975000D01*
X158365000Y-57785000D02*
X164080000Y-57785000D01*
X164080000Y-55245000D02*
X164080000Y-57785000D01*
X164080000Y-57785000D02*
X167255000Y-57785000D01*
X157095000Y-53975000D02*
X157095000Y-56515000D01*
D43*
%TO.N,Net-(J5-Pin_2)*%
X176780000Y-24070000D02*
X185930000Y-24070000D01*
D41*
%TO.N,Net-(U902-V_{OUT})*%
X153920000Y-53340000D02*
X153285000Y-52705000D01*
X152015000Y-58420000D02*
X153920000Y-56515000D01*
X153285000Y-52705000D02*
X152015000Y-52705000D01*
X153920000Y-56515000D02*
X153920000Y-53340000D01*
%TO.N,Net-(U410-VUSB)*%
X110105000Y-128270000D02*
X111375000Y-127000000D01*
X111375000Y-127000000D02*
X113280000Y-127000000D01*
X110105000Y-129620000D02*
X110105000Y-128270000D01*
%TO.N,Net-(DS300-VO)*%
X104390000Y-38735000D02*
X101215000Y-38735000D01*
X108200000Y-34925000D02*
X104390000Y-38735000D01*
X101215000Y-38735000D02*
X99945000Y-40005000D01*
X99945000Y-40005000D02*
X99945000Y-44450000D01*
X99945000Y-44450000D02*
X101215000Y-45720000D01*
%TO.N,Net-(J411-D+)*%
X113280000Y-144780000D02*
X113320000Y-144780000D01*
X113320000Y-144780000D02*
X115225000Y-146685000D01*
X115185000Y-139700000D02*
X113280000Y-141605000D01*
X113280000Y-132080000D02*
X114550000Y-132080000D01*
X115185000Y-132715000D02*
X115185000Y-139700000D01*
X113280000Y-141605000D02*
X113280000Y-144780000D01*
X114550000Y-132080000D02*
X115185000Y-132715000D01*
%TO.N,Net-(J411-D-)*%
X118360000Y-130810000D02*
X118995000Y-131445000D01*
X115225000Y-143340000D02*
X115225000Y-142200000D01*
X113280000Y-129540000D02*
X114550000Y-130810000D01*
X118995000Y-131445000D02*
X118995000Y-138430000D01*
X114550000Y-130810000D02*
X118360000Y-130810000D01*
X115225000Y-142200000D02*
X118995000Y-138430000D01*
%TO.N,Net-(R310-Pad1)*%
X97405000Y-126260000D02*
X97405000Y-121285000D01*
X92855000Y-130810000D02*
X97405000Y-126260000D01*
X111375000Y-107315000D02*
X97405000Y-121285000D01*
%TO.N,Net-(R311-Pad1)*%
X101215000Y-120650000D02*
X101215000Y-125730000D01*
X89150000Y-133350000D02*
X81610000Y-125810000D01*
X111375000Y-110490000D02*
X101215000Y-120650000D01*
X101215000Y-125730000D02*
X93595000Y-133350000D01*
X93595000Y-133350000D02*
X89150000Y-133350000D01*
X81610000Y-125810000D02*
X78355000Y-125810000D01*
%TO.N,Net-(R312-Pad1)*%
X105025000Y-120015000D02*
X111375000Y-113665000D01*
X104390000Y-124460000D02*
X92325000Y-136525000D01*
X92325000Y-136525000D02*
X80895000Y-136525000D01*
X105025000Y-124460000D02*
X104390000Y-124460000D01*
X105025000Y-124460000D02*
X105025000Y-120015000D01*
X80895000Y-136525000D02*
X78355000Y-133985000D01*
X78355000Y-133985000D02*
X78355000Y-130810000D01*
%TO.N,/Disp & encoder/SDO*%
X123440000Y-104775000D02*
X122805000Y-105410000D01*
X110105000Y-104775000D02*
X110105000Y-53975000D01*
X122805000Y-100330000D02*
X123440000Y-100965000D01*
X123440000Y-100965000D02*
X123440000Y-104775000D01*
X122805000Y-105410000D02*
X110740000Y-105410000D01*
X121485000Y-100330000D02*
X122805000Y-100330000D01*
X110105000Y-53975000D02*
X111375000Y-52705000D01*
X116455000Y-52705000D02*
X117725000Y-51435000D01*
X117725000Y-51435000D02*
X120985000Y-51435000D01*
X110740000Y-105410000D02*
X110105000Y-104775000D01*
X111375000Y-52705000D02*
X116455000Y-52705000D01*
%TO.N,/Disp & encoder/SCL*%
X123440000Y-65405000D02*
X122170000Y-66675000D01*
X113280000Y-66675000D02*
X111375000Y-68580000D01*
X111375000Y-102235000D02*
X112010000Y-102870000D01*
X122170000Y-66675000D02*
X113280000Y-66675000D01*
X111375000Y-68580000D02*
X111375000Y-102235000D01*
X123440000Y-61510000D02*
X123440000Y-65405000D01*
X120985000Y-59055000D02*
X123440000Y-61510000D01*
X112010000Y-102870000D02*
X113865000Y-102870000D01*
%TO.N,/Disp & encoder/SDA{slash}SDI*%
X110740000Y-104140000D02*
X111375000Y-104775000D01*
X112010000Y-66040000D02*
X110740000Y-67310000D01*
X115185000Y-66040000D02*
X112010000Y-66040000D01*
X120985000Y-64135000D02*
X117090000Y-64135000D01*
X121485000Y-104190000D02*
X121485000Y-102870000D01*
X110740000Y-67310000D02*
X110740000Y-104140000D01*
X120900000Y-104775000D02*
X121485000Y-104190000D01*
X117090000Y-64135000D02*
X115185000Y-66040000D01*
X111375000Y-104775000D02*
X120900000Y-104775000D01*
%TO.N,/Disp & encoder/DISP*%
X115441000Y-69594000D02*
X115441000Y-96214000D01*
X122805000Y-67310000D02*
X117725000Y-67310000D01*
X115441000Y-96214000D02*
X113865000Y-97790000D01*
X120900000Y-56515000D02*
X124710000Y-60325000D01*
X124710000Y-65405000D02*
X122805000Y-67310000D01*
X117725000Y-67310000D02*
X115441000Y-69594000D01*
X124710000Y-60325000D02*
X124710000Y-65405000D01*
%TO.N,/MCU & USB/AN0*%
X141855000Y-58420000D02*
X141855000Y-56745000D01*
X141855000Y-56745000D02*
X145030000Y-53570000D01*
%TD*%
%TA.AperFunction,Conductor*%
%TO.N,/H Bridge/Out_{2}*%
G36*
X217705677Y-64789685D02*
G01*
X217726319Y-64806319D01*
X218653681Y-65733681D01*
X218687166Y-65795004D01*
X218690000Y-65821362D01*
X218690000Y-78958638D01*
X218670315Y-79025677D01*
X218653681Y-79046319D01*
X217726319Y-79973681D01*
X217664996Y-80007166D01*
X217638638Y-80010000D01*
X207041362Y-80010000D01*
X206974323Y-79990315D01*
X206953681Y-79973681D01*
X206026319Y-79046319D01*
X205992834Y-78984996D01*
X205990000Y-78958638D01*
X205990000Y-65821362D01*
X206009685Y-65754323D01*
X206026319Y-65733681D01*
X206953681Y-64806319D01*
X207015004Y-64772834D01*
X207041362Y-64770000D01*
X217638638Y-64770000D01*
X217705677Y-64789685D01*
G37*
%TD.AperFunction*%
%TD*%
%TA.AperFunction,Conductor*%
%TO.N,+24V*%
G36*
X217705677Y-102889685D02*
G01*
X217726319Y-102906319D01*
X218653681Y-103833681D01*
X218687166Y-103895004D01*
X218690000Y-103921362D01*
X218690000Y-117058638D01*
X218670315Y-117125677D01*
X218653681Y-117146319D01*
X217726319Y-118073681D01*
X217664996Y-118107166D01*
X217638638Y-118110000D01*
X207041362Y-118110000D01*
X206974323Y-118090315D01*
X206953681Y-118073681D01*
X206026319Y-117146319D01*
X205992834Y-117084996D01*
X205990000Y-117058638D01*
X205990000Y-103921362D01*
X206009685Y-103854323D01*
X206026319Y-103833681D01*
X206953681Y-102906319D01*
X207015004Y-102872834D01*
X207041362Y-102870000D01*
X217638638Y-102870000D01*
X217705677Y-102889685D01*
G37*
%TD.AperFunction*%
%TD*%
%TA.AperFunction,Conductor*%
%TO.N,+12V*%
G36*
X217705677Y-40659685D02*
G01*
X217726319Y-40676319D01*
X218653681Y-41603681D01*
X218687166Y-41665004D01*
X218690000Y-41691362D01*
X218690000Y-54828638D01*
X218670315Y-54895677D01*
X218653681Y-54916319D01*
X217726319Y-55843681D01*
X217664996Y-55877166D01*
X217638638Y-55880000D01*
X207041362Y-55880000D01*
X206974323Y-55860315D01*
X206953681Y-55843681D01*
X206026319Y-54916319D01*
X205992834Y-54854996D01*
X205990000Y-54828638D01*
X205990000Y-41691362D01*
X206009685Y-41624323D01*
X206026319Y-41603681D01*
X206953681Y-40676319D01*
X207015004Y-40642834D01*
X207041362Y-40640000D01*
X217638638Y-40640000D01*
X217705677Y-40659685D01*
G37*
%TD.AperFunction*%
%TD*%
%TA.AperFunction,Conductor*%
%TO.N,/H Bridge/Out_{1}*%
G36*
X217705677Y-82569685D02*
G01*
X217726319Y-82586319D01*
X218653681Y-83513681D01*
X218687166Y-83575004D01*
X218690000Y-83601362D01*
X218690000Y-96738638D01*
X218670315Y-96805677D01*
X218653681Y-96826319D01*
X217726319Y-97753681D01*
X217664996Y-97787166D01*
X217638638Y-97790000D01*
X207041362Y-97790000D01*
X206974323Y-97770315D01*
X206953681Y-97753681D01*
X206026319Y-96826319D01*
X205992834Y-96764996D01*
X205990000Y-96738638D01*
X205990000Y-83601362D01*
X206009685Y-83534323D01*
X206026319Y-83513681D01*
X206953681Y-82586319D01*
X207015004Y-82552834D01*
X207041362Y-82550000D01*
X217638638Y-82550000D01*
X217705677Y-82569685D01*
G37*
%TD.AperFunction*%
%TD*%
%TA.AperFunction,Conductor*%
%TO.N,+24V*%
G36*
X217705677Y-125749685D02*
G01*
X217726319Y-125766319D01*
X218653681Y-126693681D01*
X218687166Y-126755004D01*
X218690000Y-126781362D01*
X218690000Y-139918638D01*
X218670315Y-139985677D01*
X218653681Y-140006319D01*
X217726319Y-140933681D01*
X217664996Y-140967166D01*
X217638638Y-140970000D01*
X207041362Y-140970000D01*
X206974323Y-140950315D01*
X206953681Y-140933681D01*
X206026319Y-140006319D01*
X205992834Y-139944996D01*
X205990000Y-139918638D01*
X205990000Y-126781362D01*
X206009685Y-126714323D01*
X206026319Y-126693681D01*
X206953681Y-125766319D01*
X207015004Y-125732834D01*
X207041362Y-125730000D01*
X217638638Y-125730000D01*
X217705677Y-125749685D01*
G37*
%TD.AperFunction*%
%TD*%
M02*
