%TF.GenerationSoftware,KiCad,Pcbnew,9.0.6*%
%TF.CreationDate,2025-11-24T12:30:45+01:00*%
%TF.ProjectId,Motor Control,4d6f746f-7220-4436-9f6e-74726f6c2e6b,1.0*%
%TF.SameCoordinates,Original*%
%TF.FileFunction,Soldermask,Top*%
%TF.FilePolarity,Negative*%
%FSLAX46Y46*%
G04 Gerber Fmt 4.6, Leading zero omitted, Abs format (unit mm)*
G04 Created by KiCad (PCBNEW 9.0.6) date 2025-11-24 12:30:45*
%MOMM*%
%LPD*%
G01*
G04 APERTURE LIST*
G04 Aperture macros list*
%AMRoundRect*
0 Rectangle with rounded corners*
0 $1 Rounding radius*
0 $2 $3 $4 $5 $6 $7 $8 $9 X,Y pos of 4 corners*
0 Add a 4 corners polygon primitive as box body*
4,1,4,$2,$3,$4,$5,$6,$7,$8,$9,$2,$3,0*
0 Add four circle primitives for the rounded corners*
1,1,$1+$1,$2,$3*
1,1,$1+$1,$4,$5*
1,1,$1+$1,$6,$7*
1,1,$1+$1,$8,$9*
0 Add four rect primitives between the rounded corners*
20,1,$1+$1,$2,$3,$4,$5,0*
20,1,$1+$1,$4,$5,$6,$7,0*
20,1,$1+$1,$6,$7,$8,$9,0*
20,1,$1+$1,$8,$9,$2,$3,0*%
G04 Aperture macros list end*
%ADD10C,1.600000*%
%ADD11R,2.000000X1.905000*%
%ADD12C,4.500000*%
%ADD13O,2.000000X1.905000*%
%ADD14R,1.500000X1.500000*%
%ADD15C,1.500000*%
%ADD16R,1.700000X1.700000*%
%ADD17C,1.700000*%
%ADD18R,2.000000X2.000000*%
%ADD19C,2.000000*%
%ADD20R,3.200000X2.400000*%
%ADD21RoundRect,0.250000X-0.950000X-0.550000X0.950000X-0.550000X0.950000X0.550000X-0.950000X0.550000X0*%
%ADD22O,2.400000X1.600000*%
%ADD23RoundRect,0.250000X-0.650000X-1.550000X0.650000X-1.550000X0.650000X1.550000X-0.650000X1.550000X0*%
%ADD24O,1.800000X3.600000*%
%ADD25C,2.400000*%
%ADD26RoundRect,0.250000X-0.550000X-0.550000X0.550000X-0.550000X0.550000X0.550000X-0.550000X0.550000X0*%
%ADD27RoundRect,0.250000X-0.350000X0.350000X-0.350000X-0.350000X0.350000X-0.350000X0.350000X0.350000X0*%
%ADD28C,1.200000*%
%ADD29C,1.750000*%
%ADD30O,2.600000X1.800000*%
%ADD31R,3.000000X1.800000*%
%ADD32R,3.000000X1.000000*%
%ADD33RoundRect,0.250000X0.550000X0.550000X-0.550000X0.550000X-0.550000X-0.550000X0.550000X-0.550000X0*%
%ADD34RoundRect,0.250000X0.950000X0.550000X-0.950000X0.550000X-0.950000X-0.550000X0.950000X-0.550000X0*%
%ADD35C,3.600000*%
%ADD36C,5.700000*%
%ADD37R,1.400000X1.400000*%
%ADD38C,1.400000*%
%ADD39C,3.000000*%
%ADD40RoundRect,0.625000X-0.625000X-0.875000X0.625000X-0.875000X0.625000X0.875000X-0.625000X0.875000X0*%
G04 APERTURE END LIST*
D10*
%TO.C,R314*%
X111125000Y-114300000D03*
X121285000Y-114300000D03*
%TD*%
D11*
%TO.C,Q130*%
X194310000Y-92710000D03*
D12*
X210970000Y-95250000D03*
D13*
X194310000Y-95250000D03*
X194310000Y-97790000D03*
%TD*%
D10*
%TO.C,R900*%
X191770000Y-45720000D03*
X181610000Y-45720000D03*
%TD*%
D14*
%TO.C,Q121*%
X163830000Y-113030000D03*
D15*
X166370000Y-113030000D03*
X168910000Y-113030000D03*
%TD*%
D10*
%TO.C,R221*%
X132715000Y-121285000D03*
X142875000Y-121285000D03*
%TD*%
D14*
%TO.C,Q210*%
X142875000Y-139700000D03*
D15*
X140335000Y-139700000D03*
X137795000Y-139700000D03*
%TD*%
D10*
%TO.C,R300*%
X123825000Y-60960000D03*
X123825000Y-50800000D03*
%TD*%
D16*
%TO.C,J410*%
X116840000Y-137160000D03*
D17*
X116840000Y-134620000D03*
X116840000Y-132080000D03*
X116840000Y-129540000D03*
X116840000Y-127000000D03*
X116840000Y-124460000D03*
%TD*%
D10*
%TO.C,R130*%
X179070000Y-92710000D03*
X189230000Y-92710000D03*
%TD*%
%TO.C,C906*%
X147955000Y-58650000D03*
X147955000Y-53650000D03*
%TD*%
D18*
%TO.C,SW310*%
X102115000Y-130095000D03*
D19*
X102115000Y-125095000D03*
X102115000Y-127595000D03*
D20*
X94615000Y-133295000D03*
X94615000Y-121895000D03*
D19*
X87615000Y-125095000D03*
X87615000Y-130095000D03*
%TD*%
D21*
%TO.C,U210*%
X146050000Y-139065000D03*
D22*
X146050000Y-141605000D03*
X146050000Y-144145000D03*
X153670000Y-144145000D03*
X153670000Y-141605000D03*
X153670000Y-139065000D03*
%TD*%
D10*
%TO.C,R901*%
X191770000Y-49530000D03*
X181610000Y-49530000D03*
%TD*%
%TO.C,R902*%
X173990000Y-66675000D03*
X184150000Y-66675000D03*
%TD*%
%TO.C,R212*%
X132715000Y-147955000D03*
X142875000Y-147955000D03*
%TD*%
%TO.C,R141*%
X157480000Y-72390000D03*
X167640000Y-72390000D03*
%TD*%
%TO.C,R143*%
X167640000Y-83820000D03*
X157480000Y-83820000D03*
%TD*%
D23*
%TO.C,J1*%
X123190000Y-29210000D03*
D24*
X128270000Y-29210000D03*
%TD*%
D10*
%TO.C,R210*%
X146050000Y-134620000D03*
X135890000Y-134620000D03*
%TD*%
%TO.C,C411*%
X124460000Y-134620000D03*
X124460000Y-139620000D03*
%TD*%
D21*
%TO.C,U220*%
X146050000Y-116205000D03*
D22*
X146050000Y-118745000D03*
X146050000Y-121285000D03*
X153670000Y-121285000D03*
X153670000Y-118745000D03*
X153670000Y-116205000D03*
%TD*%
D10*
%TO.C,R311*%
X99060000Y-137160000D03*
X99060000Y-147320000D03*
%TD*%
D25*
%TO.C,L410*%
X126375000Y-155575000D03*
X126375000Y-142875000D03*
%TD*%
D26*
%TO.C,D120*%
X171450000Y-118110000D03*
D10*
X179070000Y-118110000D03*
%TD*%
D16*
%TO.C,J401*%
X74930000Y-123190000D03*
D17*
X74930000Y-125730000D03*
X74930000Y-128270000D03*
X74930000Y-130810000D03*
%TD*%
D10*
%TO.C,R122*%
X167640000Y-116840000D03*
X157480000Y-116840000D03*
%TD*%
%TO.C,R123*%
X167640000Y-120142000D03*
X157480000Y-120142000D03*
%TD*%
D27*
%TO.C,C120*%
X167005000Y-123487401D03*
D28*
X167005000Y-125487401D03*
%TD*%
D10*
%TO.C,R124*%
X151130000Y-125095000D03*
X161290000Y-125095000D03*
%TD*%
%TO.C,R315*%
X111125000Y-117475000D03*
X121285000Y-117475000D03*
%TD*%
%TO.C,R114*%
X151130000Y-147955000D03*
X161290000Y-147955000D03*
%TD*%
%TO.C,R220*%
X146050000Y-111760000D03*
X135890000Y-111760000D03*
%TD*%
%TO.C,R251*%
X142240000Y-38100000D03*
X152400000Y-38100000D03*
%TD*%
%TO.C,C401*%
X123825000Y-71755000D03*
X123825000Y-66755000D03*
%TD*%
D29*
%TO.C,R301*%
X110490000Y-42545000D03*
X107950000Y-40005000D03*
X110490000Y-37465000D03*
%TD*%
D12*
%TO.C,DS300*%
X100850000Y-40120000D03*
X69850000Y-40120000D03*
X100850000Y-115120000D03*
X69850000Y-115120000D03*
D30*
X101350000Y-45720000D03*
X101350000Y-48260000D03*
X101350000Y-50800000D03*
X101350000Y-53340000D03*
X101350000Y-55880000D03*
X101350000Y-58420000D03*
X101350000Y-60960000D03*
X101350000Y-63500000D03*
X101350000Y-66040000D03*
X101350000Y-68580000D03*
X101350000Y-71120000D03*
X101350000Y-73660000D03*
X101350000Y-76200000D03*
X101350000Y-78740000D03*
X101350000Y-81280000D03*
X101350000Y-83820000D03*
D31*
X93210000Y-39480000D03*
D32*
X90670000Y-39480000D03*
D31*
X88170000Y-39480000D03*
X82290000Y-39480000D03*
D32*
X79750000Y-39480000D03*
D31*
X77210000Y-39480000D03*
%TD*%
D10*
%TO.C,R113*%
X167640000Y-143002000D03*
X157480000Y-143002000D03*
%TD*%
%TO.C,R110*%
X179070000Y-135890000D03*
X189230000Y-135890000D03*
%TD*%
%TO.C,R401*%
X105727500Y-90170000D03*
X105727500Y-80010000D03*
%TD*%
D21*
%TO.C,U400*%
X113030000Y-74930000D03*
D22*
X113030000Y-77470000D03*
X113030000Y-80010000D03*
X113030000Y-82550000D03*
X113030000Y-85090000D03*
X113030000Y-87630000D03*
X113030000Y-90170000D03*
X113030000Y-92710000D03*
X113030000Y-95250000D03*
X113030000Y-97790000D03*
X113030000Y-100330000D03*
X113030000Y-102870000D03*
X113030000Y-105410000D03*
X113030000Y-107950000D03*
X120650000Y-107950000D03*
X120650000Y-105410000D03*
X120650000Y-102870000D03*
X120650000Y-100330000D03*
X120650000Y-97790000D03*
X120650000Y-95250000D03*
X120650000Y-92710000D03*
X120650000Y-90170000D03*
X120650000Y-87630000D03*
X120650000Y-85090000D03*
X120650000Y-82550000D03*
X120650000Y-80010000D03*
X120650000Y-77470000D03*
X120650000Y-74930000D03*
%TD*%
D10*
%TO.C,R240*%
X146050000Y-72390000D03*
X135890000Y-72390000D03*
%TD*%
%TO.C,C410*%
X109220000Y-134700000D03*
X109220000Y-139700000D03*
%TD*%
D33*
%TO.C,C900*%
X208280000Y-39650000D03*
D10*
X203280000Y-39650000D03*
%TD*%
D11*
%TO.C,Q120*%
X194310000Y-113030000D03*
D12*
X210970000Y-115570000D03*
D13*
X194310000Y-115570000D03*
X194310000Y-118110000D03*
%TD*%
D10*
%TO.C,R241*%
X132715000Y-80645000D03*
X142875000Y-80645000D03*
%TD*%
D23*
%TO.C,J5*%
X171450000Y-29150000D03*
D24*
X176530000Y-29150000D03*
%TD*%
D10*
%TO.C,R132*%
X157480000Y-95885000D03*
X167640000Y-95885000D03*
%TD*%
D33*
%TO.C,D901*%
X189230000Y-52705000D03*
D10*
X181610000Y-52705000D03*
%TD*%
%TO.C,R403*%
X110490000Y-71755000D03*
X120650000Y-71755000D03*
%TD*%
%TO.C,R133*%
X167640000Y-101600000D03*
X157480000Y-101600000D03*
%TD*%
%TO.C,R230*%
X146050000Y-90170000D03*
X135890000Y-90170000D03*
%TD*%
%TO.C,R313*%
X121285000Y-111125000D03*
X111125000Y-111125000D03*
%TD*%
D21*
%TO.C,U300*%
X113030000Y-50800000D03*
D22*
X113030000Y-53340000D03*
X113030000Y-55880000D03*
X113030000Y-58420000D03*
X113030000Y-60960000D03*
X113030000Y-63500000D03*
X113030000Y-66040000D03*
X113030000Y-68580000D03*
X120650000Y-68580000D03*
X120650000Y-66040000D03*
X120650000Y-63500000D03*
X120650000Y-60960000D03*
X120650000Y-58420000D03*
X120650000Y-55880000D03*
X120650000Y-53340000D03*
X120650000Y-50800000D03*
%TD*%
D10*
%TO.C,C400*%
X124460000Y-93980000D03*
X124460000Y-98980000D03*
%TD*%
%TO.C,C312*%
X123825000Y-117475000D03*
X128825000Y-117475000D03*
%TD*%
D33*
%TO.C,C901*%
X177800000Y-49530000D03*
D10*
X175300000Y-49530000D03*
%TD*%
D14*
%TO.C,Q220*%
X142875000Y-116840000D03*
D15*
X140335000Y-116840000D03*
X137795000Y-116840000D03*
%TD*%
D34*
%TO.C,U410*%
X120650000Y-139700000D03*
D22*
X120650000Y-137160000D03*
X120650000Y-134620000D03*
X120650000Y-132080000D03*
X120650000Y-129540000D03*
X120650000Y-127000000D03*
X120650000Y-124460000D03*
X113030000Y-124460000D03*
X113030000Y-127000000D03*
X113030000Y-129540000D03*
X113030000Y-132080000D03*
X113030000Y-134620000D03*
X113030000Y-137160000D03*
X113030000Y-139700000D03*
%TD*%
D10*
%TO.C,R121*%
X151130000Y-111760000D03*
X161290000Y-111760000D03*
%TD*%
%TO.C,C907*%
X144145000Y-58650000D03*
X144145000Y-53650000D03*
%TD*%
%TO.C,C903*%
X163830000Y-46990000D03*
X163830000Y-51990000D03*
%TD*%
%TO.C,C905*%
X163830000Y-60325000D03*
X163830000Y-55325000D03*
%TD*%
%TO.C,C311*%
X123825000Y-114300000D03*
X128825000Y-114300000D03*
%TD*%
D27*
%TO.C,C110*%
X167005000Y-146347401D03*
D28*
X167005000Y-148347401D03*
%TD*%
D35*
%TO.C,REF\u002A\u002A*%
X71740000Y-151000000D03*
D36*
X71740000Y-151000000D03*
%TD*%
D10*
%TO.C,R112*%
X167640000Y-139700000D03*
X157480000Y-139700000D03*
%TD*%
D35*
%TO.C,REF\u002A\u002A*%
X216740000Y-151000000D03*
D36*
X216740000Y-151000000D03*
%TD*%
D11*
%TO.C,Q110*%
X194310000Y-135890000D03*
D12*
X210970000Y-138430000D03*
D13*
X194310000Y-138430000D03*
X194310000Y-140970000D03*
%TD*%
D10*
%TO.C,C310*%
X123825000Y-111125000D03*
X128825000Y-111125000D03*
%TD*%
%TO.C,R232*%
X132715000Y-98425000D03*
X142875000Y-98425000D03*
%TD*%
D35*
%TO.C,REF\u002A\u002A*%
X71740000Y-31000000D03*
D36*
X71740000Y-31000000D03*
%TD*%
D23*
%TO.C,J4*%
X161290000Y-29150000D03*
D24*
X166370000Y-29150000D03*
%TD*%
D14*
%TO.C,Q142*%
X171450000Y-83185000D03*
D15*
X173990000Y-83185000D03*
X176530000Y-83185000D03*
%TD*%
D11*
%TO.C,Q140*%
X194310000Y-74930000D03*
D12*
X210970000Y-77470000D03*
D13*
X194310000Y-77470000D03*
X194310000Y-80010000D03*
%TD*%
D10*
%TO.C,R250*%
X152400000Y-43180000D03*
X142240000Y-43180000D03*
%TD*%
%TO.C,R140*%
X179070000Y-74930000D03*
X189230000Y-74930000D03*
%TD*%
D25*
%TO.C,R000*%
X173990000Y-62230000D03*
X194310000Y-62230000D03*
%TD*%
D10*
%TO.C,R142*%
X157480000Y-78105000D03*
X167640000Y-78105000D03*
%TD*%
D35*
%TO.C,REF\u002A\u002A*%
X216740000Y-31000000D03*
D36*
X216740000Y-31000000D03*
%TD*%
D10*
%TO.C,C904*%
X167640000Y-60245000D03*
X167640000Y-55245000D03*
%TD*%
D14*
%TO.C,Q131*%
X171450000Y-92710000D03*
D15*
X173990000Y-92710000D03*
X176530000Y-92710000D03*
%TD*%
D10*
%TO.C,R410*%
X111125000Y-121285000D03*
X121285000Y-121285000D03*
%TD*%
%TO.C,R903*%
X141605000Y-63500000D03*
X151765000Y-63500000D03*
%TD*%
%TO.C,R111*%
X151130000Y-134620000D03*
X161290000Y-134620000D03*
%TD*%
%TO.C,R312*%
X102870000Y-137160000D03*
X102870000Y-147320000D03*
%TD*%
%TO.C,R242*%
X132715000Y-83820000D03*
X142875000Y-83820000D03*
%TD*%
D26*
%TO.C,D110*%
X171450000Y-140970000D03*
D10*
X179070000Y-140970000D03*
%TD*%
D14*
%TO.C,Q123*%
X171450000Y-123190000D03*
D15*
X173990000Y-123190000D03*
X176530000Y-123190000D03*
%TD*%
D16*
%TO.C,J400*%
X144780000Y-34290000D03*
D17*
X142240000Y-34290000D03*
X139700000Y-34290000D03*
X137160000Y-34290000D03*
X134620000Y-34290000D03*
%TD*%
D11*
%TO.C,U900*%
X194310000Y-50800000D03*
D12*
X210970000Y-53340000D03*
D13*
X194310000Y-53340000D03*
X194310000Y-55880000D03*
%TD*%
D10*
%TO.C,R211*%
X132715000Y-144145000D03*
X142875000Y-144145000D03*
%TD*%
D14*
%TO.C,Q112*%
X171450000Y-135890000D03*
D15*
X173990000Y-135890000D03*
X176530000Y-135890000D03*
%TD*%
D14*
%TO.C,Q141*%
X171450000Y-74930000D03*
D15*
X173990000Y-74930000D03*
X176530000Y-74930000D03*
%TD*%
D10*
%TO.C,C300*%
X114380000Y-47625000D03*
X119380000Y-47625000D03*
%TD*%
%TO.C,R402*%
X127000000Y-68580000D03*
X127000000Y-58420000D03*
%TD*%
%TO.C,R231*%
X132715000Y-101600000D03*
X142875000Y-101600000D03*
%TD*%
D14*
%TO.C,Q111*%
X163830000Y-135890000D03*
D15*
X166370000Y-135890000D03*
X168910000Y-135890000D03*
%TD*%
D14*
%TO.C,Q122*%
X171450000Y-113030000D03*
D15*
X173990000Y-113030000D03*
X176530000Y-113030000D03*
%TD*%
D37*
%TO.C,J411*%
X117475000Y-148565000D03*
D38*
X114975000Y-148565000D03*
X114975000Y-151765000D03*
X117475000Y-151765000D03*
D39*
X110205000Y-151275000D03*
X122245000Y-151275000D03*
%TD*%
D10*
%TO.C,R400*%
X109220000Y-90170000D03*
X109220000Y-80010000D03*
%TD*%
D21*
%TO.C,U240*%
X146050000Y-75565000D03*
D22*
X146050000Y-78105000D03*
X146050000Y-80645000D03*
X153670000Y-80645000D03*
X153670000Y-78105000D03*
X153670000Y-75565000D03*
%TD*%
D33*
%TO.C,C902*%
X177800000Y-55880000D03*
D10*
X175300000Y-55880000D03*
%TD*%
D23*
%TO.C,J6*%
X151130000Y-29150000D03*
D24*
X156210000Y-29150000D03*
%TD*%
D14*
%TO.C,U901*%
X169545000Y-52070000D03*
D15*
X169545000Y-49530000D03*
X169545000Y-46990000D03*
%TD*%
D10*
%TO.C,R310*%
X95250000Y-137160000D03*
X95250000Y-147320000D03*
%TD*%
D14*
%TO.C,Q240*%
X142875000Y-76200000D03*
D15*
X140335000Y-76200000D03*
X137795000Y-76200000D03*
%TD*%
D10*
%TO.C,R131*%
X157480000Y-90170000D03*
X167640000Y-90170000D03*
%TD*%
%TO.C,R222*%
X132715000Y-125095000D03*
X142875000Y-125095000D03*
%TD*%
D34*
%TO.C,U902*%
X159385000Y-60325000D03*
D22*
X159385000Y-57785000D03*
X159385000Y-55245000D03*
X159385000Y-52705000D03*
X151765000Y-52705000D03*
X151765000Y-55245000D03*
X151765000Y-57785000D03*
X151765000Y-60325000D03*
%TD*%
D10*
%TO.C,C250*%
X139446000Y-43180000D03*
X139446000Y-38180000D03*
%TD*%
%TO.C,R120*%
X179070000Y-113030000D03*
X189230000Y-113030000D03*
%TD*%
D21*
%TO.C,U230*%
X146050000Y-93345000D03*
D22*
X146050000Y-95885000D03*
X146050000Y-98425000D03*
X153670000Y-98425000D03*
X153670000Y-95885000D03*
X153670000Y-93345000D03*
%TD*%
D14*
%TO.C,Q230*%
X142875000Y-93980000D03*
D15*
X140335000Y-93980000D03*
X137795000Y-93980000D03*
%TD*%
D14*
%TO.C,Q132*%
X171450000Y-100965000D03*
D15*
X173990000Y-100965000D03*
X176530000Y-100965000D03*
%TD*%
D40*
%TO.C,F1*%
X185680000Y-29150000D03*
X208280000Y-29150000D03*
%TD*%
D33*
%TO.C,D900*%
X189230000Y-56515000D03*
D10*
X181610000Y-56515000D03*
%TD*%
D14*
%TO.C,Q113*%
X171450000Y-146050000D03*
D15*
X173990000Y-146050000D03*
X176530000Y-146050000D03*
%TD*%
M02*
