M48
; DRILL file {KiCad 9.0.6} date 2025-11-24T12:30:54+0100
; FORMAT={-:-/ absolute / inch / decimal}
; #@! TF.CreationDate,2025-11-24T12:30:54+01:00
; #@! TF.GenerationSoftware,Kicad,Pcbnew,9.0.6
; #@! TF.FileFunction,Plated,1,2,PTH
FMAT,2
INCH
; #@! TA.AperFunction,Plated,PTH,ViaDrill
T1C0.0118
; #@! TA.AperFunction,Plated,PTH,ComponentDrill
T2C0.0236
; #@! TA.AperFunction,Plated,PTH,ComponentDrill
T3C0.0276
; #@! TA.AperFunction,Plated,PTH,ComponentDrill
T4C0.0315
; #@! TA.AperFunction,Plated,PTH,ComponentDrill
T5C0.0362
; #@! TA.AperFunction,Plated,PTH,ComponentDrill
T6C0.0394
; #@! TA.AperFunction,Plated,PTH,ComponentDrill
T7C0.0433
; #@! TA.AperFunction,Plated,PTH,ComponentDrill
T8C0.0472
; #@! TA.AperFunction,Plated,PTH,ComponentDrill
T9C0.0591
; #@! TA.AperFunction,Plated,PTH,ComponentDrill
T10C0.0709
; #@! TA.AperFunction,Plated,PTH,ComponentDrill
T11C0.0906
; #@! TA.AperFunction,Plated,PTH,ComponentDrill
T12C0.0945
; #@! TA.AperFunction,Plated,PTH,ComponentDrill
T13C0.1260
; #@! TA.AperFunction,Plated,PTH,ComponentDrill
T14C0.1378
%
G90
G05
T1
X2.7Y-1.7
X2.7Y-2.2
X2.7Y-2.7
X2.7Y-3.2
X2.7Y-3.7
X2.7Y-4.2
X2.7Y-4.7
X2.7Y-5.2
X2.7Y-5.7
X2.7Y-6.2
X3.0Y-4.9875
X3.0Y-5.0875
X3.0125Y-4.825
X3.2Y-1.2
X3.2Y-1.7
X3.2Y-2.2
X3.2Y-2.7
X3.2Y-3.2087
X3.2Y-3.7
X3.2Y-4.1945
X3.2Y-5.2
X3.2Y-5.7
X3.2Y-6.2
X3.3Y-4.4
X3.3625Y-4.4625
X3.4125Y-4.5125
X3.4609Y-4.5707
X3.525Y-4.6375
X3.7Y-1.2
X3.7Y-1.7
X3.7Y-2.2
X3.7Y-2.7
X3.7Y-3.2
X3.7Y-3.7
X3.7Y-6.2
X3.725Y-4.5875
X3.75Y-5.5875
X3.875Y-3.9
X3.875Y-4.0
X3.875Y-4.1
X3.875Y-4.2
X3.875Y-4.3125
X3.9125Y-1.85
X4.05Y-5.5875
X4.0625Y-2.85
X4.0625Y-2.95
X4.0625Y-3.05
X4.0625Y-3.15
X4.15Y-1.9875
X4.15Y-2.175
X4.15Y-2.3875
X4.2Y-1.2
X4.2Y-3.7
X4.2Y-6.2
X4.2625Y-5.05
X4.35Y-2.4
X4.35Y-2.5
X4.35Y-2.6
X4.35Y-2.725
X4.35Y-6.15
X4.375Y-4.4375
X4.375Y-4.5625
X4.3755Y-4.6997
X4.45Y-5.775
X4.45Y-6.05
X4.5Y-3.9
X4.5Y-4.1
X4.5Y-4.3125
X4.525Y-5.05
X4.525Y-5.275
X4.5375Y-3.825
X4.5625Y-3.675
X4.575Y-5.9
X4.575Y-6.15
X4.5875Y-2.1
X4.5875Y-2.4
X4.6Y-4.625
X4.6Y-4.775
X4.625Y-3.5375
X4.65Y-4.425
X4.675Y-5.05
X4.675Y-5.15
X4.675Y-5.275
X4.7Y-1.2
X4.7Y-1.7
X4.7Y-5.775
X4.7Y-6.05
X4.8Y-6.15
X4.825Y-4.425
X4.825Y-4.575
X4.825Y-4.7
X4.875Y-0.9625
X4.9375Y-2.8625
X4.95Y-3.2
X4.975Y-5.775
X5.0Y-2.5
X5.075Y-3.825
X5.075Y-4.725
X5.075Y-4.95
X5.075Y-5.2
X5.075Y-5.45
X5.2Y-1.15
X5.2Y-2.95
X5.2Y-4.45
X5.2Y-5.2
X5.2Y-5.45
X5.2021Y-6.2
X5.225Y-4.2
X5.45Y-1.95
X5.45Y-2.45
X5.45Y-2.7
X5.45Y-4.2
X5.45Y-5.7
X5.45Y-5.95
X5.4625Y-0.9625
X5.4625Y-1.15
X5.676Y-6.2
X5.7Y-1.45
X5.7Y-1.7
X5.7Y-1.95
X5.7Y-2.45
X5.7Y-2.7
X5.7Y-4.2
X5.7Y-4.95
X5.7Y-5.2
X5.8875Y-2.2625
X5.925Y-4.675
X5.925Y-5.575
X5.95Y-1.95
X5.95Y-3.075
X5.95Y-3.775
X5.95Y-4.175
X6.05Y-1.1375
X6.125Y-1.4625
X6.125Y-2.75
X6.125Y-2.925
X6.125Y-3.125
X6.125Y-3.4
X6.125Y-3.625
X6.125Y-3.825
X6.125Y-4.25
X6.15Y-4.9
X6.15Y-5.3
X6.25Y-6.0
X6.3Y-1.6375
X6.3Y-5.125
X6.35Y-4.6
X6.35Y-4.825
X6.35Y-5.475
X6.35Y-5.725
X6.45Y-1.1375
X6.5125Y-1.5125
X6.5375Y-2.0
X6.675Y-4.55
X6.675Y-5.475
X6.725Y-4.75
X6.725Y-5.65
X6.75Y-6.0
X6.8Y-4.525
X6.8Y-5.425
X6.8375Y-2.075
X6.85Y-1.1375
X6.85Y-1.4
X6.85Y-5.125
X6.875Y-1.75
X6.9Y-4.525
X6.9Y-4.9
X6.9Y-5.425
X6.9Y-5.8
X7.075Y-2.1375
X7.15Y-2.3
X7.25Y-5.125
X7.25Y-5.5
X7.25Y-6.0
X7.3Y-2.225
X7.3Y-2.375
X7.4375Y-1.1375
X7.4375Y-1.4
X7.45Y-1.875
X7.525Y-2.15
X7.525Y-3.35
X7.525Y-3.75
X7.525Y-4.25
X7.525Y-4.525
X7.5375Y-2.025
X7.7Y-1.65
X7.75Y-5.125
X7.75Y-6.0
X7.7625Y-2.25
X7.7625Y-2.375
X7.8Y-1.125
X7.8Y-1.4
X7.85Y-2.85
X7.85Y-3.4
X7.925Y-2.575
X8.15Y-1.9
X8.15Y-2.1
X8.15Y-2.3
X8.15Y-2.85
X8.15Y-3.05
X8.15Y-3.25
X8.15Y-3.55
X8.15Y-3.75
X8.15Y-3.95
X8.15Y-4.35
X8.15Y-4.55
X8.15Y-4.75
X8.15Y-5.25
X8.15Y-5.45
X8.15Y-5.65
X8.25Y-1.7
X8.25Y-2.0
X8.25Y-2.2
X8.25Y-2.95
X8.25Y-3.15
X8.25Y-3.65
X8.25Y-3.85
X8.25Y-4.45
X8.25Y-4.65
X8.25Y-5.35
X8.25Y-5.55
X8.25Y-6.0
X8.3Y-5.0
X8.325Y-2.575
X8.35Y-1.9
X8.35Y-2.3
X8.35Y-2.85
X8.35Y-3.25
X8.35Y-3.55
X8.35Y-3.95
X8.35Y-4.35
X8.35Y-4.75
X8.35Y-5.25
X8.35Y-5.65
X8.375Y-1.125
X8.375Y-1.4
X8.447Y-2.2
X8.45Y-2.0
X8.45Y-2.95
X8.45Y-3.15
X8.45Y-3.65
X8.45Y-3.85
X8.45Y-4.45
X8.45Y-4.65
X8.45Y-5.35
X8.45Y-5.55
X8.475Y-1.7
X8.475Y-4.15
X8.525Y-3.4
X8.55Y-1.9
X8.55Y-2.1
X8.55Y-2.3
X8.55Y-2.85
X8.55Y-3.05
X8.55Y-3.25
X8.55Y-3.55
X8.55Y-3.75
X8.55Y-3.95
X8.55Y-4.35
X8.55Y-4.55
X8.55Y-4.75
X8.55Y-5.25
X8.55Y-5.45
X8.55Y-5.65
X8.75Y-1.5
X8.75Y-2.0
X8.75Y-2.575
X8.75Y-3.0
X8.75Y-3.5
X8.75Y-4.0
X8.75Y-4.5
X8.75Y-5.0
X8.75Y-5.5
X8.75Y-6.0
T2
X6.575Y-4.8617
X6.575Y-4.9404
X6.575Y-5.7617
X6.575Y-5.8404
T3
X4.25Y-1.575
X4.35Y-1.475
X4.35Y-1.675
T4
X3.75Y-5.4
X3.75Y-5.8
X3.9Y-5.4
X3.9Y-5.8
X4.05Y-5.4
X4.05Y-5.8
X4.1625Y-3.15
X4.1625Y-3.55
X4.3Y-3.15
X4.3Y-3.55
X4.3Y-5.3031
X4.3Y-5.5
X4.35Y-2.825
X4.375Y-4.375
X4.375Y-4.5
X4.375Y-4.625
X4.375Y-4.775
X4.45Y-2.0
X4.45Y-2.1
X4.45Y-2.2
X4.45Y-2.3
X4.45Y-2.4
X4.45Y-2.5
X4.45Y-2.6
X4.45Y-2.7
X4.45Y-2.95
X4.45Y-3.05
X4.45Y-3.15
X4.45Y-3.25
X4.45Y-3.35
X4.45Y-3.45
X4.45Y-3.55
X4.45Y-3.65
X4.45Y-3.75
X4.45Y-3.85
X4.45Y-3.95
X4.45Y-4.05
X4.45Y-4.15
X4.45Y-4.25
X4.45Y-4.9
X4.45Y-5.0
X4.45Y-5.1
X4.45Y-5.2
X4.45Y-5.3
X4.45Y-5.4
X4.45Y-5.5
X4.5031Y-1.875
X4.7Y-1.875
X4.75Y-2.0
X4.75Y-2.1
X4.75Y-2.2
X4.75Y-2.3
X4.75Y-2.4
X4.75Y-2.5
X4.75Y-2.6
X4.75Y-2.7
X4.75Y-2.825
X4.75Y-2.95
X4.75Y-3.05
X4.75Y-3.15
X4.75Y-3.25
X4.75Y-3.35
X4.75Y-3.45
X4.75Y-3.55
X4.75Y-3.65
X4.75Y-3.75
X4.75Y-3.85
X4.75Y-3.95
X4.75Y-4.05
X4.75Y-4.15
X4.75Y-4.25
X4.75Y-4.9
X4.75Y-5.0
X4.75Y-5.1
X4.75Y-5.2
X4.75Y-5.3
X4.75Y-5.4
X4.75Y-5.5
X4.775Y-4.375
X4.775Y-4.5
X4.775Y-4.625
X4.775Y-4.775
X4.875Y-2.0
X4.875Y-2.4
X4.875Y-2.6281
X4.875Y-2.825
X4.875Y-4.375
X4.875Y-4.5
X4.875Y-4.625
X4.9Y-3.7
X4.9Y-3.8969
X4.9Y-5.3
X4.9Y-5.4969
X5.0Y-2.3
X5.0Y-2.7
X5.0719Y-4.375
X5.0719Y-4.5
X5.0719Y-4.625
X5.225Y-3.175
X5.225Y-3.3
X5.225Y-3.875
X5.225Y-4.0
X5.225Y-4.775
X5.225Y-4.925
X5.225Y-5.675
X5.225Y-5.825
X5.35Y-2.85
X5.35Y-3.55
X5.35Y-4.4
X5.35Y-5.3
X5.425Y-3.0
X5.425Y-3.7
X5.425Y-4.6
X5.425Y-5.5
X5.49Y-1.5031
X5.49Y-1.7
X5.525Y-3.0
X5.525Y-3.7
X5.525Y-4.6
X5.525Y-5.5
X5.575Y-2.5
X5.6Y-1.5
X5.6Y-1.7
X5.625Y-3.0
X5.625Y-3.175
X5.625Y-3.3
X5.625Y-3.7
X5.625Y-3.875
X5.625Y-4.0
X5.625Y-4.6
X5.625Y-4.775
X5.625Y-4.925
X5.625Y-5.5
X5.625Y-5.675
X5.625Y-5.825
X5.675Y-2.1122
X5.675Y-2.3091
X5.75Y-2.85
X5.75Y-2.975
X5.75Y-3.075
X5.75Y-3.175
X5.75Y-3.55
X5.75Y-3.675
X5.75Y-3.775
X5.75Y-3.875
X5.75Y-4.4
X5.75Y-4.575
X5.75Y-4.675
X5.75Y-4.775
X5.75Y-5.3
X5.75Y-5.475
X5.75Y-5.575
X5.75Y-5.675
X5.825Y-2.1122
X5.825Y-2.3091
X5.95Y-4.4
X5.95Y-4.925
X5.95Y-5.3
X5.95Y-5.825
X5.975Y-2.075
X5.975Y-2.175
X5.975Y-2.275
X5.975Y-2.375
X5.975Y-2.5
X6.0Y-1.5
X6.0Y-1.7
X6.05Y-2.975
X6.05Y-3.075
X6.05Y-3.175
X6.05Y-3.675
X6.05Y-3.775
X6.05Y-3.875
X6.05Y-4.575
X6.05Y-4.675
X6.05Y-4.775
X6.05Y-5.475
X6.05Y-5.575
X6.05Y-5.675
X6.2Y-2.85
X6.2Y-3.075
X6.2Y-3.3
X6.2Y-3.55
X6.2Y-3.775
X6.2Y-4.0
X6.2Y-4.6
X6.2Y-4.73
X6.2Y-5.5
X6.2Y-5.63
X6.275Y-2.075
X6.275Y-2.175
X6.275Y-2.275
X6.275Y-2.375
X6.35Y-4.4
X6.35Y-4.925
X6.35Y-5.3
X6.35Y-5.825
X6.45Y-1.85
X6.45Y-2.0469
X6.45Y-2.1781
X6.45Y-2.375
X6.45Y-4.45
X6.45Y-5.35
X6.55Y-4.45
X6.55Y-5.35
X6.6Y-2.175
X6.6Y-2.3719
X6.6Y-2.85
X6.6Y-3.075
X6.6Y-3.3
X6.6Y-3.55
X6.6Y-3.775
X6.6Y-4.0
X6.6Y-4.6
X6.6Y-4.73
X6.6Y-5.5
X6.6Y-5.63
X6.65Y-4.45
X6.65Y-5.35
X6.675Y-1.85
X6.675Y-1.95
X6.675Y-2.05
X6.75Y-2.95
X6.75Y-3.275
X6.75Y-3.65
X6.75Y-3.975
X6.75Y-4.45
X6.75Y-4.65
X6.75Y-4.85
X6.75Y-5.35
X6.75Y-5.55
X6.75Y-5.75
X6.85Y-2.625
X6.85Y-2.95
X6.85Y-3.275
X6.85Y-3.65
X6.85Y-3.975
X6.85Y-4.45
X6.85Y-4.85
X6.85Y-5.35
X6.85Y-5.75
X6.9016Y-1.95
X6.9016Y-2.2
X6.95Y-2.95
X6.95Y-3.275
X6.95Y-3.65
X6.95Y-3.975
X6.95Y-4.45
X6.95Y-4.85
X6.95Y-5.35
X6.95Y-5.75
X7.0Y-1.95
X7.0Y-2.2
X7.05Y-2.95
X7.05Y-3.65
X7.05Y-4.45
X7.05Y-4.65
X7.05Y-5.35
X7.05Y-5.55
X7.15Y-1.8
X7.15Y-1.95
X7.15Y-2.075
X7.15Y-2.225
X7.25Y-2.625
X7.45Y-2.075
X7.45Y-2.225
X7.45Y-2.95
X7.45Y-3.65
X7.45Y-4.45
X7.45Y-5.35
X7.55Y-1.8
X7.55Y-1.95
X8.0031Y-1.561
X8.2Y-1.561
T5
X4.5266Y-5.849
X4.5266Y-5.975
X4.625Y-5.849
X4.625Y-5.975
T6
X2.95Y-4.85
X2.95Y-4.95
X2.95Y-5.05
X2.95Y-5.15
X3.4494Y-4.925
X3.4494Y-5.1219
X4.0203Y-4.925
X4.0203Y-5.0234
X4.0203Y-5.1219
X4.6Y-4.9
X4.6Y-5.0
X4.6Y-5.1
X4.6Y-5.2
X4.6Y-5.3
X4.6Y-5.4
X5.3Y-1.35
X5.4Y-1.35
X5.5Y-1.35
X5.6Y-1.35
X5.7Y-1.35
T7
X7.65Y-2.0
X7.65Y-2.1
X7.65Y-2.2
X7.65Y-2.95
X7.65Y-3.05
X7.65Y-3.15
X7.65Y-3.65
X7.65Y-3.75
X7.65Y-3.85
X7.65Y-4.45
X7.65Y-4.55
X7.65Y-4.65
X7.65Y-5.35
X7.65Y-5.45
X7.65Y-5.55
T8
X3.0398Y-1.5543
X3.2398Y-1.5543
X3.4713Y-1.5543
X3.6697Y-1.5543
X3.9902Y-1.8
X3.9902Y-1.9
X3.9902Y-2.0
X3.9902Y-2.1
X3.9902Y-2.2
X3.9902Y-2.3
X3.9902Y-2.4
X3.9902Y-2.5
X3.9902Y-2.6
X3.9902Y-2.7
X3.9902Y-2.8
X3.9902Y-2.9
X3.9902Y-3.0
X3.9902Y-3.1
X3.9902Y-3.2
X3.9902Y-3.3
X4.85Y-1.15
X4.9754Y-5.625
X4.9754Y-6.125
X5.05Y-1.15
X5.95Y-1.1476
X6.15Y-1.1476
X6.35Y-1.1476
X6.55Y-1.1476
X6.75Y-1.1476
X6.85Y-2.45
X6.95Y-1.1476
X7.65Y-2.45
T9
X7.3102Y-1.1476
X8.2Y-1.1476
T11
X4.3388Y-5.9557
X4.8128Y-5.9557
T12
X2.75Y-1.5795
X2.75Y-4.5323
X3.9705Y-1.5795
X3.9705Y-4.5323
T13
X2.8244Y-1.2205
X2.8244Y-5.9449
X8.5331Y-1.2205
X8.5331Y-5.9449
T14
X8.3059Y-2.1
X8.3059Y-3.05
X8.3059Y-3.75
X8.3059Y-4.55
X8.3059Y-5.45
T10
G00X3.7407Y-4.799
M15
G01X3.7093Y-4.799
M16
G05
G00X3.7407Y-5.2478
M15
G01X3.7093Y-5.2478
M16
G05
M30
