M48
; DRILL file {KiCad 9.0.2} date 2025-07-13T15:59:40+0200
; FORMAT={-:-/ absolute / inch / decimal}
; #@! TF.CreationDate,2025-07-13T15:59:40+02:00
; #@! TF.GenerationSoftware,Kicad,Pcbnew,9.0.2
; #@! TF.FileFunction,Plated,1,2,PTH
FMAT,2
INCH
; #@! TA.AperFunction,Plated,PTH,ViaDrill
T1C0.0059
; #@! TA.AperFunction,Plated,PTH,ViaDrill
T2C0.0118
; #@! TA.AperFunction,Plated,PTH,ComponentDrill
T3C0.0236
; #@! TA.AperFunction,Plated,PTH,ComponentDrill
T4C0.0276
; #@! TA.AperFunction,Plated,PTH,ComponentDrill
T5C0.0315
; #@! TA.AperFunction,Plated,PTH,ComponentDrill
T6C0.0362
; #@! TA.AperFunction,Plated,PTH,ComponentDrill
T7C0.0394
; #@! TA.AperFunction,Plated,PTH,ComponentDrill
T8C0.0433
; #@! TA.AperFunction,Plated,PTH,ComponentDrill
T9C0.0472
; #@! TA.AperFunction,Plated,PTH,ComponentDrill
T10C0.0591
; #@! TA.AperFunction,Plated,PTH,ComponentDrill
T11C0.0709
; #@! TA.AperFunction,Plated,PTH,ComponentDrill
T12C0.0906
; #@! TA.AperFunction,Plated,PTH,ComponentDrill
T13C0.0945
; #@! TA.AperFunction,Plated,PTH,ComponentDrill
T14C0.1260
; #@! TA.AperFunction,Plated,PTH,ComponentDrill
T15C0.1378
%
G90
G05
T1
X8.2Y-1.7
X8.2Y-1.9
X8.2Y-2.1
X8.2Y-2.65
X8.2Y-2.85
X8.2Y-3.05
X8.2Y-3.35
X8.2Y-3.55
X8.2Y-3.75
X8.2Y-4.15
X8.2Y-4.35
X8.2Y-4.55
X8.2Y-5.05
X8.2Y-5.25
X8.2Y-5.45
X8.3Y-1.8
X8.3Y-2.0
X8.3Y-2.75
X8.3Y-2.95
X8.3Y-3.45
X8.3Y-3.65
X8.3Y-4.25
X8.3Y-4.45
X8.3Y-5.15
X8.3Y-5.35
X8.4Y-1.7
X8.4Y-2.1
X8.4Y-2.65
X8.4Y-3.05
X8.4Y-3.35
X8.4Y-3.75
X8.4Y-4.15
X8.4Y-4.55
X8.4Y-5.05
X8.4Y-5.45
X8.497Y-2.0
X8.5Y-1.8
X8.5Y-2.75
X8.5Y-2.95
X8.5Y-3.45
X8.5Y-3.65
X8.5Y-4.25
X8.5Y-4.45
X8.5Y-5.15
X8.5Y-5.35
X8.6Y-1.7
X8.6Y-1.9
X8.6Y-2.1
X8.6Y-2.65
X8.6Y-2.85
X8.6Y-3.05
X8.6Y-3.35
X8.6Y-3.55
X8.6Y-3.75
X8.6Y-4.15
X8.6Y-4.35
X8.6Y-4.55
X8.6Y-5.05
X8.6Y-5.25
X8.6Y-5.45
T2
X4.6117Y-3.35
X5.025Y-2.0
T3
X6.625Y-4.6617
X6.625Y-4.7404
X6.625Y-5.5617
X6.625Y-5.6404
T4
X4.3Y-1.375
X4.4Y-1.275
X4.4Y-1.475
T5
X3.875Y-4.9
X3.875Y-5.3
X4.025Y-4.9
X4.025Y-5.3
X4.175Y-4.9
X4.175Y-5.3
X4.275Y-2.95
X4.275Y-3.35
X4.275Y-3.45
X4.275Y-3.85
X4.375Y-5.1031
X4.375Y-5.3
X4.425Y-4.225
X4.425Y-4.35
X4.425Y-4.475
X4.5Y-1.825
X4.5Y-1.925
X4.5Y-2.025
X4.5Y-2.125
X4.5Y-2.225
X4.5Y-2.325
X4.5Y-2.425
X4.5Y-2.525
X4.5Y-2.75
X4.5Y-2.85
X4.5Y-2.95
X4.5Y-3.05
X4.5Y-3.15
X4.5Y-3.25
X4.5Y-3.35
X4.5Y-3.45
X4.5Y-3.55
X4.5Y-3.65
X4.5Y-3.75
X4.5Y-3.85
X4.5Y-3.95
X4.5Y-4.05
X4.5Y-4.7
X4.5Y-4.8
X4.5Y-4.9
X4.5Y-5.0
X4.5Y-5.1
X4.5Y-5.2
X4.5Y-5.3
X4.5531Y-1.7
X4.75Y-1.7
X4.8Y-1.825
X4.8Y-1.925
X4.8Y-2.025
X4.8Y-2.125
X4.8Y-2.225
X4.8Y-2.325
X4.8Y-2.425
X4.8Y-2.525
X4.8Y-2.75
X4.8Y-2.85
X4.8Y-2.95
X4.8Y-3.05
X4.8Y-3.15
X4.8Y-3.25
X4.8Y-3.35
X4.8Y-3.45
X4.8Y-3.55
X4.8Y-3.65
X4.8Y-3.75
X4.8Y-3.85
X4.8Y-3.95
X4.8Y-4.05
X4.8Y-4.7
X4.8Y-4.8
X4.8Y-4.9
X4.8Y-5.0
X4.8Y-5.1
X4.8Y-5.2
X4.8Y-5.3
X4.825Y-4.225
X4.825Y-4.35
X4.825Y-4.475
X4.925Y-4.225
X4.925Y-4.35
X4.925Y-4.475
X4.95Y-4.6
X4.95Y-5.0
X4.95Y-5.1
X4.95Y-5.2969
X5.0Y-3.55
X5.0Y-3.7469
X5.1219Y-4.225
X5.1219Y-4.35
X5.1219Y-4.475
X5.275Y-2.975
X5.275Y-3.1
X5.275Y-3.675
X5.275Y-3.8
X5.275Y-4.575
X5.275Y-4.725
X5.275Y-5.475
X5.275Y-5.625
X5.4Y-2.65
X5.4Y-3.35
X5.4Y-4.2
X5.4Y-5.1
X5.475Y-2.8
X5.475Y-3.5
X5.475Y-4.4
X5.475Y-5.3
X5.525Y-1.3031
X5.525Y-1.5
X5.575Y-2.8
X5.575Y-3.5
X5.575Y-4.4
X5.575Y-5.3
X5.625Y-2.3
X5.65Y-1.3
X5.65Y-1.5
X5.675Y-2.8
X5.675Y-2.975
X5.675Y-3.1
X5.675Y-3.5
X5.675Y-3.675
X5.675Y-3.8
X5.675Y-4.4
X5.675Y-4.575
X5.675Y-4.725
X5.675Y-5.3
X5.675Y-5.475
X5.675Y-5.625
X5.725Y-1.9122
X5.725Y-2.1091
X5.8Y-2.65
X5.8Y-2.775
X5.8Y-2.875
X5.8Y-2.975
X5.8Y-3.35
X5.8Y-3.475
X5.8Y-3.575
X5.8Y-3.675
X5.8Y-4.2
X5.8Y-4.375
X5.8Y-4.475
X5.8Y-4.575
X5.8Y-5.1
X5.8Y-5.275
X5.8Y-5.375
X5.8Y-5.475
X5.875Y-1.9122
X5.875Y-2.1091
X6.0Y-4.2
X6.0Y-4.725
X6.0Y-5.1
X6.0Y-5.625
X6.025Y-1.875
X6.025Y-1.975
X6.025Y-2.075
X6.025Y-2.175
X6.025Y-2.3
X6.05Y-1.3
X6.05Y-1.5
X6.1Y-2.775
X6.1Y-2.875
X6.1Y-2.975
X6.1Y-3.475
X6.1Y-3.575
X6.1Y-3.675
X6.1Y-4.375
X6.1Y-4.475
X6.1Y-4.575
X6.1Y-5.275
X6.1Y-5.375
X6.1Y-5.475
X6.25Y-2.65
X6.25Y-2.875
X6.25Y-3.1
X6.25Y-3.35
X6.25Y-3.575
X6.25Y-3.8
X6.25Y-4.4
X6.25Y-4.53
X6.25Y-5.3
X6.25Y-5.43
X6.325Y-1.875
X6.325Y-1.975
X6.325Y-2.075
X6.325Y-2.175
X6.4Y-4.2
X6.4Y-4.725
X6.4Y-5.1
X6.4Y-5.625
X6.5Y-1.65
X6.5Y-1.8469
X6.5Y-1.9781
X6.5Y-2.175
X6.5Y-4.25
X6.5Y-5.15
X6.6Y-4.25
X6.6Y-5.15
X6.65Y-1.975
X6.65Y-2.1719
X6.65Y-2.65
X6.65Y-2.875
X6.65Y-3.1
X6.65Y-3.35
X6.65Y-3.575
X6.65Y-3.8
X6.65Y-4.4
X6.65Y-4.53
X6.65Y-5.3
X6.65Y-5.43
X6.7Y-4.25
X6.7Y-5.15
X6.725Y-1.65
X6.725Y-1.75
X6.725Y-1.85
X6.8Y-2.75
X6.8Y-3.075
X6.8Y-3.45
X6.8Y-3.775
X6.8Y-4.25
X6.8Y-4.45
X6.8Y-4.65
X6.8Y-5.15
X6.8Y-5.35
X6.8Y-5.55
X6.9Y-2.425
X6.9Y-2.75
X6.9Y-3.075
X6.9Y-3.45
X6.9Y-3.775
X6.9Y-4.25
X6.9Y-4.65
X6.9Y-5.15
X6.9Y-5.55
X6.9516Y-1.75
X6.9516Y-2.0
X7.0Y-2.75
X7.0Y-3.075
X7.0Y-3.45
X7.0Y-3.775
X7.0Y-4.25
X7.0Y-4.65
X7.0Y-5.15
X7.0Y-5.55
X7.05Y-1.75
X7.05Y-2.0
X7.1Y-2.75
X7.1Y-3.45
X7.1Y-4.25
X7.1Y-4.45
X7.1Y-5.15
X7.1Y-5.35
X7.2Y-1.6
X7.2Y-1.75
X7.2Y-1.875
X7.2Y-2.025
X7.3Y-2.425
X7.5Y-1.875
X7.5Y-2.025
X7.5Y-2.75
X7.5Y-3.45
X7.5Y-4.25
X7.5Y-5.15
X7.6Y-1.6
X7.6Y-1.75
X8.0531Y-1.361
X8.25Y-1.361
T6
X4.5766Y-5.649
X4.5766Y-5.775
X4.675Y-5.649
X4.675Y-5.775
T7
X3.125Y-4.9531
X3.125Y-5.0516
X3.125Y-5.15
X3.6959Y-4.9531
X3.6959Y-5.15
X4.65Y-4.7
X4.65Y-4.8
X4.65Y-4.9
X4.65Y-5.0
X4.65Y-5.1
X4.65Y-5.2
X5.35Y-1.15
X5.45Y-1.15
X5.55Y-1.15
X5.65Y-1.15
X5.75Y-1.15
T8
X7.7Y-1.8
X7.7Y-1.9
X7.7Y-2.0
X7.7Y-2.75
X7.7Y-2.85
X7.7Y-2.95
X7.7Y-3.45
X7.7Y-3.55
X7.7Y-3.65
X7.7Y-4.25
X7.7Y-4.35
X7.7Y-4.45
X7.7Y-5.15
X7.7Y-5.25
X7.7Y-5.35
T9
X3.0898Y-1.3543
X3.2898Y-1.3543
X3.5213Y-1.3543
X3.7197Y-1.3543
X4.0402Y-1.6
X4.0402Y-1.7
X4.0402Y-1.8
X4.0402Y-1.9
X4.0402Y-2.0
X4.0402Y-2.1
X4.0402Y-2.2
X4.0402Y-2.3
X4.0402Y-2.4
X4.0402Y-2.5
X4.0402Y-2.6
X4.0402Y-2.7
X4.0402Y-2.8
X4.0402Y-2.9
X4.0402Y-3.0
X4.0402Y-3.1
X4.9Y-0.95
X5.0254Y-5.425
X5.0254Y-5.925
X5.1Y-0.95
X6.0Y-0.9476
X6.2Y-0.9476
X6.4Y-0.9476
X6.6Y-0.9476
X6.8Y-0.9476
X6.9Y-2.25
X7.0Y-0.9476
X7.7Y-2.25
T10
X7.3602Y-0.9476
X8.25Y-0.9476
T12
X4.3888Y-5.7557
X4.8628Y-5.7557
T13
X2.8Y-1.3795
X2.8Y-4.3323
X4.0205Y-1.3795
X4.0205Y-4.3323
T14
X2.8744Y-1.0205
X2.8744Y-5.7449
X8.5831Y-1.0205
X8.5831Y-5.7449
T15
X8.3559Y-1.9
X8.3559Y-2.85
X8.3559Y-3.55
X8.3559Y-4.35
X8.3559Y-5.25
T11
G00X3.4045Y-4.8272
M15
G01X3.436Y-4.8272
M16
G05
G00X3.4045Y-5.276
M15
G01X3.436Y-5.276
M16
G05
M30
