%TF.GenerationSoftware,KiCad,Pcbnew,9.0.2*%
%TF.CreationDate,2025-07-13T15:59:37+02:00*%
%TF.ProjectId,Motor Control,4d6f746f-7220-4436-9f6e-74726f6c2e6b,1.0*%
%TF.SameCoordinates,Original*%
%TF.FileFunction,Copper,L2,Bot*%
%TF.FilePolarity,Positive*%
%FSLAX46Y46*%
G04 Gerber Fmt 4.6, Leading zero omitted, Abs format (unit mm)*
G04 Created by KiCad (PCBNEW 9.0.2) date 2025-07-13 15:59:37*
%MOMM*%
%LPD*%
G01*
G04 APERTURE LIST*
G04 Aperture macros list*
%AMRoundRect*
0 Rectangle with rounded corners*
0 $1 Rounding radius*
0 $2 $3 $4 $5 $6 $7 $8 $9 X,Y pos of 4 corners*
0 Add a 4 corners polygon primitive as box body*
4,1,4,$2,$3,$4,$5,$6,$7,$8,$9,$2,$3,0*
0 Add four circle primitives for the rounded corners*
1,1,$1+$1,$2,$3*
1,1,$1+$1,$4,$5*
1,1,$1+$1,$6,$7*
1,1,$1+$1,$8,$9*
0 Add four rect primitives between the rounded corners*
20,1,$1+$1,$2,$3,$4,$5,0*
20,1,$1+$1,$4,$5,$6,$7,0*
20,1,$1+$1,$6,$7,$8,$9,0*
20,1,$1+$1,$8,$9,$2,$3,0*%
G04 Aperture macros list end*
%TA.AperFunction,ComponentPad*%
%ADD10C,1.600000*%
%TD*%
%TA.AperFunction,ComponentPad*%
%ADD11R,2.000000X1.905000*%
%TD*%
%TA.AperFunction,ComponentPad*%
%ADD12C,4.500000*%
%TD*%
%TA.AperFunction,ComponentPad*%
%ADD13O,2.000000X1.905000*%
%TD*%
%TA.AperFunction,ComponentPad*%
%ADD14R,1.500000X1.500000*%
%TD*%
%TA.AperFunction,ComponentPad*%
%ADD15C,1.500000*%
%TD*%
%TA.AperFunction,ComponentPad*%
%ADD16R,1.700000X1.700000*%
%TD*%
%TA.AperFunction,ComponentPad*%
%ADD17C,1.700000*%
%TD*%
%TA.AperFunction,ComponentPad*%
%ADD18R,2.000000X2.000000*%
%TD*%
%TA.AperFunction,ComponentPad*%
%ADD19C,2.000000*%
%TD*%
%TA.AperFunction,ComponentPad*%
%ADD20R,3.200000X2.400000*%
%TD*%
%TA.AperFunction,ComponentPad*%
%ADD21RoundRect,0.250000X-0.950000X-0.550000X0.950000X-0.550000X0.950000X0.550000X-0.950000X0.550000X0*%
%TD*%
%TA.AperFunction,ComponentPad*%
%ADD22O,2.400000X1.600000*%
%TD*%
%TA.AperFunction,ComponentPad*%
%ADD23RoundRect,0.250000X-0.650000X-1.550000X0.650000X-1.550000X0.650000X1.550000X-0.650000X1.550000X0*%
%TD*%
%TA.AperFunction,ComponentPad*%
%ADD24O,1.800000X3.600000*%
%TD*%
%TA.AperFunction,ComponentPad*%
%ADD25C,2.400000*%
%TD*%
%TA.AperFunction,ComponentPad*%
%ADD26RoundRect,0.250000X-0.550000X-0.550000X0.550000X-0.550000X0.550000X0.550000X-0.550000X0.550000X0*%
%TD*%
%TA.AperFunction,ComponentPad*%
%ADD27RoundRect,0.250000X-0.350000X0.350000X-0.350000X-0.350000X0.350000X-0.350000X0.350000X0.350000X0*%
%TD*%
%TA.AperFunction,ComponentPad*%
%ADD28C,1.200000*%
%TD*%
%TA.AperFunction,ComponentPad*%
%ADD29C,1.750000*%
%TD*%
%TA.AperFunction,ComponentPad*%
%ADD30O,2.600000X1.800000*%
%TD*%
%TA.AperFunction,ComponentPad*%
%ADD31R,3.000000X1.800000*%
%TD*%
%TA.AperFunction,SMDPad,CuDef*%
%ADD32R,3.000000X1.000000*%
%TD*%
%TA.AperFunction,ComponentPad*%
%ADD33RoundRect,0.250000X0.550000X0.550000X-0.550000X0.550000X-0.550000X-0.550000X0.550000X-0.550000X0*%
%TD*%
%TA.AperFunction,ComponentPad*%
%ADD34RoundRect,0.250000X0.950000X0.550000X-0.950000X0.550000X-0.950000X-0.550000X0.950000X-0.550000X0*%
%TD*%
%TA.AperFunction,ComponentPad*%
%ADD35C,3.600000*%
%TD*%
%TA.AperFunction,ComponentPad*%
%ADD36R,1.400000X1.400000*%
%TD*%
%TA.AperFunction,ComponentPad*%
%ADD37C,1.400000*%
%TD*%
%TA.AperFunction,ComponentPad*%
%ADD38C,3.000000*%
%TD*%
%TA.AperFunction,ComponentPad*%
%ADD39RoundRect,0.625000X-0.625000X-0.875000X0.625000X-0.875000X0.625000X0.875000X-0.625000X0.875000X0*%
%TD*%
%TA.AperFunction,ViaPad*%
%ADD40C,0.600000*%
%TD*%
%TA.AperFunction,Conductor*%
%ADD41C,1.000000*%
%TD*%
%TA.AperFunction,Conductor*%
%ADD42C,0.350000*%
%TD*%
%TA.AperFunction,Conductor*%
%ADD43C,2.000000*%
%TD*%
G04 APERTURE END LIST*
D10*
%TO.P,R314,1*%
%TO.N,Net-(R311-Pad1)*%
X112395000Y-110490000D03*
%TO.P,R314,2*%
%TO.N,/Disp & encoder/SWA*%
X122555000Y-110490000D03*
%TD*%
D11*
%TO.P,Q130,1,G*%
%TO.N,Net-(Q130-G)*%
X195580000Y-87630000D03*
D12*
%TO.P,Q130,2,D*%
%TO.N,/H Bridge/Out_{1}*%
X212240000Y-90170000D03*
D13*
X195580000Y-90170000D03*
%TO.P,Q130,3,S*%
%TO.N,/H Bridge/GNDPWR_{out}*%
X195580000Y-92710000D03*
%TD*%
D10*
%TO.P,R900,1*%
%TO.N,Net-(D901-A)*%
X193040000Y-40640000D03*
%TO.P,R900,2*%
%TO.N,GNDPWR*%
X182880000Y-40640000D03*
%TD*%
D14*
%TO.P,Q121,1,C*%
%TO.N,Net-(Q121-C)*%
X165100000Y-107950000D03*
D15*
%TO.P,Q121,2,B*%
%TO.N,Net-(Q121-B)*%
X167640000Y-107950000D03*
%TO.P,Q121,3,E*%
%TO.N,Net-(D120-K)*%
X170180000Y-107950000D03*
%TD*%
D10*
%TO.P,R221,1*%
%TO.N,GNDD*%
X133985000Y-116205000D03*
%TO.P,R221,2*%
%TO.N,Net-(Q220-B)*%
X144145000Y-116205000D03*
%TD*%
D14*
%TO.P,Q210,1,C*%
%TO.N,Net-(Q210-C)*%
X144145000Y-134620000D03*
D15*
%TO.P,Q210,2,B*%
%TO.N,Net-(Q210-B)*%
X141605000Y-134620000D03*
%TO.P,Q210,3,E*%
%TO.N,GNDD*%
X139065000Y-134620000D03*
%TD*%
D16*
%TO.P,J410,1,Pin_1*%
%TO.N,GNDD*%
X118110000Y-132080000D03*
D17*
%TO.P,J410,2,Pin_2*%
%TO.N,unconnected-(J410-Pin_2-Pad2)*%
X118110000Y-129540000D03*
%TO.P,J410,3,Pin_3*%
%TO.N,+5V*%
X118110000Y-127000000D03*
%TO.P,J410,4,Pin_4*%
%TO.N,uRX*%
X118110000Y-124460000D03*
%TO.P,J410,5,Pin_5*%
%TO.N,uTX*%
X118110000Y-121920000D03*
%TO.P,J410,6,Pin_6*%
%TO.N,unconnected-(J410-Pin_6-Pad6)*%
X118110000Y-119380000D03*
%TD*%
D10*
%TO.P,R130,1*%
%TO.N,Net-(Q131-E)*%
X180340000Y-87630000D03*
%TO.P,R130,2*%
%TO.N,Net-(Q130-G)*%
X190500000Y-87630000D03*
%TD*%
%TO.P,C906,1*%
%TO.N,+5V*%
X149225000Y-53570000D03*
%TO.P,C906,2*%
%TO.N,GNDD*%
X149225000Y-48570000D03*
%TD*%
D18*
%TO.P,SW310,A,A*%
%TO.N,Net-(R311-Pad1)*%
X79375000Y-125810000D03*
D19*
%TO.P,SW310,B,B*%
%TO.N,Net-(R312-Pad1)*%
X79375000Y-130810000D03*
%TO.P,SW310,C,C*%
%TO.N,GNDD*%
X79375000Y-128310000D03*
D20*
%TO.P,SW310,MP,MP*%
X86875000Y-122610000D03*
X86875000Y-134010000D03*
D19*
%TO.P,SW310,S1,S1*%
%TO.N,Net-(R310-Pad1)*%
X93875000Y-130810000D03*
%TO.P,SW310,S2,S2*%
%TO.N,GNDD*%
X93875000Y-125810000D03*
%TD*%
D21*
%TO.P,U210,1*%
%TO.N,Net-(R210-Pad1)*%
X147320000Y-133985000D03*
D22*
%TO.P,U210,2*%
%TO.N,Net-(Q210-C)*%
X147320000Y-136525000D03*
%TO.P,U210,3,NC*%
%TO.N,unconnected-(U210-NC-Pad3)*%
X147320000Y-139065000D03*
%TO.P,U210,4*%
%TO.N,Net-(Q111-C)*%
X154940000Y-139065000D03*
%TO.P,U210,5*%
%TO.N,Net-(Q111-B)*%
X154940000Y-136525000D03*
%TO.P,U210,6*%
%TO.N,Net-(R111-Pad1)*%
X154940000Y-133985000D03*
%TD*%
D10*
%TO.P,R901,1*%
%TO.N,+12V*%
X193040000Y-44450000D03*
%TO.P,R901,2*%
%TO.N,Net-(D901-A)*%
X182880000Y-44450000D03*
%TD*%
%TO.P,R902,1*%
%TO.N,Net-(U902-V_{IN+})*%
X175260000Y-61595000D03*
%TO.P,R902,2*%
%TO.N,/H Bridge/GNDPWR_{out}*%
X185420000Y-61595000D03*
%TD*%
%TO.P,R212,1*%
%TO.N,/H Bridge/P1B*%
X133985000Y-142875000D03*
%TO.P,R212,2*%
%TO.N,Net-(Q210-B)*%
X144145000Y-142875000D03*
%TD*%
%TO.P,R141,1*%
%TO.N,Net-(R141-Pad1)*%
X158750000Y-67310000D03*
%TO.P,R141,2*%
%TO.N,GNDPWR*%
X168910000Y-67310000D03*
%TD*%
%TO.P,R143,1*%
%TO.N,GNDPWR*%
X168910000Y-78740000D03*
%TO.P,R143,2*%
%TO.N,Net-(R142-Pad1)*%
X158750000Y-78740000D03*
%TD*%
D23*
%TO.P,J1,1,Pin_1*%
%TO.N,+5V*%
X124460000Y-24130000D03*
D24*
%TO.P,J1,2,Pin_2*%
%TO.N,GNDD*%
X129540000Y-24130000D03*
%TD*%
D10*
%TO.P,R210,1*%
%TO.N,Net-(R210-Pad1)*%
X147320000Y-129540000D03*
%TO.P,R210,2*%
%TO.N,+5V*%
X137160000Y-129540000D03*
%TD*%
%TO.P,C411,1*%
%TO.N,+5V*%
X125730000Y-129540000D03*
%TO.P,C411,2*%
%TO.N,GNDD*%
X125730000Y-134540000D03*
%TD*%
D21*
%TO.P,U220,1*%
%TO.N,Net-(R220-Pad1)*%
X147320000Y-111125000D03*
D22*
%TO.P,U220,2*%
%TO.N,Net-(Q220-C)*%
X147320000Y-113665000D03*
%TO.P,U220,3,NC*%
%TO.N,unconnected-(U220-NC-Pad3)*%
X147320000Y-116205000D03*
%TO.P,U220,4*%
%TO.N,Net-(Q121-C)*%
X154940000Y-116205000D03*
%TO.P,U220,5*%
%TO.N,Net-(Q121-B)*%
X154940000Y-113665000D03*
%TO.P,U220,6*%
%TO.N,Net-(R121-Pad1)*%
X154940000Y-111125000D03*
%TD*%
D10*
%TO.P,R311,1*%
%TO.N,Net-(R311-Pad1)*%
X102235000Y-124460000D03*
%TO.P,R311,2*%
%TO.N,+5V*%
X102235000Y-134620000D03*
%TD*%
D25*
%TO.P,L410,1*%
%TO.N,Net-(J411-Shield)*%
X127645000Y-150495000D03*
%TO.P,L410,2*%
%TO.N,GNDD*%
X127645000Y-137795000D03*
%TD*%
D26*
%TO.P,D120,1,K*%
%TO.N,Net-(D120-K)*%
X172720000Y-113030000D03*
D10*
%TO.P,D120,2,A*%
%TO.N,+12V*%
X180340000Y-113030000D03*
%TD*%
%TO.P,R122,1*%
%TO.N,Net-(Q122-B)*%
X168910000Y-111760000D03*
%TO.P,R122,2*%
%TO.N,Net-(Q121-C)*%
X158750000Y-111760000D03*
%TD*%
%TO.P,R123,1*%
%TO.N,Net-(D120-K)*%
X168910000Y-115062000D03*
%TO.P,R123,2*%
%TO.N,Net-(Q121-B)*%
X158750000Y-115062000D03*
%TD*%
D27*
%TO.P,C120,1*%
%TO.N,Net-(D120-K)*%
X168275000Y-118407401D03*
D28*
%TO.P,C120,2*%
%TO.N,/H Bridge/Out_{2}*%
X168275000Y-120407401D03*
%TD*%
D10*
%TO.P,R124,1*%
%TO.N,Net-(Q121-C)*%
X152400000Y-120015000D03*
%TO.P,R124,2*%
%TO.N,/H Bridge/Out_{2}*%
X162560000Y-120015000D03*
%TD*%
%TO.P,R315,1*%
%TO.N,Net-(R312-Pad1)*%
X112395000Y-113665000D03*
%TO.P,R315,2*%
%TO.N,/Disp & encoder/SWB*%
X122555000Y-113665000D03*
%TD*%
%TO.P,R114,1*%
%TO.N,Net-(Q111-C)*%
X152400000Y-142875000D03*
%TO.P,R114,2*%
%TO.N,/H Bridge/Out_{1}*%
X162560000Y-142875000D03*
%TD*%
%TO.P,R220,1*%
%TO.N,Net-(R220-Pad1)*%
X147320000Y-106680000D03*
%TO.P,R220,2*%
%TO.N,+5V*%
X137160000Y-106680000D03*
%TD*%
%TO.P,R251,1*%
%TO.N,GNDD*%
X143510000Y-33020000D03*
%TO.P,R251,2*%
%TO.N,Net-(J6-Pin_2)*%
X153670000Y-33020000D03*
%TD*%
D29*
%TO.P,R300,1,1*%
%TO.N,GNDD*%
X111760000Y-37465000D03*
%TO.P,R300,2,2*%
%TO.N,Net-(DS300-VO)*%
X109220000Y-34925000D03*
%TO.P,R300,3,3*%
%TO.N,+5V*%
X111760000Y-32385000D03*
%TD*%
D12*
%TO.P,DS300,*%
%TO.N,*%
X102120000Y-35040000D03*
X71120000Y-35040000D03*
X102120000Y-110040000D03*
X71120000Y-110040000D03*
D30*
%TO.P,DS300,1,VSS*%
%TO.N,GNDD*%
X102620000Y-40640000D03*
%TO.P,DS300,2,VDD*%
%TO.N,+5V*%
X102620000Y-43180000D03*
%TO.P,DS300,3,VO*%
%TO.N,Net-(DS300-VO)*%
X102620000Y-45720000D03*
%TO.P,DS300,4,RS*%
%TO.N,Net-(DS300-RS)*%
X102620000Y-48260000D03*
%TO.P,DS300,5,R/W*%
%TO.N,GNDD*%
X102620000Y-50800000D03*
%TO.P,DS300,6,E*%
%TO.N,Net-(DS300-E)*%
X102620000Y-53340000D03*
%TO.P,DS300,7,D0*%
%TO.N,GNDD*%
X102620000Y-55880000D03*
%TO.P,DS300,8,D1*%
X102620000Y-58420000D03*
%TO.P,DS300,9,D2*%
X102620000Y-60960000D03*
%TO.P,DS300,10,D3*%
X102620000Y-63500000D03*
%TO.P,DS300,11,D4*%
%TO.N,Net-(DS300-D4)*%
X102620000Y-66040000D03*
%TO.P,DS300,12,D5*%
%TO.N,Net-(DS300-D5)*%
X102620000Y-68580000D03*
%TO.P,DS300,13,D6*%
%TO.N,Net-(DS300-D6)*%
X102620000Y-71120000D03*
%TO.P,DS300,14,D7*%
%TO.N,Net-(DS300-D7)*%
X102620000Y-73660000D03*
%TO.P,DS300,15,LED(+)*%
%TO.N,unconnected-(DS300-LED(+)-Pad15)*%
X102620000Y-76200000D03*
%TO.P,DS300,16,LED(-)*%
%TO.N,unconnected-(DS300-LED(-)-Pad16)*%
X102620000Y-78740000D03*
D31*
%TO.P,DS300,17*%
%TO.N,N/C*%
X94480000Y-34400000D03*
D32*
X91940000Y-34400000D03*
D31*
X89440000Y-34400000D03*
%TO.P,DS300,18*%
X83560000Y-34400000D03*
D32*
X81020000Y-34400000D03*
D31*
X78480000Y-34400000D03*
%TD*%
D10*
%TO.P,R113,1*%
%TO.N,Net-(D110-K)*%
X168910000Y-137922000D03*
%TO.P,R113,2*%
%TO.N,Net-(Q111-B)*%
X158750000Y-137922000D03*
%TD*%
%TO.P,R110,1*%
%TO.N,Net-(Q112-E)*%
X180340000Y-130810000D03*
%TO.P,R110,2*%
%TO.N,Net-(Q110-G)*%
X190500000Y-130810000D03*
%TD*%
%TO.P,R401,1*%
%TO.N,GNDD*%
X108585000Y-97790000D03*
%TO.P,R401,2*%
%TO.N,Net-(U400-RA2)*%
X108585000Y-87630000D03*
%TD*%
D21*
%TO.P,U400,1,~{MCLR}/VPP/RE3*%
%TO.N,V_{PP}*%
X114300000Y-69850000D03*
D22*
%TO.P,U400,2,RA0*%
%TO.N,/MCU & USB/AN0*%
X114300000Y-72390000D03*
%TO.P,U400,3,RA1*%
%TO.N,unconnected-(U400-RA1-Pad3)*%
X114300000Y-74930000D03*
%TO.P,U400,4,RA2*%
%TO.N,Net-(U400-RA2)*%
X114300000Y-77470000D03*
%TO.P,U400,5,RA3*%
%TO.N,unconnected-(U400-RA3-Pad5)*%
X114300000Y-80010000D03*
%TO.P,U400,6,RA4*%
%TO.N,RA4*%
X114300000Y-82550000D03*
%TO.P,U400,7,RA5*%
%TO.N,~{SS}*%
X114300000Y-85090000D03*
%TO.P,U400,8,VSS*%
%TO.N,GNDD*%
X114300000Y-87630000D03*
%TO.P,U400,9,RA7/OSC1_CLKIN*%
%TO.N,unconnected-(U400-RA7{slash}OSC1_CLKIN-Pad9)*%
X114300000Y-90170000D03*
%TO.P,U400,10,RA6/OSC2_CLKOUT*%
%TO.N,unconnected-(U400-RA6{slash}OSC2_CLKOUT-Pad10)*%
X114300000Y-92710000D03*
%TO.P,U400,11,RC0/SOSCO*%
%TO.N,T1CLK*%
X114300000Y-95250000D03*
%TO.P,U400,12,RC1/SOSCI*%
%TO.N,/Disp & encoder/DISP*%
X114300000Y-97790000D03*
%TO.P,U400,13,RC2*%
%TO.N,/H Bridge/P1A*%
X114300000Y-100330000D03*
%TO.P,U400,14,RC3*%
%TO.N,/Disp & encoder/SCL*%
X114300000Y-102870000D03*
%TO.P,U400,15,RC4*%
%TO.N,/Disp & encoder/SDA{slash}SDI*%
X121920000Y-102870000D03*
%TO.P,U400,16,RC5*%
%TO.N,/Disp & encoder/SDO*%
X121920000Y-100330000D03*
%TO.P,U400,17,RC6*%
%TO.N,uTX*%
X121920000Y-97790000D03*
%TO.P,U400,18,RC7*%
%TO.N,uRX*%
X121920000Y-95250000D03*
%TO.P,U400,19,VSS*%
%TO.N,GNDD*%
X121920000Y-92710000D03*
%TO.P,U400,20,VDD*%
%TO.N,+5V*%
X121920000Y-90170000D03*
%TO.P,U400,21,RB0*%
%TO.N,/Disp & encoder/SWS*%
X121920000Y-87630000D03*
%TO.P,U400,22,RB1*%
%TO.N,/H Bridge/P1D*%
X121920000Y-85090000D03*
%TO.P,U400,23,RB2*%
%TO.N,/H Bridge/P1B*%
X121920000Y-82550000D03*
%TO.P,U400,24,RB3*%
%TO.N,/Disp & encoder/SWA*%
X121920000Y-80010000D03*
%TO.P,U400,25,RB4*%
%TO.N,/H Bridge/P1C*%
X121920000Y-77470000D03*
%TO.P,U400,26,RB5*%
%TO.N,/Disp & encoder/SWB*%
X121920000Y-74930000D03*
%TO.P,U400,27,RB6/PGC*%
%TO.N,PGC*%
X121920000Y-72390000D03*
%TO.P,U400,28,RB7/PGD*%
%TO.N,PGD*%
X121920000Y-69850000D03*
%TD*%
D10*
%TO.P,R240,1*%
%TO.N,Net-(R240-Pad1)*%
X147320000Y-67310000D03*
%TO.P,R240,2*%
%TO.N,+5V*%
X137160000Y-67310000D03*
%TD*%
%TO.P,C410,1*%
%TO.N,Net-(U410-VUSB)*%
X111125000Y-129620000D03*
%TO.P,C410,2*%
%TO.N,GNDD*%
X111125000Y-134620000D03*
%TD*%
D33*
%TO.P,C900,1*%
%TO.N,+24V*%
X209550000Y-34570000D03*
D10*
%TO.P,C900,2*%
%TO.N,GNDPWR*%
X204550000Y-34570000D03*
%TD*%
D11*
%TO.P,Q120,1,G*%
%TO.N,Net-(Q120-G)*%
X195580000Y-107950000D03*
D12*
%TO.P,Q120,2,D*%
%TO.N,+24V*%
X212240000Y-110490000D03*
D13*
X195580000Y-110490000D03*
%TO.P,Q120,3,S*%
%TO.N,/H Bridge/Out_{2}*%
X195580000Y-113030000D03*
%TD*%
D10*
%TO.P,R241,1*%
%TO.N,GNDD*%
X133985000Y-75565000D03*
%TO.P,R241,2*%
%TO.N,Net-(Q240-B)*%
X144145000Y-75565000D03*
%TD*%
D23*
%TO.P,J5,1,Pin_1*%
%TO.N,GNDPWR*%
X172720000Y-24070000D03*
D24*
%TO.P,J5,2,Pin_2*%
%TO.N,Net-(J5-Pin_2)*%
X177800000Y-24070000D03*
%TD*%
D10*
%TO.P,R132,1*%
%TO.N,Net-(R132-Pad1)*%
X158750000Y-90805000D03*
%TO.P,R132,2*%
%TO.N,Net-(Q131-B)*%
X168910000Y-90805000D03*
%TD*%
D33*
%TO.P,D901,1,K*%
%TO.N,+12V*%
X190500000Y-47625000D03*
D10*
%TO.P,D901,2,A*%
%TO.N,Net-(D901-A)*%
X182880000Y-47625000D03*
%TD*%
%TO.P,R133,1*%
%TO.N,GNDPWR*%
X168910000Y-96520000D03*
%TO.P,R133,2*%
%TO.N,Net-(R132-Pad1)*%
X158750000Y-96520000D03*
%TD*%
%TO.P,R230,1*%
%TO.N,Net-(R230-Pad1)*%
X147320000Y-85090000D03*
%TO.P,R230,2*%
%TO.N,+5V*%
X137160000Y-85090000D03*
%TD*%
%TO.P,R313,1*%
%TO.N,/Disp & encoder/SWS*%
X122555000Y-107315000D03*
%TO.P,R313,2*%
%TO.N,Net-(R310-Pad1)*%
X112395000Y-107315000D03*
%TD*%
D21*
%TO.P,U300,1,QB*%
%TO.N,Net-(DS300-D5)*%
X114300000Y-46355000D03*
D22*
%TO.P,U300,2,QC*%
%TO.N,Net-(DS300-D6)*%
X114300000Y-48895000D03*
%TO.P,U300,3,QD*%
%TO.N,Net-(DS300-D7)*%
X114300000Y-51435000D03*
%TO.P,U300,4,QE*%
%TO.N,unconnected-(U300-QE-Pad4)*%
X114300000Y-53975000D03*
%TO.P,U300,5,QF*%
%TO.N,Net-(DS300-RS)*%
X114300000Y-56515000D03*
%TO.P,U300,6,QG*%
%TO.N,unconnected-(U300-QG-Pad6)*%
X114300000Y-59055000D03*
%TO.P,U300,7,QH*%
%TO.N,Net-(DS300-E)*%
X114300000Y-61595000D03*
%TO.P,U300,8,GND*%
%TO.N,GNDD*%
X114300000Y-64135000D03*
%TO.P,U300,9,QH'*%
%TO.N,/Disp & encoder/SDA{slash}SDI*%
X121920000Y-64135000D03*
%TO.P,U300,10,~{SRCLR}*%
%TO.N,GNDD*%
X121920000Y-61595000D03*
%TO.P,U300,11,SRCLK*%
%TO.N,/Disp & encoder/SCL*%
X121920000Y-59055000D03*
%TO.P,U300,12,RCLK*%
%TO.N,/Disp & encoder/DISP*%
X121920000Y-56515000D03*
%TO.P,U300,13,~{OE}*%
%TO.N,GNDD*%
X121920000Y-53975000D03*
%TO.P,U300,14,SER*%
%TO.N,/Disp & encoder/SDO*%
X121920000Y-51435000D03*
%TO.P,U300,15,QA*%
%TO.N,Net-(DS300-D4)*%
X121920000Y-48895000D03*
%TO.P,U300,16,VCC*%
%TO.N,+5V*%
X121920000Y-46355000D03*
%TD*%
D10*
%TO.P,C400,1*%
%TO.N,+5V*%
X127000000Y-90170000D03*
%TO.P,C400,2*%
%TO.N,GNDD*%
X127000000Y-95170000D03*
%TD*%
%TO.P,C312,1*%
%TO.N,/Disp & encoder/SWB*%
X125095000Y-113665000D03*
%TO.P,C312,2*%
%TO.N,GNDD*%
X130095000Y-113665000D03*
%TD*%
D33*
%TO.P,C901,1*%
%TO.N,Net-(D901-A)*%
X179070000Y-44450000D03*
D10*
%TO.P,C901,2*%
%TO.N,GNDPWR*%
X176570000Y-44450000D03*
%TD*%
D14*
%TO.P,Q220,1,C*%
%TO.N,Net-(Q220-C)*%
X144145000Y-111760000D03*
D15*
%TO.P,Q220,2,B*%
%TO.N,Net-(Q220-B)*%
X141605000Y-111760000D03*
%TO.P,Q220,3,E*%
%TO.N,GNDD*%
X139065000Y-111760000D03*
%TD*%
D34*
%TO.P,U410,1,VDD*%
%TO.N,+5V*%
X121920000Y-134620000D03*
D22*
%TO.P,U410,2,GP0*%
%TO.N,unconnected-(U410-GP0-Pad2)*%
X121920000Y-132080000D03*
%TO.P,U410,3,GP1*%
%TO.N,unconnected-(U410-GP1-Pad3)*%
X121920000Y-129540000D03*
%TO.P,U410,4,~{RST}*%
%TO.N,+5V*%
X121920000Y-127000000D03*
%TO.P,U410,5,URx*%
%TO.N,uRX*%
X121920000Y-124460000D03*
%TO.P,U410,6,UTx*%
%TO.N,uTX*%
X121920000Y-121920000D03*
%TO.P,U410,7,GP2*%
%TO.N,unconnected-(U410-GP2-Pad7)*%
X121920000Y-119380000D03*
%TO.P,U410,8,GP3*%
%TO.N,RA4*%
X114300000Y-119380000D03*
%TO.P,U410,9,SDA*%
%TO.N,unconnected-(U410-SDA-Pad9)*%
X114300000Y-121920000D03*
%TO.P,U410,10,SCL*%
%TO.N,unconnected-(U410-SCL-Pad10)*%
X114300000Y-124460000D03*
%TO.P,U410,11,VUSB*%
%TO.N,Net-(U410-VUSB)*%
X114300000Y-127000000D03*
%TO.P,U410,12,D-*%
%TO.N,Net-(J411-D-)*%
X114300000Y-129540000D03*
%TO.P,U410,13,D+*%
%TO.N,Net-(J411-D+)*%
X114300000Y-132080000D03*
%TO.P,U410,14,VSS*%
%TO.N,GNDD*%
X114300000Y-134620000D03*
%TD*%
D10*
%TO.P,R121,1*%
%TO.N,Net-(R121-Pad1)*%
X152400000Y-106680000D03*
%TO.P,R121,2*%
%TO.N,Net-(Q121-C)*%
X162560000Y-106680000D03*
%TD*%
%TO.P,C907,1*%
%TO.N,/MCU & USB/AN0*%
X145415000Y-53570000D03*
%TO.P,C907,2*%
%TO.N,GNDD*%
X145415000Y-48570000D03*
%TD*%
%TO.P,C903,1*%
%TO.N,+12V*%
X165100000Y-41910000D03*
%TO.P,C903,2*%
%TO.N,GNDPWR*%
X165100000Y-46910000D03*
%TD*%
%TO.P,C905,1*%
%TO.N,Net-(U902-V_{IN+})*%
X165100000Y-55245000D03*
%TO.P,C905,2*%
%TO.N,GNDPWR*%
X165100000Y-50245000D03*
%TD*%
%TO.P,C311,1*%
%TO.N,/Disp & encoder/SWA*%
X125095000Y-110490000D03*
%TO.P,C311,2*%
%TO.N,GNDD*%
X130095000Y-110490000D03*
%TD*%
D27*
%TO.P,C110,1*%
%TO.N,Net-(D110-K)*%
X168275000Y-141267401D03*
D28*
%TO.P,C110,2*%
%TO.N,/H Bridge/Out_{1}*%
X168275000Y-143267401D03*
%TD*%
D35*
%TO.P,REF\u002A\u002A,1*%
%TO.N,N/C*%
X73010000Y-145920000D03*
%TD*%
D10*
%TO.P,R112,1*%
%TO.N,Net-(Q112-B)*%
X168910000Y-134620000D03*
%TO.P,R112,2*%
%TO.N,Net-(Q111-C)*%
X158750000Y-134620000D03*
%TD*%
D35*
%TO.P,REF\u002A\u002A,1*%
%TO.N,N/C*%
X218010000Y-145920000D03*
%TD*%
D11*
%TO.P,Q110,1,G*%
%TO.N,Net-(Q110-G)*%
X195580000Y-130810000D03*
D12*
%TO.P,Q110,2,D*%
%TO.N,+24V*%
X212240000Y-133350000D03*
D13*
X195580000Y-133350000D03*
%TO.P,Q110,3,S*%
%TO.N,/H Bridge/Out_{1}*%
X195580000Y-135890000D03*
%TD*%
D10*
%TO.P,C310,1*%
%TO.N,/Disp & encoder/SWS*%
X125095000Y-107315000D03*
%TO.P,C310,2*%
%TO.N,GNDD*%
X130095000Y-107315000D03*
%TD*%
%TO.P,R232,1*%
%TO.N,/H Bridge/P1A*%
X133985000Y-96520000D03*
%TO.P,R232,2*%
%TO.N,Net-(Q230-B)*%
X144145000Y-96520000D03*
%TD*%
D35*
%TO.P,REF\u002A\u002A,1*%
%TO.N,N/C*%
X73010000Y-25920000D03*
%TD*%
D23*
%TO.P,J4,1,Pin_1*%
%TO.N,/H Bridge/Out_{2}*%
X162560000Y-24070000D03*
D24*
%TO.P,J4,2,Pin_2*%
%TO.N,/H Bridge/Out_{1}*%
X167640000Y-24070000D03*
%TD*%
D14*
%TO.P,Q142,1,C*%
%TO.N,GNDPWR*%
X172720000Y-78105000D03*
D15*
%TO.P,Q142,2,B*%
%TO.N,Net-(Q141-B)*%
X175260000Y-78105000D03*
%TO.P,Q142,3,E*%
%TO.N,Net-(Q141-E)*%
X177800000Y-78105000D03*
%TD*%
D11*
%TO.P,Q140,1,G*%
%TO.N,Net-(Q140-G)*%
X195580000Y-69850000D03*
D12*
%TO.P,Q140,2,D*%
%TO.N,/H Bridge/Out_{2}*%
X212240000Y-72390000D03*
D13*
X195580000Y-72390000D03*
%TO.P,Q140,3,S*%
%TO.N,/H Bridge/GNDPWR_{out}*%
X195580000Y-74930000D03*
%TD*%
D10*
%TO.P,R250,1*%
%TO.N,Net-(J6-Pin_2)*%
X153670000Y-38100000D03*
%TO.P,R250,2*%
%TO.N,T1CLK*%
X143510000Y-38100000D03*
%TD*%
%TO.P,R140,1*%
%TO.N,Net-(Q141-E)*%
X180340000Y-69850000D03*
%TO.P,R140,2*%
%TO.N,Net-(Q140-G)*%
X190500000Y-69850000D03*
%TD*%
D25*
%TO.P,R000,1*%
%TO.N,GNDPWR*%
X175260000Y-57150000D03*
%TO.P,R000,2*%
%TO.N,/H Bridge/GNDPWR_{out}*%
X195580000Y-57150000D03*
%TD*%
D10*
%TO.P,R142,1*%
%TO.N,Net-(R142-Pad1)*%
X158750000Y-73025000D03*
%TO.P,R142,2*%
%TO.N,Net-(Q141-B)*%
X168910000Y-73025000D03*
%TD*%
D35*
%TO.P,REF\u002A\u002A,1*%
%TO.N,N/C*%
X218010000Y-25920000D03*
%TD*%
D10*
%TO.P,C904,1*%
%TO.N,Net-(U901-VO)*%
X168910000Y-55165000D03*
%TO.P,C904,2*%
%TO.N,GNDPWR*%
X168910000Y-50165000D03*
%TD*%
D14*
%TO.P,Q131,1,C*%
%TO.N,+12V*%
X172720000Y-87630000D03*
D15*
%TO.P,Q131,2,B*%
%TO.N,Net-(Q131-B)*%
X175260000Y-87630000D03*
%TO.P,Q131,3,E*%
%TO.N,Net-(Q131-E)*%
X177800000Y-87630000D03*
%TD*%
D10*
%TO.P,R410,1*%
%TO.N,RA4*%
X125730000Y-116840000D03*
%TO.P,R410,2*%
%TO.N,+5V*%
X125730000Y-127000000D03*
%TD*%
%TO.P,R903,1*%
%TO.N,/MCU & USB/AN0*%
X142875000Y-58420000D03*
%TO.P,R903,2*%
%TO.N,Net-(U902-V_{OUT})*%
X153035000Y-58420000D03*
%TD*%
%TO.P,R111,1*%
%TO.N,Net-(R111-Pad1)*%
X152400000Y-129540000D03*
%TO.P,R111,2*%
%TO.N,Net-(Q111-C)*%
X162560000Y-129540000D03*
%TD*%
%TO.P,R312,1*%
%TO.N,Net-(R312-Pad1)*%
X106045000Y-124460000D03*
%TO.P,R312,2*%
%TO.N,+5V*%
X106045000Y-134620000D03*
%TD*%
%TO.P,R242,1*%
%TO.N,/H Bridge/P1C*%
X133985000Y-78740000D03*
%TO.P,R242,2*%
%TO.N,Net-(Q240-B)*%
X144145000Y-78740000D03*
%TD*%
D26*
%TO.P,D110,1,K*%
%TO.N,Net-(D110-K)*%
X172720000Y-135890000D03*
D10*
%TO.P,D110,2,A*%
%TO.N,+12V*%
X180340000Y-135890000D03*
%TD*%
D14*
%TO.P,Q123,1,C*%
%TO.N,/H Bridge/Out_{2}*%
X172720000Y-118110000D03*
D15*
%TO.P,Q123,2,B*%
%TO.N,Net-(Q122-B)*%
X175260000Y-118110000D03*
%TO.P,Q123,3,E*%
%TO.N,Net-(Q122-E)*%
X177800000Y-118110000D03*
%TD*%
D16*
%TO.P,J400,1,Pin_1*%
%TO.N,V_{PP}*%
X146050000Y-29210000D03*
D17*
%TO.P,J400,2,Pin_2*%
%TO.N,+5V*%
X143510000Y-29210000D03*
%TO.P,J400,3,Pin_3*%
%TO.N,GNDD*%
X140970000Y-29210000D03*
%TO.P,J400,4,Pin_4*%
%TO.N,PGD*%
X138430000Y-29210000D03*
%TO.P,J400,5,Pin_5*%
%TO.N,PGC*%
X135890000Y-29210000D03*
%TD*%
D11*
%TO.P,U900,1,ADJ*%
%TO.N,Net-(D901-A)*%
X195580000Y-45720000D03*
D12*
%TO.P,U900,2,VO*%
%TO.N,+12V*%
X212240000Y-48260000D03*
D13*
X195580000Y-48260000D03*
%TO.P,U900,3,VI*%
%TO.N,+24V*%
X195580000Y-50800000D03*
%TD*%
D10*
%TO.P,R211,1*%
%TO.N,GNDD*%
X133985000Y-139065000D03*
%TO.P,R211,2*%
%TO.N,Net-(Q210-B)*%
X144145000Y-139065000D03*
%TD*%
D14*
%TO.P,Q112,1,C*%
%TO.N,Net-(D110-K)*%
X172720000Y-130810000D03*
D15*
%TO.P,Q112,2,B*%
%TO.N,Net-(Q112-B)*%
X175260000Y-130810000D03*
%TO.P,Q112,3,E*%
%TO.N,Net-(Q112-E)*%
X177800000Y-130810000D03*
%TD*%
D14*
%TO.P,Q141,1,C*%
%TO.N,+12V*%
X172720000Y-69850000D03*
D15*
%TO.P,Q141,2,B*%
%TO.N,Net-(Q141-B)*%
X175260000Y-69850000D03*
%TO.P,Q141,3,E*%
%TO.N,Net-(Q141-E)*%
X177800000Y-69850000D03*
%TD*%
D10*
%TO.P,C300,1*%
%TO.N,+5V*%
X115650000Y-43180000D03*
%TO.P,C300,2*%
%TO.N,GNDD*%
X120650000Y-43180000D03*
%TD*%
%TO.P,R231,1*%
%TO.N,GNDD*%
X133985000Y-93345000D03*
%TO.P,R231,2*%
%TO.N,Net-(Q230-B)*%
X144145000Y-93345000D03*
%TD*%
D14*
%TO.P,Q111,1,C*%
%TO.N,Net-(Q111-C)*%
X165100000Y-130810000D03*
D15*
%TO.P,Q111,2,B*%
%TO.N,Net-(Q111-B)*%
X167640000Y-130810000D03*
%TO.P,Q111,3,E*%
%TO.N,Net-(D110-K)*%
X170180000Y-130810000D03*
%TD*%
D14*
%TO.P,Q122,1,C*%
%TO.N,Net-(D120-K)*%
X172720000Y-107950000D03*
D15*
%TO.P,Q122,2,B*%
%TO.N,Net-(Q122-B)*%
X175260000Y-107950000D03*
%TO.P,Q122,3,E*%
%TO.N,Net-(Q122-E)*%
X177800000Y-107950000D03*
%TD*%
D36*
%TO.P,J411,1,VBUS*%
%TO.N,unconnected-(J411-VBUS-Pad1)*%
X118745000Y-143485000D03*
D37*
%TO.P,J411,2,D-*%
%TO.N,Net-(J411-D-)*%
X116245000Y-143485000D03*
%TO.P,J411,3,D+*%
%TO.N,Net-(J411-D+)*%
X116245000Y-146685000D03*
%TO.P,J411,4,GND*%
%TO.N,GNDD*%
X118745000Y-146685000D03*
D38*
%TO.P,J411,5,Shield*%
%TO.N,Net-(J411-Shield)*%
X111475000Y-146195000D03*
X123515000Y-146195000D03*
%TD*%
D10*
%TO.P,R400,1*%
%TO.N,Net-(U400-RA2)*%
X108585000Y-85090000D03*
%TO.P,R400,2*%
%TO.N,+5V*%
X108585000Y-74930000D03*
%TD*%
D21*
%TO.P,U240,1*%
%TO.N,Net-(R240-Pad1)*%
X147320000Y-70485000D03*
D22*
%TO.P,U240,2*%
%TO.N,Net-(Q240-C)*%
X147320000Y-73025000D03*
%TO.P,U240,3,NC*%
%TO.N,unconnected-(U240-NC-Pad3)*%
X147320000Y-75565000D03*
%TO.P,U240,4*%
%TO.N,Net-(R142-Pad1)*%
X154940000Y-75565000D03*
%TO.P,U240,5*%
%TO.N,+12V*%
X154940000Y-73025000D03*
%TO.P,U240,6*%
%TO.N,Net-(R141-Pad1)*%
X154940000Y-70485000D03*
%TD*%
D33*
%TO.P,C902,1*%
%TO.N,+12V*%
X179070000Y-50800000D03*
D10*
%TO.P,C902,2*%
%TO.N,GNDPWR*%
X176570000Y-50800000D03*
%TD*%
D23*
%TO.P,J6,1,Pin_1*%
%TO.N,+5V*%
X152400000Y-24070000D03*
D24*
%TO.P,J6,2,Pin_2*%
%TO.N,Net-(J6-Pin_2)*%
X157480000Y-24070000D03*
%TD*%
D14*
%TO.P,U901,1,VO*%
%TO.N,Net-(U901-VO)*%
X170815000Y-46990000D03*
D15*
%TO.P,U901,2,GND*%
%TO.N,GNDPWR*%
X170815000Y-44450000D03*
%TO.P,U901,3,VI*%
%TO.N,+12V*%
X170815000Y-41910000D03*
%TD*%
D10*
%TO.P,R310,1*%
%TO.N,Net-(R310-Pad1)*%
X98425000Y-124460000D03*
%TO.P,R310,2*%
%TO.N,+5V*%
X98425000Y-134620000D03*
%TD*%
D14*
%TO.P,Q240,1,C*%
%TO.N,Net-(Q240-C)*%
X144145000Y-71120000D03*
D15*
%TO.P,Q240,2,B*%
%TO.N,Net-(Q240-B)*%
X141605000Y-71120000D03*
%TO.P,Q240,3,E*%
%TO.N,GNDD*%
X139065000Y-71120000D03*
%TD*%
D10*
%TO.P,R131,1*%
%TO.N,Net-(R131-Pad1)*%
X158750000Y-85090000D03*
%TO.P,R131,2*%
%TO.N,GNDPWR*%
X168910000Y-85090000D03*
%TD*%
%TO.P,R222,1*%
%TO.N,/H Bridge/P1D*%
X133985000Y-120015000D03*
%TO.P,R222,2*%
%TO.N,Net-(Q220-B)*%
X144145000Y-120015000D03*
%TD*%
D34*
%TO.P,U902,1,V_{DD1}*%
%TO.N,Net-(U901-VO)*%
X160655000Y-55245000D03*
D22*
%TO.P,U902,2,V_{IN+}*%
%TO.N,Net-(U902-V_{IN+})*%
X160655000Y-52705000D03*
%TO.P,U902,3,V_{IN-}*%
%TO.N,GNDPWR*%
X160655000Y-50165000D03*
%TO.P,U902,4,GND_{1}*%
X160655000Y-47625000D03*
%TO.P,U902,5,GND_{2}*%
%TO.N,GNDD*%
X153035000Y-47625000D03*
%TO.P,U902,6,V_{REF}*%
%TO.N,+5V*%
X153035000Y-50165000D03*
%TO.P,U902,7,V_{OUT}*%
%TO.N,Net-(U902-V_{OUT})*%
X153035000Y-52705000D03*
%TO.P,U902,8,V_{DD2}*%
%TO.N,+5V*%
X153035000Y-55245000D03*
%TD*%
D10*
%TO.P,C250,1*%
%TO.N,T1CLK*%
X140335000Y-38100000D03*
%TO.P,C250,2*%
%TO.N,GNDD*%
X140335000Y-33100000D03*
%TD*%
%TO.P,R120,1*%
%TO.N,Net-(Q122-E)*%
X180340000Y-107950000D03*
%TO.P,R120,2*%
%TO.N,Net-(Q120-G)*%
X190500000Y-107950000D03*
%TD*%
D21*
%TO.P,U230,1*%
%TO.N,Net-(R230-Pad1)*%
X147320000Y-88265000D03*
D22*
%TO.P,U230,2*%
%TO.N,Net-(Q230-C)*%
X147320000Y-90805000D03*
%TO.P,U230,3,NC*%
%TO.N,unconnected-(U230-NC-Pad3)*%
X147320000Y-93345000D03*
%TO.P,U230,4*%
%TO.N,Net-(R132-Pad1)*%
X154940000Y-93345000D03*
%TO.P,U230,5*%
%TO.N,+12V*%
X154940000Y-90805000D03*
%TO.P,U230,6*%
%TO.N,Net-(R131-Pad1)*%
X154940000Y-88265000D03*
%TD*%
D14*
%TO.P,Q230,1,C*%
%TO.N,Net-(Q230-C)*%
X144145000Y-88900000D03*
D15*
%TO.P,Q230,2,B*%
%TO.N,Net-(Q230-B)*%
X141605000Y-88900000D03*
%TO.P,Q230,3,E*%
%TO.N,GNDD*%
X139065000Y-88900000D03*
%TD*%
D14*
%TO.P,Q132,1,C*%
%TO.N,GNDPWR*%
X172720000Y-95885000D03*
D15*
%TO.P,Q132,2,B*%
%TO.N,Net-(Q131-B)*%
X175260000Y-95885000D03*
%TO.P,Q132,3,E*%
%TO.N,Net-(Q131-E)*%
X177800000Y-95885000D03*
%TD*%
D39*
%TO.P,F1,1*%
%TO.N,Net-(J5-Pin_2)*%
X186950000Y-24070000D03*
%TO.P,F1,2*%
%TO.N,+24V*%
X209550000Y-24070000D03*
%TD*%
D33*
%TO.P,D900,1,K*%
%TO.N,+24V*%
X190500000Y-51435000D03*
D10*
%TO.P,D900,2,A*%
%TO.N,+12V*%
X182880000Y-51435000D03*
%TD*%
D14*
%TO.P,Q113,1,C*%
%TO.N,/H Bridge/Out_{1}*%
X172720000Y-140970000D03*
D15*
%TO.P,Q113,2,B*%
%TO.N,Net-(Q112-B)*%
X175260000Y-140970000D03*
%TO.P,Q113,3,E*%
%TO.N,Net-(Q112-E)*%
X177800000Y-140970000D03*
%TD*%
D40*
%TO.N,+24V*%
X218440000Y-138430000D03*
X213360000Y-138430000D03*
X208280000Y-138430000D03*
X210820000Y-135890000D03*
X215900000Y-135890000D03*
X218440000Y-133350000D03*
X208280000Y-133350000D03*
X215900000Y-130810000D03*
X210820000Y-130810000D03*
X208280000Y-128270000D03*
X213360000Y-128270000D03*
X218440000Y-128270000D03*
X218440000Y-115570000D03*
X213360000Y-115570000D03*
X208280000Y-115570000D03*
X215900000Y-113030000D03*
X210820000Y-113030000D03*
X218440000Y-110490000D03*
X208280000Y-110490000D03*
X210820000Y-107950000D03*
X215900000Y-107950000D03*
X218440000Y-105410000D03*
X213360000Y-105410000D03*
X208280000Y-105410000D03*
%TO.N,/H Bridge/Out_{1}*%
X213360000Y-95250000D03*
X208280000Y-95250000D03*
X210820000Y-92710000D03*
X215900000Y-92710000D03*
X218440000Y-90170000D03*
X208280000Y-90170000D03*
X210820000Y-87630000D03*
X215900000Y-87630000D03*
X218440000Y-85090000D03*
X213360000Y-85090000D03*
X208280000Y-85090000D03*
%TO.N,/H Bridge/Out_{2}*%
X218440000Y-77470000D03*
X213360000Y-77470000D03*
X208280000Y-77470000D03*
X210820000Y-74930000D03*
X215900000Y-74930000D03*
X218440000Y-72390000D03*
X208280000Y-72390000D03*
X215900000Y-69850000D03*
X210820000Y-69850000D03*
X218440000Y-67310000D03*
X213360000Y-67310000D03*
X208280000Y-67310000D03*
%TO.N,+12V*%
X218440000Y-53340000D03*
X213360000Y-53340000D03*
X208280000Y-53340000D03*
X215822865Y-50800000D03*
X210820000Y-50800000D03*
X218440000Y-48260000D03*
X208280000Y-48260000D03*
X215900000Y-45720000D03*
X210820000Y-45720000D03*
X208280000Y-43180000D03*
X213360000Y-43180000D03*
X218440000Y-43180000D03*
%TO.N,T1CLK*%
X117136000Y-85090000D03*
X127635000Y-50800000D03*
%TO.N,/H Bridge/Out_{1}*%
X218440000Y-95250000D03*
%TD*%
D41*
%TO.N,+5V*%
X143510000Y-24130000D02*
X143510000Y-23495000D01*
X153035000Y-50165000D02*
X151765000Y-50165000D01*
X140970000Y-20955000D02*
X125095000Y-20955000D01*
X152400000Y-24070000D02*
X143570000Y-24070000D01*
D42*
X127000000Y-90170000D02*
X121920000Y-90170000D01*
D41*
X133350000Y-67310000D02*
X130175000Y-64135000D01*
X137160000Y-106680000D02*
X137160000Y-129540000D01*
X137160000Y-85090000D02*
X137160000Y-106680000D01*
X143510000Y-29210000D02*
X143510000Y-24130000D01*
X122682000Y-134620000D02*
X125730000Y-131572000D01*
X124460000Y-31750000D02*
X130175000Y-37465000D01*
X121920000Y-134620000D02*
X122682000Y-134620000D01*
X124460000Y-21590000D02*
X124460000Y-24130000D01*
X137160000Y-67310000D02*
X137160000Y-85090000D01*
X125730000Y-129540000D02*
X125730000Y-127000000D01*
X130175000Y-37465000D02*
X130175000Y-50800000D01*
X149225000Y-53570000D02*
X149225000Y-50800000D01*
X125730000Y-127000000D02*
X118110000Y-127000000D01*
X149860000Y-55245000D02*
X153035000Y-55245000D01*
X149225000Y-50800000D02*
X151130000Y-50800000D01*
X125095000Y-20955000D02*
X124460000Y-21590000D01*
X125730000Y-131572000D02*
X125730000Y-129540000D01*
X137160000Y-67310000D02*
X133350000Y-67310000D01*
X149225000Y-53570000D02*
X149225000Y-54610000D01*
X130175000Y-50800000D02*
X149225000Y-50800000D01*
X151765000Y-50165000D02*
X151130000Y-50800000D01*
X124460000Y-24130000D02*
X124460000Y-31750000D01*
X143510000Y-23495000D02*
X140970000Y-20955000D01*
X143570000Y-24070000D02*
X143510000Y-24130000D01*
X149225000Y-54610000D02*
X149860000Y-55245000D01*
X130175000Y-64135000D02*
X130175000Y-50800000D01*
D42*
%TO.N,GNDD*%
X149225000Y-48570000D02*
X145415000Y-48570000D01*
X153035000Y-47625000D02*
X150170000Y-47625000D01*
X150170000Y-47625000D02*
X149225000Y-48570000D01*
D43*
%TO.N,/H Bridge/Out_{1}*%
X204470000Y-90170000D02*
X204470000Y-129540000D01*
X204470000Y-129540000D02*
X198120000Y-135890000D01*
D42*
X172720000Y-143267401D02*
X188202599Y-143267401D01*
X188202599Y-143267401D02*
X195580000Y-135890000D01*
D43*
X195580000Y-33020000D02*
X170180000Y-33020000D01*
X204470000Y-90170000D02*
X204470000Y-41910000D01*
D42*
X165492401Y-143267401D02*
X165100000Y-142875000D01*
D43*
X198120000Y-135890000D02*
X195580000Y-135890000D01*
X204470000Y-41910000D02*
X195580000Y-33020000D01*
X170180000Y-33020000D02*
X167640000Y-30480000D01*
X195580000Y-90170000D02*
X204470000Y-90170000D01*
D42*
X168275000Y-143267401D02*
X165492401Y-143267401D01*
X162560000Y-142875000D02*
X165100000Y-142875000D01*
X168275000Y-143267401D02*
X172720000Y-143267401D01*
D43*
X167640000Y-30480000D02*
X167640000Y-24070000D01*
D42*
X172720000Y-140970000D02*
X172720000Y-143267401D01*
%TO.N,+12V*%
X175895000Y-53340000D02*
X179070000Y-53340000D01*
X164120000Y-87630000D02*
X158750000Y-87630000D01*
X182880000Y-53340000D02*
X182880000Y-50800000D01*
X155575000Y-73025000D02*
X154940000Y-73025000D01*
X193040000Y-48260000D02*
X192405000Y-47625000D01*
X195580000Y-48260000D02*
X193040000Y-48260000D01*
X192405000Y-47625000D02*
X190500000Y-47625000D01*
X190500000Y-45720000D02*
X191770000Y-44450000D01*
X172720000Y-50165000D02*
X175895000Y-53340000D01*
X170815000Y-41910000D02*
X171740000Y-41910000D01*
X158750000Y-69850000D02*
X172720000Y-69850000D01*
X158750000Y-69850000D02*
X155575000Y-73025000D01*
X182880000Y-53340000D02*
X179070000Y-53340000D01*
X190500000Y-47625000D02*
X190500000Y-45720000D01*
X172720000Y-69850000D02*
X179070000Y-63500000D01*
X182880000Y-110490000D02*
X180340000Y-113030000D01*
X170815000Y-41910000D02*
X165100000Y-41910000D01*
X172720000Y-42890000D02*
X172720000Y-50165000D01*
X179070000Y-50800000D02*
X179070000Y-53340000D01*
X182880000Y-53340000D02*
X182880000Y-110490000D01*
X172720000Y-87630000D02*
X164120000Y-87630000D01*
X191770000Y-44450000D02*
X193040000Y-44450000D01*
X190500000Y-47625000D02*
X186055000Y-47625000D01*
X155575000Y-90805000D02*
X154940000Y-90805000D01*
X179070000Y-63500000D02*
X179070000Y-53340000D01*
X158750000Y-87630000D02*
X155575000Y-90805000D01*
X171740000Y-41910000D02*
X172720000Y-42890000D01*
X164120000Y-69850000D02*
X164120000Y-87630000D01*
X182880000Y-50800000D02*
X186055000Y-47625000D01*
X172720000Y-69850000D02*
X164120000Y-69850000D01*
%TO.N,/H Bridge/Out_{2}*%
X168275000Y-120407401D02*
X165492401Y-120407401D01*
D43*
X187960000Y-74930000D02*
X190500000Y-72390000D01*
X194310000Y-36830000D02*
X166370000Y-36830000D01*
X197906900Y-72390000D02*
X200660000Y-69636900D01*
D42*
X170422599Y-120407401D02*
X172720000Y-120407401D01*
X162560000Y-120015000D02*
X165100000Y-120015000D01*
D43*
X187960000Y-110490000D02*
X187960000Y-74930000D01*
D42*
X183122599Y-120407401D02*
X170422599Y-120407401D01*
X172720000Y-120407401D02*
X172720000Y-118110000D01*
D43*
X195580000Y-113030000D02*
X190500000Y-113030000D01*
X162560000Y-33020000D02*
X162560000Y-24070000D01*
X190500000Y-113030000D02*
X187960000Y-110490000D01*
D42*
X168275000Y-120407401D02*
X170422599Y-120407401D01*
D43*
X195580000Y-72390000D02*
X197906900Y-72390000D01*
X200660000Y-43180000D02*
X194310000Y-36830000D01*
X190500000Y-72390000D02*
X195580000Y-72390000D01*
D42*
X190500000Y-113030000D02*
X183122599Y-120407401D01*
D43*
X200660000Y-69636900D02*
X200660000Y-43180000D01*
X166370000Y-36830000D02*
X162560000Y-33020000D01*
D42*
X165492401Y-120407401D02*
X165100000Y-120015000D01*
%TO.N,T1CLK*%
X117136000Y-85090000D02*
X117136000Y-79714000D01*
X125095000Y-67945000D02*
X127635000Y-65405000D01*
X127635000Y-65405000D02*
X127635000Y-50800000D01*
X121285000Y-67945000D02*
X125095000Y-67945000D01*
X117136000Y-79714000D02*
X118745000Y-78105000D01*
X118745000Y-70485000D02*
X121285000Y-67945000D01*
X118745000Y-78105000D02*
X118745000Y-70485000D01*
%TO.N,+24V*%
X191135000Y-51435000D02*
X191770000Y-50800000D01*
X191770000Y-50800000D02*
X195580000Y-50800000D01*
X190500000Y-51435000D02*
X191135000Y-51435000D01*
%TO.N,uRX*%
X123825000Y-124460000D02*
X122555000Y-124460000D01*
X128270000Y-99695000D02*
X128270000Y-120015000D01*
X128270000Y-120015000D02*
X123825000Y-124460000D01*
X122505000Y-95250000D02*
X123825000Y-95250000D01*
X123825000Y-95250000D02*
X128270000Y-99695000D01*
%TO.N,uTX*%
X127635000Y-100330000D02*
X127635000Y-118110000D01*
X123825000Y-121920000D02*
X122555000Y-121920000D01*
X122505000Y-97790000D02*
X125095000Y-97790000D01*
X127635000Y-118110000D02*
X123825000Y-121920000D01*
X125095000Y-97790000D02*
X127635000Y-100330000D01*
%TO.N,Net-(J6-Pin_2)*%
X157480000Y-29210000D02*
X153670000Y-33020000D01*
X157480000Y-24070000D02*
X157480000Y-29210000D01*
X153670000Y-38100000D02*
X153670000Y-33020000D01*
%TO.N,Net-(Q120-G)*%
X190500000Y-107950000D02*
X195580000Y-107950000D01*
%TO.N,Net-(Q121-B)*%
X157607000Y-115062000D02*
X156210000Y-113665000D01*
X156210000Y-113665000D02*
X154940000Y-113665000D01*
X161798000Y-115062000D02*
X158750000Y-115062000D01*
X167640000Y-107950000D02*
X167640000Y-109220000D01*
X158750000Y-115062000D02*
X157607000Y-115062000D01*
X167640000Y-109220000D02*
X161798000Y-115062000D01*
%TO.N,Net-(Q121-C)*%
X153035000Y-116205000D02*
X153035000Y-113030000D01*
X162560000Y-107950000D02*
X162560000Y-106680000D01*
X152400000Y-116840000D02*
X153035000Y-116205000D01*
X152400000Y-120015000D02*
X152400000Y-116840000D01*
X158115000Y-112395000D02*
X158750000Y-111760000D01*
X158750000Y-111760000D02*
X162560000Y-107950000D01*
X153035000Y-116205000D02*
X154940000Y-116205000D01*
X162560000Y-107950000D02*
X165100000Y-107950000D01*
X153670000Y-112395000D02*
X158115000Y-112395000D01*
X153035000Y-113030000D02*
X153670000Y-112395000D01*
%TO.N,Net-(Q122-B)*%
X175260000Y-107020000D02*
X174920000Y-106680000D01*
X169545000Y-106680000D02*
X168910000Y-107315000D01*
X174920000Y-106680000D02*
X169545000Y-106680000D01*
X168910000Y-107315000D02*
X168910000Y-111760000D01*
X175260000Y-118110000D02*
X175260000Y-107950000D01*
X175260000Y-107950000D02*
X175260000Y-107020000D01*
%TO.N,Net-(Q122-E)*%
X177800000Y-107950000D02*
X177800000Y-118110000D01*
X180340000Y-107950000D02*
X177800000Y-107950000D01*
%TO.N,Net-(D110-K)*%
X168275000Y-140335000D02*
X168910000Y-139700000D01*
X172720000Y-130810000D02*
X170180000Y-130810000D01*
X168910000Y-139700000D02*
X168910000Y-137922000D01*
X170942000Y-135890000D02*
X172720000Y-135890000D01*
X168910000Y-137922000D02*
X170942000Y-135890000D01*
X172720000Y-135890000D02*
X172720000Y-130810000D01*
X168275000Y-141267401D02*
X168275000Y-140335000D01*
%TO.N,Net-(Q110-G)*%
X190500000Y-130810000D02*
X195580000Y-130810000D01*
%TO.N,Net-(Q111-C)*%
X153670000Y-135255000D02*
X158115000Y-135255000D01*
X158115000Y-135255000D02*
X158750000Y-134620000D01*
X154940000Y-139065000D02*
X153035000Y-139065000D01*
X153035000Y-135890000D02*
X153670000Y-135255000D01*
X153035000Y-139065000D02*
X153035000Y-135890000D01*
X152400000Y-142875000D02*
X152400000Y-139700000D01*
X162560000Y-130810000D02*
X158750000Y-134620000D01*
X162560000Y-130810000D02*
X162560000Y-129540000D01*
X165100000Y-130810000D02*
X162560000Y-130810000D01*
X152400000Y-139700000D02*
X153035000Y-139065000D01*
%TO.N,Net-(Q111-B)*%
X156210000Y-136525000D02*
X157607000Y-137922000D01*
X157607000Y-137922000D02*
X158750000Y-137922000D01*
X161798000Y-137922000D02*
X158750000Y-137922000D01*
X154940000Y-136525000D02*
X156210000Y-136525000D01*
X167640000Y-132080000D02*
X161798000Y-137922000D01*
X167640000Y-130810000D02*
X167640000Y-132080000D01*
%TO.N,Net-(Q112-B)*%
X175260000Y-130810000D02*
X175260000Y-130175000D01*
X169545000Y-129540000D02*
X174625000Y-129540000D01*
X168910000Y-134620000D02*
X168910000Y-130175000D01*
X175260000Y-130810000D02*
X175260000Y-140970000D01*
X175260000Y-130175000D02*
X174625000Y-129540000D01*
X168910000Y-130175000D02*
X169545000Y-129540000D01*
%TO.N,Net-(Q112-E)*%
X177800000Y-130810000D02*
X177800000Y-140970000D01*
X180340000Y-130810000D02*
X177800000Y-130810000D01*
%TO.N,Net-(Q210-B)*%
X141605000Y-136525000D02*
X144145000Y-139065000D01*
X144145000Y-142875000D02*
X144145000Y-139065000D01*
X141605000Y-134620000D02*
X141605000Y-136525000D01*
%TO.N,Net-(Q210-C)*%
X144145000Y-135255000D02*
X145415000Y-136525000D01*
X145415000Y-136525000D02*
X147320000Y-136525000D01*
X144145000Y-134620000D02*
X144145000Y-135255000D01*
%TO.N,Net-(R111-Pad1)*%
X153670000Y-133985000D02*
X152400000Y-132715000D01*
X152400000Y-132715000D02*
X152400000Y-129540000D01*
X154940000Y-133985000D02*
X153670000Y-133985000D01*
%TO.N,Net-(R210-Pad1)*%
X147320000Y-133985000D02*
X147320000Y-129540000D01*
%TO.N,/H Bridge/P1B*%
X133985000Y-142875000D02*
X130810000Y-139700000D01*
X130175000Y-82550000D02*
X121920000Y-82550000D01*
X130810000Y-128270000D02*
X135890000Y-123190000D01*
X135890000Y-123190000D02*
X135890000Y-88265000D01*
X130810000Y-139700000D02*
X130810000Y-128270000D01*
X135890000Y-88265000D02*
X130175000Y-82550000D01*
%TO.N,Net-(D120-K)*%
X170180000Y-107950000D02*
X172720000Y-107950000D01*
X172720000Y-113030000D02*
X172720000Y-107950000D01*
X168275000Y-117475000D02*
X168275000Y-118407401D01*
X168910000Y-116840000D02*
X168275000Y-117475000D01*
X172720000Y-113030000D02*
X170942000Y-113030000D01*
X170942000Y-113030000D02*
X168910000Y-115062000D01*
X168910000Y-115062000D02*
X168910000Y-116840000D01*
%TO.N,/H Bridge/GNDPWR_{out}*%
X191135000Y-61595000D02*
X195580000Y-57150000D01*
X185420000Y-61595000D02*
X191135000Y-61595000D01*
%TO.N,Net-(Q220-C)*%
X145415000Y-113665000D02*
X147320000Y-113665000D01*
X144145000Y-111760000D02*
X144145000Y-112395000D01*
X144145000Y-112395000D02*
X145415000Y-113665000D01*
%TO.N,Net-(Q220-B)*%
X141605000Y-111760000D02*
X141605000Y-113665000D01*
X144145000Y-116205000D02*
X144145000Y-120015000D01*
X141605000Y-113665000D02*
X144145000Y-116205000D01*
%TO.N,/H Bridge/P1A*%
X116840000Y-100330000D02*
X114300000Y-100330000D01*
X126832000Y-83820000D02*
X120015000Y-83820000D01*
X131996000Y-94531000D02*
X131996000Y-88984000D01*
X133985000Y-96520000D02*
X131996000Y-94531000D01*
X120015000Y-83820000D02*
X118745000Y-85090000D01*
X131996000Y-88984000D02*
X126832000Y-83820000D01*
X118745000Y-98425000D02*
X116840000Y-100330000D01*
X118745000Y-85090000D02*
X118745000Y-98425000D01*
%TO.N,/H Bridge/P1C*%
X133985000Y-78740000D02*
X129540000Y-78740000D01*
X128270000Y-77470000D02*
X121920000Y-77470000D01*
X129540000Y-78740000D02*
X128270000Y-77470000D01*
%TO.N,Net-(R121-Pad1)*%
X152400000Y-109855000D02*
X152400000Y-106680000D01*
X154940000Y-111125000D02*
X153670000Y-111125000D01*
X153670000Y-111125000D02*
X152400000Y-109855000D01*
%TO.N,Net-(R220-Pad1)*%
X147320000Y-111125000D02*
X147320000Y-106680000D01*
%TO.N,/H Bridge/P1D*%
X128905000Y-114935000D02*
X128905000Y-87630000D01*
X126365000Y-85090000D02*
X121920000Y-85090000D01*
X133985000Y-120015000D02*
X128905000Y-114935000D01*
X128905000Y-87630000D02*
X126365000Y-85090000D01*
%TO.N,Net-(Q130-G)*%
X190500000Y-87630000D02*
X195580000Y-87630000D01*
%TO.N,Net-(Q131-B)*%
X168910000Y-90805000D02*
X175260000Y-90805000D01*
X175260000Y-90805000D02*
X175260000Y-95885000D01*
X175260000Y-87630000D02*
X175260000Y-90805000D01*
%TO.N,Net-(Q131-E)*%
X177800000Y-87630000D02*
X180340000Y-87630000D01*
X177800000Y-87630000D02*
X177800000Y-95885000D01*
%TO.N,Net-(Q230-B)*%
X144145000Y-93345000D02*
X141605000Y-90805000D01*
X144145000Y-93345000D02*
X144145000Y-96520000D01*
X141605000Y-90805000D02*
X141605000Y-88900000D01*
%TO.N,Net-(Q230-C)*%
X145415000Y-90805000D02*
X147320000Y-90805000D01*
X144145000Y-89535000D02*
X145415000Y-90805000D01*
X144145000Y-88900000D02*
X144145000Y-89535000D01*
%TO.N,Net-(R131-Pad1)*%
X154940000Y-88265000D02*
X154940000Y-86995000D01*
X154940000Y-86995000D02*
X156845000Y-85090000D01*
X156845000Y-85090000D02*
X158750000Y-85090000D01*
%TO.N,Net-(R132-Pad1)*%
X154940000Y-93345000D02*
X158750000Y-93345000D01*
X158750000Y-93345000D02*
X158750000Y-96520000D01*
X158750000Y-93345000D02*
X158750000Y-90805000D01*
%TO.N,Net-(R230-Pad1)*%
X147320000Y-88265000D02*
X147320000Y-85090000D01*
%TO.N,Net-(Q140-G)*%
X190500000Y-69850000D02*
X195580000Y-69850000D01*
%TO.N,Net-(Q141-E)*%
X180340000Y-69850000D02*
X177800000Y-69850000D01*
X177800000Y-69850000D02*
X177800000Y-78105000D01*
%TO.N,Net-(Q141-B)*%
X168910000Y-73025000D02*
X175260000Y-73025000D01*
X175260000Y-73025000D02*
X175260000Y-78105000D01*
X175260000Y-69850000D02*
X175260000Y-73025000D01*
%TO.N,Net-(R141-Pad1)*%
X154940000Y-69215000D02*
X156845000Y-67310000D01*
X156845000Y-67310000D02*
X158750000Y-67310000D01*
X154940000Y-70485000D02*
X154940000Y-69215000D01*
%TO.N,Net-(R142-Pad1)*%
X158750000Y-73025000D02*
X158750000Y-75565000D01*
X154940000Y-75565000D02*
X158750000Y-75565000D01*
X158750000Y-75565000D02*
X158750000Y-78740000D01*
%TO.N,Net-(R240-Pad1)*%
X147320000Y-70485000D02*
X147320000Y-67310000D01*
%TO.N,Net-(Q240-B)*%
X144145000Y-75565000D02*
X141605000Y-73025000D01*
X144145000Y-78740000D02*
X144145000Y-75565000D01*
X141605000Y-73025000D02*
X141605000Y-71120000D01*
%TO.N,Net-(Q240-C)*%
X144145000Y-71120000D02*
X144145000Y-71755000D01*
X144145000Y-71755000D02*
X145415000Y-73025000D01*
X147320000Y-73025000D02*
X145415000Y-73025000D01*
%TO.N,Net-(D901-A)*%
X193040000Y-40640000D02*
X195580000Y-43180000D01*
X180340000Y-46990000D02*
X182880000Y-46990000D01*
X189230000Y-40640000D02*
X193040000Y-40640000D01*
X185420000Y-44450000D02*
X189230000Y-40640000D01*
X182880000Y-44450000D02*
X182880000Y-47625000D01*
X179070000Y-45720000D02*
X180340000Y-46990000D01*
X182880000Y-44450000D02*
X185420000Y-44450000D01*
X179070000Y-44450000D02*
X179070000Y-45720000D01*
X195580000Y-45720000D02*
X195580000Y-43180000D01*
%TO.N,Net-(U901-VO)*%
X170815000Y-46990000D02*
X170815000Y-51435000D01*
X161925000Y-55245000D02*
X163830000Y-53340000D01*
X170815000Y-51435000D02*
X168910000Y-53340000D01*
X160655000Y-55245000D02*
X161925000Y-55245000D01*
X163830000Y-53340000D02*
X168910000Y-53340000D01*
X168910000Y-53340000D02*
X168910000Y-55165000D01*
%TO.N,Net-(U902-V_{IN+})*%
X160655000Y-52705000D02*
X159385000Y-52705000D01*
X158115000Y-56515000D02*
X159385000Y-57785000D01*
X172085000Y-61595000D02*
X175260000Y-61595000D01*
X168275000Y-57785000D02*
X172085000Y-61595000D01*
X159385000Y-52705000D02*
X158115000Y-53975000D01*
X159385000Y-57785000D02*
X165100000Y-57785000D01*
X165100000Y-55245000D02*
X165100000Y-57785000D01*
X165100000Y-57785000D02*
X168275000Y-57785000D01*
X158115000Y-53975000D02*
X158115000Y-56515000D01*
D43*
%TO.N,Net-(J5-Pin_2)*%
X177800000Y-24070000D02*
X186950000Y-24070000D01*
D42*
%TO.N,Net-(U902-V_{OUT})*%
X154940000Y-53340000D02*
X154305000Y-52705000D01*
X153035000Y-58420000D02*
X154940000Y-56515000D01*
X154305000Y-52705000D02*
X153035000Y-52705000D01*
X154940000Y-56515000D02*
X154940000Y-53340000D01*
%TO.N,Net-(U410-VUSB)*%
X111125000Y-128270000D02*
X112395000Y-127000000D01*
X112395000Y-127000000D02*
X114300000Y-127000000D01*
X111125000Y-129620000D02*
X111125000Y-128270000D01*
%TO.N,Net-(DS300-VO)*%
X105410000Y-38735000D02*
X102235000Y-38735000D01*
X109220000Y-34925000D02*
X105410000Y-38735000D01*
X102235000Y-38735000D02*
X100965000Y-40005000D01*
X100965000Y-40005000D02*
X100965000Y-44450000D01*
X100965000Y-44450000D02*
X102235000Y-45720000D01*
%TO.N,Net-(J411-D+)*%
X114300000Y-144780000D02*
X114340000Y-144780000D01*
X114340000Y-144780000D02*
X116245000Y-146685000D01*
X116205000Y-139700000D02*
X114300000Y-141605000D01*
X114300000Y-132080000D02*
X115570000Y-132080000D01*
X116205000Y-132715000D02*
X116205000Y-139700000D01*
X114300000Y-141605000D02*
X114300000Y-144780000D01*
X115570000Y-132080000D02*
X116205000Y-132715000D01*
%TO.N,Net-(J411-D-)*%
X119380000Y-130810000D02*
X120015000Y-131445000D01*
X116245000Y-143340000D02*
X116245000Y-142200000D01*
X114300000Y-129540000D02*
X115570000Y-130810000D01*
X120015000Y-131445000D02*
X120015000Y-138430000D01*
X115570000Y-130810000D02*
X119380000Y-130810000D01*
X116245000Y-142200000D02*
X120015000Y-138430000D01*
%TO.N,Net-(R310-Pad1)*%
X98425000Y-126260000D02*
X98425000Y-121285000D01*
X93875000Y-130810000D02*
X98425000Y-126260000D01*
X112395000Y-107315000D02*
X98425000Y-121285000D01*
%TO.N,Net-(R311-Pad1)*%
X102235000Y-120650000D02*
X102235000Y-125730000D01*
X90170000Y-133350000D02*
X82630000Y-125810000D01*
X112395000Y-110490000D02*
X102235000Y-120650000D01*
X102235000Y-125730000D02*
X94615000Y-133350000D01*
X94615000Y-133350000D02*
X90170000Y-133350000D01*
X82630000Y-125810000D02*
X79375000Y-125810000D01*
%TO.N,Net-(R312-Pad1)*%
X106045000Y-120015000D02*
X112395000Y-113665000D01*
X105410000Y-124460000D02*
X93345000Y-136525000D01*
X93345000Y-136525000D02*
X81915000Y-136525000D01*
X106045000Y-124460000D02*
X105410000Y-124460000D01*
X106045000Y-124460000D02*
X106045000Y-120015000D01*
X81915000Y-136525000D02*
X79375000Y-133985000D01*
X79375000Y-133985000D02*
X79375000Y-130810000D01*
%TO.N,/Disp & encoder/SDO*%
X124460000Y-104775000D02*
X123825000Y-105410000D01*
X111125000Y-104775000D02*
X111125000Y-53975000D01*
X123825000Y-100330000D02*
X124460000Y-100965000D01*
X124460000Y-100965000D02*
X124460000Y-104775000D01*
X123825000Y-105410000D02*
X111760000Y-105410000D01*
X122505000Y-100330000D02*
X123825000Y-100330000D01*
X111125000Y-53975000D02*
X112395000Y-52705000D01*
X117475000Y-52705000D02*
X118745000Y-51435000D01*
X118745000Y-51435000D02*
X122005000Y-51435000D01*
X111760000Y-105410000D02*
X111125000Y-104775000D01*
X112395000Y-52705000D02*
X117475000Y-52705000D01*
%TO.N,/Disp & encoder/SCL*%
X124460000Y-65405000D02*
X123190000Y-66675000D01*
X114300000Y-66675000D02*
X112395000Y-68580000D01*
X112395000Y-102235000D02*
X113030000Y-102870000D01*
X123190000Y-66675000D02*
X114300000Y-66675000D01*
X112395000Y-68580000D02*
X112395000Y-102235000D01*
X124460000Y-61510000D02*
X124460000Y-65405000D01*
X122005000Y-59055000D02*
X124460000Y-61510000D01*
X113030000Y-102870000D02*
X114885000Y-102870000D01*
%TO.N,/Disp & encoder/SDA{slash}SDI*%
X111760000Y-104140000D02*
X112395000Y-104775000D01*
X113030000Y-66040000D02*
X111760000Y-67310000D01*
X116205000Y-66040000D02*
X113030000Y-66040000D01*
X122005000Y-64135000D02*
X118110000Y-64135000D01*
X122505000Y-104190000D02*
X122505000Y-102870000D01*
X111760000Y-67310000D02*
X111760000Y-104140000D01*
X121920000Y-104775000D02*
X122505000Y-104190000D01*
X118110000Y-64135000D02*
X116205000Y-66040000D01*
X112395000Y-104775000D02*
X121920000Y-104775000D01*
%TO.N,/Disp & encoder/DISP*%
X116461000Y-69594000D02*
X116461000Y-96214000D01*
X123825000Y-67310000D02*
X118745000Y-67310000D01*
X116461000Y-96214000D02*
X114885000Y-97790000D01*
X121920000Y-56515000D02*
X125730000Y-60325000D01*
X125730000Y-65405000D02*
X123825000Y-67310000D01*
X118745000Y-67310000D02*
X116461000Y-69594000D01*
X125730000Y-60325000D02*
X125730000Y-65405000D01*
%TO.N,/MCU & USB/AN0*%
X142875000Y-58420000D02*
X142875000Y-56745000D01*
X142875000Y-56745000D02*
X146050000Y-53570000D01*
%TD*%
%TA.AperFunction,Conductor*%
%TO.N,+24V*%
G36*
X218725677Y-125749685D02*
G01*
X218746319Y-125766319D01*
X219673681Y-126693681D01*
X219707166Y-126755004D01*
X219710000Y-126781362D01*
X219710000Y-139918638D01*
X219690315Y-139985677D01*
X219673681Y-140006319D01*
X218746319Y-140933681D01*
X218684996Y-140967166D01*
X218658638Y-140970000D01*
X208061362Y-140970000D01*
X207994323Y-140950315D01*
X207973681Y-140933681D01*
X207046319Y-140006319D01*
X207012834Y-139944996D01*
X207010000Y-139918638D01*
X207010000Y-126781362D01*
X207029685Y-126714323D01*
X207046319Y-126693681D01*
X207973681Y-125766319D01*
X208035004Y-125732834D01*
X208061362Y-125730000D01*
X218658638Y-125730000D01*
X218725677Y-125749685D01*
G37*
%TD.AperFunction*%
%TD*%
%TA.AperFunction,Conductor*%
%TO.N,/H Bridge/Out_{1}*%
G36*
X218725677Y-82569685D02*
G01*
X218746319Y-82586319D01*
X219673681Y-83513681D01*
X219707166Y-83575004D01*
X219710000Y-83601362D01*
X219710000Y-96738638D01*
X219690315Y-96805677D01*
X219673681Y-96826319D01*
X218746319Y-97753681D01*
X218684996Y-97787166D01*
X218658638Y-97790000D01*
X208061362Y-97790000D01*
X207994323Y-97770315D01*
X207973681Y-97753681D01*
X207046319Y-96826319D01*
X207012834Y-96764996D01*
X207010000Y-96738638D01*
X207010000Y-83601362D01*
X207029685Y-83534323D01*
X207046319Y-83513681D01*
X207973681Y-82586319D01*
X208035004Y-82552834D01*
X208061362Y-82550000D01*
X218658638Y-82550000D01*
X218725677Y-82569685D01*
G37*
%TD.AperFunction*%
%TD*%
%TA.AperFunction,Conductor*%
%TO.N,+12V*%
G36*
X218725677Y-40659685D02*
G01*
X218746319Y-40676319D01*
X219673681Y-41603681D01*
X219707166Y-41665004D01*
X219710000Y-41691362D01*
X219710000Y-54828638D01*
X219690315Y-54895677D01*
X219673681Y-54916319D01*
X218746319Y-55843681D01*
X218684996Y-55877166D01*
X218658638Y-55880000D01*
X208061362Y-55880000D01*
X207994323Y-55860315D01*
X207973681Y-55843681D01*
X207046319Y-54916319D01*
X207012834Y-54854996D01*
X207010000Y-54828638D01*
X207010000Y-41691362D01*
X207029685Y-41624323D01*
X207046319Y-41603681D01*
X207973681Y-40676319D01*
X208035004Y-40642834D01*
X208061362Y-40640000D01*
X218658638Y-40640000D01*
X218725677Y-40659685D01*
G37*
%TD.AperFunction*%
%TD*%
%TA.AperFunction,Conductor*%
%TO.N,+24V*%
G36*
X218725677Y-102889685D02*
G01*
X218746319Y-102906319D01*
X219673681Y-103833681D01*
X219707166Y-103895004D01*
X219710000Y-103921362D01*
X219710000Y-117058638D01*
X219690315Y-117125677D01*
X219673681Y-117146319D01*
X218746319Y-118073681D01*
X218684996Y-118107166D01*
X218658638Y-118110000D01*
X208061362Y-118110000D01*
X207994323Y-118090315D01*
X207973681Y-118073681D01*
X207046319Y-117146319D01*
X207012834Y-117084996D01*
X207010000Y-117058638D01*
X207010000Y-103921362D01*
X207029685Y-103854323D01*
X207046319Y-103833681D01*
X207973681Y-102906319D01*
X208035004Y-102872834D01*
X208061362Y-102870000D01*
X218658638Y-102870000D01*
X218725677Y-102889685D01*
G37*
%TD.AperFunction*%
%TD*%
%TA.AperFunction,Conductor*%
%TO.N,/H Bridge/Out_{2}*%
G36*
X218725677Y-64789685D02*
G01*
X218746319Y-64806319D01*
X219673681Y-65733681D01*
X219707166Y-65795004D01*
X219710000Y-65821362D01*
X219710000Y-78958638D01*
X219690315Y-79025677D01*
X219673681Y-79046319D01*
X218746319Y-79973681D01*
X218684996Y-80007166D01*
X218658638Y-80010000D01*
X208061362Y-80010000D01*
X207994323Y-79990315D01*
X207973681Y-79973681D01*
X207046319Y-79046319D01*
X207012834Y-78984996D01*
X207010000Y-78958638D01*
X207010000Y-65821362D01*
X207029685Y-65754323D01*
X207046319Y-65733681D01*
X207973681Y-64806319D01*
X208035004Y-64772834D01*
X208061362Y-64770000D01*
X218658638Y-64770000D01*
X218725677Y-64789685D01*
G37*
%TD.AperFunction*%
%TD*%
M02*
